<svg width="21" height="20" viewBox="0 0 21 20" fill="none" xmlns="http://www.w3.org/2000/svg">
<path d="M2.95346 0.00574075C3.51 0.00289908 3.51 0.00289908 4.07777 0C4.48438 0.00107569 4.89099 0.00230833 5.2976 0.00368655C5.71301 0.00328185 6.12842 0.0026987 6.54384 0.00194415C7.41485 0.00105743 8.28583 0.00234832 9.15685 0.00515384C10.2745 0.00857792 11.3921 0.00660673 12.5097 0.00300679C13.3677 0.000837247 14.2256 0.00152527 15.0835 0.00308359C15.4956 0.00348511 15.9078 0.00299039 16.3199 0.00159338C16.8955 7.07917e-05 17.471 0.00280209 18.0465 0.00574075C18.3744 0.0062189 18.7022 0.00669705 19.04 0.00718969C19.8155 0.0835068 19.8155 0.0835068 20.4165 0.684506C20.4928 1.46004 20.4928 1.46004 20.4943 2.45346C20.4962 2.82449 20.498 3.19551 20.5 3.57777C20.4989 3.98438 20.4977 4.39099 20.4963 4.7976C20.4967 5.21301 20.4973 5.62842 20.4981 6.04384C20.4989 6.91485 20.4977 7.78583 20.4948 8.65685C20.4914 9.77451 20.4934 10.8921 20.497 12.0097C20.4992 12.8677 20.4985 13.7256 20.4969 14.5835C20.4965 14.9956 20.497 15.4078 20.4984 15.8199C20.4999 16.3955 20.4972 16.971 20.4943 17.5465C20.4938 17.8744 20.4933 18.2022 20.4928 18.54C20.4165 19.3155 20.4165 19.3155 19.8155 19.9165C19.04 19.9928 19.04 19.9928 18.0465 19.9943C17.6755 19.9962 17.3045 19.998 16.9222 20C16.5156 19.9989 16.109 19.9977 15.7024 19.9963C15.287 19.9967 14.8716 19.9973 14.4562 19.9981C13.5851 19.9989 12.7142 19.9977 11.8432 19.9948C10.7255 19.9914 9.60792 19.9934 8.49027 19.997C7.63235 19.9992 6.77445 19.9985 5.91653 19.9969C5.50437 19.9965 5.09222 19.997 4.68006 19.9984C4.10453 19.9999 3.52899 19.9972 2.95346 19.9943C2.62563 19.9938 2.2978 19.9933 1.96004 19.9928C1.18451 19.9165 1.18451 19.9165 0.583507 19.3155C0.50719 18.54 0.50719 18.54 0.505741 17.5465C0.503846 17.1755 0.501952 16.8045 0.5 16.4222C0.501076 16.0156 0.502308 15.609 0.503687 15.2024C0.503282 14.787 0.502699 14.3716 0.501944 13.9562C0.501057 13.0851 0.502348 12.2142 0.505154 11.3432C0.508578 10.2255 0.506607 9.10792 0.503007 7.99027C0.500837 7.13235 0.501525 6.27445 0.503084 5.41653C0.503485 5.00437 0.50299 4.59222 0.501593 4.18006C0.500071 3.60453 0.502802 3.02899 0.505741 2.45346C0.506219 2.12563 0.506697 1.7978 0.50719 1.46004C0.662996 -0.123257 1.59942 0.00771567 2.95346 0.00574075ZM2.38651 1.88651C2.38651 3.07648 2.38651 4.26646 2.38651 5.4925C7.74141 5.4925 13.0963 5.4925 18.6135 5.4925C18.6135 4.30252 18.6135 3.11254 18.6135 1.88651C13.2586 1.88651 7.90368 1.88651 2.38651 1.88651ZM6.293 8.4975C6.293 8.89416 6.293 9.29082 6.293 9.6995C6.68966 9.6995 7.08632 9.6995 7.495 9.6995C7.495 9.30284 7.495 8.90618 7.495 8.4975C7.09834 8.4975 6.70168 8.4975 6.293 8.4975ZM9.899 8.4975C9.899 8.89416 9.899 9.29082 9.899 9.6995C10.2957 9.6995 10.6923 9.6995 11.101 9.6995C11.101 9.30284 11.101 8.90618 11.101 8.4975C10.7043 8.4975 10.3077 8.4975 9.899 8.4975ZM13.505 8.4975C13.505 8.89416 13.505 9.29082 13.505 9.6995C13.9017 9.6995 14.2983 9.6995 14.707 9.6995C14.707 9.30284 14.707 8.90618 14.707 8.4975C14.3103 8.4975 13.9137 8.4975 13.505 8.4975ZM17.111 8.4975C17.111 8.89416 17.111 9.29082 17.111 9.6995C17.5077 9.6995 17.9043 9.6995 18.313 9.6995C18.313 9.30284 18.313 8.90618 18.313 8.4975C17.9163 8.4975 17.5197 8.4975 17.111 8.4975ZM2.68701 12.1035C2.68701 12.5002 2.68701 12.8968 2.68701 13.3055C3.08367 13.3055 3.48032 13.3055 3.889 13.3055C3.889 12.9088 3.889 12.5122 3.889 12.1035C3.49234 12.1035 3.09569 12.1035 2.68701 12.1035ZM6.293 12.1035C6.293 12.5002 6.293 12.8968 6.293 13.3055C6.68966 13.3055 7.08632 13.3055 7.495 13.3055C7.495 12.9088 7.495 12.5122 7.495 12.1035C7.09834 12.1035 6.70168 12.1035 6.293 12.1035ZM9.899 12.1035C9.899 12.5002 9.899 12.8968 9.899 13.3055C10.2957 13.3055 10.6923 13.3055 11.101 13.3055C11.101 12.9088 11.101 12.5122 11.101 12.1035C10.7043 12.1035 10.3077 12.1035 9.899 12.1035ZM13.505 12.1035C13.505 12.5002 13.505 12.8968 13.505 13.3055C13.9017 13.3055 14.2983 13.3055 14.707 13.3055C14.707 12.9088 14.707 12.5122 14.707 12.1035C14.3103 12.1035 13.9137 12.1035 13.505 12.1035ZM17.111 12.1035C17.111 12.5002 17.111 12.8968 17.111 13.3055C17.5077 13.3055 17.9043 13.3055 18.313 13.3055C18.313 12.9088 18.313 12.5122 18.313 12.1035C17.9163 12.1035 17.5197 12.1035 17.111 12.1035ZM2.68701 15.7095C2.68701 16.1062 2.68701 16.5028 2.68701 16.9115C3.08367 16.9115 3.48032 16.9115 3.889 16.9115C3.889 16.5148 3.889 16.1182 3.889 15.7095C3.49234 15.7095 3.09569 15.7095 2.68701 15.7095ZM6.293 15.7095C6.293 16.1062 6.293 16.5028 6.293 16.9115C6.68966 16.9115 7.08632 16.9115 7.495 16.9115C7.495 16.5148 7.495 16.1182 7.495 15.7095C7.09834 15.7095 6.70168 15.7095 6.293 15.7095ZM9.899 15.7095C9.899 16.1062 9.899 16.5028 9.899 16.9115C10.2957 16.9115 10.6923 16.9115 11.101 16.9115C11.101 16.5148 11.101 16.1182 11.101 15.7095C10.7043 15.7095 10.3077 15.7095 9.899 15.7095ZM13.505 15.7095C13.505 16.1062 13.505 16.5028 13.505 16.9115C13.9017 16.9115 14.2983 16.9115 14.707 16.9115C14.707 16.5148 14.707 16.1182 14.707 15.7095C14.3103 15.7095 13.9137 15.7095 13.505 15.7095Z" fill="#CFCFCF"/>
</svg>
