<svg width="20" height="20" viewBox="0 0 20 20" fill="none" xmlns="http://www.w3.org/2000/svg">
<path d="M16.6756 2.0126C18.2285 3.16064 19.2935 4.67925 19.8855 6.51919C20.133 8.94393 20.089 11.0486 18.6205 13.0972C18.0355 13.793 18.0355 13.793 17.3555 14.3622C17.213 14.4865 17.0705 14.6108 16.9236 14.7388C14.4907 16.7357 12.0624 17.0312 8.99844 16.9736C7.18326 16.9831 6.30001 17.479 4.95845 18.6633C3.85584 19.2697 2.90173 19.211 1.66943 19.1693C1.80759 18.2021 2.23569 17.8003 2.93443 17.1453C3.34516 16.3238 3.30677 15.7782 3.18744 14.8682C2.83806 14.4298 2.83806 14.4298 2.38099 14.0302C0.847225 12.6149 0.115511 11.1838 0.00181424 9.07317C-0.0355837 6.74799 0.501 5.07779 2.00149 3.29342C2.22587 3.10556 2.45025 2.91771 2.68143 2.72416C2.89521 2.53778 2.89521 2.53778 3.11331 2.34763C7.01036 -0.850963 12.5589 -0.602125 16.6756 2.0126Z" fill="#CFCFCF"/>
</svg>
