<svg width="21" height="21" viewBox="0 0 21 21" fill="none" xmlns="http://www.w3.org/2000/svg">
<path d="M11.3346 0.106409C12.0659 0.572319 12.6839 1.13633 13.3168 1.72662C13.6537 2.03072 13.9909 2.33452 14.3283 2.63799C14.5487 2.84162 14.5487 2.84162 14.7735 3.04937C15.2432 3.47274 15.2432 3.47274 16.0229 3.96733C16.1139 3.5123 16.2049 3.05726 16.2987 2.58843C17.1177 2.58843 17.9368 2.58843 18.7807 2.58843C18.7846 2.85434 18.7885 3.12026 18.7925 3.39423C18.8123 3.91681 18.8123 3.91681 18.8324 4.44995C18.8468 4.96827 18.8468 4.96827 18.8615 5.49705C19.1014 6.6686 19.4865 6.87989 20.4354 7.55248C20.5215 8.44876 20.5215 8.44876 20.4354 9.20716C19.8893 9.20716 19.3433 9.20716 18.7807 9.20716C18.7836 9.51338 18.7865 9.81959 18.7894 10.1351C18.7994 11.2689 18.8057 12.4026 18.811 13.5364C18.8138 14.0276 18.8175 14.5187 18.8223 15.0099C18.829 15.7149 18.8321 16.42 18.8345 17.1251C18.8374 17.3454 18.8402 17.5658 18.8432 17.7928C18.8433 18.3326 18.8144 18.8723 18.7807 19.411C18.0614 20.1303 17.7592 20.0323 16.7576 20.034C16.4502 20.0357 16.1428 20.0374 15.8261 20.0392C15.3263 20.0376 15.3263 20.0376 14.8163 20.0358C14.3053 20.0366 14.3053 20.0366 13.7839 20.0374C12.8774 20.0379 11.9708 20.0357 11.0643 20.0326C10.5078 20.0315 9.95144 20.0326 9.39499 20.0345C8.32937 20.0379 7.26383 20.0375 6.1982 20.0358C5.86497 20.037 5.53173 20.0381 5.1884 20.0392C4.88103 20.0375 4.57366 20.0358 4.25697 20.034C3.9855 20.0335 3.71403 20.0331 3.43434 20.0326C2.78542 19.9626 2.78542 19.9626 2.23386 19.411C2.18553 18.6397 2.17004 17.8961 2.18 17.1251C2.18117 16.7865 2.18117 16.7865 2.18236 16.4411C2.18545 15.7189 2.19238 14.9968 2.19939 14.2746C2.20215 13.7855 2.20467 13.2965 2.20693 12.8074C2.21302 11.6073 2.22254 10.4072 2.23386 9.20716C1.68782 9.20716 1.14177 9.20716 0.579179 9.20716C0.473607 8.46815 0.473607 8.46816 0.579179 7.55248C1.13842 6.99324 1.62855 6.58528 2.26833 6.1391C2.62267 5.87747 2.97636 5.61495 3.32944 5.35162C3.51257 5.2164 3.69569 5.08118 3.88437 4.94186C4.79738 4.24698 5.66073 3.49682 6.52569 2.74356C6.98061 2.34825 7.43561 1.95325 7.89396 1.56193C8.26934 1.23696 8.63425 0.900003 8.99802 0.562093C9.88919 -0.0334308 10.2806 -0.100989 11.3346 0.106409ZM12.9893 10.8618C12.9893 13.046 12.9893 15.2302 12.9893 17.4806C14.0814 17.4806 15.1735 17.4806 16.2987 17.4806C16.2987 15.2964 16.2987 13.1122 16.2987 10.8618C15.2066 10.8618 14.1145 10.8618 12.9893 10.8618Z" fill="#CFCFCF"/>
</svg>
