<svg width="39" height="41" viewBox="0 0 39 41" fill="none" xmlns="http://www.w3.org/2000/svg">
<path d="M13.4947 0.726461C13.5837 0.726192 13.6728 0.725922 13.7645 0.725644C14.0608 0.724959 14.357 0.7255 14.6532 0.726045C14.8665 0.72581 15.0797 0.725503 15.293 0.725127C15.8108 0.724422 16.3286 0.724523 16.8465 0.725025C17.2675 0.725417 17.6886 0.725468 18.1097 0.725281C18.1697 0.725254 18.2298 0.725228 18.2917 0.7252C18.4137 0.725145 18.5358 0.725089 18.6578 0.725032C19.8007 0.72454 20.9435 0.725105 22.0863 0.726035C23.0656 0.726807 24.0449 0.726673 25.0242 0.725876C26.1632 0.72495 27.3021 0.724588 28.441 0.725118C28.5626 0.725173 28.6842 0.725227 28.8057 0.725281C28.8955 0.725321 28.8955 0.725321 28.987 0.725361C29.4073 0.72551 29.8275 0.72526 30.2478 0.724852C30.8141 0.724315 31.3803 0.724701 31.9466 0.725698C32.1541 0.725926 32.3617 0.725862 32.5692 0.72548C32.8531 0.725006 33.1369 0.725602 33.4207 0.726461C33.5023 0.726076 33.5839 0.72569 33.668 0.725293C34.9647 0.732878 35.9696 1.0931 36.9378 1.95816C37.0004 2.01263 37.063 2.0671 37.1275 2.12322C37.8555 2.79725 38.4584 3.87297 38.5044 4.88325C38.5048 5.02761 38.5048 5.02761 38.5051 5.17489C38.5057 5.3417 38.5057 5.3417 38.5064 5.51188C38.5064 5.63557 38.5065 5.75926 38.5065 5.88295C38.5069 6.01414 38.5072 6.14533 38.5077 6.27652C38.5087 6.6376 38.5092 6.99869 38.5096 7.35977C38.5101 7.74903 38.5111 8.13828 38.512 8.52754C38.5141 9.46809 38.5154 10.4086 38.5165 11.3492C38.5168 11.615 38.5172 11.8807 38.5175 12.1465C38.5197 13.7975 38.5216 15.4486 38.5227 17.0996C38.523 17.482 38.5232 17.8645 38.5235 18.247C38.5235 18.342 38.5236 18.4371 38.5237 18.535C38.5248 20.0735 38.5276 21.612 38.5312 23.1505C38.5349 24.7308 38.5369 26.3111 38.5374 27.8914C38.5377 28.7784 38.5387 29.6653 38.5415 30.5523C38.544 31.308 38.5449 32.0637 38.5439 32.8194C38.5435 33.2046 38.5437 33.5898 38.5459 33.975C38.5478 34.3285 38.5478 34.682 38.5461 35.0356C38.5459 35.1626 38.5464 35.2896 38.5477 35.4166C38.5586 36.5461 38.3599 37.7766 37.6291 38.6828C37.5731 38.7527 37.5171 38.8225 37.4593 38.8945C36.6163 39.8857 35.6248 40.4535 34.3455 40.6703C34.0382 40.6937 33.7323 40.6948 33.4242 40.694C33.3344 40.6944 33.2447 40.6949 33.1523 40.6954C32.8532 40.6967 32.5541 40.6967 32.255 40.6968C32.0399 40.6974 31.8248 40.6982 31.6097 40.699C31.0264 40.7009 30.4432 40.7016 29.8599 40.7021C29.495 40.7023 29.1302 40.7029 28.7654 40.7035C27.7535 40.7052 26.7417 40.7066 25.7298 40.7069C25.6329 40.7069 25.6329 40.7069 25.5339 40.7069C25.4029 40.707 25.2719 40.707 25.1408 40.707C25.0758 40.707 25.0107 40.7071 24.9437 40.7071C24.8461 40.7071 24.8461 40.7071 24.7464 40.7071C23.6921 40.7074 22.6378 40.7098 21.5834 40.713C20.4986 40.7163 19.4139 40.718 18.3291 40.718C17.721 40.718 17.1128 40.7188 16.5047 40.7213C15.9323 40.7236 15.36 40.7237 14.7876 40.7223C14.5783 40.7222 14.369 40.7227 14.1597 40.7241C12.4333 40.7348 11.122 40.5746 9.82872 39.3184C8.33209 37.7425 8.36685 35.946 8.38334 33.893C8.38473 33.6461 8.38386 33.3992 8.38298 33.1523C8.38238 32.9126 8.38306 32.673 8.38413 32.4333C8.3847 32.2651 8.38434 32.0968 8.38395 31.9286C8.38979 31.3804 8.40301 30.9528 8.68142 30.4738C8.987 30.1763 9.28859 29.9641 9.72442 29.9493C10.2153 29.9775 10.5816 30.1177 10.9281 30.4738C11.1118 30.7669 11.1226 31.0022 11.123 31.3447C11.1236 31.4509 11.1242 31.5571 11.1248 31.6664C11.1248 31.723 11.1247 31.7795 11.1246 31.8378C11.1246 32.0159 11.1257 32.194 11.1271 32.3721C11.1311 32.8785 11.1333 33.3849 11.1338 33.8913C11.1343 34.2015 11.1364 34.5117 11.1395 34.822C11.1407 34.9961 11.1401 35.1702 11.1394 35.3443C11.1473 36.0887 11.2259 36.7396 11.6997 37.3381C11.7552 37.3826 11.8107 37.4272 11.8678 37.4731C11.9228 37.5194 11.9779 37.5658 12.0346 37.6135C12.5418 37.9312 13.0385 37.9302 13.6173 37.9283C13.749 37.9288 13.749 37.9288 13.8834 37.9294C14.1775 37.9305 14.4716 37.9304 14.7658 37.9303C14.9767 37.9308 15.1876 37.9314 15.3986 37.932C15.912 37.9334 16.4254 37.9339 16.9388 37.934C17.3562 37.9341 17.7736 37.9345 18.191 37.935C19.3751 37.9365 20.5592 37.9373 21.7433 37.9372C21.8071 37.9372 21.8709 37.9372 21.9366 37.9372C22.0005 37.9372 22.0644 37.9372 22.1302 37.9372C23.1654 37.9371 24.2006 37.9387 25.2358 37.9412C26.2994 37.9437 27.3629 37.9448 28.4265 37.9447C29.0234 37.9446 29.6202 37.9451 30.2171 37.947C30.7784 37.9487 31.3397 37.9487 31.901 37.9474C32.1069 37.9472 32.3129 37.9476 32.5188 37.9487C32.8001 37.95 33.0813 37.9492 33.3626 37.9479C33.4846 37.9492 33.4846 37.9492 33.6091 37.9506C34.2072 37.9443 34.6609 37.8035 35.1222 37.4147C35.1599 37.368 35.1977 37.3214 35.2366 37.2733C35.2755 37.2273 35.3144 37.1813 35.3544 37.1339C35.7797 36.4677 35.7649 35.8686 35.761 35.0941C35.7613 34.9651 35.7617 34.836 35.7622 34.707C35.7633 34.353 35.7628 33.9991 35.762 33.6451C35.7614 33.2631 35.7623 32.8811 35.763 32.4991C35.7641 31.751 35.7639 31.003 35.7631 30.2549C35.7626 29.6469 35.7625 29.0388 35.7628 28.4308C35.7628 28.3443 35.7628 28.2578 35.7629 28.1686C35.763 27.9928 35.763 27.817 35.7631 27.6412C35.7639 25.9927 35.763 24.3441 35.7616 22.6956C35.7605 21.2812 35.7607 19.8669 35.7619 18.4525C35.7633 16.81 35.7638 15.1675 35.763 13.525C35.7629 13.3498 35.7628 13.1746 35.7628 12.9994C35.7627 12.8702 35.7627 12.8702 35.7626 12.7383C35.7624 12.1311 35.7628 11.5238 35.7634 10.9166C35.7641 10.1765 35.7639 9.43642 35.7625 8.69632C35.7619 8.31874 35.7616 7.94117 35.7625 7.56359C35.7632 7.21782 35.7628 6.87207 35.7614 6.5263C35.7611 6.40134 35.7613 6.27638 35.7619 6.15143C35.772 5.06896 35.772 5.06896 35.269 4.14004C34.7883 3.73756 34.4253 3.50325 33.7971 3.5022C33.7222 3.50187 33.6472 3.50154 33.57 3.5012C33.488 3.50127 33.4061 3.50135 33.3216 3.50142C33.2342 3.50117 33.1469 3.50091 33.0568 3.50065C32.7632 3.49989 32.4695 3.49977 32.1758 3.49964C31.9656 3.49924 31.7554 3.4988 31.5452 3.49834C30.9736 3.4972 30.4019 3.49664 29.8302 3.49626C29.4732 3.49602 29.1162 3.49566 28.7592 3.49527C27.7705 3.49421 26.7819 3.49332 25.7933 3.49303C25.6984 3.493 25.6984 3.493 25.6016 3.49297C25.5382 3.49296 25.4748 3.49294 25.4094 3.49292C25.2809 3.49288 25.1525 3.49284 25.024 3.4928C24.9602 3.49278 24.8965 3.49276 24.8308 3.49274C23.7981 3.4924 22.7653 3.49089 21.7326 3.48888C20.672 3.48683 19.6115 3.48576 18.5509 3.48565C17.9556 3.48558 17.3602 3.48508 16.7649 3.48351C16.2049 3.48204 15.645 3.4819 15.085 3.48266C14.8794 3.48272 14.6739 3.48235 14.4683 3.48149C14.1878 3.4804 13.9073 3.4809 13.6267 3.4818C13.5453 3.48111 13.4639 3.48041 13.3801 3.47969C12.7047 3.48478 12.18 3.65412 11.6791 4.12626C11.129 4.74728 11.1385 5.55215 11.1438 6.33677C11.1425 6.50592 11.1413 6.67507 11.14 6.84423C11.1385 7.07877 11.1386 7.31329 11.1387 7.54784C11.1388 7.95978 11.1382 8.37171 11.1352 8.78365C11.1338 9.00234 11.1335 9.22104 11.1346 9.43974C11.1311 10.0185 11.1237 10.4699 10.709 10.9142C10.2411 11.272 9.95777 11.3587 9.3727 11.2906C8.89859 11.0717 8.61926 10.7297 8.42218 10.2536C8.36164 9.85205 8.36567 9.45607 8.37088 9.05062C8.37102 8.93397 8.37102 8.81733 8.37087 8.70068C8.37101 8.45692 8.37261 8.21322 8.37535 7.96947C8.37876 7.65998 8.37916 7.35058 8.37851 7.04107C8.37824 6.80026 8.3793 6.55947 8.38076 6.31866C8.38165 6.15002 8.3817 5.98137 8.38173 5.81272C8.40139 4.31168 8.8521 3.08306 9.90838 2.01284C10.9346 1.04815 12.112 0.719931 13.4947 0.726461Z" fill="#040404"/>
<path d="M7.58404 14.4531C7.86674 14.6864 7.97237 14.8598 8.01677 15.2267C8.04003 15.7478 8.00723 16.0763 7.64446 16.4753C7.42127 16.6862 7.18848 16.8831 6.95317 17.0802C6.77033 17.2444 6.58778 17.409 6.40567 17.574C6.26188 17.6851 6.26188 17.6851 6.08906 17.6851C6.08906 17.7421 6.08906 17.7991 6.08906 17.8579C5.96822 17.9797 5.96822 17.9797 5.79742 18.1225C5.42729 18.4358 5.07081 18.7619 4.71526 19.0916C4.53366 19.2405 4.53366 19.2405 4.36084 19.2405C4.36084 19.2975 4.36084 19.3545 4.36084 19.4133C4.4472 19.413 4.53356 19.4127 4.62254 19.4123C6.72334 19.4047 8.82413 19.399 10.9249 19.3954C11.9409 19.3936 12.9568 19.3912 13.9727 19.3872C14.8581 19.3838 15.7435 19.3815 16.629 19.3808C17.0978 19.3803 17.5667 19.3793 18.0356 19.3767C18.4769 19.3744 18.9182 19.3737 19.3595 19.3742C19.5214 19.3741 19.6834 19.3734 19.8454 19.3721C20.0666 19.3704 20.2877 19.3708 20.5089 19.3717C20.573 19.3707 20.637 19.3697 20.703 19.3687C21.2476 19.375 21.5366 19.5915 21.9347 19.9372C22.1524 20.3307 22.1372 20.7023 22.0751 21.1415C21.902 21.531 21.6473 21.7796 21.2817 22.0005C20.7107 22.2151 20.0547 22.1474 19.4526 22.1411C19.2907 22.141 19.1288 22.141 18.967 22.1413C18.5289 22.1414 18.0909 22.1389 17.6528 22.1358C17.1945 22.1331 16.7362 22.1329 16.2779 22.1324C15.4106 22.131 14.5433 22.1275 13.676 22.1232C12.6884 22.1183 11.7008 22.1159 10.7132 22.1138C8.68215 22.1093 6.65111 22.1017 4.62007 22.092C4.70254 22.1893 4.78515 22.2864 4.86783 22.3835C4.91382 22.4376 4.95981 22.4917 5.00719 22.5474C5.1556 22.7163 5.31253 22.865 5.48418 23.0102C5.5719 23.085 5.5719 23.085 5.66139 23.1614C5.8089 23.2843 5.95695 23.4066 6.10526 23.5286C6.34829 23.7338 6.34829 23.7338 6.54643 23.9333C6.70843 24.0944 6.8692 24.2473 7.04025 24.3978C7.10659 24.4565 7.10659 24.4565 7.17426 24.5164C7.26471 24.5962 7.35563 24.6754 7.44699 24.7541C7.79089 25.061 8.05178 25.3651 8.09508 25.8374C8.03792 26.2818 7.94989 26.5854 7.64446 26.9311C7.24592 27.228 6.9438 27.3355 6.4455 27.3094C5.83614 27.2008 5.28018 26.5546 4.85433 26.128C4.57144 25.8456 4.28065 25.5725 3.98819 25.3C3.93048 25.2462 3.87276 25.1924 3.8133 25.137C3.36506 24.7202 2.91213 24.3101 2.43988 23.9205C1.59959 23.2097 0.994185 22.3312 0.817985 21.2279C0.72866 20.055 0.982848 19.0693 1.6821 18.1171C2.04597 17.7012 2.46217 17.3406 2.88037 16.9806C3.08833 16.8005 3.29259 16.6166 3.49673 16.4321C3.8085 16.1508 4.12258 15.8725 4.43982 15.5974C4.57759 15.4759 4.71366 15.3524 4.84892 15.2281C4.92667 15.1567 5.00442 15.0853 5.08453 15.0117C5.15649 14.945 5.22844 14.8783 5.30258 14.8095C5.48418 14.6607 5.48418 14.6607 5.657 14.6607C5.657 14.6037 5.657 14.5466 5.657 14.4879C6.23979 13.9675 6.97294 14.0197 7.58404 14.4531Z" fill="#050505"/>
<path d="M10.9282 30.6465C11.101 30.8193 11.101 30.8193 11.1218 31.0468C11.1214 31.1431 11.121 31.2394 11.1206 31.3387C11.1206 31.4476 11.1206 31.5566 11.1206 31.6689C11.1197 31.7883 11.1188 31.9077 11.1179 32.027C11.1176 32.1488 11.1173 32.2706 11.1172 32.3925C11.1165 32.7132 11.1148 33.034 11.1129 33.3548C11.1111 33.682 11.1103 34.0093 11.1095 34.3365C11.1076 34.9787 11.1047 35.621 11.101 36.2632C11.0725 36.2632 11.044 36.2632 11.0146 36.2632C11.0137 36.1975 11.0128 36.1319 11.0119 36.0643C11.0035 35.4463 10.9946 34.8283 10.9853 34.2104C10.9805 33.8927 10.9759 33.5749 10.9716 33.2572C10.9675 32.9507 10.963 32.6443 10.9582 32.3378C10.9564 32.2207 10.9548 32.1037 10.9533 31.9866C10.9513 31.8229 10.9486 31.6593 10.946 31.4956C10.9446 31.4024 10.9433 31.3091 10.9419 31.213C10.9427 30.993 10.9427 30.993 10.8418 30.8193C10.8703 30.7623 10.8988 30.7052 10.9282 30.6465Z" fill="#131313"/>
<path d="M11.2734 37.1274C11.6566 37.2479 11.8674 37.439 12.1375 37.7323C11.8459 37.685 11.6984 37.6412 11.4463 37.4731C11.4463 37.4161 11.4463 37.359 11.4463 37.3003C11.3892 37.3003 11.3322 37.3003 11.2734 37.3003C11.2734 37.2432 11.2734 37.1862 11.2734 37.1274Z" fill="#151515"/>
</svg>
