<svg width="12" height="4" viewBox="0 0 12 4" fill="none" xmlns="http://www.w3.org/2000/svg">
<path d="M6 -2.71797e-05C6.30766 -2.71797e-05 6.60841 0.0912049 6.86422 0.262131C7.12003 0.433058 7.31941 0.676003 7.43715 0.960243C7.55488 1.24448 7.58569 1.55725 7.52567 1.859C7.46564 2.16075 7.31749 2.43792 7.09994 2.65547C6.8824 2.87302 6.60522 3.02117 6.30347 3.08119C6.00173 3.14122 5.68896 3.11041 5.40472 2.99267C5.12047 2.87494 4.87753 2.67556 4.7066 2.41975C4.53568 2.16394 4.44444 1.86319 4.44444 1.55553C4.44591 1.14342 4.61027 0.748608 4.90167 0.457201C5.19308 0.165795 5.58789 0.00143671 6 -2.71797e-05ZM3.11111 1.55553C3.11111 1.24787 3.01988 0.947117 2.84895 0.691308C2.67803 0.435498 2.43508 0.236119 2.15084 0.118383C1.8666 0.000646353 1.55383 -0.0301592 1.25208 0.0298622C0.950334 0.0898838 0.673161 0.238036 0.455612 0.455584C0.238064 0.673132 0.0899117 0.950306 0.0298903 1.25205C-0.0301312 1.5538 0.000673996 1.86657 0.11841 2.15081C0.236147 2.43505 0.435526 2.678 0.691336 2.84892C0.947146 3.01985 1.2479 3.11108 1.55556 3.11108C1.96766 3.10962 2.36248 2.94526 2.65388 2.65385C2.94529 2.36245 3.10965 1.96764 3.11111 1.55553ZM8.88889 1.55553C8.88889 1.86319 8.98012 2.16394 9.15105 2.41975C9.32197 2.67556 9.56492 2.87494 9.84916 2.99267C10.1334 3.11041 10.4462 3.14122 10.7479 3.08119C11.0497 3.02117 11.3268 2.87302 11.5444 2.65547C11.7619 2.43792 11.9101 2.16075 11.9701 1.859C12.0301 1.55725 11.9993 1.24448 11.8816 0.960243C11.7639 0.676003 11.5645 0.433058 11.3087 0.262131C11.0529 0.0912049 10.7521 -2.71797e-05 10.4444 -2.71797e-05C10.0323 0.00143671 9.63752 0.165795 9.34612 0.457201C9.05471 0.748608 8.89035 1.14342 8.88889 1.55553Z" fill="white"/>
</svg>
