<svg width="1227" height="924" viewBox="0 0 1227 924" fill="none" xmlns="http://www.w3.org/2000/svg">
<path d="M982 190.527C983.051 190.583 983.051 190.583 984.124 190.64C1019.51 192.867 1057.34 206.811 1086 227.527C1086.95 228.205 1086.95 228.205 1087.92 228.897C1096.16 234.791 1103.94 240.993 1111.29 247.964C1113.74 250.284 1116.26 252.501 1118.81 254.714C1129.5 264.315 1139.16 275.226 1148 286.527C1148.73 287.424 1149.45 288.321 1150.2 289.246C1208.17 362.187 1234.9 455.661 1224.43 547.982C1218.93 592.049 1206.08 633.015 1188 673.527C1187.47 674.718 1186.94 675.909 1186.39 677.137C1162.29 730.79 1129.44 779.904 1089.42 822.999C1087.92 824.609 1086.44 826.227 1084.96 827.847C1077.38 836.131 1069.75 844.285 1061.21 851.597C1059.05 853.479 1056.96 855.42 1054.88 857.375C1047.91 863.874 1040.57 869.757 1033 875.527C1032.36 876.018 1031.72 876.51 1031.06 877.016C1010.17 893.045 988.066 906.844 964.375 918.402C962.802 919.179 962.802 919.179 961.198 919.972C960.212 920.441 959.226 920.91 958.211 921.394C957.348 921.808 956.485 922.221 955.595 922.647C952.55 923.679 950.196 923.804 947 923.527C943.825 921.434 942.115 919.7 940 916.527C938.023 916.164 938.023 916.164 935.875 916.339C933.957 916.432 933.957 916.432 932 916.527C930.993 914.593 929.994 912.655 929 910.714C928.443 909.635 927.886 908.556 927.312 907.445C926 904.527 926 904.527 926 901.527C927.65 901.197 929.3 900.867 931 900.527C930.516 899.62 930.516 899.62 930.022 898.694C928.552 895.933 927.088 893.167 925.625 890.402C925.117 889.451 924.609 888.499 924.086 887.519C920.067 879.904 916.833 873.297 918 864.527C919.999 859.256 922.176 857.25 926.875 854.214C932.498 850.498 934.955 846.431 938 840.527C945.748 826.119 955.497 814.168 966.156 801.828C983.713 781.484 997.406 759.251 1009.66 735.382C1014.18 726.569 1018.82 717.984 1024.19 709.652C1034.73 693.262 1042 677.923 1044.88 658.464C1047.11 643.819 1052.08 633.81 1062.41 623.207C1067.36 618.08 1073.18 611.913 1074 604.527C1073.46 601.248 1072.64 598.1 1071.8 594.886C1069.22 584.009 1071.57 576.125 1077 566.527C1077.84 565.675 1078.68 564.823 1079.55 563.945C1081.35 560.684 1081.35 560.684 1080.24 557.763C1078.77 554.334 1077.15 551.031 1075.44 547.714C1065.44 527.589 1065.44 527.589 1065.75 516.589C1065.76 515.836 1065.76 515.082 1065.77 514.306C1065.84 508.839 1065.84 508.839 1067 506.527C1067.37 503.735 1067.7 500.952 1068 498.152C1068.16 496.623 1068.33 495.094 1068.5 493.566C1068.57 492.887 1068.64 492.209 1068.72 491.51C1069.01 489.466 1069.49 487.526 1070 485.527C1070.14 484.01 1070.22 482.487 1070.25 480.964C1070.28 480.2 1070.3 479.436 1070.33 478.648C1070.15 476.475 1070.15 476.475 1068.8 474.812C1067.04 473.351 1067.04 473.351 1064.65 473.175C1061.43 472.387 1060.16 471.203 1057.82 468.878C1057.06 468.126 1056.3 467.373 1055.51 466.597C1054.33 465.387 1054.33 465.387 1053.12 464.152C1052.32 463.332 1051.51 462.512 1050.68 461.668C1045.22 456.022 1040.46 450.635 1037 443.527C1036.61 442.748 1036.22 441.97 1035.82 441.168C1033.62 436.243 1032.59 431.464 1031.69 426.152C1029.51 414.598 1023.36 406.812 1015.96 397.98C1011.7 392.645 1010.51 387.845 1010.7 381.039C1011.16 377.19 1012.43 374.062 1014 370.527C1014.99 370.527 1015.98 370.527 1017 370.527C1017.5 368.219 1017.5 368.219 1017 365.527C1015.03 363.757 1013.27 362.436 1011.06 361.027C1009.77 360.155 1008.48 359.28 1007.19 358.402C1006.16 357.708 1006.16 357.708 1005.11 357C1001.49 354.477 998.041 351.74 994.562 349.027C984.428 341.211 973.893 334.279 962.976 327.608C946.751 317.683 946.751 317.683 940 311.527C938.935 310.564 938.935 310.564 937.848 309.582C931.147 303.218 925.176 295.677 923 286.527C922.965 285.147 922.98 283.765 923.035 282.386C923.095 277.357 922.33 272.69 921.312 267.777C921.135 266.907 920.958 266.038 920.776 265.142C918.748 255.668 915.395 247.164 911 238.527C912.458 238.191 913.916 237.858 915.375 237.527C916.187 237.341 916.999 237.156 917.836 236.964C920 236.527 920 236.527 922 236.527C921.34 235.537 920.68 234.547 920 233.527C920.196 230.778 920.527 228.231 921 225.527C921.137 224.663 921.273 223.8 921.414 222.91C922.466 216.614 923.863 210.546 926 204.527C926.309 203.518 926.309 203.518 926.625 202.488C927.936 199.28 929.295 197.881 932.41 196.316C948.069 190.942 965.563 189.643 982 190.527Z" fill="#ACCA82"/>
<path d="M552.402 6.0896C555.006 7.48742 557.523 8.91688 560 10.5271C560.757 10.9512 561.513 11.3753 562.293 11.8123C564 13.5271 564 13.5271 564.312 16.4529C563.219 28.3085 563.219 28.3085 559 32.5271C554.048 34.6642 549.537 34.7907 544.25 34.9021C534.069 35.2686 534.069 35.2686 525 39.5271C519.305 45.7471 516.602 51.5285 516.715 60.0232C517.863 70.1022 521.036 81.8194 529.194 88.3784C532.453 90.4511 536.023 91.1665 539.75 92.0271C565.365 98.6157 577.722 117.095 591.43 138.264C595.259 144.263 595.259 144.263 599.957 149.566C602 151.527 602 151.527 602.312 154.34C602.209 155.061 602.106 155.783 602 156.527C602.834 156.777 603.668 157.027 604.527 157.285C608.421 158.678 611.913 160.479 615.562 162.402C638.951 174.416 662.494 173.702 687.084 165.863C713.555 156.946 735.776 138.451 757.039 120.961C761.964 116.913 766.911 112.893 771.867 108.883C774.596 106.674 777.307 104.446 780.008 102.203C794.044 90.6192 805.728 86.3075 824.009 87.3005C830.724 88.0646 835.846 91.6149 839.992 96.8186C841.785 99.8575 841.659 102.69 841.625 106.152C841.638 107.444 841.651 108.735 841.664 110.066C840.587 121.239 833.607 130.777 827.438 139.777C826.628 140.972 825.82 142.167 825.011 143.362C815.446 157.445 805.296 170.79 794 183.527C793.211 184.428 792.422 185.329 791.609 186.258C785.632 192.939 779.339 199.315 773.025 205.677C772.026 206.685 771.028 207.694 770.031 208.705C763.372 215.449 756.417 221.614 749 227.527C747.875 228.474 746.756 229.428 745.645 230.39C738.064 236.946 730.21 243.034 722.13 248.959C719.96 250.557 717.804 252.172 715.648 253.789C688.558 273.943 654.952 293.057 620.25 292.84C619.293 292.834 618.337 292.828 617.351 292.823C594.942 292.442 574.741 284.758 558.97 268.79C556.443 266.167 554.102 263.503 552 260.527C551.97 263.756 551.953 266.985 551.938 270.215C551.929 271.107 551.921 272 551.912 272.92C551.895 277.842 552.061 282.685 552.488 287.59C555.43 323.118 552.467 358.967 544 393.527C543.565 395.357 543.565 395.357 543.121 397.223C535.778 427.985 525.734 457.582 513 486.527C512.409 487.875 512.409 487.875 511.806 489.25C493.945 529.526 468.057 567.186 436 597.527C435.46 598.039 434.92 598.551 434.363 599.078C429.773 603.25 424.867 607.018 419.938 610.777C419.265 611.297 418.592 611.817 417.899 612.352C410.218 618.136 403.103 620.611 393.438 620.902C392.322 620.951 391.207 621 390.059 621.051C387 620.527 387 620.527 384.598 618.129C383 615.527 383 615.527 383 613.527C383.99 613.527 384.98 613.527 386 613.527C385.954 612.919 385.907 612.31 385.859 611.683C385.385 600.17 388.492 589.425 393.176 579.015C393.48 578.33 393.784 577.645 394.098 576.938C397.163 570.076 400.385 563.289 403.622 556.506C438.267 483.787 472.291 404.263 471 322.527C470.501 323.522 470.002 324.517 469.488 325.543C451.927 359.959 426.208 394.144 395.777 418.301C393.947 419.768 392.146 421.273 390.379 422.816C358.731 450.379 308.578 479.359 265.5 480.277C264.741 480.305 263.982 480.333 263.201 480.361C257.807 480.269 255.094 478.521 251.232 474.813C250.826 474.389 250.419 473.964 250 473.527C260.434 454.951 279.316 438.39 296 425.527C297.221 424.534 298.438 423.536 299.652 422.535C307.013 416.471 314.48 410.6 322.133 404.909C348.033 385.636 374.344 364.314 394 338.527C395.01 337.255 396.022 335.984 397.035 334.715C404.88 324.789 411.705 314.496 418 303.527C418.37 302.891 418.739 302.255 419.12 301.599C437.718 269.34 443.55 234.02 447.5 197.527C449.207 181.93 450.942 166.337 452.969 150.777C453.112 149.606 453.256 148.435 453.404 147.228C454.916 135.982 458.087 126.585 465 117.527C465.571 116.768 466.142 116.009 466.73 115.226C471.166 109.713 471.166 109.713 475.219 108.808C476.137 108.716 477.054 108.623 478 108.527C478.026 107.541 478.052 106.555 478.078 105.539C479.211 73.9092 484.699 40.8143 505 15.5271C506.007 14.1833 506.007 14.1833 507.035 12.8123C519.847 -3.99899 534.639 -2.06792 552.402 6.0896ZM537 206.527C538 208.527 538 208.527 538 208.527L537 206.527ZM538 208.527C538.521 213.541 540.226 217.306 542.75 221.59C543.085 222.188 543.42 222.787 543.766 223.404C546.071 227.39 548.62 230.401 552 233.527C550.687 230.084 549.186 226.885 547.398 223.664C546.909 222.778 546.419 221.891 545.914 220.978C545.406 220.066 544.898 219.154 544.375 218.215C543.602 216.818 543.602 216.818 542.812 215.392C541.544 213.102 540.273 210.814 539 208.527C538.67 208.527 538.34 208.527 538 208.527ZM552 233.527C552.33 234.517 552.66 235.507 553 236.527C553 235.537 553 234.547 553 233.527C552.67 233.527 552.34 233.527 552 233.527ZM556 238.527C557 240.527 557 240.527 557 240.527L556 238.527Z" fill="#EECE65"/>
<path d="M928 337.527C928.9 337.956 929.799 338.386 930.726 338.828C952.811 350.125 970.173 369.755 978.281 393.238C987.3 423.451 977.126 454.412 967.734 483.378C967.205 485.012 966.682 486.648 966.164 488.286C965.429 490.599 964.669 492.901 963.902 495.203C963.685 495.899 963.467 496.595 963.243 497.311C962.12 500.587 961.247 502.338 958.464 504.46C951.078 507.659 942.245 505.211 934.659 503.595C930.711 502.766 927.03 502.099 923 502.527C920.68 506.007 920.307 509.061 919.687 513.09C916.796 529.664 907.286 539.459 894.141 549.329C889.356 552.978 886.134 556.402 885 562.527C884.34 562.527 883.68 562.527 883 562.527C885.018 574.794 885.018 574.794 889 586.527C890.32 585.867 891.64 585.207 893 584.527C894.901 587.023 896.795 589.525 898.687 592.027C899.218 592.723 899.748 593.419 900.295 594.137C909.394 606.194 914.783 616.789 913.349 632.409C912.277 638.911 909.126 644.798 906 650.527C905.437 651.561 904.873 652.595 904.293 653.66C894.731 669.739 881.032 678.213 863.387 683.277C858.493 684.494 854.035 684.585 849 684.527C846.549 694.483 844.341 704.477 842.312 714.527C842.098 715.576 841.884 716.626 841.663 717.707C838.146 735.339 835.109 759.259 845.301 775.328C850.697 782.312 856.934 788.51 863.25 794.652C871.369 802.72 877.136 810.873 878.437 822.402C878.094 829.872 875.052 837.48 869.894 842.898C862.294 849.433 854.565 853.871 844.375 853.59C835.059 852.38 824.171 846.636 818 839.527C815.855 836.609 813.878 833.623 812 830.527C811.504 831.252 811.007 831.976 810.496 832.723C802.858 843.592 794.877 851.068 781.5 853.902C770.981 855.443 762.544 853.332 753.812 847.34C747.485 841.012 743.091 834.033 742.625 824.965C742.899 814.253 746.687 805.256 754 797.527C755.142 796.46 756.287 795.398 757.437 794.34C770.344 781.724 773.071 763.084 776.437 746.152C776.894 743.881 777.353 741.61 777.811 739.339C778.115 737.833 778.418 736.328 778.721 734.822C779.768 729.621 780.881 724.437 782.022 719.255C782.841 715.465 783.596 711.664 784.337 707.858C784.83 705.382 785.343 702.914 785.874 700.446C786.666 696.743 787.389 693.031 788.075 689.306C788.355 687.845 788.656 686.387 788.98 684.934C789.985 680.374 790.677 676.207 790 671.527C786.919 667.556 783.226 665.173 779 662.527C762.915 649.141 753.174 631.159 746.143 611.779C745.443 609.857 744.731 607.939 744.017 606.021C733.901 578.552 733.901 578.552 736.875 570.015C737.246 569.297 737.617 568.579 738 567.84C739.684 564.547 740 563.427 740 559.527C748.638 550.625 762.542 547.298 774.011 543.615C789.827 538.51 804.897 532.913 813 517.215C815.81 511.156 816.209 505.939 816.25 499.34C816.27 498.527 816.291 497.714 816.312 496.877C816.378 486.522 812.92 479.725 806.687 471.652C802.334 465.84 798.393 460.201 795.148 453.691C794.048 451.468 794.048 451.468 792.41 449.484C789.914 446.02 789.872 442.708 790 438.527C792.228 428.635 796.502 419.488 800.75 410.34C801.381 408.967 802.011 407.593 802.641 406.219C803.574 404.183 804.508 402.146 805.445 400.111C807.514 395.613 809.517 391.09 811.481 386.546C816.573 374.798 822.51 364.198 831 354.527C831.665 353.767 832.33 353.006 833.015 352.223C857.791 325.704 896.438 322.453 928 337.527Z" fill="#CDB081"/>
<path d="M297 5.52734C297.66 5.52734 298.32 5.52734 299 5.52734C300.758 13.6006 301.396 21.533 301.775 29.7758C302.934 53.8005 306.03 77.6961 319 98.5273C319.739 97.5232 320.477 96.519 321.238 95.4844C327.427 87.1203 333.792 79.0041 340.607 71.1426C342.038 69.4837 343.452 67.8121 344.863 66.1367C351.771 57.9593 358.98 50.1094 366.32 42.3203C369.786 38.6211 373.188 34.8641 376.598 31.1133C377.39 30.2599 378.183 29.4066 379 28.5273C379.844 27.5709 380.689 26.6144 381.559 25.6289C382.767 24.5886 382.767 24.5886 384 23.5273C386.153 23.896 386.153 23.896 388 24.5273C389.425 77.0741 362.408 136.95 326.689 174.734C325.137 176.343 323.57 177.936 322 179.527C321.357 180.184 320.714 180.841 320.052 181.517C307.721 194.089 307.721 194.089 301.867 199.121C285.947 212.902 275.135 231.939 264.767 249.983C257.595 262.234 249.514 273.921 241.585 285.689C241.02 286.528 240.455 287.368 239.873 288.233C238.795 289.833 237.715 291.432 236.632 293.03C234.156 296.052 234.156 296.052 233 299.527C238.646 300.518 242.622 300.938 248 298.527C255.201 293.276 260.426 286.701 265.578 279.543C268.215 276.26 270.569 273.957 274 271.527C274.99 271.857 275.98 272.187 277 272.527C269.734 290.42 259.693 310.17 241.023 318.398C235.335 320.215 230.93 320.156 225.625 317.527C224.415 316.864 223.206 316.198 222 315.527C217.631 321.862 213.734 328.365 210 335.09C205.343 343.404 200.621 351.675 195.812 359.902C195.232 360.897 194.651 361.892 194.052 362.917C191.35 367.537 188.635 372.149 185.895 376.746C185.424 377.538 184.953 378.331 184.468 379.147C183.597 380.61 182.722 382.071 181.843 383.529C179.715 386.8 179.715 386.8 179 390.527C187.397 393.793 194.015 394.805 202.594 391.617C212.551 387.108 220.235 380.022 228 372.527C229.32 373.187 230.64 373.847 232 374.527C225.018 388.438 216.353 399.868 202 406.527C192.213 409.716 182.211 407.245 173 403.527C172.888 404.216 172.777 404.904 172.662 405.614C171.899 408.974 170.719 411.956 169.41 415.145C168.872 416.472 168.334 417.8 167.797 419.128C167.514 419.825 167.231 420.521 166.939 421.238C160.551 437.008 155.093 452.927 150.054 469.174C148.438 474.315 146.723 479.422 145 484.527C144.67 485.517 144.34 486.507 144 487.527C163.977 485.789 180.399 479.887 194 464.527C196.202 461.85 198.359 459.149 200.469 456.398C200.974 455.781 201.479 455.164 202 454.527C202.33 454.527 202.66 454.527 203 454.527C202.958 464.293 199.514 471.018 192.758 477.957C179.66 490.753 161.005 504.527 142 504.527C135.096 531.338 134.261 559.002 133 586.527C156.792 575.208 174.575 553.156 190.312 532.833C191.532 531.266 192.766 529.709 194 528.152C194.701 527.258 195.402 526.363 196.125 525.441C196.744 524.81 197.363 524.178 198 523.527C198.99 523.527 199.98 523.527 201 523.527C197.507 533.239 193.324 542.483 188.799 551.748C187.691 554.02 186.596 556.299 185.502 558.578C173.893 582.57 160.87 597.247 137 609.527C136.34 609.527 135.68 609.527 135 609.527C135.33 610.187 135.66 610.847 136 611.527C136.267 613.389 136.488 615.258 136.684 617.129C136.868 618.825 136.868 618.825 137.057 620.555C137.308 622.93 137.558 625.305 137.807 627.68C138.475 633.795 139.312 639.608 141 645.527C141.686 645.222 142.372 644.916 143.078 644.602C151.744 640.813 160.513 637.304 169.312 633.84C170.516 633.364 171.72 632.889 172.96 632.399C194.354 624.01 194.354 624.01 202.062 626.527C210.535 632.296 213.876 641.794 216 651.527C217.749 661.589 218.324 671.385 218.25 681.59C218.247 682.271 218.244 682.951 218.241 683.653C217.982 732.866 212.517 788.734 182 829.527C181.354 830.428 180.708 831.329 180.043 832.258C173.873 840.497 166.866 845.568 157 848.527C153.099 848.961 152.365 848.77 149 846.527C149.33 845.207 149.66 843.887 150 842.527C149.278 842.3 148.556 842.074 147.812 841.84C142.838 839.519 139.943 835.496 136.688 831.215C130.905 823.692 124.178 817.748 116.801 811.82C113.289 808.945 109.931 805.925 106.582 802.863C105.168 801.584 103.747 800.31 102.3 799.068C96.3457 793.952 90.7405 788.51 85.1875 782.965C84.4577 782.237 84.4577 782.237 83.7133 781.494C76.1654 773.935 69.2362 766.209 63 757.527C62.1622 756.416 61.3223 755.307 60.4805 754.199C45.7393 734.542 26.0017 701.227 29 675.527C34.1 668.217 43.9858 665.05 52.3555 663.148C64.3076 661.112 76.4762 660.495 88.5723 659.924C95.7797 659.553 102.867 658.611 110 657.527C109.602 655.748 109.602 655.748 109.195 653.934C106.265 640.601 103.51 627.252 104 613.527C102.741 613.506 102.741 613.506 101.457 613.484C83.9684 612.791 67.6305 608.317 52 600.527C50.4589 599.767 50.4589 599.767 48.8867 598.992C42.7222 595.795 37.3268 591.973 32 587.527C31.4483 587.886 30.8966 588.244 30.3281 588.613C27.2582 589.819 25.8313 589.206 22.75 588.152C21.412 587.708 21.412 587.708 20.0469 587.254C19.0337 586.894 19.0337 586.894 18 586.527C17.67 587.187 17.34 587.847 17 588.527C12.9004 586.977 10.6106 584.029 7.9375 580.715C7.50373 580.193 7.06996 579.672 6.62305 579.135C0 571.06 0 571.06 0 565.527C3.66312 566.848 6.53114 568.455 9.64453 570.785C10.4856 571.41 11.3268 572.036 12.1934 572.68C13.4898 573.656 13.4898 573.656 14.8125 574.652C16.138 575.64 16.138 575.64 17.4902 576.648C19.6639 578.27 21.8336 579.896 24 581.527C24 578.764 18.9879 575.102 17.1641 573.168C15.095 570.643 14.0076 568.606 13 565.527C17.1849 566.069 19.4624 567.363 22.75 569.965C42.6156 584.824 66.9515 596.577 92.1875 596.715C93.9722 596.736 93.9722 596.736 95.793 596.758C98.8953 596.535 100.344 595.982 103 594.527C103.059 593.194 103.059 593.194 103.12 591.835C104.551 561.105 106.45 528.581 117.301 499.504C118.111 497.563 118.111 497.563 118 495.527C116.355 494.4 114.656 493.351 112.938 492.34C99.2733 483.837 90.281 470.27 85.9609 454.809C82.8466 440.255 81.1623 422.198 88.543 408.707C89.2642 407.628 89.2642 407.628 90 406.527C90.33 406.527 90.66 406.527 91 406.527C90.9843 407.313 90.9686 408.098 90.9524 408.907C90.8893 412.531 90.8508 416.154 90.8125 419.777C90.7874 421.012 90.7622 422.247 90.7363 423.52C90.6473 434.8 92.4634 444.649 97.75 454.652C98.1 455.329 98.45 456.006 98.8105 456.703C104.863 468.175 111.965 476.63 123 483.527C123.206 482.228 123.412 480.929 123.625 479.59C126.286 466.489 131.72 454.465 137.882 442.688C139.501 439.56 141.057 436.403 142.62 433.248C146.874 424.662 151.253 416.152 155.777 407.706C160.429 399.126 160.429 399.126 161 389.527C160.26 387.919 159.463 386.337 158.625 384.777C151.729 371.903 153.558 358.154 157 344.527C159.376 336.757 162.859 329.548 166.562 322.34C166.938 321.596 167.314 320.853 167.702 320.086C168.253 319.046 168.253 319.046 168.816 317.984C169.141 317.365 169.465 316.746 169.799 316.109C171.279 314.16 172.768 313.466 175 312.527C173.492 320.393 171.682 328.16 169.768 335.936C166.437 349.669 165.404 362.93 170 376.527C170.33 376.857 170.66 377.187 171 377.527C171.346 376.956 171.691 376.385 172.047 375.797C178.839 364.582 185.674 353.395 192.625 342.277C193.555 340.786 193.555 340.786 194.503 339.265C197.471 334.516 200.469 329.791 203.543 325.109C204.096 324.26 204.649 323.41 205.218 322.534C206.241 320.966 207.274 319.405 208.321 317.853C211.797 312.502 214.641 306.705 213.638 300.169C213.469 299.463 213.299 298.756 213.125 298.027C208.651 278.916 214.89 262.53 224.832 246.377C230.77 236.976 230.77 236.976 234 233.527C234.99 233.527 235.98 233.527 237 233.527C235.634 238.752 234.205 243.942 232.535 249.078C228.217 262.519 225.815 275.364 226 289.527C228.634 287.113 230.43 284.483 232.336 281.469C232.981 280.453 233.626 279.438 234.291 278.392C234.979 277.302 235.667 276.213 236.375 275.09C237.462 273.377 238.55 271.666 239.639 269.955C240.373 268.8 241.107 267.645 241.841 266.49C245.049 261.44 248.297 256.416 251.562 251.402C252.073 250.617 252.584 249.831 253.11 249.021C256.082 244.455 259.071 239.9 262.07 235.352C263.098 233.788 263.098 233.788 264.146 232.194C265.478 230.169 266.813 228.146 268.153 226.126C269.057 224.749 269.057 224.749 269.98 223.344C270.516 222.534 271.051 221.724 271.602 220.889C273.017 218.499 274.04 216.129 275 213.527C274.492 213.028 273.984 212.53 273.461 212.016C260.492 198.488 256.611 179.7 255 161.527C254.914 160.558 254.828 159.588 254.739 158.589C253.873 147.426 253.746 136.269 253.705 125.077C253.693 122.884 253.673 120.692 253.643 118.499C253.408 100.907 254.529 84.0953 261.5 67.7148C261.836 66.9019 262.172 66.089 262.519 65.2515C266.917 54.9479 272.415 45.2232 278 35.5273C278.565 34.5425 279.13 33.5577 279.712 32.543C281.423 29.5732 283.145 26.6108 284.875 23.6523C285.659 22.3068 285.659 22.3068 286.46 20.9341C293.089 9.74594 293.089 9.74594 297 5.52734Z" fill="#C4C4C4"/>
<path d="M933.375 236.214C934.613 236.219 935.851 236.224 937.126 236.229C991.049 236.912 1037.27 267.783 1074.31 304.589C1075.23 305.499 1076.15 306.409 1077.1 307.347C1083.16 313.433 1088.68 319.793 1094 326.527C1094.86 327.587 1095.72 328.647 1096.57 329.707C1108.05 344.342 1118.48 359.985 1127 376.527C1127.43 377.359 1127.86 378.19 1128.3 379.047C1143.21 408.323 1153.42 439.957 1158 472.527C1158.18 473.77 1158.35 475.014 1158.54 476.295C1160.28 489.479 1160.36 502.621 1160.31 515.902C1160.31 517.049 1160.31 518.197 1160.31 519.379C1160.27 536.598 1159.85 553.509 1157 570.527C1156.87 571.345 1156.73 572.163 1156.59 573.006C1155.64 578.578 1154.38 584.046 1153 589.527C1152.73 590.638 1152.45 591.749 1152.17 592.894C1139.19 644.884 1115.57 693.547 1085 737.527C1084.55 738.185 1084.09 738.844 1083.62 739.522C1073.39 754.343 1062.56 768.711 1051 782.527C1050.17 783.527 1049.35 784.528 1048.5 785.558C1038.32 797.804 1027.35 809.251 1016.12 820.527C1015.34 821.316 1014.56 822.105 1013.75 822.918C1008.99 827.659 1004.12 832.184 999 836.527C998.4 837.039 997.8 837.551 997.182 838.079C977.707 854.554 953.85 873.269 929 880.527C926.766 880.328 926.766 880.328 925 879.527C921.54 875.375 920 871.949 920 866.527C921.654 859.833 925.884 856.754 931.562 853.265C936.54 849.716 938.963 844.883 941.625 839.527C949.141 824.994 960.51 812.97 971.301 800.8C987.968 781.941 1000.26 761.018 1011.75 738.662C1016.47 729.518 1021.56 720.661 1027.27 712.101C1037.84 696.237 1044.29 680.477 1047.03 661.609C1049.08 647.712 1054.16 638.62 1064 628.527C1070.12 622.16 1074.22 617.22 1075.44 608.339C1075.02 604.693 1074.16 601.806 1073 598.339C1069.52 587.377 1070.18 579.848 1075.3 569.535C1077 566.527 1077 566.527 1079.55 563.945C1081.35 560.684 1081.35 560.684 1080.24 557.763C1078.77 554.334 1077.15 551.031 1075.44 547.714C1065.44 527.589 1065.44 527.589 1065.75 516.589C1065.76 515.836 1065.76 515.083 1065.77 514.306C1065.84 508.839 1065.84 508.839 1067 506.527C1067.37 503.735 1067.7 500.952 1068 498.152C1068.16 496.623 1068.33 495.094 1068.5 493.566C1068.57 492.888 1068.64 492.209 1068.72 491.51C1069.01 489.466 1069.49 487.526 1070 485.527C1070.14 484.01 1070.22 482.487 1070.25 480.964C1070.28 480.2 1070.3 479.436 1070.33 478.648C1070.15 476.475 1070.15 476.475 1068.8 474.812C1067.04 473.351 1067.04 473.351 1064.65 473.175C1061.43 472.387 1060.16 471.203 1057.82 468.879C1057.06 468.126 1056.3 467.373 1055.51 466.597C1054.33 465.387 1054.33 465.387 1053.12 464.152C1052.32 463.332 1051.51 462.512 1050.68 461.668C1045.22 456.022 1040.46 450.635 1037 443.527C1036.61 442.748 1036.22 441.97 1035.82 441.168C1033.62 436.243 1032.59 431.464 1031.69 426.152C1029.51 414.598 1023.36 406.812 1015.96 397.98C1011.7 392.645 1010.51 387.845 1010.7 381.039C1011.16 377.19 1012.43 374.062 1014 370.527C1014.99 370.527 1015.98 370.527 1017 370.527C1017.5 368.219 1017.5 368.219 1017 365.527C1015.03 363.757 1013.27 362.436 1011.06 361.027C1009.77 360.155 1008.48 359.28 1007.19 358.402C1006.5 357.939 1005.82 357.476 1005.11 357C1001.49 354.477 998.041 351.74 994.562 349.027C984.428 341.211 973.893 334.279 962.976 327.608C946.751 317.683 946.751 317.683 940 311.527C938.935 310.564 938.935 310.564 937.848 309.582C931.147 303.218 925.176 295.677 923 286.527C922.965 285.147 922.98 283.765 923.035 282.386C923.095 277.358 922.33 272.69 921.312 267.777C921.135 266.907 920.958 266.038 920.776 265.142C918.748 255.668 915.395 247.164 911 238.527C918.53 236.512 925.598 236.178 933.375 236.214Z" fill="#F18466"/>
<path d="M676 417.527C676.996 417.99 677.993 418.453 679.019 418.929C698.776 429.302 710.012 449.061 717 469.527C720.659 481.614 723.141 493.477 723.203 506.133C723.209 507.052 723.214 507.971 723.22 508.918C723.23 510.864 723.236 512.81 723.24 514.755C723.25 517.661 723.281 520.565 723.312 523.47C723.405 539.597 722.033 555.528 717.312 571.027C717.057 571.885 716.803 572.744 716.54 573.628C712.444 587.018 707.111 599.779 700.687 612.215C700.267 613.035 699.846 613.856 699.413 614.701C699.012 615.452 698.612 616.203 698.199 616.976C697.847 617.64 697.494 618.303 697.131 618.987C696 620.527 696 620.527 693 621.527C693 620.867 693 620.207 693 619.527C688.627 623.204 684.462 627.002 680.492 631.113C679.733 631.898 678.974 632.683 678.191 633.492C676.632 635.115 675.08 636.745 673.535 638.383C672.778 639.16 672.022 639.937 671.242 640.738C670.57 641.442 669.899 642.147 669.206 642.872C666.495 644.905 664.335 645.206 661 645.527C659.169 640.645 658.677 636.946 658 631.527C647.44 631.527 636.88 631.527 626 631.527C626 625.065 626.089 620.839 627.562 614.84C627.852 613.598 628.142 612.357 628.441 611.078C630.648 604.635 633.954 598.618 637 592.527C621.82 592.527 606.64 592.527 591 592.527C587 576.527 587 576.527 586 563.527C574.78 563.527 563.56 563.527 552 563.527C549.016 556.813 546.31 550.223 543.812 543.34C543.457 542.381 543.102 541.423 542.736 540.435C539.497 531.542 538.654 526.066 541.375 516.965C541.645 516.048 541.914 515.131 542.192 514.186C553.048 478.64 574.46 442.962 607.831 424.604C627.951 414.039 654.381 407.426 676 417.527Z" fill="#DD9B54"/>
<path d="M544 597.527C549.339 602.302 552.072 608.381 554.371 615.047C556.759 618.683 560.067 619.886 564 621.527C563.662 620.846 563.323 620.165 562.974 619.464C561.452 616.386 559.945 613.3 558.438 610.215C557.904 609.143 557.371 608.071 556.822 606.967C556.073 605.425 556.073 605.425 555.309 603.852C554.61 602.43 554.61 602.43 553.896 600.979C553 598.527 553 598.527 554 595.527C562.91 596.187 571.82 596.847 581 597.527C577.625 609.902 577.625 609.902 576 615.527C576.868 616.069 577.735 616.61 578.629 617.168C582.134 619.508 585.004 622.267 587.938 625.277C588.464 625.811 588.991 626.345 589.533 626.895C592.859 630.289 596.061 633.762 599.141 637.383C602.102 640.798 605.189 644.097 608.27 647.404C613.899 653.491 613.899 653.491 614.303 657.643C613.937 662.335 612.701 666.26 611.156 670.68C610.564 672.443 609.971 674.207 609.379 675.971C608.441 678.721 607.498 681.47 606.554 684.219C605.641 686.89 604.742 689.566 603.844 692.242C603.559 693.054 603.275 693.866 602.982 694.702C600.403 702.408 600.023 708.563 603.645 715.997C606.446 721.229 609.426 726.351 612.438 731.465C614.987 735.803 617.515 740.152 620 744.527C620.512 745.427 621.024 746.327 621.551 747.254C624.529 752.791 625.696 757.239 626 763.527C622.374 765.103 618.745 766.669 615.111 768.227C613.27 769.019 611.432 769.818 609.594 770.617C608.434 771.113 607.273 771.61 606.078 772.121C605.01 772.582 603.942 773.043 602.841 773.518C600 774.527 600 774.527 596 774.527C596.361 775.082 596.722 775.636 597.094 776.207C597.558 776.931 598.022 777.656 598.5 778.402C598.964 779.122 599.428 779.841 599.906 780.582C601 782.527 601 782.527 601 784.527C580.468 790.102 580.468 790.102 571 791.527C570.67 790.537 570.34 789.547 570 788.527C568.441 787.17 568.441 787.17 566.5 785.902C558.928 780.43 548.028 771.611 545 762.527C543.35 762.857 541.7 763.187 540 763.527C541.404 766.001 542.669 768.197 544.688 770.215C545.121 770.648 545.554 771.081 546 771.527C546 772.187 546 772.847 546 773.527C546.57 773.777 547.14 774.028 547.727 774.285C550.322 775.703 552.21 777.39 554.375 779.402C557.002 781.808 559.499 783.958 562.563 785.777C563.367 786.355 564.171 786.932 565 787.527C565 788.847 565 790.167 565 791.527C529.865 793.618 493.61 792.466 465.309 768.719C452 756.086 442.208 739.499 441.699 720.938C441.68 718.488 441.676 716.039 441.688 713.59C441.693 712.302 441.699 711.013 441.705 709.686C442.055 682.009 450.26 656.994 468 635.527C468.833 634.518 469.665 633.509 470.523 632.469C483.697 617.045 522.893 587.917 544 597.527ZM515.52 622.523C514.626 622.999 513.733 623.475 512.813 623.965C511.911 624.438 511.01 624.911 510.082 625.398C509.395 625.771 508.708 626.144 508 626.527C510.584 629.112 512.894 629.631 516.375 630.715C517.517 631.08 518.659 631.444 519.836 631.82C522.815 632.486 524.209 632.607 527 631.527C526.301 631.273 525.603 631.019 524.883 630.758C523.518 630.242 523.518 630.242 522.125 629.715C521.22 629.378 520.315 629.042 519.383 628.695C517 627.527 517 627.527 515 624.527C516.98 623.867 518.96 623.207 521 622.527C518.066 621.19 518.066 621.19 515.52 622.523ZM527 632.527C531 633.527 531 633.527 531 633.527L527 632.527ZM531 633.527C535 634.527 535 634.527 535 634.527L531 633.527ZM547 637.527C551 638.527 551 638.527 551 638.527L547 637.527ZM552 638.527C556 639.527 556 639.527 556 639.527L552 638.527ZM557 639.527C557.99 639.857 558.98 640.187 560 640.527C554.825 655.867 549.577 671.104 543.398 686.074C541.937 689.061 541.937 689.061 542 690.527C545.96 690.857 549.92 691.187 554 691.527C553.234 693.425 552.462 695.321 551.688 697.215C551.258 698.271 550.829 699.326 550.387 700.414C549 703.527 549 703.527 547.207 706.172C546.809 706.949 546.41 707.726 546 708.527C548.853 716.099 556.896 721.193 563.188 725.777C563.886 726.293 564.584 726.809 565.303 727.34C566.629 728.319 567.958 729.295 569.291 730.268C570.667 731.282 572.019 732.329 573.363 733.387C574.941 734.718 574.941 734.718 577 734.527C575.001 740.381 571.372 742.69 566.277 746.012C563.93 747.466 563.93 747.466 562 749.527C562 750.187 562 750.847 562 751.527C566.514 750.229 569.848 748.497 573.625 745.715C575.006 744.715 575.006 744.715 576.414 743.695C579.035 741.498 581.033 739.321 583 736.527C583 735.867 583 735.207 583 734.527C581.68 733.72 580.314 732.985 578.938 732.277C573.714 729.266 569.494 725.571 565.125 721.465C564.483 720.863 563.841 720.262 563.179 719.642C556.263 713.04 556.263 713.04 554 709.527C554.065 704.888 558.006 700.79 560.504 697.086C562.252 694.59 562.252 694.59 562 691.527C558.37 691.197 554.74 690.867 551 690.527C552.775 685.297 554.553 680.069 556.334 674.841C556.939 673.067 557.542 671.292 558.144 669.517C564.256 651.505 564.256 651.505 567.362 644.22C568.118 642.517 568.118 642.517 568 640.527C564.326 639.352 560.831 639.454 557 639.527Z" fill="#DC9A54"/>
<path d="M924 214.527C991.639 215.173 1046.94 233.729 1095.24 282.601C1099.32 286.782 1103.28 291.013 1107 295.527C1107.44 296.049 1107.87 296.571 1108.32 297.109C1117.34 307.92 1125.77 319.108 1134 330.527C1134.43 331.116 1134.86 331.704 1135.3 332.311C1165.08 373.4 1183.89 422.858 1184.24 473.926C1184.25 475.102 1184.26 476.278 1184.27 477.49C1184.44 503.774 1184.15 529.543 1180 555.527C1179.81 556.753 1179.62 557.978 1179.42 559.241C1172.14 604.302 1157.42 646.793 1137 687.527C1136.57 688.383 1136.15 689.238 1135.71 690.119C1120.46 720.528 1100.82 749.919 1078.51 775.617C1076.11 778.397 1073.8 781.228 1071.5 784.09C1067.37 789.163 1063 793.965 1058.55 798.758C1056.5 800.987 1054.48 803.235 1052.5 805.527C1044.24 815.039 1035.57 824.14 1026.67 833.047C1025 834.719 1023.33 836.399 1021.67 838.08C1015.81 843.968 1009.87 849.491 1003.35 854.643C1001.11 856.436 999.021 858.314 996.938 860.277C979.905 875.525 959.585 887.764 939 897.527C937.355 898.376 937.355 898.376 935.676 899.242C933 900.527 933 900.527 931 900.527C929.201 897.156 927.412 893.78 925.625 890.402C925.117 889.451 924.609 888.5 924.086 887.52C920.067 879.904 916.833 873.298 918 864.527C920 859.256 922.176 857.251 926.875 854.215C932.499 850.499 934.955 846.432 938 840.527C945.748 826.119 955.497 814.168 966.156 801.828C983.713 781.484 997.406 759.252 1009.66 735.383C1014.18 726.57 1018.82 717.984 1024.19 709.652C1034.73 693.262 1042 677.924 1044.88 658.465C1047.11 643.82 1052.08 633.81 1062.41 623.207C1067.99 617.438 1071.54 612.168 1074 604.527C1074.66 604.527 1075.32 604.527 1076 604.527C1076.6 611.566 1074.67 616.971 1070.42 622.633C1067.6 625.92 1064.58 628.926 1061.44 631.902C1052.43 640.813 1049.1 651.917 1047.63 664.152C1044.85 684.08 1036.39 701.052 1024.97 717.464C1019.09 726.08 1014.41 735.432 1009.54 744.638C1007.06 749.288 1004.53 753.908 1002 758.527C1001.65 759.17 1001.3 759.814 1000.94 760.476C993.148 774.766 983.664 787.277 973 799.527C968.975 804.173 964.974 808.838 961 813.527C960.232 814.428 960.232 814.428 959.447 815.348C952.594 823.431 946.899 831.596 941.938 840.969C938.091 848.181 933.946 853.206 926.813 857.402C923.161 860.161 922.16 862.106 921 866.527C921.352 871.487 922.491 875.858 926 879.527C930.982 878.949 935.141 877.362 939.625 875.215C940.359 874.864 941.092 874.514 941.848 874.153C963.915 863.354 983.765 848.904 1002 832.527C1002.51 832.072 1003.02 831.618 1003.55 831.149C1010.89 824.597 1017.9 817.72 1024.88 810.777C1025.67 809.985 1026.47 809.193 1027.29 808.377C1032.07 803.588 1036.6 798.665 1041 793.527C1041.95 792.444 1042.9 791.362 1043.85 790.281C1051.07 782.01 1057.8 773.437 1064.39 764.662C1065.97 762.574 1067.55 760.495 1069.14 758.418C1075.79 749.68 1082.05 740.758 1088 731.527C1088.7 730.455 1088.7 730.455 1089.41 729.361C1121.63 679.564 1149.84 623.539 1156.73 563.876C1156.98 561.714 1157.25 559.555 1157.53 557.395C1159.05 544.992 1159.34 532.683 1159.32 520.196C1159.31 516.861 1159.34 513.528 1159.36 510.193C1159.55 445.182 1136.17 381.407 1096 330.527C1095.29 329.622 1094.57 328.717 1093.84 327.785C1080.4 311.051 1065.16 294.483 1048 281.527C1047.02 280.769 1047.02 280.769 1046.03 279.995C1011.91 253.524 974.312 237.759 930.979 237.098C929.853 237.067 928.727 237.036 927.567 237.004C926.545 236.984 925.524 236.964 924.471 236.944C923.656 236.806 922.84 236.669 922 236.527C919.737 233.133 919.914 231.826 920.509 227.92C921.076 225.158 921.797 222.463 922.551 219.746C922.822 218.766 923.093 217.785 923.373 216.775C923.58 216.034 923.787 215.292 924 214.527Z" fill="#DCF2AE"/>
<path d="M928 337.527C928.9 337.956 929.8 338.386 930.727 338.828C952.811 350.125 970.173 369.754 978.281 393.238C987.564 424.335 976.599 456.221 966.75 485.902C966.482 486.714 966.214 487.525 965.938 488.362C965.169 490.677 964.391 492.99 963.609 495.301C963.376 496.002 963.143 496.702 962.903 497.425C961.902 500.343 961.212 502.316 959 504.527C958.01 504.527 957.02 504.527 956 504.527C955.671 503.527 955.671 503.527 955.336 502.508C949.979 486.938 940.021 468.874 926 459.527C922.847 459.882 920.772 461.176 918.234 463.011C917.517 463.529 916.799 464.046 916.059 464.579C915.297 465.139 914.535 465.7 913.75 466.277C912.961 466.851 912.172 467.425 911.359 468.017C905.113 472.604 899.068 477.412 893.128 482.387C892.511 482.901 891.894 483.415 891.258 483.945C890.723 484.396 890.188 484.848 889.637 485.313C887.847 486.64 886.016 487.586 884 488.527C883.986 487.968 883.972 487.408 883.957 486.832C883.322 476.157 879.88 465.784 873 457.527C869.651 458.1 868.138 459.084 865.875 461.59C864.367 463.25 864.367 463.25 863 464.527C862.34 464.527 861.68 464.527 861 464.527C860.732 463.455 860.464 462.382 860.188 461.277C859.124 457.918 858.166 456.186 856 453.527C856 452.867 856 452.207 856 451.527C853.893 452.961 851.789 454.399 849.688 455.84C849.093 456.244 848.498 456.648 847.885 457.064C845.508 458.697 843.25 460.277 841.207 462.32C840.809 462.718 840.41 463.117 840 463.527C839.34 463.527 838.68 463.527 838 463.527C836.642 461.811 835.502 459.995 834.316 458.156C833 456.228 833 456.228 830 455.527C830.373 456.298 830.745 457.069 831.129 457.863C831.602 458.866 832.075 459.869 832.562 460.902C833.038 461.9 833.514 462.898 834.004 463.926C834.333 464.784 834.661 465.643 835 466.527C834.67 467.187 834.34 467.847 834 468.527C833.492 467.996 832.984 467.465 832.461 466.918C828.539 462.892 824.823 459.421 820 456.527C820.165 457.476 820.33 458.425 820.5 459.402C821.185 464.103 821.086 468.787 821 473.527C817.093 472.183 814.487 470.489 811.438 467.715C810.322 466.715 810.322 466.715 809.184 465.695C807 463.527 807 463.527 805.074 461.047C802.022 457.339 798.266 454.706 794.461 451.808C791.357 448.931 790.185 446.615 789.812 442.414C790.884 429.841 797.035 418.159 802.464 406.965C805.398 400.894 808.075 394.742 810.688 388.527C820.871 364.52 835.66 343.912 860.375 333.652C883.547 325.545 905.88 326.963 928 337.527Z" fill="#C27D44"/>
<path d="M1086 227.527C1086.95 228.205 1086.95 228.205 1087.92 228.897C1096.16 234.791 1103.94 240.993 1111.29 247.965C1113.74 250.284 1116.26 252.501 1118.81 254.715C1129.5 264.315 1139.16 275.227 1148 286.527C1148.73 287.424 1149.45 288.321 1150.2 289.246C1208.17 362.187 1234.9 455.661 1224.43 547.982C1218.93 592.049 1206.08 633.015 1188 673.527C1187.47 674.718 1186.94 675.91 1186.39 677.137C1162.29 730.79 1129.44 779.905 1089.42 822.999C1087.92 824.609 1086.44 826.227 1084.96 827.847C1077.38 836.131 1069.75 844.285 1061.21 851.597C1059.05 853.48 1056.96 855.42 1054.88 857.375C1047.91 863.875 1040.57 869.757 1033 875.527C1032.36 876.019 1031.72 876.51 1031.06 877.016C1010.17 893.045 988.066 906.844 964.375 918.402C962.802 919.179 962.802 919.179 961.198 919.972C960.212 920.441 959.226 920.911 958.211 921.394C957.348 921.808 956.485 922.222 955.595 922.648C952.553 923.679 950.193 923.79 947 923.527C944.188 921.902 944.188 921.902 942 919.527C941.363 916.379 941.363 916.379 941 913.527C941.546 913.292 942.092 913.057 942.655 912.815C983.427 895.135 1020.24 870.31 1052.56 839.866C1054.76 837.819 1057.01 835.832 1059.25 833.84C1065.96 827.819 1072.27 821.514 1078.14 814.668C1080.29 812.195 1082.52 809.804 1084.75 807.402C1090.03 801.613 1094.83 795.514 1099.61 789.312C1100.97 787.57 1102.34 785.843 1103.72 784.121C1122.48 760.661 1138.39 735.166 1152.75 708.816C1153.56 707.333 1154.37 705.853 1155.19 704.375C1175.78 667.073 1189.94 627.687 1198.25 585.902C1198.48 584.738 1198.72 583.573 1198.96 582.374C1202.99 561.226 1204.53 540.284 1204.38 518.777C1204.37 517.597 1204.37 516.418 1204.36 515.202C1204.28 497.483 1203.88 480.046 1201 462.527C1200.8 461.286 1200.59 460.046 1200.38 458.767C1189.3 392.966 1163.92 329.553 1119 279.527C1118.5 278.968 1118.01 278.409 1117.49 277.833C1105.86 264.789 1093.09 253.831 1079 243.527C1078.39 243.078 1077.77 242.63 1077.14 242.167C1054.55 225.87 1028.23 214.298 1001 208.527C999.797 208.266 998.594 208.005 997.355 207.736C986.943 205.61 976.842 205.088 966.232 205.191C963.606 205.215 960.981 205.211 958.355 205.205C947.531 205.223 937.251 205.648 927 209.527C927.061 208.109 927.15 206.693 927.25 205.277C927.296 204.488 927.343 203.699 927.391 202.886C928.222 199.669 929.361 198.541 932 196.527C934.469 195.64 936.711 194.969 939.25 194.402C939.955 194.237 940.661 194.073 941.387 193.903C990.268 182.939 1045.91 198.554 1086 227.527Z" fill="#6F9456"/>
<path d="M791 670.527C796.206 672.571 801.31 674.84 806.43 677.09C828.909 686.141 857.202 683.179 879.305 674.418C882 673.527 882 673.527 884 674.527C879.48 677.845 875.301 679.657 869.938 681.215C869.243 681.427 868.549 681.639 867.834 681.857C861.278 683.831 855.807 684.643 849 684.527C846.549 694.483 844.342 704.477 842.312 714.527C842.098 715.577 841.884 716.626 841.663 717.707C838.146 735.339 835.109 759.26 845.301 775.328C850.697 782.312 856.934 788.51 863.25 794.652C871.369 802.72 877.136 810.873 878.438 822.402C878.095 829.872 875.052 837.48 869.895 842.898C862.294 849.434 854.565 853.872 844.375 853.59C835.059 852.38 824.171 846.636 818 839.527C815.855 836.61 813.878 833.623 812 830.527C811.504 831.252 811.007 831.976 810.496 832.723C802.858 843.592 794.877 851.068 781.5 853.902C770.982 855.443 762.544 853.332 753.812 847.34C747.485 841.013 743.092 834.033 742.625 824.965C742.899 814.254 746.687 805.257 754 797.527C755.142 796.46 756.288 795.398 757.438 794.34C770.344 781.724 773.071 763.084 776.438 746.152C776.894 743.881 777.353 741.61 777.812 739.339C778.115 737.834 778.419 736.328 778.721 734.822C779.574 730.587 780.459 726.361 781.387 722.141C784.291 708.874 786.47 695.567 788.389 682.127C788.54 681.082 788.54 681.082 788.694 680.016C788.969 678.108 789.238 676.199 789.507 674.289C790 671.527 790 671.527 791 670.527Z" fill="#F9E8B2"/>
<path d="M760.548 558.383C763.268 558.543 765.988 558.66 768.711 558.773C773.809 558.992 778.905 559.248 784 559.527C783.557 564.617 782.743 567.558 779.437 571.465C778.476 572.623 778.476 572.623 777.496 573.804C777.002 574.373 776.508 574.941 776 575.527C776.611 575.308 777.222 575.089 777.851 574.863C784.891 572.424 792.001 570.363 799.187 568.402C800.576 568.022 800.576 568.022 801.992 567.634C807.634 566.11 813.286 564.753 819 563.527C818.12 568.664 816.449 573.534 814.816 578.468C812.482 585.72 811.833 592.895 811.437 600.465C811.373 601.633 811.373 601.633 811.306 602.826C811.202 604.726 811.1 606.627 811 608.527C812.146 607.528 813.292 606.527 814.437 605.527C815.167 604.892 815.897 604.256 816.648 603.601C818.209 602.224 819.757 600.831 821.289 599.422C830.008 591.436 836.65 588.038 848.613 588.199C855.178 588.835 859.856 591.163 864.289 596.05C865.672 597.806 867.016 599.594 868.308 601.418C869.902 603.796 869.902 603.796 873 604.527C873.99 603.537 874.98 602.547 876 601.527C876.99 602.187 877.98 602.847 879 603.527C879.34 602.754 879.34 602.754 879.687 601.965C881.497 598.603 883.74 595.598 886 592.527C889.919 596.331 893.491 600.343 897 604.527C895.077 600.465 892.616 596.808 890.144 593.062C888.785 590.051 889.039 588.631 890 585.527C890.99 585.197 891.98 584.867 893 584.527C894.901 587.023 896.795 589.524 898.687 592.027C899.218 592.723 899.748 593.419 900.295 594.136C909.394 606.194 914.783 616.789 913.349 632.408C912.277 638.911 909.126 644.798 906 650.527C905.436 651.561 904.873 652.595 904.293 653.66C897.357 665.322 888.819 672.886 876.062 677.09C875.188 677.393 874.313 677.697 873.412 678.009C861.892 681.85 850.526 682.86 838.437 682.777C836.744 682.789 836.744 682.789 835.017 682.8C824.527 682.776 814.777 681.664 805.062 677.59C804.133 677.212 804.133 677.212 803.185 676.826C800.507 675.713 797.983 674.517 795.496 673.023C792.922 671.389 792.922 671.389 789.562 670.168C785.726 668.401 782.989 666.182 780 663.277C779.217 662.532 779.217 662.532 778.418 661.772C776.941 660.362 775.47 658.945 774 657.527C773.359 656.961 772.718 656.395 772.058 655.812C767.816 651.958 764.634 647.396 761.375 642.715C760.919 642.063 760.463 641.411 759.994 640.739C753.866 631.714 749.85 621.998 746.143 611.779C745.443 609.856 744.731 607.939 744.017 606.021C734.124 579.157 734.124 579.157 736.629 570.304C742.309 559.111 748.372 557.664 760.548 558.383Z" fill="#C27D44"/>
<path d="M837 103.527C839 104.527 839 104.527 841 106.527C843.004 118.771 834.016 130.181 827.438 139.777C826.628 140.972 825.82 142.167 825.011 143.362C815.446 157.446 805.296 170.79 794 183.527C793.211 184.428 792.422 185.329 791.609 186.258C785.632 192.939 779.339 199.316 773.025 205.677C772.026 206.685 771.028 207.694 770.031 208.705C763.372 215.45 756.417 221.614 749 227.527C747.875 228.475 746.756 229.428 745.645 230.391C738.064 236.946 730.21 243.034 722.13 248.959C719.96 250.557 717.804 252.172 715.648 253.789C688.558 273.943 654.952 293.058 620.25 292.84C619.293 292.834 618.337 292.829 617.351 292.823C594.942 292.442 574.741 284.758 558.97 268.791C556.443 266.167 554.102 263.503 552 260.527C551.97 263.756 551.953 266.986 551.938 270.215C551.929 271.108 551.921 272 551.912 272.92C551.895 277.843 552.061 282.685 552.488 287.59C555.43 323.118 552.467 358.967 544 393.527C543.565 395.357 543.565 395.357 543.121 397.224C535.778 427.985 525.734 457.582 513 486.527C512.606 487.426 512.212 488.324 511.806 489.25C493.945 529.527 468.057 567.187 436 597.527C435.46 598.039 434.92 598.551 434.363 599.078C429.773 603.25 424.867 607.019 419.938 610.777C419.265 611.297 418.592 611.817 417.899 612.352C410.218 618.136 403.103 620.611 393.438 620.902C392.322 620.951 391.207 621 390.059 621.051C387 620.527 387 620.527 384.598 618.129C383 615.527 383 615.527 383 613.527C384.155 613.362 385.31 613.197 386.5 613.027C398.297 610.381 409.118 603.5 418 595.527C418.817 594.829 419.635 594.13 420.477 593.41C446.336 570.913 463.536 539.957 480.978 510.894C482.83 507.811 484.69 504.733 486.551 501.656C494.237 488.879 501.301 475.847 508 462.527C508.472 461.598 508.944 460.669 509.43 459.712C524.722 429.45 536.724 395.917 541.606 362.228C541.887 360.304 542.197 358.385 542.526 356.469C544.493 344.014 544.397 331.546 544.375 318.965C544.374 317.786 544.374 316.608 544.373 315.394C544.335 297.102 543.538 279.517 540 261.527C539.786 260.415 539.571 259.302 539.351 258.155C537.731 249.908 535.897 241.715 534 233.527C533.649 232.011 533.299 230.495 532.948 228.979C532.766 228.19 532.584 227.402 532.396 226.59C531.838 224.177 531.282 221.764 530.726 219.35C530.006 216.227 529.276 213.107 528.54 209.988C528.206 208.554 527.873 207.121 527.539 205.688C527.242 204.426 526.945 203.164 526.639 201.864C526.085 198.969 525.863 196.459 526 193.527C526.66 193.527 527.32 193.527 528 193.527C529.321 195.752 530.632 197.981 531.938 200.215C532.311 200.841 532.684 201.467 533.068 202.111C535.079 205.572 536.513 208.482 537 212.527C537.66 212.527 538.32 212.527 539 212.527C539.522 213.52 540.044 214.513 540.582 215.535C554.961 242.316 576.173 264.753 605.855 273.902C606.563 274.109 607.271 274.315 608 274.527C608.636 274.734 609.271 274.94 609.926 275.152C636.174 282.492 666.307 271.097 689 258.527C689.622 258.185 690.244 257.842 690.884 257.489C705.056 249.579 717.733 239.677 729.996 229.098C732.747 226.744 735.546 224.473 738.375 222.215C744.376 217.338 749.954 212.038 755.574 206.734C757.997 204.452 760.454 202.236 763 200.09C772.332 192.05 781.124 182.99 789 173.527C790.312 171.987 791.625 170.446 792.937 168.906C796.887 164.26 800.786 159.578 804.625 154.84C807.475 151.326 810.418 147.963 813.5 144.652C822.382 134.811 828.33 124.58 833.241 112.396C834.45 109.42 835.728 106.476 837 103.527Z" fill="#FCECB3"/>
<path d="M638 499.527C640.681 502.462 641.808 505.407 642.98 509.171C643.336 510.306 643.691 511.442 644.057 512.611C644.616 514.457 644.616 514.457 645.188 516.339C645.383 516.978 645.579 517.617 645.781 518.275C649.927 531.825 653.507 545.512 656.934 559.26C657.898 563.128 658.877 566.993 659.859 570.857C660.703 574.184 661.544 577.511 662.384 580.839C662.793 582.456 663.202 584.072 663.612 585.689C664.182 587.941 664.748 590.195 665.312 592.449C665.484 593.122 665.655 593.796 665.832 594.49C666.521 597.26 667 599.657 667 602.527C667.488 602.159 667.975 601.792 668.478 601.413C686.411 587.969 686.411 587.969 696 584.527C698.093 588.713 697.706 593.922 698 598.527C698.17 600.176 698.17 600.176 698.344 601.859C698.858 609.602 697.419 612.958 692.489 618.766C688.398 623.303 684.211 627.725 679.899 632.053C678.358 633.607 676.835 635.179 675.312 636.751C674.321 637.752 673.329 638.751 672.336 639.749C671.455 640.644 670.573 641.539 669.666 642.461C666.684 644.772 664.719 645.246 661 645.527C659.169 640.644 658.677 636.946 658 631.527C647.44 631.527 636.88 631.527 626 631.527C626 625.065 626.089 620.839 627.562 614.839C627.853 613.598 628.143 612.357 628.441 611.078C630.648 604.635 633.954 598.618 637 592.527C621.82 592.527 606.64 592.527 591 592.527C587 576.527 587 576.527 586 563.527C574.78 563.527 563.56 563.527 552 563.527C549.016 556.812 546.31 550.223 543.812 543.339C543.457 542.381 543.102 541.423 542.736 540.435C541.053 535.813 539.554 531.447 539 526.527C540.038 526.016 540.038 526.016 541.098 525.496C545.78 523.176 550.442 520.846 555.031 518.347C555.701 517.983 556.372 517.619 557.062 517.244C558.381 516.524 559.697 515.799 561.01 515.068C565.67 512.527 565.67 512.527 569 512.527C568.859 515.423 568.712 518.319 568.562 521.214C568.523 522.031 568.484 522.848 568.443 523.689C568.401 524.485 568.36 525.281 568.316 526.101C568.28 526.829 568.243 527.557 568.205 528.307C567.978 530.762 567.52 533.118 567 535.527C575.097 532.506 582.742 528.759 590.438 524.839C592.748 523.667 595.059 522.496 597.371 521.328C598.381 520.814 599.391 520.3 600.431 519.77C603 518.527 603 518.527 606 517.527C606 516.537 606 515.547 606 514.527C607.123 513.947 608.246 513.367 609.402 512.769C610.915 511.981 612.426 511.192 613.938 510.402C614.717 509.995 615.497 509.587 616.3 509.168C620.445 506.974 624.372 504.707 628.188 501.964C631.543 499.634 633.83 498.534 638 499.527Z" fill="#E8D1AA"/>
<path d="M553 595.527C566.86 596.517 566.86 596.517 581 597.527C577.625 609.902 577.625 609.902 576 615.527C576.868 616.069 577.735 616.61 578.629 617.168C582.134 619.508 585.004 622.267 587.938 625.277C588.727 626.078 588.727 626.078 589.533 626.895C592.859 630.289 596.061 633.762 599.141 637.383C602.102 640.798 605.189 644.097 608.27 647.404C613.899 653.491 613.899 653.491 614.303 657.643C613.937 662.335 612.701 666.26 611.156 670.68C610.564 672.443 609.971 674.207 609.379 675.971C608.441 678.721 607.498 681.47 606.554 684.219C605.641 686.89 604.742 689.566 603.844 692.242C603.559 693.054 603.275 693.866 602.982 694.702C600.403 702.408 600.023 708.563 603.645 715.997C606.446 721.229 609.426 726.351 612.438 731.465C614.987 735.803 617.515 740.152 620 744.527C620.512 745.427 621.024 746.327 621.551 747.254C624.529 752.791 625.696 757.239 626 763.527C622.374 765.103 618.745 766.669 615.111 768.227C613.27 769.019 611.432 769.818 609.594 770.617C608.434 771.113 607.273 771.61 606.078 772.121C604.476 772.812 604.476 772.812 602.841 773.518C600 774.527 600 774.527 596 774.527C596.361 775.082 596.722 775.636 597.094 776.207C597.79 777.294 597.79 777.294 598.5 778.402C599.196 779.481 599.196 779.481 599.906 780.582C601 782.527 601 782.527 601 784.527C580.468 790.102 580.468 790.102 571 791.527C570.67 790.537 570.34 789.547 570 788.527C568.441 787.17 568.441 787.17 566.5 785.902C558.946 780.443 551.382 773.176 546 765.527C546 762.527 546 762.527 547.336 761.055C553.324 756.386 559.725 752.764 566.439 749.256C573.269 745.621 579.45 741.628 583 734.527C582.152 734.313 581.304 734.099 580.43 733.879C576.214 732.218 573.47 729.895 570.125 726.902C569.208 726.098 569.208 726.098 568.272 725.278C556.65 715.003 556.65 715.003 553 709.527C553.319 705.776 555.46 703.037 557.5 699.965C559.397 697.1 560.912 694.791 562 691.527C558.37 691.197 554.74 690.867 551 690.527C553.132 681.196 556.022 672.311 559.243 663.315C560.07 661.005 560.888 658.692 561.705 656.379C562.231 654.897 562.758 653.415 563.285 651.934C563.528 651.248 563.771 650.563 564.021 649.857C565.175 646.641 566.375 643.536 568 640.527C567.086 640.464 566.172 640.401 565.23 640.336C555.563 639.506 546.332 637.568 536.938 635.152C535.785 634.86 534.632 634.568 533.444 634.267C527.212 632.617 521.54 630.866 516 627.527C515.67 626.537 515.34 625.547 515 624.527C529.197 617.699 542.283 613.394 557.914 618.676C560.003 619.528 561.988 620.509 564 621.527C563.5 620.506 563.5 620.506 562.99 619.464C561.487 616.384 559.994 613.299 558.5 610.215C557.975 609.143 557.451 608.071 556.91 606.967C556.414 605.939 555.918 604.911 555.406 603.852C554.945 602.904 554.485 601.956 554.01 600.979C553 598.527 553 598.527 553 595.527Z" fill="#E8D1AA"/>
<path d="M470 645.527C471.523 647.906 472.103 649.01 471.539 651.832C471.237 652.68 470.936 653.528 470.625 654.402C465.617 671.358 471.054 688.415 479 703.527C479.439 704.387 479.879 705.247 480.332 706.133C489.86 723.404 508.404 739.39 527.465 744.945C536.073 747.134 544.688 748.033 553.547 748.352C556.774 748.516 559.828 748.929 563 749.527C557.693 755.566 550.381 760.36 543 763.527C542.01 763.527 541.02 763.527 540 763.527C541.404 766.001 542.669 768.197 544.687 770.215C545.121 770.648 545.554 771.081 546 771.527C546 772.187 546 772.847 546 773.527C546.57 773.777 547.139 774.028 547.726 774.285C550.322 775.703 552.21 777.39 554.375 779.402C557.002 781.808 559.499 783.958 562.562 785.777C563.367 786.355 564.171 786.932 565 787.527C565 788.847 565 790.167 565 791.527C529.865 793.618 493.61 792.466 465.308 768.719C452.914 756.953 442.453 740.601 441.699 723.125C441.68 721.613 441.676 720.102 441.687 718.59C441.692 717.773 441.697 716.956 441.702 716.114C442.196 689.763 451.123 664.405 470 645.527Z" fill="#C68A4E"/>
<path d="M796 452.527C800.805 455.748 804.723 459.195 808.5 463.59C812.307 467.979 815.914 470.753 821 473.527C820.67 467.917 820.34 462.307 820 456.527C823.315 458.185 825.311 459.497 828 461.902C828.66 462.488 829.32 463.073 830 463.676C830.99 464.592 830.99 464.592 832 465.527C832.696 466.051 833.392 466.574 834.109 467.113C837.071 470.895 837.454 475.118 838.25 479.777C838.423 480.713 838.595 481.649 838.773 482.613C839.196 484.916 839.605 487.22 840 489.527C840.444 489.194 840.888 488.861 841.345 488.518C843.351 487.016 845.363 485.522 847.375 484.027C848.423 483.24 848.423 483.24 849.492 482.438C850.163 481.941 850.833 481.445 851.523 480.934C852.141 480.473 852.759 480.012 853.396 479.537C855 478.527 855 478.527 857 478.527C856.783 480.229 856.783 480.229 856.562 481.965C856.433 483.053 856.433 483.053 856.301 484.164C856.098 485.754 855.866 487.34 855.605 488.922C855.488 489.699 855.371 490.476 855.25 491.277C855.072 492.352 855.072 492.352 854.891 493.449C855.044 496.361 855.894 497.543 858 499.527C860.423 499.832 860.423 499.832 863 499.34C863.866 499.223 864.733 499.105 865.625 498.984C868.135 498.555 868.135 498.555 871 497.527C874.562 497.277 874.562 497.277 878 497.527C878.66 498.517 879.32 499.507 880 500.527C879.526 501.249 879.051 501.971 878.562 502.715C874.948 509.222 875.228 517.001 877 524.09C877.33 525.224 877.66 526.359 878 527.527C879.98 526.867 881.96 526.207 884 525.527C874.657 538.974 864.592 546.623 848.949 551.449C844.248 553.168 840.156 555.769 836 558.527C836.108 559.873 836.108 559.873 836.219 561.246C836.469 564.605 836.673 567.961 836.858 571.324C836.999 573.514 837.206 575.691 837.418 577.875C837.728 581.933 837.78 585.514 837 589.527C834.8 591.896 832.825 592.877 829.875 594.172C823.973 596.955 819.301 602.11 814.836 606.801C813 608.527 813 608.527 811 608.527C810.471 592.35 813.197 578.619 819 563.527C818.103 563.842 817.206 564.156 816.281 564.48C806.947 567.682 797.594 570.239 788 572.527C785.666 573.108 783.333 573.691 781 574.277C779.333 574.694 777.667 575.111 776 575.527C777.599 572.128 779.574 569.354 781.879 566.406C783.225 564.15 783.536 562.096 784 559.527C778.822 559.428 773.645 559.356 768.467 559.308C766.706 559.288 764.946 559.26 763.185 559.226C760.651 559.177 758.117 559.154 755.582 559.137C754.407 559.106 754.407 559.106 753.208 559.074C748.037 559.072 745.805 560.144 742 563.527C741.01 563.197 740.02 562.867 739 562.527C741.555 556.189 748.085 553.224 754.087 550.623C761.216 547.774 768.485 545.308 775.805 543C789.877 538.55 803.542 533.059 811.629 519.871C815.267 512.822 816.201 507.186 816.25 499.34C816.271 498.527 816.291 497.714 816.312 496.877C816.379 486.432 812.828 479.565 806.562 471.402C796 457.406 796 457.406 796 452.527Z" fill="#DFC18B"/>
<path d="M637 425.527C636.196 426.434 635.391 427.342 634.562 428.277C614.452 451.983 608.267 475.623 607.341 506.491C607.31 507.488 607.278 508.484 607.246 509.511C607.21 510.853 607.21 510.853 607.174 512.221C607 514.527 607 514.527 606 517.527C603.966 518.874 603.966 518.874 601.293 520.234C599.832 520.986 599.832 520.986 598.341 521.754C596.78 522.539 596.78 522.539 595.188 523.339C594.14 523.874 593.092 524.409 592.012 524.959C589.941 526.015 587.868 527.066 585.792 528.113C583.5 529.274 581.219 530.451 578.945 531.648C577.911 532.185 576.878 532.723 575.812 533.277C574.953 533.725 574.093 534.174 573.207 534.636C571 535.527 571 535.527 567 535.527C567.142 533.006 567.289 530.485 567.438 527.964C567.477 527.26 567.516 526.555 567.557 525.829C567.825 521.347 568.306 516.964 569 512.527C556.073 518.405 556.073 518.405 543.785 525.495C542 526.527 542 526.527 540 526.527C540.579 520.255 541.987 514.673 544 508.714C544.305 507.807 544.609 506.9 544.923 505.965C549.855 491.735 555.931 476.085 567 465.527C567.923 464.461 568.831 463.382 569.727 462.292C585.688 442.89 610.523 423.976 637 425.527Z" fill="#C68A4E"/>
<path d="M1014 370.527C1028.2 375.982 1038.51 384.889 1049.19 395.402C1049.95 396.145 1050.71 396.888 1051.49 397.653C1063.57 409.744 1072.19 423.454 1072.32 440.869C1072.32 441.849 1072.32 442.83 1072.31 443.84C1072.33 444.809 1072.34 445.777 1072.36 446.775C1072.37 456.624 1070.35 465.222 1065 473.527C1053.64 468.494 1042.43 454.514 1037 443.527C1036.61 442.747 1036.22 441.968 1035.82 441.164C1033.62 436.24 1032.59 431.462 1031.69 426.152C1029.51 414.598 1023.36 406.813 1015.96 397.98C1011.7 392.645 1010.51 387.846 1010.7 381.039C1011.16 377.19 1012.43 374.062 1014 370.527Z" fill="#D1715B"/>
<path d="M288 18.5273C288.99 18.8573 289.98 19.1873 291 19.5273C290.436 25.0924 289.379 30.0835 287.688 35.4023C282.99 50.8476 280.044 66.5225 278 82.5273C277.903 83.2385 277.806 83.9497 277.706 84.6824C276.643 93.5261 276.758 102.446 276.75 111.34C276.749 112.209 276.747 113.078 276.746 113.973C276.752 130.756 278.274 146.539 282.383 162.848C282.953 165.323 283.275 167.688 283.5 170.215C283.665 171.308 283.83 172.401 284 173.527C284.99 174.187 285.98 174.847 287 175.527C289.136 155.048 289.576 134.586 290.006 114.016C290.156 106.927 290.315 99.8375 290.479 92.7486C290.534 90.3089 290.584 87.8692 290.633 85.4294C290.82 76.7651 291.213 68.1629 292 59.5273C293.98 59.0323 293.98 59.0323 296 58.5273C296.267 79.2563 295.532 99.9053 294.668 120.611C294.527 124.018 294.391 127.425 294.256 130.833C294.123 134.174 293.987 137.515 293.852 140.856C293.788 142.422 293.724 143.989 293.661 145.555C293.243 155.89 292.686 166.207 292 176.527C292.66 176.527 293.32 176.527 294 176.527C294.242 175.807 294.485 175.086 294.735 174.344C296.166 171.158 297.936 169.074 300.25 166.465C303.51 162.602 305.938 158.985 308.063 154.402C311.327 147.412 315.976 142.456 321.469 137.137C332.656 125.604 340.184 110.401 348 96.5273C348.562 95.5335 349.123 94.5396 349.702 93.5156C358.302 78.211 365.849 62.5507 373 46.5273C374.32 46.5273 375.64 46.5273 377 46.5273C374.586 55.885 370.832 64.6819 367 73.5273C366.71 74.2015 366.421 74.8757 366.122 75.5703C355.766 99.396 341.528 122.501 325.146 142.653C323.762 144.916 323.483 146.782 323.188 149.402C322.181 156.161 317.633 159.848 313 164.527C311.496 166.381 310.023 168.249 308.582 170.152C307 171.527 307 171.527 304.223 172.176C299.39 174.203 297.441 177.869 294.625 182.152C294.08 182.954 293.535 183.756 292.973 184.582C291.634 186.555 290.311 188.536 289 190.527C282.749 186.818 281.585 182.302 279.776 175.449C279.617 174.801 279.458 174.154 279.294 173.486C278.826 171.582 278.321 169.687 277.815 167.793C273.083 149.355 271.518 131.205 271.664 112.197C271.688 108.898 271.684 105.6 271.678 102.301C271.709 78.5577 274.438 56.3376 281.563 33.6523C282.002 32.2518 282.002 32.2518 282.45 30.823C283.893 26.3883 285.331 22.4049 288 18.5273Z" fill="#A7A7A7"/>
<path d="M924 282.527C924.608 282.94 925.217 283.352 925.844 283.777C935.59 290.198 945.947 295.185 956.508 300.094C980.403 311.24 1009.53 326.161 1025 348.527C1023.68 351.497 1022.36 354.467 1021 357.527C1013.28 353.533 1006.19 349.029 999.125 343.965C986.635 335.147 973.763 327.095 960.594 319.336C943.153 309.045 943.153 309.045 936 302.527C935.316 301.911 934.631 301.295 933.926 300.66C930.531 297.451 928.575 294.989 927 290.527C926.01 290.197 925.02 289.867 924 289.527C923.619 287.536 923.287 285.535 923 283.527C923.33 283.197 923.66 282.867 924 282.527Z" fill="#D1725B"/>
<path d="M104 666.527C105.369 669.103 106.72 671.686 108.062 674.277C108.647 675.371 108.647 675.371 109.244 676.488C109.608 677.197 109.972 677.906 110.348 678.636C110.688 679.285 111.028 679.935 111.379 680.604C112.148 682.985 111.904 684.216 111 686.527C99.5405 694.273 83.604 691.859 70.6875 690.214C69.5995 690.079 68.5116 689.944 67.3906 689.804C56.0954 688.354 44.6096 686.842 34 682.527C33.34 681.537 32.68 680.547 32 679.527C48.8451 664.612 82.6693 666.158 104 666.527Z" fill="#A3A3A3"/>
<path d="M192.438 634.527C193.117 634.899 193.796 635.27 194.496 635.652C194.993 635.941 195.489 636.23 196 636.527C183.106 655.084 162.686 668.332 141 674.527C131.931 660.469 131.931 660.469 132.035 653.02C133.44 649.391 136.085 648.193 139.375 646.465C140.321 645.948 140.321 645.948 141.286 645.421C148.406 641.625 155.762 638.891 163.637 637.098C165.63 636.617 167.608 636.075 169.582 635.52C170.235 635.337 170.889 635.154 171.562 634.965C173.481 634.425 175.399 633.879 177.317 633.332C182.841 632.125 187.409 631.704 192.438 634.527Z" fill="#A3A3A3"/>
<path d="M260 91.5273C263.875 93.2773 263.875 93.2773 265 95.5273C265.192 98.559 265.33 101.574 265.43 104.609C265.503 106.512 265.578 108.415 265.652 110.318C265.764 113.297 265.873 116.275 265.974 119.254C266.606 137.468 267.892 155.584 273.312 173.09C273.612 174.091 273.912 175.093 274.221 176.125C276.451 183.339 279.109 190.027 283 196.527C288.973 194.008 293.133 188.738 297.625 184.215C298.124 183.715 298.622 183.215 299.136 182.7C306.423 175.38 312.947 167.921 319 159.527C320.869 157.151 322.78 154.81 324.687 152.465C331.447 144.087 337.867 135.457 344.292 126.821C346.852 123.383 349.425 119.955 352 116.527C353.98 117.022 353.98 117.022 356 117.527C354.712 120.997 353.211 123.967 351.164 127.047C350.6 127.896 350.037 128.746 349.456 129.621C348.852 130.518 348.248 131.415 347.625 132.34C346.686 133.738 346.686 133.738 345.729 135.164C336.886 148.24 327.391 160.648 317 172.527C316.217 173.422 315.435 174.317 314.629 175.238C292.236 200.464 292.236 200.464 283 201.527C278.525 196.778 275.467 192.097 272.812 186.152C272.483 185.449 272.154 184.745 271.814 184.02C258.655 155.346 259.617 122.404 260 91.5273Z" fill="#A6A6A6"/>
<path d="M1067 506.527C1067.47 507.229 1067.95 507.93 1068.44 508.652C1074.62 515.587 1082.52 518.803 1091.06 521.992C1095.14 523.557 1098.37 524.86 1101 528.527C1102.79 536.258 1100.59 543 1096.85 549.754C1093.15 555.296 1089.02 559.631 1083 562.527C1078.83 556.253 1075.75 549.828 1072.81 542.902C1072.37 541.892 1071.94 540.881 1071.49 539.84C1068.06 531.873 1065.67 525.486 1065.81 516.777C1065.81 516.01 1065.81 515.243 1065.81 514.453C1065.86 508.809 1065.86 508.809 1067 506.527Z" fill="#D2725C"/>
<path d="M156 753.527C164.883 761.317 167.028 777.216 168 788.527C168.878 804.71 169.737 823.355 163 838.527C158.776 837.877 156 836.595 153 833.527C151.742 825.822 152.863 818.394 155.246 811.027C156.872 805.636 157.149 800.347 157.133 794.75C157.134 794.02 157.135 793.291 157.136 792.539C157.136 791.004 157.135 789.468 157.13 787.933C157.125 785.6 157.13 783.268 157.137 780.936C157.136 779.436 157.135 777.937 157.133 776.438C157.135 775.749 157.137 775.06 157.139 774.35C157.118 769.991 156.678 765.829 156 761.527C155.892 758.848 155.953 756.211 156 753.527Z" fill="#A3A3A3"/>
<path d="M818 87.527C815.221 88.9734 812.438 90.1324 809.5 91.2145C798.635 95.5542 789.853 102.009 781 109.527C778.427 111.644 775.839 113.742 773.25 115.84C772.566 116.394 771.882 116.949 771.178 117.52C769.792 118.643 768.406 119.767 767.02 120.889C765.72 121.943 764.422 122.998 763.125 124.055C735.65 146.44 701.591 173.946 664 172.527C664 172.197 664 171.867 664 171.527C664.558 171.407 665.115 171.287 665.69 171.163C701.87 163.262 728.865 144.136 757.039 120.961C761.964 116.913 766.911 112.892 771.867 108.882C774.596 106.674 777.307 104.446 780.008 102.203C792.465 91.9224 801.588 87.1851 818 87.527Z" fill="#DBBB5E"/>
<path d="M1115 447.527C1117.58 448.662 1119.65 449.928 1122 451.527C1122 456.563 1120.76 457.777 1117.46 461.355C1114.49 463.975 1111.4 466.022 1108 468.027C1107.13 468.553 1107.13 468.553 1106.24 469.089C1102.01 471.444 1098.79 472.025 1094 471.527C1091.36 470.485 1089.4 469.093 1087 467.527C1086.49 462.16 1087.67 459.714 1091 455.527C1093.26 453.777 1095.65 452.45 1098.19 451.152C1098.86 450.806 1099.52 450.461 1100.21 450.104C1105.14 447.684 1109.51 445.98 1115 447.527Z" fill="#93605C"/>
<path d="M1016 275.527C1019 276.527 1019 276.527 1020.25 278.215C1022.17 284.13 1018.65 290.184 1016.25 295.527C1015.92 296.309 1015.58 297.09 1015.23 297.895C1012.23 304.665 1008.39 310.473 1002 314.527C998.835 314.838 996.854 314.954 994.001 313.527C993.369 306.983 995.383 302.83 998.501 297.152C998.953 296.313 999.405 295.473 999.87 294.607C1003.95 287.223 1008.69 280.069 1016 275.527Z" fill="#94605C"/>
<path d="M920 496.527C925.757 497.457 931.491 498.396 937.188 499.652C942.855 500.813 948.456 501.375 954 499.527C956 501.527 956 501.527 956 505.527C948.614 505.95 941.853 505.13 934.66 503.594C930.712 502.767 927.03 502.099 923 502.527C920.68 506.008 920.307 509.062 919.688 513.09C916.796 529.664 907.286 539.459 894.141 549.33C889.945 552.529 886.694 555.402 885.5 560.777C885.335 561.355 885.17 561.932 885 562.527C883.515 563.022 883.515 563.022 882 563.527C881.375 561.152 881.375 561.152 881 558.527C881.66 557.867 882.32 557.207 883 556.527C883.309 555.537 883.619 554.547 883.938 553.527C886.722 546.708 893.795 542.207 899.289 537.613C910.487 528.145 914.974 518.187 916.41 503.629C917.02 500.422 917.831 498.914 920 496.527Z" fill="#DEC08B"/>
<path d="M206.625 698.839C209 699.527 209 699.527 210 700.527C210.473 706.539 209.655 710.361 206.438 715.527C205.897 716.429 205.897 716.429 205.345 717.35C197.879 729.503 197.879 729.503 192.859 731.289C192.246 731.367 191.632 731.446 191 731.527C190 730.527 190 730.527 189.562 726.839C189.653 717.392 195.023 707.635 201 700.527C204 698.527 204 698.527 206.625 698.839Z" fill="#A3A3A3"/>
<path d="M1116 577.527C1119.54 578.525 1122.74 579.849 1126 581.527C1126.66 581.857 1127.32 582.187 1128 582.527C1128 584.507 1128 586.487 1128 588.527C1120.14 591.473 1111.68 591.948 1103.75 588.902C1100.62 587.287 1100.14 586.859 1098.75 583.465C1099 580.527 1099 580.527 1100.11 578.871C1104.45 575.792 1110.95 577.022 1116 577.527Z" fill="#94605C"/>
<path d="M1120 385.527C1118.67 394.281 1111.95 402.276 1105 407.527C1102.41 408.489 1100.81 408.584 1098 408.527C1097.67 408.197 1097.34 407.867 1097 407.527C1097.59 399.834 1100.25 395.878 1105.94 390.839C1106.79 390.072 1107.65 389.305 1108.53 388.515C1112.69 385.165 1114.75 384.069 1120 385.527Z" fill="#94615C"/>
<path d="M1013 374.527C1013.33 374.527 1013.66 374.527 1014 374.527C1014.11 375.075 1014.22 375.623 1014.34 376.188C1015.81 382.082 1018.19 386.8 1021.38 391.902C1027.24 401.342 1031.72 410.202 1032 421.527C1030.15 418.752 1028.56 415.94 1026.94 413.027C1024.36 408.565 1021.58 404.643 1018.25 400.715C1012.73 394.136 1010.66 389.545 1010.7 380.859C1011.02 378.366 1011.75 376.692 1013 374.527Z" fill="#F08365"/>
<path d="M0 565.527C3.55885 566.819 6.374 568.34 9.39844 570.609C10.208 571.212 11.0175 571.815 11.8516 572.436C12.6843 573.064 13.517 573.692 14.375 574.34C16.0283 575.576 17.682 576.812 19.3359 578.047C20.1232 578.637 20.9105 579.227 21.7217 579.834C24.7839 582.11 27.8857 584.324 31 586.527C30.67 587.517 30.34 588.507 30 589.527C26.04 588.537 22.08 587.547 18 586.527C17.67 587.187 17.34 587.847 17 588.527C12.9004 586.977 10.6106 584.029 7.9375 580.715C7.50373 580.193 7.06996 579.672 6.62305 579.135C0 571.06 0 571.06 0 565.527Z" fill="#CFCFCF"/>
<path d="M1028 200.527C1023.29 200.075 1018.89 199.293 1014.31 198.09C1002.23 195.004 990.592 194.205 978.181 194.267C975.636 194.277 973.092 194.267 970.547 194.254C960.507 194.246 950.918 194.972 941 196.527C938.002 196.891 935.003 197.211 932 197.527C934.728 195.709 936.024 195.139 939.098 194.492C939.894 194.323 940.69 194.154 941.51 193.979C942.773 193.725 942.773 193.725 944.062 193.465C944.929 193.289 945.795 193.112 946.687 192.931C969.626 188.362 1007.73 187.013 1028 200.527Z" fill="#D6EDA9"/>
<path d="M757 580.527C758.868 580.693 758.868 580.693 761 581.527C762.173 583.841 762.173 583.841 763.105 586.883C763.621 588.529 763.621 588.529 764.146 590.209C764.49 591.366 764.834 592.523 765.188 593.715C765.543 594.852 765.898 595.99 766.264 597.162C767.837 602.276 769.206 607.228 770 612.527C764.053 607.976 762.759 601.803 760.688 594.84C760.328 593.687 759.969 592.534 759.6 591.346C757 582.903 757 582.903 757 580.527Z" fill="#C98C48"/>
<path d="M1081 561.527C1082.32 562.187 1083.64 562.847 1085 563.527C1084.44 564.352 1083.89 565.177 1083.31 566.027C1082.54 567.194 1081.77 568.36 1081 569.527C1080.59 570.131 1080.18 570.734 1079.76 571.355C1076.4 576.482 1074.11 581.778 1072 587.527C1071.67 587.527 1071.34 587.527 1071 587.527C1069.95 578.638 1073.87 570.635 1079.2 563.633C1080.09 562.591 1080.09 562.591 1081 561.527Z" fill="#DDEFAC"/>
<path d="M884 674.527C879.48 677.844 875.301 679.657 869.938 681.214C869.243 681.426 868.549 681.639 867.834 681.857C862.751 683.387 858.01 684.68 852.688 684.589C850.862 684.558 850.862 684.558 849 684.527C849 683.867 849 683.207 849 682.527C850.209 682.296 851.418 682.065 852.664 681.828C861.915 680.003 870.641 677.872 879.41 674.382C882 673.527 882 673.527 884 674.527Z" fill="#DDBC86"/>
<path d="M987 192.527C987 192.857 987 193.187 987 193.527C986.139 193.547 985.279 193.567 984.392 193.587C981.121 193.666 977.85 193.753 974.579 193.845C973.178 193.882 971.777 193.917 970.376 193.949C960.442 194.177 950.832 195.078 941 196.527C938.002 196.888 935.003 197.211 932 197.527C946.9 187.594 970.08 191.564 987 192.527Z" fill="#C0DA97"/>
<path d="M531.938 99.2148C532.749 99.1858 533.56 99.1568 534.396 99.1269C540.41 99.0627 540.41 99.0627 543.566 101.547C544.039 102.2 544.513 102.854 545 103.527C528.059 103.798 528.059 103.798 521 102.527C520.67 101.867 520.34 101.207 520 100.527C524.015 99.189 527.732 99.2646 531.938 99.2148Z" fill="#E3C362"/>
<path d="M882 589.527C883.32 590.187 884.64 590.847 886 591.527C884.443 596.198 881.916 599.614 879 603.527C878.01 603.197 877.02 602.867 876 602.527C876.483 597.373 879.186 593.712 882 589.527Z" fill="#DEBF89"/>
<path d="M963 191.527C960.505 194.022 959.327 193.887 955.875 194.152C954.965 194.227 954.055 194.302 953.117 194.379C952.069 194.452 952.069 194.452 951 194.527C955.173 190.947 957.669 191.261 963 191.527Z" fill="#CDE5A2"/>
</svg>
