<svg width="79" height="61" viewBox="0 0 79 61" fill="none" xmlns="http://www.w3.org/2000/svg">
<path d="M9.26617 0.0520443C9.98502 0.0485397 10.7039 0.045035 11.4445 0.0414242C13.8266 0.0326037 16.2083 0.038457 18.5904 0.0452084C20.2418 0.0438618 21.8933 0.0419213 23.5447 0.03941C27.0082 0.0364583 30.4716 0.0407578 33.9351 0.0500912C38.3808 0.0614858 42.8263 0.0549265 47.272 0.0429462C50.6829 0.0357288 54.0937 0.038015 57.5045 0.0432018C59.1441 0.0445387 60.7836 0.0428895 62.4231 0.0382427C64.7121 0.0331794 67.0007 0.0408847 69.2896 0.0520443C71.2458 0.0544311 71.2458 0.0544311 73.2415 0.0568661C76.2779 0.310833 76.2779 0.310833 78.2779 2.31083C78.5319 4.66386 78.5319 4.66386 78.5367 7.64677C78.543 8.76133 78.5493 9.87588 78.5558 11.0242C78.5517 12.2325 78.5477 13.4409 78.5435 14.6858C78.5454 15.9212 78.5473 17.1566 78.5493 18.4295C78.551 21.7167 78.543 25.0038 78.5318 28.2911C78.5279 30.3088 78.5318 32.3263 78.5386 34.344C78.551 38.2081 78.5495 42.0718 78.5435 45.9358C78.5476 47.1442 78.5516 48.3525 78.5558 49.5975C78.5463 51.2693 78.5463 51.2693 78.5367 52.9749C78.5351 53.9593 78.5335 54.9436 78.5319 55.9578C78.2779 58.3108 78.2779 58.3108 76.2779 60.3108C73.2415 60.5648 73.2415 60.5648 69.2896 60.5696C68.5708 60.5731 67.8519 60.5766 67.1113 60.5802C64.7292 60.5891 62.3475 60.5832 59.9654 60.5765C58.3139 60.5778 56.6625 60.5797 55.011 60.5823C51.5475 60.5852 48.0842 60.5809 44.6207 60.5716C40.1749 60.5602 35.7295 60.5667 31.2837 60.5787C27.8729 60.5859 24.4621 60.5837 21.0512 60.5785C19.4117 60.5771 17.7722 60.5788 16.1327 60.5834C13.8437 60.5885 11.5551 60.5808 9.26617 60.5696C7.30998 60.5672 7.30998 60.5672 5.31427 60.5648C2.27789 60.3108 2.27789 60.3108 0.277893 58.3108C0.0239258 55.9578 0.0239258 55.9578 0.019104 52.9749C0.0127997 51.8603 0.00649536 50.7458 0 49.5975C0.00404847 48.3891 0.00809693 47.1808 0.0122681 45.9358C0.0103546 44.7004 0.00844117 43.465 0.00646973 42.1922C0.00475697 38.9049 0.0128261 35.6178 0.0239868 32.3306C0.0278891 30.3129 0.0240014 28.2953 0.0171509 26.2776C0.00483303 22.4136 0.00628329 18.5499 0.0122681 14.6858C0.00821961 13.4775 0.00417115 12.2692 0 11.0242C0.00630432 9.90966 0.0126086 8.7951 0.019104 7.64677C0.0206952 6.66241 0.0222864 5.67805 0.0239258 4.66386C0.618691 -0.846684 4.72355 0.0575868 9.26617 0.0520443ZM17.3404 9.18583C16.3195 10.2377 16.3195 10.2377 15.2779 11.3108C12.5279 12.5608 12.5279 12.5608 10.2779 13.3108C10.2779 14.6308 10.2779 15.9508 10.2779 17.3108C12.5641 18.1069 12.5641 18.1069 15.2779 18.3108C17.6035 17.0742 17.6035 17.0742 19.5904 15.1233C20.2878 14.511 20.9852 13.8987 21.7037 13.2679C23.6957 11.21 23.6957 11.21 23.2779 7.31083C19.3076 6.84722 19.3076 6.84722 17.3404 9.18583ZM31.2779 13.3108C31.2779 14.6308 31.2779 15.9508 31.2779 17.3108C34.2707 18.8072 37.3407 18.4531 40.6216 18.4436C41.3465 18.4446 42.0714 18.4456 42.8183 18.4465C44.3515 18.4472 45.8848 18.4454 47.418 18.4412C49.7685 18.4359 52.1188 18.4412 54.4693 18.4476C55.9576 18.4469 57.4459 18.4456 58.9341 18.4436C59.992 18.4467 59.992 18.4467 61.0712 18.4498C64.7992 18.4858 64.7992 18.4858 68.2779 17.3108C68.2779 15.9908 68.2779 14.6708 68.2779 13.3108C65.2851 11.8144 62.2151 12.1686 58.9341 12.178C58.2092 12.1771 57.4844 12.1761 56.7375 12.1751C55.2042 12.1744 53.671 12.1763 52.1378 12.1805C49.7873 12.1858 47.437 12.1805 45.0865 12.1741C43.5982 12.1748 42.1099 12.1761 40.6216 12.178C39.5638 12.175 39.5638 12.175 38.4846 12.1719C34.7566 12.1359 34.7566 12.1359 31.2779 13.3108ZM31.2779 28.3108C31.2779 29.6308 31.2779 30.9508 31.2779 32.3108C34.2707 33.8072 37.3407 33.4531 40.6216 33.4436C41.3465 33.4446 42.0714 33.4456 42.8183 33.4465C44.3515 33.4472 45.8848 33.4454 47.418 33.4412C49.7685 33.4359 52.1188 33.4412 54.4693 33.4476C55.9576 33.4469 57.4459 33.4456 58.9341 33.4436C59.992 33.4467 59.992 33.4467 61.0712 33.4498C64.7992 33.4858 64.7992 33.4858 68.2779 32.3108C68.2779 30.9908 68.2779 29.6708 68.2779 28.3108C65.2851 26.8144 62.2151 27.1686 58.9341 27.178C58.2092 27.1771 57.4844 27.1761 56.7375 27.1751C55.2042 27.1744 53.671 27.1763 52.1378 27.1805C49.7873 27.1858 47.437 27.1805 45.0865 27.1741C43.5982 27.1748 42.1099 27.1761 40.6216 27.178C39.5638 27.175 39.5638 27.175 38.4846 27.1719C34.7566 27.1359 34.7566 27.1359 31.2779 28.3108ZM31.2779 43.3108C31.2779 44.6308 31.2779 45.9508 31.2779 47.3108C34.2707 48.8072 37.3407 48.4531 40.6216 48.4436C41.3465 48.4446 42.0714 48.4456 42.8183 48.4465C44.3515 48.4472 45.8848 48.4454 47.418 48.4412C49.7685 48.4359 52.1188 48.4412 54.4693 48.4476C55.9576 48.4469 57.4459 48.4456 58.9341 48.4436C59.992 48.4467 59.992 48.4467 61.0712 48.4498C64.7992 48.4858 64.7992 48.4858 68.2779 47.3108C68.2779 45.9908 68.2779 44.6708 68.2779 43.3108C65.2851 41.8144 62.2151 42.1686 58.9341 42.178C58.2092 42.1771 57.4844 42.1761 56.7375 42.1751C55.2042 42.1744 53.671 42.1763 52.1378 42.1805C49.7873 42.1858 47.437 42.1805 45.0865 42.1741C43.5982 42.1748 42.1099 42.1761 40.6216 42.178C39.5638 42.175 39.5638 42.175 38.4846 42.1719C34.7566 42.1359 34.7566 42.1359 31.2779 43.3108Z" fill="#868788"/>
</svg>
