<svg width="1170" height="915" viewBox="0 0 1170 915" fill="none" xmlns="http://www.w3.org/2000/svg">
<path d="M955.418 128.688C960.867 134.011 964.592 140.967 968.293 147.563C969.067 148.937 969.067 148.937 969.857 150.34C987.21 181.514 997.459 215.526 1006.86 249.781C1011.7 267.392 1016.72 284.678 1023.42 301.688C1023.81 302.715 1024.21 303.742 1024.61 304.801C1036.5 335.716 1051.65 365.456 1067.67 394.41C1106.45 464.57 1135.23 540.526 1165.12 699.118C1165.43 701.805 1165.76 704.491 1166.08 707.176C1166.64 711.789 1167.17 716.404 1167.68 721.022C1167.88 722.781 1168.08 724.54 1168.3 726.297C1168.59 728.738 1168.85 731.18 1169.11 733.625C1169.2 734.34 1169.29 735.055 1169.39 735.792C1169.93 741.436 1168.5 744.164 1165.42 748.688C1159.66 755.328 1152.07 759.525 1144.42 763.615C1142.38 764.708 1140.36 765.831 1138.35 766.957C1095.13 790.763 1046.86 804.884 999.513 817.829C957.686 829.281 914.74 841.158 875.418 859.688C873.922 860.381 873.922 860.381 872.397 861.089C856.381 868.523 840.874 876.718 825.47 885.337C824.494 885.878 823.518 886.419 822.512 886.977C821.624 887.471 820.737 887.966 819.822 888.475C816.174 890.315 814.396 890.866 810.418 889.688C800.764 882.743 796.087 870.035 790.958 859.746C789.029 855.915 787.024 852.128 785.013 848.34C746.352 775.3 717.772 696.949 690.765 619.01C687.21 608.758 683.569 598.548 679.793 588.375C666.761 553.085 655.249 517.381 645.543 481.028C640.431 461.886 634.856 443.334 627.348 424.963C626.293 422.382 625.243 419.799 624.193 417.216C623.796 416.237 623.399 415.259 622.989 414.252C622.154 412.197 621.32 410.142 620.487 408.087C618.413 402.976 616.332 397.869 614.231 392.769C607.271 375.807 600.837 358.743 597.106 340.75C596.86 339.596 596.615 338.442 596.363 337.253C595.697 334.068 595.052 330.879 594.418 327.688C594.27 326.965 594.121 326.242 593.968 325.498C589.953 305.464 589.984 280.288 601.418 262.688C606.922 254.876 615.637 250.924 623.77 246.36C632.435 241.457 640.086 235.41 647.418 228.688C652.159 232.318 655.43 236.044 658.731 241C659.204 241.705 659.678 242.409 660.166 243.135C692.124 291.304 699.916 348.587 705.719 404.865C706.718 414.52 707.778 424.115 709.418 433.688C712.906 432.296 716.386 430.89 719.863 429.473C720.926 429.04 721.988 428.607 723.082 428.162C725.45 427.196 727.817 426.23 730.184 425.263C736.104 422.844 742.029 420.439 747.973 418.078C767.494 410.293 786.514 401.515 805.579 392.687C821.314 385.403 837.068 378.259 853.168 371.813C853.809 371.555 854.45 371.297 855.11 371.032C866.264 366.565 866.264 366.565 871.418 365.688C870.979 340.497 867.677 315.869 863.782 291.019C856.768 246.155 856.768 246.155 857.043 226.125C857.059 224.394 857.059 224.394 857.076 222.627C857.4 205.064 861.072 190.008 867.418 173.688C867.854 172.531 868.289 171.375 868.738 170.184C874.279 156.113 882.738 142.434 895.418 133.688C895.972 134.109 896.527 134.531 897.098 134.965C897.822 135.513 898.547 136.061 899.293 136.625C900.012 137.17 900.732 137.716 901.473 138.278C903.362 139.727 903.362 139.727 905.418 140.688C908.188 139.561 910.888 138.369 913.606 137.125C921.127 133.832 928.68 131.206 936.606 129.063C937.56 128.791 938.515 128.52 939.499 128.24C945.066 126.803 950.234 125.628 955.418 128.688Z" fill="#ABDAF9"/>
<path d="M313.65 469.68C316.259 471.014 318.807 472.428 321.355 473.875C322.796 474.677 322.796 474.677 324.265 475.495C333.271 480.537 342.176 485.754 351.078 490.977C357.861 494.953 364.661 498.899 371.48 502.812C372.065 503.148 372.649 503.484 373.251 503.83C382.447 509.1 391.759 514.114 401.225 518.883C412.773 524.754 412.773 524.754 414.418 529.687C414.538 532.206 414.606 534.696 414.621 537.215C414.627 537.959 414.632 538.703 414.638 539.47C414.648 541.049 414.654 542.629 414.658 544.208C414.668 546.585 414.699 548.961 414.73 551.338C414.856 568.499 410.647 580.298 400.48 594.062C399.923 594.824 399.366 595.586 398.792 596.371C397.612 597.982 396.43 599.593 395.245 601.201C393.389 603.727 391.545 606.261 389.703 608.797C388.483 610.469 387.263 612.141 386.043 613.812C385.485 614.581 384.927 615.35 384.352 616.142C375.426 628.302 368.043 634.501 353.883 639.965C346.872 643.45 342.308 648.671 337.793 654.937C337.286 655.627 336.778 656.317 336.256 657.027C334.633 659.24 333.024 661.462 331.418 663.687C330.883 664.427 330.348 665.166 329.798 665.928C327.619 668.941 325.443 671.957 323.272 674.976C319.251 680.562 315.151 686.083 311.008 691.578C307.107 696.754 303.256 701.965 299.418 707.187C295.068 713.103 290.701 719.004 286.293 724.875C285.808 725.521 285.323 726.167 284.823 726.833C282.328 730.154 279.827 733.469 277.32 736.781C272.658 742.949 268.014 749.13 263.543 755.437C262.885 756.36 262.228 757.283 261.551 758.234C255.073 768.276 251.376 779.208 247.889 790.549C243.988 803.144 238.544 814.3 230.73 824.937C229.686 826.389 228.642 827.841 227.597 829.293C227.071 830.019 226.545 830.745 226.003 831.494C223.426 835.06 220.891 838.655 218.355 842.25C217.86 842.951 217.364 843.653 216.853 844.375C213.461 849.182 210.116 854.02 206.793 858.875C203.248 864.048 199.675 869.2 196.043 874.312C195.65 874.868 195.257 875.424 194.853 875.997C187.108 886.841 187.108 886.841 181.418 889.5C180.593 889.898 179.768 890.297 178.918 890.707C170.578 893.978 157.996 894.483 149.48 891.312C147.769 890.485 146.084 889.602 144.418 888.687C143.561 888.235 143.561 888.235 142.687 887.774C131.549 881.894 120.766 875.375 109.947 868.934C102.012 864.211 94.0443 859.548 86.0428 854.937C84.9771 854.323 83.9115 853.709 82.8135 853.076C77.6516 850.106 72.481 847.153 67.2967 844.223C66.3349 843.678 65.3731 843.133 64.3821 842.571C62.5905 841.557 60.7967 840.547 59.0003 839.542C47.0757 832.795 47.0757 832.795 44.1482 826.414C41.8659 817.895 42.1624 806.821 45.6443 798.672C49.6293 791.966 54.6934 786.002 59.597 779.956C62.3 776.589 64.8983 773.148 67.4803 769.687C67.9614 769.044 68.4425 768.401 68.9383 767.739C75.6479 758.737 82.2226 749.628 88.699 740.457C98.3946 726.818 109.671 717.198 123.168 707.562C136.095 698.199 144.626 687.039 153.34 673.797C158.209 666.511 163.411 659.45 168.558 652.359C169.658 650.844 170.757 649.328 171.855 647.812C172.404 647.056 172.952 646.3 173.517 645.521C177.187 640.441 180.764 635.305 184.293 630.125C189.043 623.169 194.023 616.526 199.453 610.082C213.56 593.238 224.778 574.3 226.961 552.066C228.515 540.579 235.548 531.612 242.418 522.687C243.25 521.607 243.25 521.607 244.098 520.504C247.077 516.647 250.075 512.805 253.086 508.973C255.906 505.371 258.609 501.704 261.293 498C269.559 487.064 279.756 480.934 293.418 478.687C293.487 477.932 293.557 477.177 293.629 476.398C294.653 472.878 295.931 472.165 299.043 470.312C299.881 469.789 300.719 469.266 301.582 468.727C306.038 467.094 309.343 467.765 313.65 469.68Z" fill="#29A9E1"/>
<path d="M161.043 89.1873C168.321 93.8441 173.657 101.59 176.418 109.687C176.781 112.828 176.674 115.514 176.418 118.687C175.758 118.357 175.098 118.027 174.418 117.687C175.23 122.083 176.043 126.479 176.855 130.875C177.201 132.744 177.201 132.744 177.553 134.65C177.775 135.852 177.997 137.054 178.227 138.293C178.431 139.398 178.635 140.503 178.845 141.641C179.184 143.444 179.543 145.245 179.943 147.035C180.437 149.796 180.563 152.363 180.592 155.167C180.605 156.244 180.619 157.32 180.632 158.43C180.648 160.172 180.648 160.172 180.664 161.949C180.697 164.458 180.73 166.966 180.764 169.474C180.81 173.39 180.855 177.305 180.895 181.22C181.383 226.815 189.655 261.636 207.363 303.309C211.52 313.104 215.595 322.923 219.46 332.837C219.964 334.128 220.47 335.418 220.978 336.707C229.667 358.77 232.561 379.942 224.391 402.527C220.416 411.254 213.773 419.639 206.855 426.25C194.074 438.486 190.017 450.726 188.418 467.687C190.728 467.687 193.038 467.687 195.418 467.687C196.418 469.687 196.418 469.687 196.105 473.5C196.002 475.672 196.002 475.672 196.418 477.687C197.856 478.832 199.304 479.968 200.82 481.008C204.427 484.799 205.184 490.732 206.418 495.687C206.613 496.337 206.807 496.987 207.008 497.656C207.613 500.652 207.629 503.572 207.668 506.625C207.707 508.433 207.707 508.433 207.746 510.277C207.39 513.978 206.713 515.791 204.418 518.687C199.5 521.796 192.84 522.208 187.168 523C186.483 523.101 185.797 523.201 185.091 523.305C180.946 523.814 178.142 523.614 174.418 521.687C174.418 522.347 174.418 523.007 174.418 523.687C166.668 523.812 166.668 523.812 164.418 522.687C162.733 522.592 161.043 522.557 159.355 522.562C158.457 522.56 157.559 522.557 156.633 522.555C154.444 522.44 154.444 522.44 153.418 523.687C150.63 523.895 147.897 524.012 145.105 524.062C144.333 524.1 143.56 524.137 142.764 524.176C138.795 524.237 137.046 524.227 133.953 521.566C129.169 512.594 130.147 500.607 130.418 490.687C129.098 490.687 127.778 490.687 126.418 490.687C125.282 484.251 125.282 484.251 126 481.269C126.512 478.106 125.905 476.494 124.668 473.562C124.322 472.714 123.977 471.866 123.621 470.992C122.447 468.743 121.216 467.434 119.418 465.687C119.418 465.027 119.418 464.367 119.418 463.687C118.871 463.43 118.325 463.172 117.762 462.906C115.033 461.487 112.506 459.849 109.918 458.187C104.235 454.598 98.3383 451.617 92.293 448.687C84.6906 444.975 77.9697 441.088 71.418 435.687C70.3526 434.864 70.3526 434.864 69.2656 434.023C55.4843 422.861 48.4477 406.961 46.418 389.687C46.1665 386.735 46.0077 383.783 45.8711 380.824C45.8302 379.971 45.7893 379.118 45.7472 378.24C45.2787 367.684 45.171 357.12 45.0301 346.555C45.0385 304.37 45.0385 304.37 39.418 262.687C39.2048 261.703 39.2048 261.703 38.9873 260.699C35.6194 245.947 28.6878 232.37 22.418 218.687C15.0732 202.64 8.39064 186.645 3.41797 169.687C3.21172 168.99 3.00547 168.293 2.79297 167.575C0.421954 159.185 0.136958 150.918 0.0429688 142.25C0.0287891 141.23 0.0146094 140.211 0 139.16C0.0500854 131.547 0.98766 124.768 6.29297 118.875C6.76477 118.332 7.23656 117.789 7.72266 117.23C12.2729 113.089 16.1747 112.159 22.2305 112.25C22.9446 112.26 23.6587 112.269 24.3945 112.279C31.6138 112.523 35.5614 113.895 40.668 118.887C46.418 125.086 46.418 125.086 46.418 127.687C49.572 127.363 52.4662 126.871 55.418 125.687C56.9706 123.1 57.6713 121.498 58.418 118.687C61.0142 110.528 64.8599 106.071 72.418 101.687C81.2917 98.608 93.5133 97.6977 102.48 101.062C107.062 103.519 109.985 107.669 113.266 111.601C115.539 113.805 116.376 114.35 119.48 114.312C120.45 114.106 121.419 113.9 122.418 113.687C122.656 112.67 122.656 112.67 122.898 111.633C127.192 94.5059 127.192 94.5059 133.543 90.1248C140.93 86.4313 153.277 85.6967 161.043 89.1873Z" fill="#A9DAFA"/>
<path d="M558.418 468.687C558.418 471.657 558.418 474.627 558.418 477.687C561.058 479.007 563.698 480.327 566.418 481.687C566.748 480.697 567.078 479.707 567.418 478.687C574.979 479.381 581.732 481.771 588.731 484.562C590.02 485.072 590.02 485.072 591.335 485.592C597.958 488.299 603.55 491.254 608.231 496.812C608.815 497.496 609.399 498.179 610 498.883C614.534 504.653 612.899 514.651 612.418 521.687C610.031 536.989 599.987 551.338 591.856 564.187C581.975 579.834 568.815 601.009 573.008 620.418C577.397 632.567 587.151 640.751 597.179 648.299C617.615 663.702 617.615 663.702 620.418 674.687C621.529 684.062 621.364 694.004 617.418 702.687C616.915 703.8 616.413 704.912 615.895 706.059C609.288 719.794 599.155 730.933 588.805 741.961C581.802 749.428 575.31 757.32 568.918 765.312C564.951 770.201 560.594 774.551 556.094 778.945C553.562 781.54 551.336 784.208 549.106 787.062C543.573 794.009 537.026 799.793 530.418 805.687C529.651 806.38 528.884 807.072 528.094 807.785C526.225 809.449 524.33 811.073 522.418 812.687C521.654 813.354 520.889 814.02 520.102 814.707C510.397 822.893 501.078 826.171 488.675 828.081C481.27 829.328 475.744 831.648 471.098 837.719C465.983 847.549 462.901 857.455 460.093 868.154C456.054 883.315 451.7 898.957 438.035 908.32C425.745 914.92 413.073 915.114 399.483 914.969C396.556 914.938 393.63 914.928 390.703 914.922C355.747 914.78 355.747 914.78 345.918 907.312C341.104 902.258 339.746 897.409 339.289 890.57C339.635 882.844 343.025 877.93 348.418 872.687C348.606 870.096 348.606 870.096 348.418 867.687C347.321 867.18 346.224 866.672 345.094 866.148C343.639 865.454 342.185 864.758 340.731 864.062C340.009 863.731 339.288 863.4 338.545 863.059C333.552 860.642 330.614 858.245 327.418 853.687C325.486 847.892 325.375 840.527 327.543 834.75C331.344 828.542 336.459 825.377 343.418 823.687C347.08 823.189 350.729 822.884 354.418 822.687C353.656 812.909 351.169 806.566 345.418 798.687C340.498 791.815 338.747 786.555 339.918 778.062C342.526 772.195 346.515 768.115 352.543 765.75C361.855 763.222 371.061 764.648 380.339 766.543C400.456 770.574 425.444 771.244 444.418 762.687C445.171 762.351 445.924 762.015 446.699 761.668C453.464 758.096 456.031 752.018 458.299 744.94C459.303 741.217 460.202 737.475 461.09 733.723C462.86 726.694 465 720.46 470.778 715.773C474.053 714.426 477.171 713.866 480.668 713.312C490.405 711.538 497.004 708.513 502.852 700.332C511.992 684.901 515.462 660.682 511.266 643.09C508.09 634.09 502.555 626.866 496.418 619.687C495.972 619.163 495.525 618.638 495.065 618.098C490.584 612.834 486.09 607.581 481.52 602.394C469.69 588.869 458.421 573.057 456.418 554.687C456.336 553.941 456.253 553.195 456.168 552.426C455.556 541.459 461.699 532.819 468.418 524.687C470.348 522.655 472.333 520.709 474.36 518.773C476.69 516.412 478.726 513.907 480.793 511.312C485.302 505.686 490.225 500.686 495.418 495.687C492.646 493.749 492.646 493.749 490.418 492.687C489.606 489.312 489.606 489.312 489.418 485.687C491.491 482.885 493.65 482.071 496.942 481.144C497.866 480.879 498.791 480.614 499.744 480.34C500.75 480.063 501.757 479.786 502.793 479.5C503.839 479.205 504.884 478.911 505.961 478.607C508.232 477.969 510.504 477.335 512.777 476.705C515.919 475.827 519.055 474.929 522.188 474.019C525.408 473.086 528.632 472.169 531.856 471.25C533.069 470.896 534.281 470.542 535.531 470.177C543.583 467.915 550.158 466.622 558.418 468.687Z" fill="#A9D9F9"/>
<path d="M501.668 76.3124C502.455 76.3133 503.243 76.3141 504.054 76.315C540.553 76.4482 590.352 86.428 618.418 111.687C624.913 121.43 619.182 141.689 617.73 152.625C617.594 153.669 617.458 154.712 617.317 155.787C612.112 195.473 603.934 231.863 575.418 261.687C574.55 262.602 574.55 262.602 573.665 263.535C568.985 268.36 564.069 272.412 558.605 276.312C557.787 276.907 556.969 277.502 556.126 278.115C553.561 279.979 550.991 281.834 548.418 283.687C536.61 292.195 525.155 300.845 514.418 310.687C513.568 311.465 512.719 312.242 511.844 313.043C507.506 317.199 503.874 321.639 500.293 326.437C495.516 332.779 491.789 337.445 483.543 338.625C463.644 339.617 448.026 323.692 434.205 311.327C425.678 303.502 425.678 303.502 424.48 299.75C424.46 299.069 424.439 298.389 424.418 297.687C423.837 297.619 423.255 297.551 422.656 297.48C415.076 294.795 410.131 282.007 406.894 275.23C402.24 264.063 400.188 251.568 404.043 239.875C407.147 232.416 411.746 227.285 417.48 221.687C426.844 212.436 429.358 203.544 431.418 190.687C435.295 189.495 438.334 188.687 442.418 188.687C442.057 188.093 441.696 187.499 441.324 186.887C437.733 180.472 436.118 175.039 437.418 167.687C438.514 165.246 439.647 163.735 441.418 161.687C442.815 161.776 444.211 161.884 445.605 162C446.383 162.058 447.16 162.116 447.961 162.176C454.682 163.575 457.742 168.301 461.543 173.562C462.068 174.27 462.592 174.978 463.133 175.707C465.753 179.269 468.229 182.838 470.418 186.687C469.44 179.916 467.537 175.729 463.043 170.625C461.952 169.323 460.864 168.02 459.777 166.715C459.22 166.052 458.662 165.389 458.088 164.706C447.392 151.775 438.025 137.786 429.355 123.437C428.973 122.805 428.591 122.173 428.196 121.521C425.644 117.234 424.242 113.862 424.043 108.875C423.994 108.043 423.945 107.212 423.894 106.355C424.909 101.187 428.557 98.3343 432.582 95.3085C433.727 94.5677 434.881 93.8401 436.043 93.1249C436.662 92.7385 437.281 92.3521 437.919 91.954C445.846 87.0937 453.913 83.7004 462.793 80.9999C463.452 80.7972 464.111 80.5945 464.79 80.3856C476.938 76.8784 489.118 76.2781 501.668 76.3124Z" fill="#F2EECD"/>
<path d="M1011.42 281.688C1013.07 281.688 1014.72 281.688 1016.42 281.688C1016.67 282.415 1016.92 283.143 1017.18 283.893C1030.83 323.351 1049.02 360.752 1069.23 397.25C1107.73 467.192 1136.11 543.216 1165.12 699.118C1165.43 701.805 1165.76 704.491 1166.08 707.176C1166.64 711.789 1167.17 716.404 1167.68 721.022C1167.88 722.781 1168.08 724.54 1168.3 726.297C1168.59 728.738 1168.85 731.18 1169.11 733.625C1169.2 734.34 1169.29 735.055 1169.39 735.791C1169.93 741.436 1168.5 744.164 1165.42 748.688C1159.66 755.328 1152.07 759.524 1144.42 763.615C1142.38 764.708 1140.36 765.831 1138.35 766.957C1095.13 790.763 1046.85 804.884 999.513 817.829C957.686 829.281 914.74 841.158 875.418 859.688C873.922 860.381 873.922 860.381 872.397 861.088C856.381 868.523 840.874 876.718 825.47 885.337C824.494 885.878 823.518 886.419 822.512 886.977C821.624 887.471 820.737 887.966 819.822 888.475C816.174 890.315 814.395 890.866 810.418 889.688C804.693 884.768 798.713 878.014 796.418 870.688C796.08 863.149 800.967 856.368 805.418 850.688C812.103 843.472 819.89 838.031 828.272 832.981C829.803 832.058 831.33 831.127 832.854 830.19C845.211 822.597 857.739 815.792 870.952 809.806C872.629 809.045 874.301 808.275 875.97 807.497C883.46 804.023 891.09 800.967 898.793 798C899.46 797.742 900.127 797.485 900.814 797.22C921.524 789.243 942.362 781.942 963.859 776.369C967.235 775.47 970.584 774.485 973.935 773.498C995.735 767.095 1017.91 762.293 1040.14 757.682C1051.91 755.237 1063.65 752.651 1075.36 749.945C1081.58 748.518 1087.77 747.208 1094.07 746.192C1100.69 744.77 1104.79 741.499 1109.42 736.688C1108.38 736.662 1107.33 736.636 1106.26 736.609C1098.47 736.332 1091.05 735.661 1083.48 733.75C1082.8 733.58 1082.12 733.41 1081.42 733.235C1078.43 732.431 1076.64 731.913 1074.42 729.688C1079.49 727.39 1084.5 725.723 1089.86 724.25C1101.04 721.03 1111.2 716.73 1117.79 706.438C1118.68 704.654 1118.68 704.654 1119.42 702.688C1119.71 701.941 1120.01 701.195 1120.32 700.426C1139.49 640.174 1103.85 549.485 1081.42 494.133C1073.5 474.575 1066.37 454.831 1059.76 434.8C1052.56 412.971 1044.55 391.795 1035.13 370.821C1022.63 342.889 1010.89 312.834 1011.42 281.688Z" fill="#9AC8E2"/>
<path d="M567.418 478.688C574.9 478.931 581.87 481.834 588.73 484.562C589.59 484.902 590.449 485.242 591.335 485.592C597.957 488.299 603.549 491.254 608.23 496.812C608.814 497.496 609.398 498.179 610 498.883C614.534 504.653 612.899 514.651 612.418 521.688C610.031 536.989 599.986 551.338 591.855 564.188C581.975 579.834 568.815 601.009 573.008 620.418C577.396 632.567 587.151 640.751 597.179 648.299C617.615 663.702 617.615 663.702 620.418 674.688C621.529 684.062 621.363 694.005 617.418 702.688C616.915 703.8 616.412 704.912 615.894 706.059C609.288 719.794 599.155 730.933 588.804 741.961C581.801 749.428 575.31 757.32 568.918 765.312C564.951 770.201 560.594 774.551 556.094 778.945C553.562 781.54 551.335 784.208 549.105 787.062C543.572 794.009 537.026 799.793 530.418 805.688C529.651 806.38 528.884 807.072 528.094 807.785C526.225 809.449 524.329 811.073 522.418 812.688C521.653 813.354 520.889 814.02 520.101 814.707C510.397 822.893 501.078 826.171 488.674 828.081C481.27 829.328 475.744 831.648 471.098 837.719C465.983 847.549 462.9 857.455 460.093 868.154C456.054 883.315 451.699 898.957 438.035 908.32C425.745 914.92 413.072 915.114 399.483 914.969C396.556 914.938 393.63 914.928 390.703 914.922C355.746 914.78 355.746 914.78 345.918 907.312C341.104 902.258 339.745 897.409 339.289 890.57C339.634 882.844 343.025 877.93 348.418 872.688C348.606 870.096 348.606 870.096 348.418 867.688C347.321 867.18 346.224 866.672 345.094 866.148C343.639 865.454 342.184 864.759 340.73 864.062C340.009 863.731 339.288 863.4 338.545 863.059C333.552 860.642 330.613 858.245 327.418 853.688C326.26 850.214 326.349 847.327 326.418 843.688C327.408 844.018 328.398 844.347 329.418 844.688C331.1 844.779 332.784 844.819 334.469 844.828C358.309 845.2 358.309 845.2 367.418 850.688C369.705 853.049 370.314 854.491 371.418 857.688C371.665 858.327 371.913 858.966 372.168 859.625C372.97 866.245 372.552 869.81 369.418 875.688C369.293 878.305 369.293 878.305 369.418 880.688C371.268 881.654 373.123 882.61 374.98 883.562C376.013 884.096 377.045 884.63 378.109 885.18C388.257 889.804 399.26 890.311 409.918 887C414.78 885.119 418.635 883.306 422.418 879.688C423.608 876.687 424.116 874.799 424.418 871.688C424.511 870.954 424.603 870.221 424.699 869.465C425.282 860.273 422.4 851.359 420.145 842.54C418.932 837.784 417.764 833.019 416.605 828.25C416.387 827.381 416.168 826.511 415.943 825.616C414.867 821.205 414.157 817.267 414.418 812.688C418.561 812.281 420.708 812.188 424.168 814.625C428.769 820.887 429.835 827.049 429.418 834.688C432.058 834.357 434.698 834.028 437.418 833.688C437.701 832.81 437.983 831.933 438.275 831.03C439.304 828.02 440.455 825.136 441.711 822.215C444.355 815.933 446.722 809.569 449.039 803.16C450.231 799.866 451.434 796.576 452.637 793.285C452.875 792.633 453.113 791.981 453.358 791.309C458.362 777.618 463.504 764.015 469.418 750.688C477.341 755.593 479.594 764.646 482.625 773.023C485.144 779.712 487.711 785.439 494.418 788.688C502.446 790.135 509.831 788.782 516.555 784.246C518.917 782.469 521.17 780.607 523.418 778.688C524.235 778.004 525.052 777.321 525.894 776.617C532.179 771.189 537.337 765.238 542.418 758.688C543.588 757.224 543.588 757.224 544.781 755.73C556.296 741.131 567.502 726.2 571.418 707.688C558.976 709.092 552.181 718.798 544.23 727.609C541.384 730.748 538.458 733.799 535.48 736.812C534.167 738.147 534.167 738.147 532.828 739.508C528.855 743.101 525.863 744.239 520.391 744.055C518.418 743.688 518.418 743.688 515.418 741.75C513.172 738.31 512.433 736.454 512.695 732.391C515.411 722.231 523.671 714.048 530.741 706.664C543.729 693.072 549.063 679.848 548.75 661.285C548.199 647.949 542.878 636.751 536.406 625.297C534.168 621.308 532.443 618.023 532.355 613.375C534.14 607.181 538.394 603.248 543.418 599.375C552.889 591.752 556.266 579.124 558.418 567.688C557.644 567.892 556.871 568.097 556.074 568.309C555.033 568.578 553.991 568.847 552.918 569.125C551.897 569.392 550.876 569.659 549.824 569.934C527.287 574.922 503.122 571.819 483.418 559.688C481.177 558.195 480.552 557.355 480.023 554.722C479.759 552.718 479.583 550.702 479.418 548.688C481.262 549.103 481.262 549.103 483.144 549.527C484.777 549.893 486.41 550.259 488.043 550.625C488.851 550.807 489.659 550.99 490.492 551.178C518.802 557.507 547.683 553.029 572.418 537.688C578.24 533.506 583.588 528.848 585.418 521.688C586.017 515.718 586.24 510.123 583.418 504.688C578.657 502.01 573.92 501.078 568.555 500.215C566.418 499.688 566.418 499.688 564.418 497.688C563.714 491.444 564.246 485.565 566.418 479.688C566.748 479.357 567.078 479.028 567.418 478.688Z" fill="#85C2F8"/>
<path d="M449.242 0C453.357 0.890819 456.594 2.54941 460.23 4.625C460.91 4.99818 461.59 5.37137 462.291 5.75586C467.206 8.4755 467.206 8.4755 468.418 9.6875C468.047 15.4388 466.897 19.4134 464.168 24.5625C463.438 25.963 462.709 27.364 461.98 28.7656C461.574 29.5397 461.168 30.3138 460.75 31.1113C459.272 33.9696 457.842 36.8488 456.418 39.7344C450.859 50.9979 445.16 62.1471 439.084 73.1404C434.854 80.8177 430.806 88.5831 426.793 96.375C426.31 97.3131 426.31 97.3131 425.817 98.2701C424.549 100.731 423.281 103.192 422.014 105.653C416.293 116.761 410.446 127.798 404.501 138.787C396.896 152.853 389.475 167.003 382.19 181.236C380.47 184.587 378.732 187.929 376.992 191.27C375.967 193.263 374.942 195.256 373.918 197.25C373.443 198.154 372.967 199.058 372.478 199.989C372.056 200.819 371.634 201.649 371.199 202.504C370.643 203.578 370.643 203.578 370.076 204.674C369.273 207.13 369.498 208.297 370.418 210.688C371.754 212.423 373.159 214.105 374.605 215.75C383.485 226.53 386.993 234.516 385.708 248.458C383.279 267.156 370.661 282.208 358.418 295.688C357.588 296.616 356.758 297.544 355.902 298.5C354.418 300.156 352.929 301.807 351.434 303.453C349.544 305.548 347.696 307.674 345.855 309.812C331.988 325.62 315.16 337.016 293.703 338.93C283.356 339.224 272.545 337.473 264.418 330.688C253.218 315.673 250.025 298.534 250.105 280.188C250.107 279.53 250.109 278.872 250.111 278.195C250.24 250.562 256.434 225.326 274.418 203.688C274.97 203.021 275.521 202.355 276.09 201.668C285.887 190.925 298.908 186.04 313.012 184.383C319.208 184.181 325.352 185.56 331.418 186.688C331.776 186.012 332.135 185.336 332.504 184.639C336.03 178.073 339.807 171.755 343.855 165.5C345.095 163.57 346.333 161.639 347.57 159.707C348.204 158.718 348.838 157.729 349.492 156.709C352.669 151.724 355.793 146.706 358.918 141.688C363.777 133.893 368.669 126.12 373.605 118.375C374.188 117.46 374.77 116.545 375.37 115.603C378.004 111.469 380.642 107.338 383.293 103.215C390.212 92.409 396.778 81.4082 403.306 70.3639C408.067 62.3084 412.837 54.2687 417.846 46.3643C420.801 41.6996 423.673 36.9886 426.53 32.2642C428.911 28.3326 431.31 24.4121 433.71 20.4922C435.339 17.8169 436.944 15.1282 438.547 12.4375C439.503 10.8742 440.46 9.31167 441.418 7.75C441.838 7.02821 442.258 6.30641 442.691 5.56274C444.593 2.51653 445.676 0.868175 449.242 0Z" fill="#F4F0CF"/>
<path d="M161.043 89.1873C168.321 93.8441 173.657 101.59 176.418 109.687C176.781 112.828 176.674 115.514 176.418 118.687C171.418 113.687 171.418 113.687 169.043 111.125C162.602 105.143 158.177 104.097 149.457 104.347C145.921 104.743 143.398 105.754 140.418 107.687C139.758 107.687 139.098 107.687 138.418 107.687C138.029 108.672 138.029 108.672 137.633 109.676C136.12 113.426 134.566 117.155 132.98 120.875C132.681 121.599 132.381 122.322 132.072 123.068C130.532 126.659 129.74 128.473 126.418 130.687C123.022 131.402 121.636 131.683 118.418 130.687C114.003 127.14 110.078 122.979 106.754 118.39C102.933 115.604 98.8947 116.096 94.293 116.187C92.8737 116.204 92.8737 116.204 91.4258 116.222C83.1568 116.452 77.29 117.91 70.543 122.75C67.9724 126.303 66.7308 129.808 65.4102 133.969C63.8097 138.354 62.3353 141.076 58.418 143.687C55.2739 144.444 52.5625 144.451 49.418 143.687C46.3028 141.381 43.9226 138.626 41.418 135.687C36.9344 130.683 32.6298 129.566 26.1055 128.562C25.0368 128.395 23.9682 128.227 22.8672 128.055C21.6548 127.873 21.6548 127.873 20.418 127.687C24.6972 165.093 35.9785 198.895 52.0974 232.847C52.4409 233.579 52.7843 234.311 53.1382 235.065C53.7826 236.437 54.4344 237.806 55.0951 239.171C57.0847 243.427 57.9686 247.068 58.418 251.687C59.4468 251.445 60.4756 251.203 61.5356 250.953C65.3695 250.052 69.2054 249.159 73.042 248.269C74.6991 247.884 76.3557 247.496 78.0117 247.105C80.3983 246.543 82.7868 245.989 85.1758 245.437C85.9104 245.262 86.645 245.087 87.4019 244.907C91.4719 243.976 95.2431 243.312 99.418 243.687C100.078 244.347 100.738 245.007 101.418 245.687C89.5244 252.242 77.6409 258.764 65.418 264.687C65.323 272.64 65.3169 280.569 65.7568 288.512C66.3555 299.395 66.5521 310.268 66.6641 321.164C66.6724 321.937 66.6807 322.709 66.6892 323.505C66.7669 330.747 66.8376 337.988 66.8948 345.229C66.9268 349.235 66.9681 353.242 67.015 357.248C67.0308 358.751 67.0432 360.254 67.0519 361.757C67.1721 382.213 71.9427 397.846 81.668 415.687C82.1801 416.655 82.6923 417.622 83.22 418.618C90.0725 430.778 100.826 436.33 112.918 442.312C115.431 443.57 117.941 444.834 120.449 446.101C121.352 446.557 121.352 446.557 122.272 447.022C135.42 453.718 144.195 459.943 150.418 473.687C150.418 474.347 150.418 475.007 150.418 475.687C152.207 475.237 152.207 475.237 154.031 474.777C155.598 474.393 157.164 474.009 158.73 473.625C159.909 473.326 159.909 473.326 161.111 473.021C161.869 472.838 162.626 472.654 163.406 472.465C164.103 472.292 164.799 472.119 165.517 471.941C167.418 471.687 167.418 471.687 170.418 472.687C168.768 474.337 167.118 475.987 165.418 477.687C174.759 477.838 182.992 477.828 191.508 473.625C193.418 472.687 193.418 472.687 196.418 471.687C196.294 472.574 196.17 473.461 196.043 474.375C196.167 475.468 196.29 476.561 196.418 477.687C197.877 478.782 199.339 479.873 200.82 480.937C204.378 484.834 205.171 490.68 206.418 495.687C206.613 496.337 206.807 496.987 207.008 497.656C207.613 500.652 207.629 503.572 207.668 506.625C207.707 508.433 207.707 508.433 207.746 510.277C207.39 513.978 206.713 515.791 204.418 518.687C199.5 521.796 192.84 522.208 187.168 523C186.483 523.101 185.797 523.201 185.091 523.305C180.946 523.814 178.142 523.614 174.418 521.687C174.418 522.347 174.418 523.007 174.418 523.687C166.668 523.812 166.668 523.812 164.418 522.687C162.733 522.592 161.043 522.557 159.355 522.562C158.457 522.56 157.559 522.557 156.633 522.555C154.444 522.44 154.444 522.44 153.418 523.687C150.63 523.895 147.897 524.012 145.105 524.062C144.333 524.1 143.56 524.137 142.764 524.176C138.795 524.237 137.046 524.227 133.953 521.566C129.169 512.594 130.147 500.607 130.418 490.687C129.098 490.687 127.778 490.687 126.418 490.687C125.282 484.251 125.282 484.251 126 481.269C126.512 478.106 125.905 476.494 124.668 473.562C124.322 472.714 123.977 471.866 123.621 470.992C122.447 468.743 121.216 467.434 119.418 465.687C119.418 465.027 119.418 464.367 119.418 463.687C118.871 463.43 118.325 463.172 117.762 462.906C115.033 461.487 112.506 459.849 109.918 458.187C104.235 454.598 98.3383 451.617 92.293 448.687C84.6906 444.975 77.9697 441.088 71.418 435.687C70.3526 434.864 70.3526 434.864 69.2656 434.023C55.4843 422.861 48.4477 406.961 46.418 389.687C46.1665 386.735 46.0077 383.783 45.8711 380.824C45.8302 379.971 45.7893 379.118 45.7472 378.24C45.2787 367.684 45.171 357.12 45.0301 346.555C45.0385 304.37 45.0385 304.37 39.418 262.687C39.2048 261.703 39.2048 261.703 38.9873 260.699C35.6194 245.947 28.6878 232.37 22.418 218.687C15.0732 202.64 8.39064 186.645 3.41797 169.687C3.21172 168.99 3.00547 168.293 2.79297 167.575C0.421954 159.185 0.136958 150.918 0.0429688 142.25C0.0287891 141.23 0.0146094 140.211 0 139.16C0.0500854 131.547 0.98766 124.768 6.29297 118.875C6.76477 118.332 7.23656 117.789 7.72266 117.23C12.2729 113.089 16.1747 112.159 22.2305 112.25C22.9446 112.26 23.6587 112.269 24.3945 112.279C31.6138 112.523 35.5614 113.895 40.668 118.887C46.418 125.086 46.418 125.086 46.418 127.687C49.572 127.363 52.4662 126.871 55.418 125.687C56.9706 123.1 57.6713 121.498 58.418 118.687C61.0142 110.528 64.8599 106.071 72.418 101.687C81.2917 98.608 93.5133 97.6977 102.48 101.062C107.062 103.519 109.985 107.669 113.266 111.601C115.539 113.805 116.376 114.35 119.48 114.312C120.45 114.106 121.419 113.9 122.418 113.687C122.656 112.67 122.656 112.67 122.898 111.633C127.192 94.5059 127.192 94.5059 133.543 90.1248C140.93 86.4313 153.277 85.6967 161.043 89.1873Z" fill="#85C2F8"/>
<path d="M311.418 468.688C314.856 470.197 318.092 472.022 321.355 473.875C322.796 474.677 322.796 474.677 324.265 475.495C333.271 480.537 342.176 485.754 351.078 490.977C357.861 494.953 364.661 498.899 371.48 502.813C372.065 503.148 372.649 503.484 373.251 503.83C382.447 509.1 391.759 514.114 401.225 518.883C412.773 524.754 412.773 524.754 414.418 529.688C414.538 532.206 414.606 534.696 414.621 537.215C414.627 537.959 414.632 538.703 414.638 539.47C414.648 541.049 414.654 542.629 414.658 544.208C414.668 546.585 414.699 548.961 414.73 551.338C414.856 568.499 410.647 580.298 400.48 594.063C399.923 594.824 399.366 595.586 398.792 596.371C397.612 597.982 396.43 599.593 395.245 601.201C393.389 603.727 391.545 606.261 389.703 608.797C388.483 610.469 387.263 612.141 386.043 613.812C385.485 614.581 384.927 615.35 384.352 616.142C375.426 628.302 368.043 634.501 353.883 639.965C346.872 643.45 342.308 648.671 337.793 654.938C337.286 655.627 336.778 656.317 336.256 657.027C334.633 659.24 333.024 661.462 331.418 663.688C330.883 664.427 330.349 665.166 329.798 665.928C327.619 668.941 325.443 671.957 323.273 674.976C319.251 680.562 315.151 686.083 311.008 691.578C307.108 696.754 303.256 701.965 299.418 707.188C295.068 713.103 290.701 719.004 286.293 724.875C285.808 725.521 285.323 726.167 284.823 726.833C282.328 730.154 279.827 733.47 277.32 736.781C272.658 742.949 268.014 749.13 263.543 755.438C262.885 756.36 262.228 757.283 261.551 758.234C255.073 768.276 251.376 779.208 247.889 790.549C243.988 803.144 238.544 814.3 230.73 824.938C229.686 826.389 228.642 827.841 227.597 829.293C227.071 830.019 226.545 830.745 226.003 831.494C223.426 835.06 220.891 838.655 218.355 842.25C217.86 842.951 217.364 843.653 216.853 844.375C213.461 849.182 210.116 854.02 206.793 858.875C203.248 864.049 199.676 869.2 196.043 874.312C195.65 874.868 195.257 875.424 194.853 875.997C187.108 886.841 187.108 886.841 181.418 889.5C180.593 889.898 179.768 890.297 178.918 890.707C170.578 893.978 157.996 894.483 149.48 891.312C147.769 890.485 146.084 889.602 144.418 888.688C143.561 888.236 143.561 888.236 142.687 887.774C131.549 881.894 120.766 875.375 109.947 868.934C102.012 864.211 94.0443 859.548 86.0428 854.938C84.9771 854.323 83.9115 853.709 82.8136 853.076C77.6517 850.106 72.4811 847.153 67.2967 844.223C66.3349 843.678 65.3731 843.133 64.3822 842.571C62.5905 841.557 60.7967 840.547 59.0003 839.542C51.6906 835.406 46.2297 831.894 43.4178 823.688C42.9317 817.66 42.9317 817.66 44.4178 814.688C47.9167 815.367 50.6289 816.769 53.7303 818.504C54.7913 819.095 55.8523 819.686 56.9454 820.295C58.0913 820.94 59.2372 821.585 60.4178 822.25C61.6266 822.927 62.8355 823.603 64.0445 824.279C76.6297 831.329 89.1543 838.486 101.66 845.677C103.445 846.703 105.23 847.729 107.016 848.755C110.526 850.772 114.035 852.792 117.543 854.812C118.591 855.416 119.639 856.019 120.719 856.641C126.254 859.835 131.751 863.077 137.19 866.434C145.592 871.163 154.96 871.87 164.418 870.688C179.929 865.858 187.6 852.877 195.917 839.992C198.193 836.497 200.548 833.058 202.918 829.625C203.584 828.658 203.584 828.658 204.264 827.671C207.701 822.696 211.179 817.751 214.668 812.812C215.175 812.094 215.683 811.375 216.205 810.634C218.297 807.674 220.395 804.719 222.519 801.781C224.198 799.444 225.824 797.083 227.418 794.688C227.915 793.96 228.413 793.233 228.926 792.484C232.894 786.044 234.791 779.29 236.793 772.062C242.103 753.105 250.309 739.146 262.418 723.688C263.015 722.923 263.611 722.158 264.226 721.37C266.585 718.347 268.944 715.325 271.311 712.31C275.647 706.761 279.726 701.069 283.743 695.288C288.421 688.595 293.369 682.123 298.339 675.646C303.506 668.906 308.589 662.111 313.587 655.246C316.1 651.799 318.627 648.388 321.324 645.082C321.973 644.273 321.973 644.273 322.635 643.448C323.755 642.062 324.896 640.694 326.039 639.328C327.956 635.657 327.519 633.631 326.418 629.688C320.463 620.261 307.286 615.009 297.73 609.875C290.284 605.871 282.966 601.727 275.793 597.25C275.006 596.766 274.218 596.282 273.407 595.784C269.331 593.199 266.057 590.843 263.418 586.688C263.105 583.438 263.105 583.438 263.418 580.688C264.993 579.112 266.542 579.441 268.73 579.375C279.92 579.6 290.302 585.26 300.286 589.887C302.459 590.894 304.635 591.893 306.812 592.889C312.133 595.327 317.448 597.778 322.762 600.231C325.499 601.493 328.239 602.747 330.98 604C331.739 604.354 332.498 604.708 333.279 605.073C343.127 609.567 352.667 610.887 363.418 609.688C370.057 607.201 373.47 599.24 377.031 593.477C379.357 589.736 381.848 586.138 384.418 582.563C384.833 581.983 385.248 581.403 385.676 580.805C387.694 578.006 389.747 575.244 391.875 572.527C398.617 563.863 403.179 555.473 405.418 544.688C404.597 544.443 403.776 544.198 402.93 543.945C398.818 542.473 395.084 540.605 391.23 538.563C390.416 538.132 389.601 537.702 388.762 537.259C379.747 532.428 370.987 527.173 362.211 521.924C353.382 516.645 344.478 511.501 335.554 506.384C334.53 505.796 333.505 505.208 332.449 504.602C331.547 504.085 330.646 503.569 329.717 503.038C327.915 501.979 326.157 500.847 324.418 499.688C324.418 499.028 324.418 498.368 324.418 497.688C323.778 497.44 323.139 497.193 322.48 496.938C320.964 496.319 320.964 496.319 319.418 495.688C318.833 495.454 318.247 495.221 317.644 494.98C315.197 493.954 312.811 492.837 310.418 491.688C309.771 491.379 309.125 491.07 308.459 490.752C306.26 489.681 304.089 488.565 301.918 487.438C301.199 487.091 300.48 486.745 299.739 486.388C294.76 483.724 294.761 483.724 293.73 480.607C293.449 478.391 293.449 478.391 293.418 474.688C294.875 473.707 296.334 472.728 297.793 471.75C299.011 470.932 299.011 470.932 300.254 470.098C304.253 467.491 306.86 467.439 311.418 468.688Z" fill="#2495BD"/>
<path d="M501.668 76.3124C502.456 76.3133 503.243 76.3141 504.055 76.315C540.553 76.4482 590.352 86.428 618.418 111.687C620.924 115.446 620.563 117.104 619.949 121.414C618.488 127.667 613.624 132.253 608.418 135.687C590.749 144.201 572.158 142.87 553.184 139.441C542.596 137.624 531.882 137.522 521.168 137.562C519.243 137.565 519.243 137.565 517.278 137.568C510.885 137.597 504.544 137.722 498.168 138.187C490.375 138.719 482.583 138.9 474.774 138.974C473.308 138.991 471.842 139.015 470.377 139.046C458.75 139.284 449.044 138.072 439.606 130.75C438.701 130.05 437.796 129.35 436.863 128.629C435.653 127.668 435.653 127.668 434.418 126.687C433.486 126.02 433.486 126.02 432.535 125.34C427.594 121.677 424.994 117.171 424 111.16C423.746 106.592 423.821 104.537 426.539 100.668C429.314 97.5775 432.52 95.294 436.043 93.1249C436.662 92.7385 437.281 92.3521 437.919 91.954C445.846 87.0937 453.913 83.7004 462.793 80.9999C463.452 80.7972 464.111 80.5945 464.79 80.3856C476.938 76.8784 489.118 76.2781 501.668 76.3124Z" fill="#CCC6B0"/>
<path d="M894.418 133.688C908.332 140.065 913.738 155.441 919.418 168.688C920.682 172.479 920.602 176.05 920.605 180C920.618 180.747 920.63 181.494 920.642 182.264C920.654 186.78 920.284 190.49 918.418 194.688C917.939 195.139 917.461 195.59 916.968 196.056C915.067 198.057 914.388 199.852 913.445 202.441C913.103 203.379 912.761 204.317 912.408 205.283C911.887 206.752 911.887 206.752 911.355 208.25C911.004 209.202 910.653 210.154 910.291 211.135C898.934 242.673 907.348 277.06 913.598 308.836C913.78 309.765 913.962 310.694 914.15 311.651C915.041 316.171 915.945 320.687 916.877 325.199C917.13 326.45 917.13 326.45 917.389 327.727C917.703 329.273 918.023 330.818 918.351 332.361C919.393 337.546 919.546 342.399 919.418 347.688C913.877 349.696 908.22 350.961 902.48 352.25C901.517 352.471 900.553 352.692 899.56 352.92C894.525 354.059 889.542 355.053 884.418 355.688C880.396 347.133 880.185 337.799 879.339 328.515C878.332 317.666 876.607 307.136 874.39 296.468C872.136 285.552 870.372 274.576 868.678 263.561C868.16 260.198 867.633 256.836 867.105 253.475C866.766 251.297 866.428 249.119 866.09 246.941C865.936 245.956 865.781 244.97 865.623 243.955C861.559 217.433 859.686 186.221 872.418 161.688C872.897 160.721 873.377 159.754 873.871 158.758C879.103 148.98 886.597 141.428 894.418 133.688Z" fill="#9AC8E2"/>
<path d="M916.418 194.688C918.35 194.836 918.35 194.836 920.418 195.688C921.571 197.667 921.571 197.667 922.496 200.305C922.848 201.29 923.2 202.275 923.563 203.29C923.927 204.37 924.292 205.45 924.668 206.562C925.057 207.684 925.446 208.806 925.847 209.962C935.372 237.804 943.358 266.495 947.418 295.688C947.514 296.369 947.61 297.051 947.709 297.753C950.084 314.78 950.562 331.517 950.418 348.688C943.614 350.296 937.274 350.955 930.293 350.812C929.432 350.803 928.571 350.794 927.683 350.785C925.595 350.762 923.506 350.726 921.418 350.688C919.356 344.037 918.026 337.262 916.668 330.438C916.539 329.795 916.411 329.153 916.279 328.491C913.359 313.838 910.834 299.122 908.391 284.383C907.785 280.76 907.131 277.157 906.375 273.562C902.486 254.717 901.719 231.849 908.418 213.688C908.702 212.905 908.986 212.122 909.278 211.315C914.74 196.365 914.74 196.365 916.418 194.688Z" fill="#FAFCFC"/>
<path d="M522.52 414.266C524.625 414.904 524.625 414.904 527.418 413.687C528.753 413.608 530.092 413.58 531.43 413.59C532.566 413.595 532.566 413.595 533.725 413.6C534.903 413.612 534.903 413.612 536.105 413.625C536.903 413.629 537.7 413.634 538.521 413.639C540.487 413.65 542.452 413.668 544.418 413.687C548.099 420.365 550.196 427.09 552.168 434.437C552.484 435.541 552.8 436.644 553.125 437.781C555.07 444.954 556.626 452.247 555.418 459.687C553.466 462.522 551.427 464.051 548.418 465.687C547.828 466.012 547.237 466.337 546.629 466.672C541.508 468.982 536.289 469.068 530.746 469.371C526.56 469.769 522.759 470.809 518.758 472.066C516.418 472.687 516.418 472.687 512.418 472.687C512.418 473.677 512.418 474.667 512.418 475.687C505.555 479.142 499.123 480.118 491.543 480.187C490.723 480.206 489.902 480.224 489.057 480.242C485.112 480.203 482.918 479.987 479.473 477.922C477.457 475.73 476.427 474.211 475.418 471.437C474.944 470.14 474.944 470.14 474.461 468.816C467.408 447.659 467.408 447.659 467.043 440.687C466.994 440.048 466.945 439.409 466.895 438.75C467.864 434.93 470.863 432.704 474.074 430.605C475.894 429.556 477.735 428.58 479.605 427.625C480.264 427.282 480.922 426.939 481.601 426.586C495.037 419.687 495.037 419.687 500.418 419.687C500.418 418.697 500.418 417.707 500.418 416.687C507.596 414.122 514.953 412.184 522.52 414.266Z" fill="#314497"/>
<path d="M191.541 478.529C195.059 478.342 197.178 478.554 200.277 480.281C202.844 483.167 203.662 485.472 204.668 489.188C205.14 490.874 205.14 490.874 205.621 492.594C206.015 494.125 206.015 494.125 206.418 495.688C206.614 496.339 206.81 496.99 207.012 497.66C207.612 500.655 207.629 503.574 207.668 506.625C207.694 507.83 207.719 509.036 207.746 510.277C207.39 513.978 206.713 515.792 204.418 518.688C199.5 521.797 192.84 522.208 187.168 523C186.482 523.101 185.797 523.202 185.091 523.306C180.946 523.814 178.142 523.615 174.418 521.688C174.418 522.348 174.418 523.008 174.418 523.688C166.668 523.813 166.668 523.813 164.418 522.688C162.732 522.592 161.043 522.558 159.355 522.563C158.457 522.56 157.558 522.557 156.633 522.555C154.444 522.44 154.444 522.44 153.418 523.688C150.63 523.895 147.897 524.012 145.105 524.063C144.333 524.1 143.56 524.137 142.764 524.176C138.795 524.237 137.045 524.228 133.953 521.567C129.244 512.737 129.803 500.457 130.418 490.688C132.057 489.049 134.091 489.565 136.355 489.5C142.103 489.082 147.077 487.687 152.48 485.813C153.262 485.542 154.044 485.272 154.849 484.993C156.366 484.463 157.883 483.932 159.398 483.398C168.734 480.114 177.516 478.999 187.361 478.749C188.756 478.707 190.15 478.633 191.541 478.529Z" fill="#37489B"/>
<path d="M216.418 383.687C218.326 387.503 217.996 391.539 217.418 395.687C213.206 407.284 206.047 417.262 194.98 422.937C187.801 425.039 180.154 424.958 172.73 425.062C171.202 425.119 171.202 425.119 169.643 425.176C162.192 425.263 162.192 425.263 158.32 422.383C153.734 415.884 152.28 409.44 152.23 401.625C152.216 400.603 152.202 399.581 152.188 398.527C152.429 395.554 152.633 394.065 154.418 391.687C164.206 385.82 177.019 385.203 188.105 383.5C189.245 383.321 190.385 383.142 191.559 382.957C210.758 380.108 210.758 380.108 216.418 383.687Z" fill="#DAEEFB"/>
<path d="M313.65 469.68C316.259 471.014 318.808 472.428 321.355 473.875C322.316 474.41 323.276 474.944 324.265 475.495C333.271 480.537 342.176 485.754 351.078 490.977C357.861 494.953 364.661 498.899 371.48 502.812C372.065 503.148 372.649 503.484 373.252 503.83C382.447 509.1 391.759 514.114 401.225 518.883C412.773 524.754 412.773 524.754 414.418 529.687C414.56 531.329 414.638 532.977 414.668 534.625C414.694 535.48 414.72 536.334 414.746 537.215C414.357 540.149 413.351 541.494 411.418 543.687C406.432 543.149 402.9 541.57 398.543 539.125C397.391 538.484 396.238 537.844 395.051 537.184C394.182 536.69 393.313 536.196 392.418 535.687C392.418 533.377 392.418 531.067 392.418 528.687C391.537 528.411 390.656 528.135 389.748 527.851C386.7 526.786 383.993 525.563 381.137 524.07C380.141 523.552 379.146 523.034 378.121 522.5C376.535 521.665 376.535 521.665 374.918 520.812C373.257 519.943 373.257 519.943 371.563 519.057C363.53 514.838 355.556 510.515 347.603 506.148C334.345 498.883 320.926 491.913 307.418 485.125C306.494 484.659 306.494 484.659 305.551 484.185C301.563 482.198 297.524 480.411 293.418 478.687C293.716 475.455 294.003 474.062 296.457 471.852C297.31 471.344 298.164 470.836 299.043 470.312C299.881 469.789 300.719 469.266 301.582 468.727C306.038 467.094 309.343 467.765 313.65 469.68Z" fill="#EA4639"/>
<path d="M496.418 511.688C501.333 514.168 504.963 517.866 508.918 521.629C513.166 525.127 516.832 525.929 522.27 525.961C523.368 525.982 524.466 526.002 525.598 526.024C527.902 526.05 530.207 526.068 532.512 526.078C533.607 526.101 534.703 526.125 535.832 526.149C537.332 526.161 537.332 526.161 538.862 526.173C541.418 526.688 541.418 526.688 543.255 528.506C544.418 530.688 544.418 530.688 544.605 534.125C543.17 538.433 541.782 539.566 537.845 541.607C529.517 545.315 520.23 545.06 511.279 545.058C509.119 545.063 506.962 545.099 504.803 545.137C491.966 545.242 480.681 542.907 470.418 534.688C469.758 534.028 469.098 533.368 468.418 532.688C468.78 526.283 470.706 521.97 475.418 517.688C481.978 513.201 488.344 509.91 496.418 511.688Z" fill="#D8EDFB"/>
<path d="M157.548 713.751C158.165 714.06 158.782 714.369 159.418 714.687C160.446 715.189 161.475 715.69 162.535 716.207C169.158 719.612 174.782 723.842 180.418 728.687C181.449 729.492 182.48 730.296 183.543 731.125C186.313 734.911 186.017 738.153 185.418 742.687C184.668 746.125 184.668 746.125 183.418 748.687C178.663 751.687 173.833 751.609 168.418 750.687C163.097 748.562 158.305 745.642 153.418 742.687C151.499 741.553 149.579 740.419 147.66 739.285C145.619 738.068 143.58 736.847 141.543 735.625C140.58 735.048 139.618 734.471 138.626 733.876C122.286 723.905 122.286 723.905 120.641 719.703C120.355 717.75 120.355 717.75 120.418 714.687C121.852 713.704 123.291 712.726 124.73 711.75C125.531 711.205 126.331 710.659 127.156 710.098C137.302 703.771 147.999 709.019 157.548 713.751Z" fill="#97D5F1"/>
<path d="M372.481 775.937C373.585 776.541 374.69 777.144 375.828 777.766C376.699 778.23 376.699 778.23 377.588 778.703C378.834 779.373 380.065 780.073 381.282 780.797C388.683 784.745 396.574 784.222 404.731 784.187C407.602 784.175 410.472 784.189 413.344 784.219C415.237 784.212 415.237 784.212 417.169 784.205C420.418 784.687 420.418 784.687 422.86 786.498C424.418 788.687 424.418 788.687 424.418 792.187C423.347 795.935 422.653 797.531 419.418 799.687C416.253 799.606 414.653 798.848 412.043 797.062C408.426 795.168 406.288 795.592 402.418 796.687C400.19 799.858 400.161 802.721 400.152 806.519C400.15 807.648 400.147 808.777 400.145 809.939C400.156 811.702 400.156 811.702 400.168 813.5C400.16 814.663 400.153 815.827 400.145 817.025C400.158 823.022 400.517 828.013 402.418 833.687C402.952 838.471 403.02 842.433 400.918 846.812C400.423 847.431 399.928 848.05 399.418 848.687C398.428 848.357 397.438 848.027 396.418 847.687C395.401 845.065 394.59 842.577 393.856 839.875C393.637 839.105 393.419 838.334 393.194 837.541C391.72 832.197 390.684 826.874 389.867 821.391C388.275 811.812 384.86 802.238 377.418 795.687C374.6 794.401 374.6 794.401 371.445 793.469C370.299 793.094 369.152 792.718 367.971 792.332C365.557 791.568 363.143 790.805 360.729 790.043C359.583 789.668 358.438 789.293 357.258 788.906C356.21 788.576 355.162 788.245 354.082 787.904C351.117 786.55 349.971 785.529 348.418 782.687C348.356 779.125 348.356 779.125 349.418 775.687C356.638 769.948 364.959 772.04 372.481 775.937Z" fill="#D9EDFB"/>
<path d="M309.418 494.687C310.638 495.329 310.638 495.329 311.883 495.984C324.438 502.974 337.011 510.954 348.418 519.687C348.418 526.547 348.418 526.547 345.781 529.555C341.571 532.907 338.926 534.269 333.418 533.687C330.543 532.578 330.543 532.578 327.418 530.937C326.83 530.634 326.243 530.33 325.637 530.017C321.815 528.022 318.047 525.931 314.281 523.832C312.432 522.804 310.581 521.776 308.73 520.75C307.797 520.232 306.864 519.714 305.902 519.181C298.972 515.394 291.936 512.152 284.583 509.274C280.111 507.507 276.176 505.727 272.418 502.687C272.043 498.937 272.043 498.937 272.418 495.687C283.858 488.867 297.539 488.19 309.418 494.687Z" fill="#97D5F1"/>
<path d="M169.418 482.688C170.217 484.387 170.217 484.387 170.805 486.59C171.021 487.394 171.237 488.198 171.46 489.026C171.673 489.884 171.886 490.742 172.105 491.625C172.327 492.487 172.548 493.349 172.776 494.238C174.234 500.195 174.922 505.541 174.418 511.688C173.139 511.997 171.86 512.306 170.543 512.625C168.317 513.164 166.47 513.661 164.418 514.688C164.011 517.009 163.673 519.345 163.418 521.688C162.78 521.748 162.142 521.809 161.484 521.871C160.658 521.955 159.832 522.039 158.98 522.125C158.157 522.206 157.333 522.288 156.484 522.371C154.431 522.477 154.431 522.477 153.418 523.688C150.63 523.895 147.897 524.012 145.105 524.063C144.333 524.1 143.56 524.137 142.764 524.176C138.795 524.237 137.045 524.228 133.953 521.567C129.244 512.737 129.803 500.457 130.418 490.688C132.057 489.049 134.091 489.565 136.355 489.5C143.829 488.97 150.418 486.562 157.414 484.063C165.259 481.302 165.259 481.302 169.418 482.688Z" fill="#304396"/>
<path d="M505.293 424.813C508.939 426.314 510.765 429.206 512.332 432.762C513.247 435.222 514.095 437.695 514.918 440.188C515.218 441.075 515.519 441.962 515.828 442.875C516.704 445.476 517.563 448.081 518.418 450.688C518.651 451.387 518.884 452.087 519.125 452.808C522.656 463.441 522.656 463.441 522.418 468.688C519.778 468.688 517.138 468.688 514.418 468.688C514.418 468.028 514.418 467.368 514.418 466.688C513.842 467 513.266 467.312 512.672 467.633C510.502 468.648 508.7 469.133 506.355 469.563C500.835 470.704 495.669 472.666 490.418 474.688C488.363 471.112 487.521 467.354 486.605 463.375C484.926 456.322 482.783 449.535 480.371 442.699C479.418 439.688 479.418 439.688 479.418 436.688C480.396 436.506 480.396 436.506 481.395 436.32C486.199 435.399 490.831 434.435 495.418 432.688C496.16 432.42 496.903 432.151 497.668 431.875C500.074 430.243 500.455 428.371 501.418 425.688C503.418 424.688 503.418 424.688 505.293 424.813Z" fill="#23356A"/>
<path d="M522.418 414.688C522.418 416.338 522.418 417.988 522.418 419.688C520.503 420.504 518.586 421.315 516.668 422.125C515.601 422.578 514.533 423.03 513.434 423.496C510.139 424.798 507.307 425.603 503.793 425.938C503.009 426.185 502.225 426.433 501.418 426.688C501.15 427.451 500.882 428.214 500.605 429C499.047 432.528 497.358 433.336 493.926 434.906C489.205 436.377 484.334 436.524 479.418 436.688C479.609 437.275 479.8 437.863 479.997 438.469C483.779 450.138 487.434 461.787 490.418 473.688C491.313 473.35 492.207 473.012 493.129 472.664C500.151 470.074 506.995 467.833 514.418 466.688C514.418 467.348 514.418 468.008 514.418 468.688C517.058 468.688 519.698 468.688 522.418 468.688C522.418 467.038 522.418 465.388 522.418 463.688C524.418 465.688 524.418 465.688 524.418 468.688C525.408 469.018 526.398 469.348 527.418 469.688C525.67 470.194 523.919 470.692 522.168 471.188C521.193 471.466 520.219 471.744 519.215 472.031C516.418 472.688 516.418 472.688 512.418 472.688C512.418 473.678 512.418 474.668 512.418 475.688C505.555 479.142 499.123 480.118 491.543 480.188C490.723 480.206 489.902 480.224 489.057 480.242C485.112 480.203 482.918 479.987 479.473 477.922C477.457 475.73 476.427 474.212 475.418 471.438C474.944 470.14 474.944 470.14 474.461 468.816C467.408 447.659 467.408 447.659 467.043 440.688C466.994 440.048 466.945 439.409 466.895 438.75C467.864 434.93 470.863 432.704 474.074 430.605C475.894 429.557 477.735 428.58 479.605 427.625C480.264 427.282 480.922 426.939 481.601 426.586C495.037 419.688 495.037 419.688 500.418 419.688C500.418 418.698 500.418 417.708 500.418 416.688C507.037 414.321 515.679 411.318 522.418 414.688Z" fill="#314297"/>
<path d="M152.543 109.375C156.296 109.476 159.568 109.798 162.793 111.926C166.793 116.262 168.537 122.19 170.418 127.688C170.834 128.894 171.251 130.101 171.68 131.344C173.783 138.252 174.802 144.677 174.918 151.875C174.946 152.954 174.946 152.954 174.974 154.054C174.934 157.408 174.627 159.389 172.688 162.16C169.238 164.482 166.931 164.145 162.934 163.52C154.152 160.615 149.327 148.253 145.312 140.52C142.63 135.023 142.028 130.139 141.981 124.125C141.948 123.383 141.915 122.641 141.881 121.877C141.839 117.596 142.034 116.149 144.883 112.723C145.72 112.051 146.556 111.379 147.418 110.688C148.959 109.147 150.403 109.444 152.543 109.375Z" fill="#DAEDFB"/>
<path d="M1155.42 754.688C1156.08 755.018 1156.74 755.347 1157.42 755.688C1111.47 787.593 1052.81 803.257 999.513 817.829C957.686 829.281 914.74 841.158 875.418 859.688C874.421 860.15 873.424 860.612 872.396 861.088C859.149 867.238 846.191 873.803 833.426 880.898C832.615 881.348 831.804 881.799 830.969 882.262C829.138 883.285 827.312 884.319 825.49 885.359C824.519 885.906 823.548 886.452 822.547 887.016C821.666 887.517 820.785 888.019 819.877 888.536C816.452 890.14 814.125 890.182 810.418 889.688C810.088 888.697 809.758 887.707 809.418 886.688C810.484 886.492 811.55 886.296 812.648 886.094C818.845 884.537 824.186 881.274 829.73 878.188C831.483 877.23 833.236 876.272 834.99 875.315C837.802 873.778 840.61 872.232 843.418 870.688C894.113 842.872 950.571 826.945 1006.17 812.073C1011.59 810.622 1017.01 809.16 1022.42 807.688C1023.36 807.431 1024.31 807.174 1025.28 806.909C1067.96 795.196 1111.63 780.109 1149.91 757.646C1151.72 756.603 1153.56 755.637 1155.42 754.688Z" fill="#AADAF8"/>
<path d="M356.418 283.688C357.408 284.018 358.398 284.347 359.418 284.688C351.484 302.851 327.808 316.065 310.418 323.688C309.764 323.975 309.109 324.263 308.435 324.559C303.774 326.469 299.764 327.12 294.668 327.125C293.394 327.144 292.121 327.164 290.808 327.184C287.418 326.688 287.418 326.688 284.98 324.895C282.789 321.8 283.134 319.382 283.418 315.688C290.613 311.469 296.663 309.935 304.918 309.312C325.552 307.191 342.338 299.108 356.418 283.688Z" fill="#FCFCF3"/>
<path d="M544.418 413.688C548.099 420.365 550.196 427.09 552.168 434.438C552.484 435.541 552.8 436.644 553.125 437.781C555.063 444.93 556.688 452.276 555.418 459.688C552.482 463.699 549.273 465.71 544.418 466.688C544.271 465.25 544.126 463.813 543.98 462.375C543.839 460.993 543.839 460.993 543.695 459.582C543.522 457.769 543.365 455.954 543.234 454.137C542.76 447.76 541.732 441.598 540.434 435.345C539.637 431.394 539.274 427.717 539.418 423.688C538.49 423.935 538.49 423.935 537.543 424.188C533.202 424.882 528.799 425.145 524.418 424.688C523.758 424.028 523.098 423.368 522.418 422.688C525.606 418.319 528.482 415.56 533.73 414C537.319 413.583 540.806 413.626 544.418 413.688Z" fill="#324398"/>
<path d="M180.293 436.437C182.858 437.946 183.297 438.971 184.418 441.687C185.074 444.992 185.226 448.327 185.418 451.687C185.495 452.895 185.573 454.103 185.652 455.348C185.699 456.594 185.745 457.841 185.793 459.125C185.866 460.886 185.866 460.886 185.941 462.684C185.418 465.687 185.418 465.687 183.207 467.555C178.853 469.323 175.012 469.881 170.418 468.687C167.981 466.352 166.712 463.776 165.418 460.687C165.054 459.918 164.691 459.148 164.316 458.355C163.201 455.044 163.081 452.178 163.043 448.687C163.015 447.491 162.986 446.295 162.957 445.062C163.498 441.099 164.636 439.5 167.418 436.687C171.388 434.703 176.118 435.348 180.293 436.437Z" fill="#D7EDFB"/>
<path d="M539.418 423.687C545.388 453.814 545.388 453.814 544.418 467.687C539.963 468.182 539.963 468.182 535.418 468.687C532.526 460.837 530.997 452.889 529.418 444.687C528.878 441.917 528.28 439.382 527.418 436.687C526.428 436.357 525.438 436.027 524.418 435.687C522.385 431.942 522.343 428.879 522.418 424.687C524.314 424.518 526.21 424.352 528.106 424.187C529.161 424.095 530.217 424.002 531.305 423.906C534.026 423.715 536.692 423.671 539.418 423.687Z" fill="#22346A"/>
<path d="M554.418 467.687C554.418 469.667 554.418 471.647 554.418 473.687C547.644 476.981 540.805 479.171 533.543 481.125C532.45 481.423 531.356 481.721 530.23 482.028C528.012 482.631 525.793 483.231 523.574 483.828C520.703 484.61 517.843 485.423 514.984 486.25C506.326 488.715 498.522 490.505 489.418 489.687C489.748 487.707 490.078 485.727 490.418 483.687C500.215 479.745 510.38 477.042 520.552 474.259C523.546 473.437 526.535 472.597 529.523 471.758C531.449 471.228 533.375 470.699 535.301 470.172C536.182 469.922 537.064 469.672 537.972 469.414C543.624 467.893 548.564 467.452 554.418 467.687Z" fill="#35499D"/>
<path d="M33.418 240.688C37.2572 242.607 37.8625 247.91 39.1836 251.816C45.4262 271.061 45.7634 291.385 46.4805 311.438C46.5656 313.661 46.651 315.884 46.7366 318.107C47.1575 329.359 47.4815 340.608 47.6602 351.867C47.6779 352.922 47.6956 353.978 47.7138 355.065C47.7958 360.067 47.8624 365.067 47.9006 370.069C48.161 392.555 51.4176 412.376 67.4805 429.312C76.4938 437.933 86.7345 443.524 98.01 448.671C110.989 454.642 123.729 461.115 129.98 474.688C131.748 479.627 131.422 483.623 130.418 488.688C130.418 489.348 130.418 490.007 130.418 490.688C129.098 490.688 127.778 490.688 126.418 490.688C125.282 484.252 125.282 484.252 126 481.27C126.512 478.106 125.905 476.494 124.668 473.562C124.322 472.714 123.977 471.866 123.621 470.992C122.447 468.743 121.216 467.434 119.418 465.688C119.418 465.027 119.418 464.368 119.418 463.688C118.871 463.43 118.325 463.172 117.762 462.906C115.033 461.487 112.506 459.849 109.918 458.188C104.235 454.598 98.3383 451.617 92.293 448.688C84.6906 444.975 77.9697 441.088 71.418 435.688C70.3526 434.864 70.3526 434.864 69.2656 434.023C55.4843 422.861 48.4477 406.961 46.418 389.688C46.1665 386.735 46.0077 383.784 45.8711 380.824C45.8302 379.971 45.7893 379.119 45.7472 378.24C45.2787 367.684 45.171 357.12 45.0301 346.556C45.0158 297.281 45.0158 297.281 35.5039 249.227C34.6284 246.373 33.928 243.623 33.418 240.688Z" fill="#A7D9FA"/>
<path d="M295.418 478.688C307.779 483.853 319.509 489.857 331.242 496.312C337.252 499.616 343.325 502.789 349.418 505.938C356.61 509.66 363.712 513.494 370.74 517.516C377.815 521.537 385.107 525.119 392.418 528.688C392.418 530.997 392.418 533.307 392.418 535.688C392.088 535.027 391.758 534.368 391.418 533.688C390.611 533.426 389.804 533.164 388.973 532.895C384.172 531.264 379.962 528.839 375.543 526.375C373.567 525.285 371.59 524.195 369.613 523.105C368.593 522.541 367.572 521.977 366.521 521.396C361.501 518.632 356.459 515.911 351.418 513.188C345.355 509.911 339.297 506.626 333.258 503.305C332.266 502.76 331.274 502.215 330.252 501.654C328.378 500.624 326.506 499.592 324.635 498.557C319.974 495.997 315.31 493.78 310.418 491.688C307.567 490.191 304.773 488.602 301.98 487C301.249 486.584 300.517 486.169 299.764 485.74C297.98 484.726 296.199 483.707 294.418 482.688C294.748 481.367 295.078 480.048 295.418 478.688Z" fill="#26738A"/>
<path d="M174.418 479.688C174.673 481.302 174.673 481.302 174.934 482.949C176.301 491.29 177.965 499.216 180.648 507.246C181.418 509.688 181.418 509.688 181.418 511.688C188.348 512.183 188.348 512.183 195.418 512.688C195.913 515.162 195.913 515.162 196.418 517.688C194.628 518.358 192.836 519.024 191.043 519.688C190.045 520.059 189.048 520.43 188.02 520.812C185.418 521.688 185.418 521.688 183.418 521.688C183.418 522.348 183.418 523.007 183.418 523.688C176.668 522.812 176.668 522.812 174.418 521.688C174.418 522.348 174.418 523.007 174.418 523.688C173.16 523.729 171.902 523.77 170.605 523.812C169.898 523.836 169.19 523.859 168.461 523.883C166.418 523.688 166.418 523.688 163.418 521.688C162.918 518.25 162.918 518.25 163.418 514.688C166.95 511.467 169.816 511.579 174.418 511.688C173.072 501.504 170.876 491.65 168.418 481.688C172.168 479.688 172.168 479.688 174.418 479.688Z" fill="#3F56B7"/>
<path d="M170.418 472.688C168.768 474.337 167.118 475.987 165.418 477.688C174.759 477.838 182.992 477.829 191.508 473.625C193.418 472.688 193.418 472.688 196.418 471.688C196.418 473.668 196.418 475.648 196.418 477.688C191.352 479.339 187.107 479.874 181.73 479.938C170.658 480.316 160.431 483.818 150.073 487.528C145.442 489.158 141.302 490.115 136.355 490.375C135.23 490.441 134.105 490.506 132.945 490.574C132.111 490.612 131.277 490.649 130.418 490.688C130.088 488.378 129.758 486.068 129.418 483.688C137.24 479.229 145.133 476.901 153.855 474.812C155.121 474.493 156.386 474.173 157.689 473.844C167.02 471.555 167.02 471.555 170.418 472.688Z" fill="#81BAEE"/>
<path d="M522.418 414.688C522.418 416.338 522.418 417.988 522.418 419.688C520.503 420.504 518.586 421.315 516.668 422.125C515.6 422.578 514.533 423.03 513.433 423.496C510.138 424.798 507.307 425.603 503.793 425.938C503.009 426.185 502.225 426.433 501.418 426.688C501.15 427.451 500.881 428.214 500.605 429C499.047 432.526 497.359 433.396 493.926 434.973C489.167 436.329 484.315 435.981 479.418 435.688C479.068 430.619 479.068 430.619 480.418 427.688C484.159 425.064 488.186 423.374 492.418 421.688C493.31 421.303 494.202 420.919 495.121 420.523C497.418 419.688 497.418 419.688 500.418 419.688C500.418 418.698 500.418 417.708 500.418 416.688C507.037 414.321 515.679 411.318 522.418 414.688Z" fill="#425ABB"/>
<path d="M505.293 424.813C508.94 426.314 510.766 429.206 512.332 432.762C513.247 435.222 514.095 437.695 514.918 440.188C515.369 441.518 515.369 441.518 515.829 442.875C516.704 445.476 517.563 448.081 518.418 450.688C518.651 451.387 518.884 452.087 519.125 452.808C522.656 463.441 522.656 463.441 522.418 468.688C519.778 468.688 517.138 468.688 514.418 468.688C512.544 464.18 510.694 459.664 508.864 455.138C508.24 453.603 507.609 452.071 506.972 450.541C500.466 434.894 500.466 434.894 501.418 425.688C503.418 424.688 503.418 424.688 505.293 424.813Z" fill="#223569"/>
<path d="M619.418 689.688C621.477 695.866 617.725 702.35 615.005 707.937C608.392 720.833 598.659 731.461 588.804 741.961C581.801 749.428 575.31 757.32 568.918 765.312C564.951 770.201 560.594 774.551 556.094 778.945C553.562 781.54 551.335 784.208 549.106 787.062C543.573 794.009 537.026 799.793 530.418 805.688C529.651 806.38 528.884 807.072 528.094 807.785C526.225 809.449 524.329 811.073 522.418 812.688C521.271 813.687 521.271 813.687 520.102 814.707C510.397 822.893 501.078 826.171 488.674 828.081C482.136 829.182 476.2 831.014 472.046 836.499C470.885 838.46 469.882 840.435 468.918 842.5C468.4 843.539 468.4 843.539 467.871 844.6C467.034 846.286 466.223 847.985 465.418 849.688C464.418 846.688 464.418 846.688 465.57 843.762C469.872 835.602 473.742 829.958 482.543 826.438C486.418 825.688 486.418 825.688 489.441 825.414C505.233 823.817 515.754 816.248 526.726 805.342C528.498 803.61 530.31 801.932 532.141 800.262C539.819 793.253 547.056 786 553.996 778.262C555.424 776.68 556.871 775.117 558.324 773.559C563.216 768.305 567.899 762.957 572.336 757.309C578.262 749.848 584.477 742.648 590.981 735.688C603.587 722.103 613.86 707.51 619.418 689.688Z" fill="#A6D7FA"/>
<path d="M486.418 435.688C489.704 443.692 492.869 451.731 495.793 459.875C496.055 460.593 496.318 461.311 496.588 462.051C497.809 465.496 498.418 467.986 498.418 471.688C495.448 472.678 492.478 473.668 489.418 474.688C489.089 473.286 489.089 473.286 488.754 471.856C486.648 463.073 484.184 454.475 481.349 445.897C481.099 445.131 480.848 444.364 480.59 443.574C480.364 442.896 480.138 442.217 479.905 441.518C479.418 439.688 479.418 439.688 479.418 436.688C481.881 435.456 483.697 435.616 486.418 435.688Z" fill="#22366A"/>
<path d="M393.418 522.688C400.616 524.977 407.59 527.446 414.418 530.688C414.891 538.88 414.891 538.88 412.918 542.25C412.423 542.724 411.928 543.199 411.418 543.688C406.432 543.149 402.9 541.57 398.543 539.125C397.391 538.484 396.238 537.844 395.051 537.184C394.182 536.69 393.313 536.196 392.418 535.688C392.391 534.271 392.371 532.854 392.355 531.438C392.344 530.649 392.332 529.86 392.32 529.047C392.414 526.781 392.786 524.859 393.418 522.688Z" fill="#CA3B34"/>
<path d="M130.418 490.688C132.398 490.688 134.378 490.688 136.418 490.688C142.181 513.282 142.181 513.282 142.418 523.688C139.668 524 139.668 524 136.418 523.688C130.859 518.61 130.978 511.797 130.418 504.688C130.239 500.02 130.29 495.356 130.418 490.688Z" fill="#23366C"/>
<path d="M611.418 512.688C611.748 512.688 612.078 512.688 612.418 512.688C613.705 531.677 601.587 548.808 591.855 564.188C582.337 579.26 574.115 594.698 572.418 612.688C572.088 612.688 571.758 612.688 571.418 612.688C569.202 589.445 585.568 567.174 597.101 548.293C603.972 536.964 609.413 525.946 611.418 512.688Z" fill="#A7D8FA"/>
<path d="M516.48 424.625C517.934 424.656 517.934 424.656 519.418 424.688C522.169 430.706 523.661 435.781 523.418 442.438C523.173 449.377 524.543 454.94 526.543 461.508C527.418 464.688 527.418 464.688 527.418 468.688C526.428 468.688 525.438 468.688 524.418 468.688C523.19 464.883 521.963 461.079 520.738 457.274C520.119 455.356 519.5 453.438 518.881 451.52C517.719 447.911 516.567 444.3 515.418 440.688C514.942 439.217 514.942 439.217 514.456 437.718C514.044 436.415 514.044 436.415 513.625 435.086C513.389 434.348 513.153 433.61 512.909 432.849C512.35 430.387 512.266 428.204 512.418 425.688C513.418 424.688 513.418 424.688 516.48 424.625Z" fill="#223469"/>
<path d="M170.418 472.688C168.768 474.337 167.118 475.987 165.418 477.688C174.759 477.838 182.992 477.829 191.508 473.625C193.418 472.688 193.418 472.688 196.418 471.688C196.418 473.668 196.418 475.648 196.418 477.688C191.35 479.342 186.814 479.911 181.48 480C174.434 480.242 168.313 481.587 161.684 483.96C158.122 485.23 155.209 485.97 151.418 485.688C151.748 483.707 152.078 481.727 152.418 479.688C151.428 479.357 150.438 479.028 149.418 478.688C151.375 478.017 153.334 477.351 155.293 476.688C156.384 476.316 157.474 475.945 158.598 475.562C161.418 474.688 161.418 474.688 163.418 474.688C163.418 474.027 163.418 473.368 163.418 472.688C166.428 471.753 167.284 471.643 170.418 472.688Z" fill="#95C1E5"/>
<path d="M522.418 463.688C524.418 465.688 524.418 465.688 524.418 468.688C525.408 469.018 526.398 469.347 527.418 469.688C525.67 470.194 523.919 470.692 522.168 471.188C521.193 471.466 520.219 471.744 519.215 472.031C516.418 472.688 516.418 472.688 512.418 472.688C512.418 473.678 512.418 474.668 512.418 475.688C505.565 478.557 499.889 480.518 492.418 479.688C490.418 476.688 490.418 476.688 490.418 473.688C498.329 470.701 506.028 467.983 514.418 466.688C514.418 467.348 514.418 468.007 514.418 468.688C517.058 468.688 519.698 468.688 522.418 468.688C522.418 467.038 522.418 465.388 522.418 463.688Z" fill="#92BDE2"/>
<path d="M174.418 479.688C176.068 479.688 177.718 479.688 179.418 479.688C183.766 489.946 184.938 500.643 185.418 511.688C184.098 511.688 182.778 511.688 181.418 511.688C173.846 490.272 173.846 490.272 174.418 479.688Z" fill="#22346A"/>
<path d="M169.418 482.688C170.218 484.386 170.218 484.386 170.805 486.59C171.129 487.796 171.129 487.796 171.46 489.026C171.673 489.884 171.886 490.741 172.106 491.625C172.327 492.487 172.548 493.349 172.776 494.238C174.234 500.195 174.922 505.541 174.418 511.688C173.098 511.688 171.778 511.688 170.418 511.688C169.434 509.127 168.456 506.564 167.481 504C167.203 503.279 166.925 502.558 166.639 501.814C164.141 495.222 163.299 489.725 163.418 482.688C166.418 481.688 166.418 481.688 169.418 482.688Z" fill="#22356B"/>
<path d="M190.418 478.688C190.611 479.833 190.805 480.979 191.004 482.16C191.267 483.69 191.53 485.22 191.793 486.75C191.982 487.878 191.982 487.878 192.176 489.029C192.792 492.587 193.498 495.964 194.512 499.438C195.33 502.372 195.636 504.607 195.543 507.625C195.525 508.397 195.507 509.169 195.488 509.965C195.453 510.818 195.453 510.818 195.418 511.688C193.768 511.357 192.118 511.028 190.418 510.688C189.573 506.836 188.744 502.981 187.918 499.125C187.679 498.039 187.441 496.953 187.195 495.834C186.028 490.346 185.096 485.301 185.418 479.688C189.293 478.688 189.293 478.688 190.418 478.688Z" fill="#22356B"/>
<path d="M174.418 479.688C174.673 481.302 174.673 481.302 174.933 482.949C176.301 491.29 177.965 499.216 180.648 507.246C181.418 509.688 181.418 509.688 181.418 511.688C179.108 512.678 176.798 513.668 174.418 514.688C174.404 513.969 174.389 513.251 174.375 512.512C173.995 504.265 172.349 496.872 170.058 488.962C169.722 487.784 169.722 487.784 169.379 486.582C169.17 485.879 168.962 485.176 168.747 484.452C168.418 482.688 168.418 482.688 169.418 480.688C172.418 479.688 172.418 479.688 174.418 479.688Z" fill="#314296"/>
<path d="M544.418 413.688C543.069 420.187 543.069 420.187 539.98 422.563C536.262 424.195 533.39 424.845 529.355 424.875C528.039 424.896 528.039 424.896 526.695 424.918C524.418 424.688 524.418 424.688 522.418 422.688C525.606 418.319 528.482 415.56 533.73 414C537.319 413.583 540.806 413.626 544.418 413.688Z" fill="#455BB9"/>
<path d="M500.418 426.688C500.748 426.688 501.078 426.688 501.418 426.688C501.544 427.761 501.544 427.761 501.673 428.855C502.818 437.077 505.32 444.097 508.605 451.688C509.547 453.871 510.478 456.058 511.398 458.25C511.81 459.2 512.221 460.15 512.645 461.129C513.465 463.842 513.404 465.074 512.418 467.688C509.873 464.55 508.19 461.343 506.5 457.68C505.968 456.529 505.437 455.377 504.889 454.191C504.341 452.994 503.794 451.796 503.23 450.562C502.666 449.345 502.102 448.127 501.537 446.91C497.418 437.948 497.418 437.948 497.418 435.688C495.438 435.688 493.458 435.688 491.418 435.688C493.44 434.098 495.233 432.767 497.605 431.75C499.625 430.828 499.625 430.828 500.168 428.562C500.25 427.944 500.333 427.325 500.418 426.688Z" fill="#2F4193"/>
<path d="M179.418 479.688C181.398 479.688 183.378 479.688 185.418 479.688C185.529 480.302 185.639 480.916 185.753 481.548C186.266 484.387 186.779 487.225 187.293 490.062C187.467 491.028 187.641 491.994 187.82 492.988C188.952 499.236 190.149 505.466 191.418 511.688C188.448 512.183 188.448 512.183 185.418 512.688C185.236 511.395 185.054 510.102 184.867 508.77C183.458 498.95 181.892 489.305 179.418 479.688Z" fill="#304195"/>
<path d="M158.418 484.688C161.485 493.402 163.116 501.45 163.418 510.688C162.098 511.018 160.778 511.347 159.418 511.688C158.401 508.672 157.408 505.649 156.418 502.625C156.132 501.777 155.846 500.93 155.551 500.057C153.929 495.057 153.076 490.943 153.418 485.688C156.418 484.688 156.418 484.688 158.418 484.688Z" fill="#22346A"/>
<path d="M488.418 434.688C489.078 435.018 489.738 435.347 490.418 435.688C490.862 437.521 491.302 439.357 491.722 441.196C493.116 446.187 495.418 450.848 497.543 455.562C498.465 457.621 499.385 459.681 500.301 461.742C500.707 462.644 501.113 463.547 501.532 464.476C502.418 466.688 502.418 466.688 502.418 468.688C503.078 469.018 503.738 469.347 504.418 469.688C502.438 470.348 500.458 471.007 498.418 471.688C498.138 470.825 497.859 469.963 497.57 469.074C494.786 460.595 491.812 452.208 488.654 443.86C488.363 443.085 488.073 442.31 487.773 441.512C487.512 440.822 487.251 440.132 486.981 439.421C486.418 437.688 486.418 437.688 486.418 435.688C487.078 435.357 487.738 435.028 488.418 434.688Z" fill="#2F4092"/>
<path d="M141.418 496.688C142.078 496.688 142.738 496.688 143.418 496.688C143.611 497.279 143.805 497.871 144.004 498.48C144.797 500.887 145.606 503.287 146.418 505.688C146.748 506.678 147.078 507.668 147.418 508.688C147.748 509.348 148.078 510.007 148.418 510.688C149.408 511.018 150.398 511.347 151.418 511.688C152.078 515.648 152.738 519.608 153.418 523.688C151.108 523.688 148.798 523.688 146.418 523.688C145.573 520.315 144.744 516.939 143.918 513.562C143.56 512.136 143.56 512.136 143.195 510.68C142.04 505.927 141.086 501.62 141.418 496.688Z" fill="#23356B"/>
<path d="M490.418 424.688C490.406 425.314 490.395 425.941 490.383 426.586C490.374 427.403 490.365 428.221 490.355 429.063C490.344 429.875 490.332 430.687 490.32 431.523C490.273 433.737 490.273 433.737 491.418 435.688C487.458 435.688 483.498 435.688 479.418 435.688C479.505 430.458 479.505 430.458 480.418 427.688C483.48 424.751 486.238 423.294 490.418 424.688Z" fill="#3A51B1"/>
<path d="M143.418 88.6874C142.826 88.9323 142.235 89.1772 141.625 89.4296C134.638 92.7351 132.08 96.5465 129.418 103.687C128.623 106.073 127.858 108.45 127.191 110.875C126.418 112.687 126.418 112.687 123.418 114.687C121.23 114.312 121.23 114.312 119.418 113.687C120.408 113.687 121.398 113.687 122.418 113.687C122.577 113.009 122.735 112.331 122.898 111.633C127.192 94.5059 127.192 94.5059 133.543 90.1249C137.371 88.2107 139.341 87.422 143.418 88.6874Z" fill="#A9DAFA"/>
<path d="M446.418 0.6875C447.078 0.6875 447.738 0.6875 448.418 0.6875C446.91 4.9471 444.707 8.56466 442.23 12.3125C441.415 13.5623 440.6 14.8123 439.785 16.0625C439.383 16.6774 438.98 17.2923 438.565 17.9258C436.971 20.373 435.414 22.8424 433.855 25.3125C430.138 31.1682 426.286 36.9305 422.418 42.6875C422.088 42.0275 421.758 41.3675 421.418 40.6875C422.415 38.6189 422.415 38.6189 423.996 36.0586C424.575 35.1131 425.154 34.1677 425.751 33.1936C426.384 32.181 427.016 31.1683 427.668 30.125C428.303 29.0975 428.938 28.0701 429.593 27.0115C431.524 23.8971 433.469 20.7914 435.418 17.6875C435.984 16.7803 436.55 15.8731 437.133 14.9385C438.635 12.5359 440.148 10.1411 441.668 7.75C442.121 7.02933 442.574 6.30867 443.04 5.56616C444.111 3.90351 445.257 2.28902 446.418 0.6875ZM420.418 42.6875C420.748 43.3475 421.078 44.0075 421.418 44.6875C420.428 45.6775 419.438 46.6675 418.418 47.6875C419.078 46.0375 419.738 44.3875 420.418 42.6875ZM417.418 47.6875C417.418 50.6875 417.418 50.6875 417.418 50.6875V47.6875Z" fill="#EDE9CA"/>
<path d="M513.418 425.687C513.5 426.92 513.583 428.152 513.668 429.422C514.35 435.556 516.376 441.141 518.418 446.937C519.15 449.046 519.879 451.155 520.605 453.266C520.929 454.188 521.253 455.11 521.586 456.06C522.387 458.591 522.951 461.076 523.418 463.687C522.758 463.687 522.098 463.687 521.418 463.687C521.197 463.013 520.975 462.338 520.747 461.643C519.724 458.532 518.696 455.422 517.668 452.312C517.146 450.721 517.146 450.721 516.613 449.098C513.971 441.121 511.264 433.177 507.418 425.687C509.909 424.442 510.829 424.911 513.418 425.687Z" fill="#2C3E8A"/>
<path d="M130.418 494.688C132.311 497.527 132.845 498.943 133.488 502.18C133.749 503.485 133.749 503.485 134.016 504.816C134.19 505.723 134.364 506.629 134.543 507.562C134.725 508.461 134.907 509.359 135.094 510.285C135.922 514.503 136.517 518.374 136.418 522.688C131.441 518.58 131.454 514.461 130.723 508.328C130.341 503.763 130.228 499.264 130.418 494.688Z" fill="#314396"/>
<path d="M196.418 471.688C196.418 473.668 196.418 475.648 196.418 477.688C189.538 480.308 182.696 479.869 175.418 479.688C179.364 477.519 183.409 476.613 187.762 475.566C190.949 474.512 193.143 471.688 196.418 471.688Z" fill="#5D81BF"/>
<path d="M163.418 474.688C156.152 477.431 149.153 479.908 141.477 481.219C138.755 481.838 136.702 483.118 134.418 484.688C133.758 484.688 133.098 484.688 132.418 484.688C132.088 485.348 131.758 486.008 131.418 486.688C131.48 484.375 131.48 484.375 132.418 481.688C137.893 478.884 143.657 477.415 149.605 475.938C150.494 475.704 151.383 475.471 152.299 475.231C153.157 475.015 154.015 474.8 154.898 474.578C155.671 474.383 156.443 474.187 157.239 473.985C159.599 473.663 161.169 473.96 163.418 474.688Z" fill="#4861AD"/>
<path d="M72.418 101.688C73.408 102.018 74.398 102.347 75.418 102.688C74.8147 103.051 74.2114 103.415 73.5898 103.789C65.6448 108.787 62.4284 113.379 60.3242 122.516C59.418 124.688 59.418 124.688 57.3242 125.984C56.6952 126.216 56.0661 126.448 55.418 126.688C56.1319 124.784 56.8472 122.881 57.5703 120.98C58.1123 119.514 58.6281 118.038 59.1094 116.551C61.4858 109.421 65.8632 105.392 72.418 101.688Z" fill="#A7D9FA"/>
<path d="M535.418 423.688C536.078 429.628 536.738 435.568 537.418 441.688C535.439 438.719 534.159 435.913 532.793 432.625C532.347 431.562 531.901 430.498 531.441 429.402C530.418 426.688 530.418 426.688 530.418 424.688C534.293 423.688 534.293 423.688 535.418 423.688Z" fill="#2F4191"/>
<path d="M512.418 473.687C512.418 474.347 512.418 475.007 512.418 475.687C505.868 478.384 500.533 480.224 493.418 479.687C495.879 477.226 497.937 476.659 501.23 475.562C502.268 475.209 503.306 474.856 504.375 474.492C507.223 473.739 509.494 473.525 512.418 473.687Z" fill="#364A90"/>
<path d="M319.418 330.688C315.772 334.016 311.207 335.71 306.418 336.688C304.137 336.266 304.137 336.266 302.418 335.688C304.684 334.655 306.955 333.636 309.23 332.625C310.194 332.183 310.194 332.183 311.178 331.733C316.078 329.574 316.078 329.574 319.418 330.688Z" fill="#EDE7CB"/>
<path d="M196.418 475.688C196.418 476.348 196.418 477.008 196.418 477.688C194.013 478.89 192.468 478.788 189.793 478.75C188.567 478.736 188.567 478.736 187.316 478.723C186.377 478.705 186.377 478.705 185.418 478.688C189.436 476.679 191.857 475.568 196.418 475.688Z" fill="#81BCF3"/>
<path d="M194.418 471.688C195.078 471.688 195.738 471.688 196.418 471.688C196.418 473.008 196.418 474.327 196.418 475.688C193.778 476.018 191.138 476.347 188.418 476.688C189.222 476.048 190.027 475.409 190.855 474.75C192.693 473.281 192.693 473.281 194.418 471.688Z" fill="#4258A7"/>
</svg>
