<svg width="20" height="21" viewBox="0 0 20 21" fill="none" xmlns="http://www.w3.org/2000/svg">
<path d="M12.5017 0.360161C13.9572 1.14482 14.9272 2.19135 15.4475 3.75222C15.7868 8.49173 15.7868 8.49174 14.2448 10.3672C12.6211 11.8721 11.2833 11.9759 9.13788 11.9552C7.47127 11.7997 6.55145 11.1265 5.41225 9.89739C4.20832 8.0915 4.46375 5.83741 4.62296 3.75222C5.07008 2.25778 6.04495 1.30083 7.32909 0.444728C8.93896 -0.0918934 10.876 -0.170209 12.5017 0.360161Z" fill="#CFCFCF"/>
<path d="M18.055 16.5711C18.7352 17.0704 19.3615 17.5888 19.9577 18.1849C20.0141 19.2185 20.0141 19.2185 19.9577 20.2897C19.1448 21.1026 18.7232 20.9672 17.5863 20.9689C17.2151 20.9708 16.8438 20.9727 16.4613 20.9746C16.0545 20.9735 15.6476 20.9723 15.2408 20.9709C14.8251 20.9713 14.4095 20.9719 13.9938 20.9727C13.1222 20.9736 12.2507 20.9723 11.3792 20.9695C10.2609 20.966 9.14262 20.968 8.02429 20.9716C7.16585 20.9738 6.30743 20.9731 5.44899 20.9715C5.03659 20.9711 4.62419 20.9716 4.21179 20.973C3.63591 20.9746 3.06002 20.9718 2.48414 20.9689C2.15612 20.9684 1.82809 20.9679 1.49012 20.9674C0.714118 20.8911 0.714118 20.8911 0.112755 20.2897C-0.0375852 19.2937 -0.0375852 19.2937 0.112755 18.1849C1.30257 16.9059 2.72306 16.1543 4.32229 15.4788C4.53082 15.3881 4.73935 15.2974 4.95419 15.204C9.1437 13.6635 14.2725 14.2596 18.055 16.5711Z" fill="#CFCFCF"/>
</svg>
