<svg width="22" height="15" viewBox="0 0 22 15" fill="none" xmlns="http://www.w3.org/2000/svg">
<path d="M6.99707 0.00341722C6.71307 0.004616 6.71307 0.004616 6.42334 0.005839C6.12871 0.00895582 6.12871 0.00895582 5.82812 0.0121356C5.6288 0.0132545 5.42948 0.0143733 5.22412 0.0155261C4.73274 0.0184448 4.24137 0.0228925 3.75 0.0276349C3.46875 0.957596 3.46875 0.957596 3.75 1.51557C4.59194 1.63328 5.42678 1.71169 6.27441 1.77228C7.32441 1.85156 7.32441 1.85156 8.15576 2.42955C8.55239 3.09087 8.74679 3.6958 8.94727 4.43914C9.02268 4.71342 9.09809 4.9877 9.17578 5.27029C9.25184 5.55544 9.32789 5.84059 9.40625 6.13438C9.56015 6.70086 9.71442 7.26723 9.86914 7.83349C9.93637 8.08432 10.0036 8.33514 10.0729 8.59356C10.25 9.20325 10.25 9.20325 10.5 9.69922C10.17 9.69922 9.84 9.69922 9.5 9.69922C9.43651 9.43869 9.37303 9.17816 9.30762 8.90973C8.0493 3.79638 8.0493 3.79638 7.25 3.00351C6.53535 2.94098 5.85545 2.91168 5.14062 2.91051C4.84938 2.9014 4.84938 2.9014 4.55225 2.89211C3.12828 2.88481 3.12828 2.88481 2.49121 3.4743C2.25 3.99547 2.25 3.99547 2.25 4.49145C3.1575 4.57328 4.065 4.65512 5 4.73944C5 5.5578 5 6.37617 5 7.21933C4.7351 7.23148 4.4702 7.24363 4.19727 7.25614C3.85025 7.27475 3.50325 7.29348 3.15625 7.31233C2.98158 7.32 2.80691 7.32767 2.62695 7.33558C1.30664 7.41113 1.30664 7.41113 0.75 7.9633C0.701172 8.71695 0.701172 8.71695 0.71875 9.60623C0.723261 9.90097 0.727774 10.1957 0.732422 10.4994C0.738222 10.7263 0.744024 10.9533 0.75 11.1872C0.502501 11.1872 0.254999 11.1872 0 11.1872C0 11.6782 0 12.1692 0 12.6751C0.7425 12.6751 1.485 12.6751 2.25 12.6751C2.30672 12.9053 2.36344 13.1354 2.42188 13.3726C2.75 14.163 2.75 14.163 3.25 14.628C4.58217 15.1236 5.91783 15.1236 7.25 14.628C7.75 14.163 7.75 14.163 8.25 12.6751C10.23 12.6751 12.21 12.6751 14.25 12.6751C14.415 13.1661 14.58 13.6571 14.75 14.163C15.5248 14.8835 16.2245 14.9637 17.25 15C18.2756 14.9667 18.9545 14.8535 19.75 14.163C20.4341 13.0575 20.3838 11.9509 20.25 10.6912C19.8339 9.70046 19.4561 9.39419 18.5 8.95526C18.9476 8.62932 19.3956 8.30394 19.8438 7.9788C20.0932 7.79754 20.3426 7.61629 20.5996 7.42954C21.207 6.97681 21.207 6.97681 21.75 6.72335C21.75 5.4958 21.75 4.26826 21.75 3.00351C20.0152 2.48369 18.4515 2.19777 16.6504 2.19367C16.4679 2.19286 16.2855 2.19205 16.0975 2.19122C15.3415 2.1906 14.5859 2.19441 13.83 2.20759C11.6527 2.32726 11.6527 2.32726 9.68335 1.62165C9.2806 1.16524 9.2806 1.16524 9.00525 0.673037C8.53397 -0.0607238 7.79369 -0.00252426 6.99707 0.00341722ZM18.5 11.1872C18.5833 11.9311 18.5833 11.9311 18.5 12.6751C18.0287 13.2494 18.0287 13.2494 17.25 13.2331C16.4713 13.2494 16.4713 13.2494 16 12.6751C15.9167 11.9311 15.9167 11.9311 16 11.1872C16.4713 10.6129 16.4713 10.6129 17.25 10.6292C18.0287 10.6129 18.0287 10.6129 18.5 11.1872ZM6.5 11.1872C6.58333 11.9311 6.58333 11.9311 6.5 12.6751C6.02875 13.2494 6.02875 13.2494 5.25 13.2331C4.47125 13.2494 4.47125 13.2494 4 12.6751C3.91667 11.9311 3.91667 11.9311 4 11.1872C4.47125 10.6129 4.47125 10.6129 5.25 10.6292C6.02875 10.6129 6.02875 10.6129 6.5 11.1872Z" fill="#868889"/>
</svg>
