<svg width="122" height="88" viewBox="0 0 122 88" fill="none" xmlns="http://www.w3.org/2000/svg">
<path d="M13.739 11.1418C13.9488 11.1415 14.1585 11.1412 14.3683 11.1407C14.9346 11.1399 15.501 11.1407 16.0673 11.142C16.6618 11.143 17.2563 11.1426 17.8508 11.1425C18.8488 11.1424 19.8467 11.1434 20.8447 11.1451C21.869 11.1468 22.8932 11.1475 23.9175 11.147C25.1556 11.1464 26.3938 11.1467 27.6319 11.1478C28.1034 11.1482 28.5748 11.1483 29.0462 11.1481C29.6019 11.148 30.1575 11.1487 30.7131 11.1502C30.9163 11.1506 31.1195 11.1506 31.3227 11.1504C33.9858 11.1475 33.9858 11.1475 35.0615 11.6483C35.1235 11.6764 35.1855 11.7045 35.2494 11.7334C35.8011 11.9944 36.2557 12.3268 36.7027 12.7424C36.7666 12.7969 36.8305 12.8514 36.8964 12.9076C38.2174 14.1036 38.5765 15.9176 38.9689 17.5801C39.0559 17.9484 39.1445 18.3163 39.233 18.6842C39.2516 18.7618 39.2702 18.8394 39.2894 18.9193C39.4327 19.5153 39.5803 20.1102 39.7296 20.7047C39.763 20.8375 39.763 20.8375 39.797 20.9728C39.8844 21.3206 39.9719 21.6682 40.0599 22.0158C40.313 23.0165 40.5538 24.0189 40.78 25.026C40.9231 25.661 41.078 26.2913 41.2463 26.9201C41.2706 27.012 41.2949 27.1039 41.3199 27.1987C41.3776 27.4168 41.4356 27.6349 41.494 27.853C41.5708 27.8665 41.6477 27.8801 41.7268 27.894C42.6452 28.077 43.3012 28.3256 43.8435 29.1141C44.0996 29.5259 44.1775 29.8339 44.1765 30.3183C44.1765 30.4271 44.1764 30.5359 44.1764 30.648C44.176 30.7655 44.1755 30.883 44.175 31.004C44.1748 31.1844 44.1748 31.1844 44.1746 31.3685C44.1743 31.6879 44.1734 32.0074 44.1723 32.3268C44.1714 32.6529 44.171 32.979 44.1705 33.3051C44.1696 33.9447 44.1678 34.5844 44.166 35.224C43.2842 35.224 42.4025 35.224 41.494 35.224C41.4688 35.457 41.4436 35.69 41.4177 35.9301C41.3102 36.9058 41.1843 37.8788 41.0563 38.8519C41.032 39.0375 41.0077 39.2231 40.9834 39.4087C40.8069 40.7544 40.6242 42.0991 40.4396 43.4437C40.2633 44.729 40.0942 46.015 39.9308 47.3019C39.7655 48.6029 39.5946 49.9031 39.4234 51.2033C39.4072 51.3264 39.391 51.4495 39.3748 51.5727C39.3667 51.6336 39.3587 51.6945 39.3505 51.7572C39.1478 53.296 38.9484 54.835 38.7586 56.3753C38.6138 57.5501 38.4578 58.7228 38.2923 59.8949C38.125 61.0815 37.9704 62.2695 37.8199 63.4584C37.2923 67.6251 36.7563 71.7927 36.1499 75.9488C36.4235 75.9488 36.6972 75.9488 36.9791 75.9488C36.9791 74.7022 36.9791 73.4556 36.9791 72.1712C38.469 72.1712 39.9589 72.1712 41.494 72.1712C41.5244 76.2759 41.5548 80.3806 41.5861 84.6097C40.0658 84.6097 38.5455 84.6097 36.9791 84.6097C36.9791 83.0895 36.9791 81.5692 36.9791 80.0029C36.4927 80.0029 36.0062 80.0029 35.5049 80.0029C35.4441 80.1549 35.3833 80.3069 35.3206 80.4636C35.1778 80.623 35.1778 80.623 35.0154 80.7572C34.9361 80.8248 34.9361 80.8248 34.8553 80.8937C34.3467 81.2412 33.8696 81.2274 33.2738 81.2259C33.1303 81.2266 33.1303 81.2266 32.9838 81.2274C32.6627 81.2288 32.3416 81.2288 32.0205 81.2289C31.7904 81.2296 31.5604 81.2304 31.3303 81.2312C30.7049 81.2332 30.0796 81.234 29.4542 81.2345C29.0634 81.2348 28.6727 81.2354 28.282 81.2361C27.1995 81.2379 26.117 81.2394 25.0346 81.2397C24.9307 81.2397 24.9307 81.2397 24.8247 81.2397C24.6844 81.2397 24.544 81.2398 24.4036 81.2398C24.3339 81.2398 24.2643 81.2398 24.1925 81.2399C24.1227 81.2399 24.0529 81.2399 23.9811 81.2399C22.8511 81.2402 21.7212 81.2427 20.5913 81.2462C19.4304 81.2497 18.2694 81.2515 17.1085 81.2515C16.457 81.2515 15.8055 81.2523 15.1541 81.255C14.5411 81.2575 13.9282 81.2576 13.3152 81.2561C13.0905 81.256 12.8658 81.2566 12.6411 81.258C12.3337 81.2599 12.0265 81.259 11.7191 81.2573C11.6307 81.2585 11.5423 81.2597 11.4512 81.261C10.8254 81.2532 10.3136 81.106 9.79807 80.74C9.68456 80.5704 9.68456 80.5704 9.59076 80.3945C9.50714 80.2956 9.42353 80.1968 9.33738 80.095C8.9117 80.0646 8.48601 80.0342 8.04743 80.0029C8.04743 81.5231 8.04743 83.0434 8.04743 84.6097C6.52713 84.6097 5.00684 84.6097 3.44047 84.6097C3.44047 80.505 3.44047 76.4003 3.44047 72.1712C4.96077 72.1712 6.48106 72.1712 8.04743 72.1712C8.04743 73.3874 8.04743 74.6036 8.04743 75.8567C8.29068 75.8567 8.53392 75.8567 8.78454 75.8567C8.77297 75.7967 8.7614 75.7368 8.74948 75.675C8.62633 75.0201 8.53253 74.3649 8.4509 73.7037C8.4375 73.5972 8.4241 73.4908 8.41029 73.3811C8.36778 73.0431 8.32563 72.705 8.28354 72.367C8.04718 70.4727 8.04718 70.4727 7.78533 68.5818C7.62102 67.4493 7.47262 66.3146 7.32183 65.1802C7.30541 65.0568 7.28898 64.9334 7.27255 64.81C7.03584 63.032 6.80364 61.2534 6.57724 59.474C6.44552 58.4391 6.31301 57.4042 6.17996 56.3694C6.13999 56.0585 6.10011 55.7475 6.06036 55.4366C5.88422 54.0587 5.69954 52.6827 5.5005 51.3079C5.38733 50.522 5.28934 49.736 5.20263 48.9467C5.06818 47.7576 4.91021 46.5727 4.74194 45.3879C4.52539 43.8632 4.3238 42.3371 4.13113 40.8092C3.97707 39.5876 3.81852 38.3671 3.6436 37.1483C3.6234 37.006 3.6234 37.006 3.60279 36.8609C3.59135 36.7818 3.57991 36.7027 3.56813 36.6213C3.51528 36.1873 3.48004 35.7514 3.44047 35.3161C2.31545 35.3161 1.19043 35.3161 0.0313174 35.3161C0.0255037 34.6463 0.0199685 33.9765 0.0170135 33.3066C0.0155602 32.9946 0.013621 32.6827 0.0104646 32.3707C0.00709591 32.0118 0.00553984 31.653 0.0043235 31.2941C0.00289683 31.1835 0.00147016 31.0729 2.59971e-07 30.959C-0.000162261 30.141 0.075726 29.4167 0.647498 28.7916C0.73355 28.6938 0.73355 28.6938 0.821339 28.594C1.40603 28.1016 1.95117 27.9809 2.70335 27.9681C2.78353 27.9654 2.8637 27.9627 2.9463 27.9599C3.14169 27.9534 3.33715 27.949 3.53261 27.9451C3.53601 27.8925 3.53942 27.8398 3.54293 27.7856C3.59712 27.1139 3.74046 26.4803 3.9044 25.8277C3.933 25.7118 3.96159 25.5958 3.99105 25.4763C4.06884 25.1611 4.14745 24.846 4.2263 24.531C4.2757 24.3336 4.32493 24.1361 4.3741 23.9386C4.51034 23.3914 4.64668 22.8442 4.78376 22.2971C4.975 21.5337 5.16443 20.7699 5.35097 20.0053C5.4801 19.4761 5.61041 18.9472 5.74163 18.4185C5.81914 18.1061 5.89608 17.7935 5.97158 17.4806C6.39531 15.727 6.79494 14.1216 8.13957 12.8345C8.19385 12.7774 8.24813 12.7203 8.30405 12.6614C8.68221 12.2899 9.11264 12.0412 9.57924 11.798C9.63585 11.7676 9.69245 11.7373 9.75077 11.706C11.0073 11.0837 12.3749 11.1366 13.739 11.1418Z" fill="#F6CB14"/>
<path d="M3.62476 36.5137C3.67727 36.5206 3.72978 36.5275 3.78388 36.5347C4.92895 36.6845 6.0748 36.8193 7.22394 36.934C7.38191 36.9499 7.38191 36.9499 7.54306 36.966C7.82845 36.994 8.1139 37.0212 8.39943 37.0476C8.54046 37.0609 8.68146 37.0744 8.82244 37.0882C10.2572 37.2278 11.6909 37.302 13.131 37.3617C30.073 38.0681 30.073 38.0681 34.3935 42.2032C34.5835 42.4105 34.5835 42.4105 34.5835 42.5948C34.6443 42.5948 34.7052 42.5948 34.7678 42.5948C35.8133 44.2645 36.048 45.9822 36.1557 47.9215C36.1594 47.9871 36.1631 48.0527 36.1669 48.1204C37.2592 67.905 37.2592 67.905 33.4779 75.3036C33.4232 75.3824 33.3686 75.4611 33.3123 75.5422C32.6023 76.4942 31.685 77.1861 30.6215 77.6992C30.5107 77.7567 30.5107 77.7567 30.3977 77.8154C29.0647 78.4736 27.5743 78.8075 26.1067 78.9891C26.0394 78.9976 25.972 79.0061 25.9027 79.0149C23.2504 79.3338 20.4836 79.4453 17.8142 79.3577C17.7522 79.3556 17.6901 79.3536 17.6262 79.3516C11.2434 79.1375 11.2434 79.1375 9.24525 77.6071C9.15403 77.5766 9.06281 77.5462 8.96883 77.5149C8.90802 76.998 8.84721 76.4811 8.78455 75.9486C8.5413 75.9486 8.29806 75.9486 8.04744 75.9486C8.04744 75.9182 8.04744 75.8878 8.04744 75.8564C8.29069 75.8564 8.53393 75.8564 8.78455 75.8564C8.7672 75.7665 8.7672 75.7665 8.74949 75.6748C8.62634 75.0199 8.53254 74.3647 8.45091 73.7034C8.43081 73.5438 8.43081 73.5438 8.4103 73.3808C8.36779 73.0428 8.32564 72.7048 8.28355 72.3667C8.04719 70.4724 8.04719 70.4724 7.78534 68.5815C7.62103 67.449 7.47263 66.3144 7.32184 65.18C7.30542 65.0566 7.28899 64.9332 7.27256 64.8098C7.03585 63.0318 6.80365 61.2532 6.57725 59.4738C6.44553 58.4388 6.31302 57.404 6.17997 56.3692C6.14 56.0582 6.10012 55.7473 6.06037 55.4364C5.88423 54.0585 5.69955 52.6824 5.50051 51.3077C5.38734 50.5217 5.28935 49.7358 5.20264 48.9465C5.06819 47.7574 4.91014 46.5725 4.74194 45.3877C4.32352 42.4359 3.93313 39.4791 3.62476 36.5137Z" fill="#F6CB14"/>
<path d="M3.87838 35.2123C4.05046 35.2124 4.05046 35.2124 4.22602 35.2124C4.32186 35.2123 4.32186 35.2123 4.41962 35.2121C4.6364 35.2119 4.85317 35.2123 5.06995 35.2127C5.22585 35.2126 5.38176 35.2126 5.53766 35.2125C5.96817 35.2122 6.39868 35.2126 6.82919 35.2131C7.29265 35.2135 7.75611 35.2133 8.21958 35.2133C9.02326 35.2132 9.82693 35.2135 10.6306 35.214C11.7926 35.2148 12.9546 35.215 14.1166 35.2151C16.0017 35.2153 17.8867 35.2159 19.7718 35.2168C21.6034 35.2177 23.4351 35.2183 25.2667 35.2187C25.3796 35.2187 25.4924 35.2188 25.6086 35.2188C26.1745 35.2189 26.7405 35.219 27.3064 35.2191C32.0049 35.2201 36.7033 35.2217 41.4018 35.2238C41.4024 35.3565 41.4028 35.4891 41.4031 35.6218C41.4033 35.6957 41.4036 35.7696 41.4038 35.8458C41.4015 36.0828 41.3817 36.3129 41.3514 36.548C41.3402 36.6365 41.3291 36.7249 41.3176 36.8161C41.3052 36.9098 41.2929 37.0035 41.2801 37.1C41.2673 37.2003 41.2545 37.3006 41.2413 37.4039C41.1994 37.7311 41.1566 38.0582 41.1139 38.3852C41.0843 38.614 41.0548 38.8427 41.0254 39.0714C40.824 40.6289 40.6142 42.1851 40.3999 43.7409C40.2465 44.8552 40.0998 45.9702 39.9581 47.0861C39.7839 48.459 39.6041 49.8311 39.4234 51.2031C39.4072 51.3262 39.3909 51.4493 39.3747 51.5724C39.3667 51.6333 39.3587 51.6943 39.3504 51.757C39.1478 53.2957 38.9483 54.8347 38.7585 56.3751C38.6138 57.5499 38.4578 58.7226 38.2923 59.8947C38.125 61.0813 37.9703 62.2693 37.8199 63.4582C37.2923 67.6249 36.7563 71.7925 36.1499 75.9486C36.4235 75.9486 36.6972 75.9486 36.9791 75.9486C36.9791 74.702 36.9791 73.4554 36.9791 72.171C38.469 72.171 39.9589 72.171 41.4939 72.171C41.5243 76.2757 41.5547 80.3804 41.5861 84.6095C40.0658 84.6095 38.5455 84.6095 36.9791 84.6095C36.9791 83.0893 36.9791 81.569 36.9791 80.0027C36.4926 80.0027 36.0061 80.0027 35.5049 80.0027C35.4441 80.1547 35.3833 80.3067 35.3206 80.4633C35.1777 80.6228 35.1777 80.6228 35.0154 80.757C34.9625 80.802 34.9097 80.8471 34.8552 80.8934C34.3467 81.241 33.8696 81.2272 33.2738 81.2257C33.1781 81.2262 33.0824 81.2267 32.9838 81.2272C32.6627 81.2285 32.3416 81.2286 32.0204 81.2287C31.7904 81.2294 31.5603 81.2302 31.3303 81.231C30.7049 81.233 30.0795 81.2338 29.4541 81.2343C29.0634 81.2346 28.6727 81.2352 28.282 81.2359C27.1995 81.2377 26.117 81.2392 25.0345 81.2394C24.9307 81.2395 24.9307 81.2395 24.8247 81.2395C24.6843 81.2395 24.5439 81.2396 24.4036 81.2396C24.3339 81.2396 24.2642 81.2396 24.1924 81.2397C24.1227 81.2397 24.0529 81.2397 23.981 81.2397C22.8511 81.24 21.7212 81.2425 20.5913 81.246C19.4303 81.2495 18.2694 81.2513 17.1084 81.2513C16.457 81.2513 15.8055 81.2521 15.154 81.2548C14.5411 81.2573 13.9281 81.2574 13.3152 81.2559C13.0905 81.2558 12.8657 81.2564 12.641 81.2578C12.3337 81.2597 12.0265 81.2588 11.7191 81.2571C11.6307 81.2583 11.5423 81.2595 11.4512 81.2608C10.8253 81.253 10.3136 81.1058 9.79804 80.7398C9.68452 80.5702 9.68452 80.5702 9.59072 80.3942C9.50711 80.2954 9.42349 80.1966 9.33734 80.0948C8.91166 80.0644 8.48597 80.034 8.04739 80.0027C8.04739 81.5229 8.04739 83.0432 8.04739 84.6095C6.52709 84.6095 5.0068 84.6095 3.44043 84.6095C3.44043 80.5048 3.44043 76.4001 3.44043 72.171C4.96073 72.171 6.48102 72.171 8.04739 72.171C8.04739 73.4176 8.04739 74.6642 8.04739 75.9486C8.29064 75.9486 8.53389 75.9486 8.7845 75.9486C8.99607 77.0102 8.99607 77.0102 8.96878 77.5149C9.04504 77.5285 9.04504 77.5285 9.12283 77.5423C9.38972 77.6229 9.58648 77.7558 9.82107 77.9065C12.1432 79.268 15.1976 79.1804 17.8141 79.2656C17.9155 79.2689 18.0168 79.2722 18.1212 79.2756C20.9504 79.3522 23.8562 79.192 26.6595 78.8049C26.7674 78.7905 26.7674 78.7905 26.8774 78.7758C29.2584 78.445 31.7984 77.4538 33.2917 75.4922C34.392 73.8322 34.8287 71.9023 35.1363 69.9597C35.1508 69.8685 35.1652 69.7774 35.1801 69.6835C36.188 63.1254 36.4148 56.4036 36.1499 49.7815C36.1468 49.706 36.1438 49.6304 36.1407 49.5526C36.0894 46.1081 36.0894 46.1081 34.8757 42.9597C34.7678 42.7791 34.7678 42.7791 34.7678 42.5948C34.707 42.5948 34.6461 42.5948 34.5835 42.5948C34.4503 42.453 34.4503 42.453 34.2956 42.2608C33.9667 41.8749 33.6173 41.5913 33.2014 41.3049C33.1127 41.2384 33.1127 41.2384 33.0222 41.1706C32.3702 40.7009 31.6373 40.4086 30.8979 40.1071C30.7862 40.0605 30.6744 40.0139 30.5592 39.966C25.2114 37.8427 19.1206 37.7192 13.4494 37.4729C5.4599 37.1254 5.4599 37.1254 3.62471 36.5137C3.50385 36.272 3.52035 36.0865 3.52105 35.8169C3.52081 35.7256 3.52058 35.6342 3.52033 35.5401C3.53777 35.2206 3.55577 35.2269 3.87838 35.2123Z" fill="#F4B80F"/>
<path d="M15.3189 12.902C15.41 12.9014 15.4101 12.9014 15.5031 12.9007C15.705 12.8996 15.9069 12.8997 16.1088 12.8999C16.2543 12.8993 16.3998 12.8987 16.5453 12.898C16.9394 12.8964 17.3335 12.8959 17.7276 12.8958C17.9742 12.8957 18.2208 12.8953 18.4674 12.8948C19.3288 12.8931 20.1903 12.8924 21.0517 12.8925C21.8529 12.8926 22.654 12.8907 23.4552 12.8878C24.1445 12.8853 24.8338 12.8844 25.5231 12.8845C25.9342 12.8845 26.3452 12.884 26.7562 12.882C27.1432 12.8803 27.53 12.8803 27.917 12.8816C28.0583 12.8818 28.1996 12.8814 28.3409 12.8802C29.3633 12.8727 30.3312 12.9487 31.1168 13.6753C31.1878 13.7382 31.2588 13.8012 31.332 13.866C32.0579 14.7553 32.1927 15.8213 32.401 16.9174C32.472 17.2816 32.5437 17.6456 32.6155 18.0097C32.6334 18.1012 32.6513 18.1927 32.6697 18.287C32.787 18.8825 32.9143 19.4748 33.0503 20.0662C33.0762 20.18 33.0762 20.18 33.1026 20.2961C33.2007 20.7276 33.2007 20.7276 33.3024 21.1582C33.483 21.9103 33.598 22.6272 33.6017 23.4026C33.6021 23.4713 33.6025 23.5401 33.6029 23.6108C33.5904 24.3822 33.3133 24.8888 32.8041 25.4458C32.1523 26.0493 31.4811 26.2081 30.6139 26.2086C30.5383 26.209 30.4626 26.2095 30.3846 26.2099C30.1307 26.2111 29.8768 26.2117 29.6229 26.2122C29.441 26.213 29.259 26.2137 29.0771 26.2145C28.4793 26.2169 27.8815 26.2183 27.2837 26.2197C27.0777 26.2202 26.8718 26.2206 26.6659 26.2211C25.8093 26.2231 24.9526 26.2249 24.096 26.2259C22.8689 26.2274 21.6419 26.2305 20.4148 26.2357C19.5517 26.2393 18.6886 26.2411 17.8255 26.2416C17.3102 26.2419 16.7949 26.243 16.2796 26.246C15.7945 26.2488 15.3095 26.2493 14.8244 26.2483C14.6467 26.2482 14.4691 26.249 14.2915 26.2506C13.2236 26.2598 12.4702 26.2132 11.5869 25.5567C10.9888 24.9455 10.6179 24.2488 10.6091 23.3809C10.6152 22.8469 10.7131 22.3466 10.8264 21.8262C10.8471 21.7272 10.8679 21.6283 10.8893 21.5263C10.9565 21.2068 11.0251 20.8875 11.0938 20.5683C11.1405 20.3482 11.1872 20.1281 11.2338 19.908C11.3263 19.4717 11.4192 19.0355 11.5125 18.5994C11.6243 18.0744 11.7325 17.5487 11.8388 17.0225C11.8808 16.8164 11.923 16.6104 11.9651 16.4045C11.9905 16.2797 12.0155 16.1549 12.0402 16.0299C12.2327 15.0584 12.4778 14.1168 13.3267 13.5133C13.972 13.1086 14.5489 12.9042 15.3189 12.902Z" fill="#976C0C"/>
<path d="M27.0597 17.0507C27.3197 17.0498 27.5796 17.0469 27.8396 17.044C29.2014 17.036 30.4763 17.181 31.7791 17.5968C31.8467 17.6176 31.9144 17.6383 31.984 17.6596C32.1444 17.7089 32.3044 17.7593 32.4644 17.8099C32.4948 17.7491 32.5252 17.6883 32.5565 17.6256C32.5676 17.6852 32.5786 17.7447 32.59 17.8061C32.6437 18.0934 32.6979 18.3807 32.7523 18.6679C32.7725 18.7752 32.7927 18.8826 32.8135 18.9931C32.9423 19.6651 33.088 20.3303 33.2476 20.9956C33.9165 23.8159 33.9165 23.8159 33.2519 24.9005C32.7534 25.5589 32.1835 26.0269 31.3587 26.1944C31.1657 26.2027 30.9724 26.2057 30.7792 26.2055C30.6601 26.2056 30.5409 26.2058 30.4182 26.2059C30.2864 26.2056 30.1546 26.2052 30.0228 26.2049C29.8838 26.2049 29.7449 26.2049 29.6059 26.2049C29.2288 26.205 28.8518 26.2044 28.4747 26.2038C28.0805 26.2032 27.6864 26.2031 27.2923 26.203C26.546 26.2027 25.7997 26.202 25.0535 26.2011C24.2038 26.2 23.3542 26.1995 22.5045 26.1991C20.7568 26.1981 19.0091 26.1965 17.2614 26.1944C17.1869 26.0482 17.1127 25.9018 17.0386 25.7553C16.9972 25.6738 16.9559 25.5923 16.9133 25.5083C16.4036 24.4432 16.517 23.1402 16.8928 22.0482C17.7059 20.0354 19.4374 18.6718 21.3961 17.8387C23.2228 17.1759 25.1367 17.0546 27.0597 17.0507Z" fill="#C08D0E"/>
<path d="M21.8108 45.0594C22.4257 45.0644 22.9505 45.1478 23.5269 45.3588C23.5952 45.3834 23.6635 45.408 23.7339 45.4333C24.176 45.6214 24.3827 45.8584 24.6498 46.2496C24.8568 46.5159 25.0961 46.7359 25.3466 46.9597C25.4437 47.0468 25.5408 47.1339 25.6378 47.221C25.6857 47.264 25.7336 47.307 25.7829 47.3512C27.6598 49.0557 28.8134 50.8563 29.1474 53.3748C29.1535 53.6012 29.1553 53.8278 29.1531 54.0543C29.1523 54.1691 29.1515 54.2838 29.1506 54.402C29.149 54.5321 29.149 54.5321 29.1474 54.6647C29.1995 54.677 29.2517 54.6892 29.3054 54.7018C29.4068 54.7262 29.4068 54.7262 29.5102 54.7511C29.5775 54.7672 29.6449 54.7832 29.7143 54.7997C29.8845 54.849 29.8845 54.849 29.9766 54.9412C29.9935 55.7172 29.4501 56.2742 28.9466 56.8156C28.1523 57.5731 27.1391 57.7968 26.101 58.0796C26.0421 58.0957 25.9831 58.1118 25.9224 58.1283C23.1735 58.8751 20.9504 58.9345 18.3671 57.6131C18.1422 57.4555 18.1422 57.4555 17.9985 57.3367C17.7892 57.4339 17.6231 57.5268 17.4457 57.6765C17.2614 57.7974 17.2614 57.7974 17.0772 57.8032C16.5941 57.5466 16.4305 56.9487 16.2767 56.4557C16.2572 56.3961 16.2376 56.3365 16.2175 56.2752C15.8474 55.1275 16.0042 54.2064 16.2997 53.0639C16.3164 52.9986 16.333 52.9333 16.3501 52.866C17.0794 50.0118 18.1674 47.8738 20.7742 46.3205C21.0391 46.1881 21.0391 46.1881 21.2234 46.1881C21.1778 46.0513 21.1778 46.0513 21.1313 45.9117C21.1149 45.6636 21.1232 45.4239 21.1313 45.1746C21.3035 45.0024 21.5805 45.0624 21.8108 45.0594Z" fill="#FEFEFB"/>
<path d="M8.34106 38.8115C9.06618 39.2248 9.71956 39.8515 9.98229 40.66C10.0807 41.1287 10.0852 41.5769 10.0805 42.053C10.0801 42.136 10.0796 42.2189 10.0792 42.3044C10.0782 42.4847 10.0771 42.6649 10.0757 42.8451C10.0737 43.1345 10.0724 43.4239 10.0713 43.7134C10.0683 44.5365 10.0645 45.3596 10.0586 46.1827C10.0402 48.84 10.0982 51.466 10.3508 54.1121C10.362 54.2301 10.3731 54.3481 10.3846 54.4697C10.4515 55.1635 10.5284 55.8558 10.61 56.548C10.6338 56.7546 10.6576 56.9612 10.6814 57.1678C10.8507 58.6208 11.0471 60.069 11.2611 61.5161C11.4318 62.6718 11.5803 63.8289 11.7141 64.9895C11.7275 65.1054 11.741 65.2213 11.7549 65.3407C11.7663 65.4415 11.7778 65.5423 11.7896 65.6462C11.8192 65.8625 11.8618 66.0636 11.9172 66.2743C11.9808 67.0394 11.9482 67.8402 11.4392 68.451C11.0925 68.6205 10.8215 68.6494 10.443 68.5777C10.0023 68.3625 9.81112 67.9783 9.62561 67.5415C9.34772 66.6175 9.29447 65.6267 9.20826 64.6693C9.0809 63.2654 8.91111 61.8679 8.73265 60.4696C8.72474 60.4074 8.71683 60.3452 8.70867 60.2812C7.96484 54.4362 7.05899 48.6151 5.9199 42.8338C5.90636 42.765 5.89281 42.6963 5.87885 42.6254C5.84828 42.4721 5.81716 42.3188 5.78568 42.1657C5.76908 42.0845 5.75248 42.0034 5.73538 41.9198C5.72021 41.8465 5.70504 41.7731 5.68941 41.6976C5.54171 40.8806 5.53121 40.0026 5.97135 39.2776C6.57657 38.4887 7.44322 38.4101 8.34106 38.8115Z" fill="#FAE17A"/>
<path d="M24.3561 46.4645C24.6703 46.5692 24.6846 46.6003 24.8319 46.8773C24.8865 46.9797 24.8865 46.9797 24.9423 47.0841C24.9807 47.159 25.0191 47.2339 25.0586 47.311C25.1189 47.4276 25.1189 47.4276 25.1803 47.5465C26.0956 49.3528 26.8668 51.2511 26.8553 53.3057C26.8557 53.3708 26.856 53.4359 26.8564 53.5029C26.8559 53.7922 26.8438 54.0198 26.7517 54.2962C26.4476 54.2962 26.1436 54.2962 25.8303 54.2962C26.0105 55.3776 26.5183 56.2267 27.2124 57.0603C27.3052 57.1826 27.3975 57.3053 27.4888 57.4289C24.6134 57.5292 21.7464 57.1269 19.3805 55.4018C19.4935 55.0591 19.6117 54.7221 19.7491 54.3883C19.3739 54.3179 19.0192 54.2844 18.6377 54.2839C18.482 54.2838 18.482 54.2838 18.3231 54.2836C18.1624 54.2841 18.1624 54.2841 17.9984 54.2847C17.8913 54.2843 17.7842 54.2839 17.6738 54.2836C17.57 54.2837 17.4662 54.2838 17.3592 54.2839C17.2183 54.2841 17.2183 54.2841 17.0745 54.2843C16.7924 54.2965 16.5251 54.3363 16.2478 54.3883C16.4832 53.9005 16.7339 53.4435 17.0367 52.9947C17.0959 52.9065 17.0959 52.9065 17.1564 52.8166C17.5903 52.179 18.0644 51.5768 18.5513 50.9792C18.6315 50.8759 18.6315 50.8759 18.7132 50.7705C19.5201 49.7731 20.8935 48.7122 22.1447 48.3994C22.2967 48.6122 22.4488 48.825 22.6054 49.0443C23.0629 48.9203 23.2448 48.6603 23.4807 48.2727C23.5164 48.2158 23.5521 48.1589 23.5889 48.1002C23.9065 47.5802 24.1474 47.0369 24.3561 46.4645Z" fill="#F6CB15"/>
<path d="M36.9791 72.171C38.469 72.171 39.9589 72.171 41.494 72.171C41.5244 76.2758 41.5548 80.3805 41.5861 84.6096C40.0658 84.6096 38.5455 84.6096 36.9791 84.6096C36.9791 83.0893 36.9791 81.5691 36.9791 80.0027C36.523 80.0027 36.067 80.0027 35.597 80.0027C35.677 79.3331 35.7573 78.6635 35.838 77.994C35.8687 77.7386 35.8992 77.4832 35.9296 77.2278C35.9454 77.097 35.9613 76.9663 35.9771 76.8355C35.9907 76.7227 36.0042 76.6098 36.0182 76.4936C36.0577 76.2251 36.0577 76.2251 36.1499 75.9487C36.4235 75.9487 36.6972 75.9487 36.9791 75.9487C36.9791 74.702 36.9791 73.4554 36.9791 72.171Z" fill="#151618"/>
<path d="M3.44043 72.171C4.96073 72.171 6.48102 72.171 8.04739 72.171C8.04739 73.4176 8.04739 74.6643 8.04739 75.9487C8.29064 75.9487 8.53389 75.9487 8.7845 75.9487C8.99483 77.2971 9.17323 78.6479 9.33734 80.0027C8.91166 80.0027 8.48597 80.0027 8.04739 80.0027C8.04739 81.523 8.04739 83.0433 8.04739 84.6096C6.52709 84.6096 5.0068 84.6096 3.44043 84.6096C3.44043 80.5049 3.44043 76.4001 3.44043 72.171Z" fill="#151618"/>
<path d="M38.1769 72.171C39.2715 72.171 40.3661 72.171 41.4939 72.171C41.4939 75.3636 41.4939 78.5562 41.4939 81.8455C40.6356 81.5021 40.2644 81.2682 39.6511 80.6477C39.5922 80.5908 39.5333 80.5339 39.4726 80.4753C38.1639 79.117 37.8832 77.1095 37.8834 75.3084C37.8832 75.1224 37.8815 74.9365 37.8798 74.7505C37.8785 73.9088 37.9293 73.0917 38.0848 72.2632C38.1152 72.2328 38.1456 72.2023 38.1769 72.171Z" fill="#303538"/>
<path d="M3.44043 72.171C4.56545 72.171 5.69047 72.171 6.84958 72.171C7.28588 74.7888 7.44464 77.6819 5.92819 80.0027C5.32656 80.7726 4.64101 81.4843 3.71685 81.8455C3.65604 81.8455 3.59522 81.8455 3.53257 81.8455C3.50216 78.6529 3.47176 75.4603 3.44043 72.171Z" fill="#313639"/>
<path d="M3.14743 28.9393C3.22723 28.9394 3.30704 28.9396 3.38926 28.9398C3.65586 28.9405 3.92244 28.9427 4.18904 28.9448C4.3807 28.9457 4.57236 28.9464 4.76403 28.9472C5.1784 28.9489 5.59276 28.9513 6.00712 28.9541C6.56359 28.9579 7.12006 28.9608 7.67653 28.9633C8.85231 28.9686 10.0281 28.9759 11.2038 28.985C11.8742 28.9901 12.5445 28.9946 13.2149 28.9984C13.7547 29.0014 14.2946 29.0055 14.8344 29.0099C15.0607 29.0116 15.287 29.013 15.5133 29.0141C15.826 29.0156 16.1387 29.0183 16.4515 29.0212C16.5432 29.0214 16.6348 29.0216 16.7293 29.0218C17.8915 29.0358 17.8915 29.0358 18.2748 29.4192C18.241 29.6895 18.1952 29.7752 17.9984 29.972C17.7792 29.997 17.7792 29.997 17.4999 29.9999C17.3949 30.0014 17.29 30.003 17.1818 30.0046C17.0672 30.0053 16.9525 30.0061 16.8344 30.0069C16.6529 30.0092 16.4714 30.0116 16.2899 30.0139C16.0972 30.0162 15.9045 30.0181 15.7118 30.0199C15.314 30.0237 14.9163 30.0288 14.5186 30.0343C14.3868 30.0361 14.255 30.0379 14.1232 30.0397C14.0584 30.0406 13.9937 30.0415 13.927 30.0424C13.732 30.045 13.537 30.0476 13.3419 30.0501C10.1903 30.0904 7.01352 30.1796 3.88902 30.6234C2.34057 30.8422 2.34057 30.8422 1.77038 30.5421C1.50548 30.3405 1.50548 30.3405 1.3212 30.0641C1.28665 29.7416 1.28665 29.7416 1.3212 29.4192C1.75631 28.9144 2.53361 28.9322 3.14743 28.9393Z" fill="#FAE17A"/>
<path d="M3.53258 73.8296C3.53258 76.8093 3.53258 79.7891 3.53258 82.8591C2.63205 82.3188 2.333 81.4112 2.05332 80.4448C1.57486 78.5231 1.72666 76.3584 2.72061 74.634C3.25458 73.8296 3.25458 73.8296 3.53258 73.8296Z" fill="#EFC616"/>
<path d="M41.4939 73.8296C42.499 74.6672 42.955 75.783 43.1229 77.0699C43.2764 78.9069 43.1616 80.7179 42.1389 82.3063C41.7466 82.7327 41.7466 82.7327 41.4939 82.8591C41.4939 79.8793 41.4939 76.8996 41.4939 73.8296Z" fill="#F3C815"/>
<path d="M89.472 11.1405C89.5597 11.1402 89.6474 11.1399 89.7378 11.1396C90.0285 11.1389 90.3192 11.1395 90.61 11.1401C90.8197 11.1398 91.0294 11.1395 91.2391 11.1391C91.8066 11.1382 92.3741 11.1386 92.9416 11.1392C93.5369 11.1396 94.1321 11.1392 94.7273 11.1389C95.7909 11.1385 96.8545 11.1391 97.918 11.1401C98.8802 11.1409 99.8424 11.1407 100.805 11.1399C101.925 11.1389 103.045 11.1385 104.164 11.1391C104.756 11.1394 105.348 11.1394 105.94 11.1388C106.497 11.1383 107.054 11.1386 107.61 11.1397C107.814 11.1399 108.018 11.1399 108.221 11.1395C110.5 11.1353 112.199 11.4122 113.945 13.0182C115.169 14.2989 115.514 16.0579 115.911 17.7256C116.008 18.1368 116.108 18.5476 116.207 18.9585C116.228 19.044 116.248 19.1294 116.269 19.2175C116.42 19.841 116.574 20.4635 116.73 21.0856C116.753 21.1745 116.775 21.2634 116.798 21.3551C116.885 21.7012 116.972 22.0473 117.06 22.3933C117.311 23.3858 117.551 24.3796 117.773 25.379C117.958 26.2057 118.174 27.0234 118.396 27.8408C118.473 27.8544 118.55 27.8679 118.629 27.8818C119.548 28.0649 120.204 28.3135 120.746 29.102C121.002 29.5137 121.08 29.8217 121.079 30.3061C121.079 30.4149 121.079 30.5237 121.079 30.6358C121.078 30.7533 121.078 30.8708 121.077 30.9919C121.077 31.1723 121.077 31.1723 121.077 31.3563C121.077 31.6758 121.076 31.9952 121.075 32.3147C121.074 32.6408 121.073 32.9669 121.073 33.293C121.072 33.9326 121.07 34.5722 121.068 35.2118C120.187 35.2118 119.305 35.2118 118.396 35.2118C118.371 35.428 118.346 35.6442 118.32 35.8669C118.205 36.8548 118.079 37.8415 117.953 38.8282C117.941 38.923 117.929 39.0177 117.916 39.1153C117.743 40.4718 117.564 41.8274 117.38 43.1824C117.223 44.3336 117.069 45.4852 116.917 46.637C116.891 46.8374 116.864 47.0378 116.838 47.2382C116.677 48.448 116.52 49.6581 116.366 50.8686C116.19 52.2455 116.011 53.622 115.829 54.998C115.817 55.0825 115.806 55.167 115.795 55.2541C115.737 55.6876 115.68 56.1212 115.622 56.5548C115.251 59.3578 114.882 62.161 114.54 64.9679C114.416 65.9775 114.279 66.9835 114.125 67.9888C114.057 68.4374 113.998 68.8867 113.945 69.3373C113.816 70.3902 113.681 71.4423 113.544 72.4942C113.52 72.6836 113.495 72.873 113.471 73.0625C113.219 75.0188 113.219 75.0188 113.052 75.9367C113.326 75.9367 113.6 75.9367 113.881 75.9367C113.881 74.69 113.881 73.4434 113.881 72.159C115.371 72.159 116.861 72.159 118.396 72.159C118.427 72.7063 118.457 73.2536 118.488 73.8175C118.744 74.1966 118.744 74.1966 118.958 74.3811C119.934 75.345 120.09 76.9849 120.101 78.2804C120.086 79.9276 119.784 81.5512 118.581 82.7548C118.55 83.363 118.52 83.9711 118.488 84.5976C116.968 84.5976 115.448 84.5976 113.881 84.5976C113.881 83.0773 113.881 81.5571 113.881 79.9907C113.395 79.9907 112.909 79.9907 112.407 79.9907C112.346 80.1427 112.286 80.2948 112.223 80.4514C112.08 80.6108 112.08 80.6108 111.918 80.7451C111.838 80.8126 111.838 80.8126 111.758 80.8815C111.249 81.229 110.772 81.2152 110.176 81.2138C110.033 81.2145 110.033 81.2145 109.886 81.2152C109.565 81.2166 109.244 81.2167 108.923 81.2167C108.693 81.2174 108.463 81.2182 108.233 81.2191C107.607 81.2211 106.982 81.2219 106.357 81.2224C105.966 81.2227 105.575 81.2233 105.184 81.2239C104.102 81.2257 103.019 81.2272 101.937 81.2275C101.833 81.2275 101.833 81.2275 101.727 81.2276C101.587 81.2276 101.446 81.2276 101.306 81.2277C101.236 81.2277 101.167 81.2277 101.095 81.2277C101.025 81.2277 100.955 81.2277 100.883 81.2278C99.7535 81.2281 98.6236 81.2306 97.4937 81.234C96.3327 81.2375 95.1718 81.2393 94.0108 81.2393C93.3594 81.2394 92.7079 81.2402 92.0564 81.2428C91.4435 81.2453 90.8305 81.2455 90.2176 81.244C89.9928 81.2438 89.7681 81.2444 89.5434 81.2459C89.2361 81.2478 88.9288 81.2468 88.6215 81.2451C88.5331 81.2464 88.4446 81.2476 88.3535 81.2488C87.7208 81.241 87.2286 81.0821 86.7004 80.7278C86.4934 80.5102 86.3319 80.3028 86.3319 79.9907C85.8758 79.9907 85.4197 79.9907 84.9498 79.9907C84.9498 81.511 84.9498 83.0313 84.9498 84.5976C83.4295 84.5976 81.9092 84.5976 80.3428 84.5976C80.3124 84.0199 80.282 83.4422 80.2507 82.847C80.0682 82.6341 79.8858 82.4213 79.6978 82.202C78.6587 80.5579 78.5203 78.4956 78.8373 76.6079C79.0816 75.6001 79.5169 74.6434 80.2507 73.9096C80.2811 73.3319 80.3115 72.7542 80.3428 72.159C81.8631 72.159 83.3834 72.159 84.9498 72.159C84.9498 73.3752 84.9498 74.5914 84.9498 75.8445C85.193 75.8445 85.4363 75.8445 85.6869 75.8445C85.6702 75.7488 85.6702 75.7488 85.6531 75.6511C85.523 74.8898 85.4164 74.1265 85.3162 73.3608C85.2987 73.2287 85.2813 73.0967 85.2638 72.9646C85.2181 72.6181 85.1725 72.2716 85.127 71.9251C85.0909 71.6504 85.0547 71.3758 85.0184 71.1012C84.868 69.9624 84.7179 68.8235 84.5719 67.6841C84.5637 67.6202 84.5555 67.5564 84.547 67.4906C84.5086 67.1914 84.4704 66.8922 84.4324 66.5929C84.3299 65.7921 84.2156 64.9935 84.0975 64.1949C83.8849 62.7386 83.7021 61.2789 83.5216 59.8183C83.2025 57.2375 82.8713 54.6584 82.5356 52.0796C82.4973 51.7851 82.459 51.4905 82.4207 51.196C82.1015 48.7402 81.7775 46.2851 81.4491 43.8306C81.1929 41.9142 80.9417 39.9971 80.6941 38.0796C80.6798 37.9692 80.6656 37.8587 80.6509 37.7449C80.5461 36.9315 80.4445 36.1178 80.3428 35.304C79.2178 35.304 78.0928 35.304 76.9337 35.304C76.9278 34.6341 76.9223 33.9644 76.9194 33.2945C76.9179 32.9825 76.916 32.6705 76.9128 32.3585C76.9094 31.9996 76.9079 31.6408 76.9067 31.2819C76.9052 31.1713 76.9038 31.0607 76.9023 30.9468C76.9022 30.1288 76.9781 29.4046 77.5498 28.7795C77.6359 28.6817 77.6359 28.6817 77.7237 28.5819C78.2926 28.1028 78.827 27.9691 79.5596 27.956C79.6354 27.9533 79.7112 27.9505 79.7893 27.9477C79.9737 27.9413 80.1583 27.9369 80.3428 27.933C80.3621 27.8465 80.3621 27.8465 80.3819 27.7584C80.6809 26.4277 81 25.1042 81.35 23.786C81.5446 23.0465 81.7211 22.3041 81.8912 21.5585C82.1644 20.3634 82.4566 19.1736 82.7582 17.9853C82.8434 17.6488 82.9275 17.312 83.0116 16.9752C83.0666 16.7579 83.1217 16.5406 83.1768 16.3233C83.2014 16.2242 83.226 16.1252 83.2513 16.0231C83.6923 14.3032 84.613 12.8745 86.1613 11.95C87.2316 11.3752 88.2612 11.1343 89.472 11.1405Z" fill="#E9381C"/>
<path d="M80.5272 36.5016C80.5878 36.5108 80.6484 36.5201 80.7108 36.5296C84.1963 37.0503 87.7047 37.247 91.2217 37.4114C95.975 37.6337 100.707 37.8865 105.313 39.1736C105.442 39.2085 105.442 39.2085 105.574 39.2441C107.956 39.8893 110.67 40.9703 112.037 43.1495C112.891 44.7369 112.953 46.4357 113.052 48.2031C113.062 48.3472 113.071 48.4912 113.08 48.6353C113.503 55.351 113.21 62.1589 112.275 68.8189C112.256 68.958 112.256 68.958 112.236 69.1C112.098 70.0935 111.934 71.0768 111.715 72.0559C111.688 72.178 111.688 72.178 111.66 72.3025C111.178 74.3663 110.069 76.1642 108.261 77.3186C104.883 79.4026 100.382 79.2559 96.5594 79.3456C96.4355 79.3488 96.4355 79.3488 96.309 79.3521C93.5986 79.4152 90.4722 79.4311 87.8984 78.5163C87.8023 78.4823 87.7062 78.4482 87.6072 78.413C87.3284 78.3055 87.0615 78.186 86.7927 78.0557C86.7046 78.0157 86.6164 77.9758 86.5256 77.9347C86.2001 77.7556 85.9356 77.6065 85.8144 77.2375C85.7242 76.8065 85.6986 76.3758 85.687 75.9365C85.4438 75.9365 85.2005 75.9365 84.9499 75.9365C84.9499 75.9061 84.9499 75.8757 84.9499 75.8443C85.1932 75.8443 85.4364 75.8443 85.687 75.8443C85.6759 75.7805 85.6647 75.7167 85.6533 75.6509C85.5231 74.8897 85.4166 74.1263 85.3163 73.3606C85.2989 73.2285 85.2814 73.0965 85.264 72.9645C85.2182 72.618 85.1727 72.2714 85.1272 71.9249C85.0911 71.6502 85.0548 71.3756 85.0185 71.101C84.8681 69.9622 84.7181 68.8233 84.572 67.6839C84.5638 67.6201 84.5556 67.5562 84.5472 67.4904C84.5088 67.1912 84.4705 66.892 84.4325 66.5927C84.3301 65.7919 84.2157 64.9933 84.0976 64.1947C83.885 62.7384 83.7023 61.2787 83.5217 59.8182C83.2027 57.2373 82.8714 54.6582 82.5358 52.0795C82.4974 51.7849 82.4592 51.4903 82.4209 51.1958C82.1016 48.7401 81.7777 46.285 81.4492 43.8305C81.2715 42.5008 81.0968 41.1707 80.9228 39.8405C80.8953 39.6306 80.8678 39.4207 80.8402 39.2108C80.7958 38.872 80.7515 38.5333 80.7075 38.1945C80.6833 38.0095 80.6591 37.8245 80.6348 37.6395C80.6206 37.5297 80.6063 37.4199 80.5916 37.3067C80.5791 37.2108 80.5666 37.1149 80.5537 37.016C80.5272 36.778 80.5272 36.778 80.5272 36.5016Z" fill="#EA381C"/>
<path d="M80.435 35.2117C92.9623 35.2117 105.49 35.2117 118.396 35.2117C118.184 37.0203 118.184 37.0203 118.089 37.7584C118.073 37.8852 118.073 37.8852 118.057 38.0146C118.022 38.2858 117.988 38.5569 117.953 38.8281C117.941 38.9228 117.929 39.0176 117.916 39.1152C117.743 40.4716 117.564 41.8273 117.38 43.1822C117.223 44.3334 117.069 45.485 116.917 46.6368C116.891 46.8372 116.864 47.0376 116.838 47.238C116.677 48.4478 116.52 49.658 116.366 50.8685C116.19 52.2454 116.011 53.6218 115.829 54.9979C115.818 55.0824 115.806 55.1669 115.795 55.2539C115.737 55.6875 115.68 56.121 115.622 56.5546C115.251 59.3577 114.882 62.1609 114.54 64.9678C114.416 65.9773 114.279 66.9833 114.125 67.9887C114.057 68.4372 113.998 68.8866 113.945 69.3371C113.816 70.39 113.681 71.4421 113.544 72.494C113.52 72.6834 113.495 72.8729 113.471 73.0623C113.219 75.0186 113.219 75.0186 113.052 75.9365C113.326 75.9365 113.6 75.9365 113.882 75.9365C113.882 74.6899 113.882 73.4433 113.882 72.1589C115.371 72.1589 116.861 72.1589 118.396 72.1589C118.427 72.7062 118.457 73.2535 118.489 73.8173C118.744 74.1964 118.744 74.1964 118.958 74.381C119.934 75.3449 120.09 76.9847 120.101 78.2803C120.086 79.9274 119.784 81.551 118.581 82.7547C118.55 83.3628 118.52 83.9709 118.489 84.5974C116.968 84.5974 115.448 84.5974 113.882 84.5974C113.882 83.0772 113.882 81.5569 113.882 79.9906C113.395 79.9906 112.909 79.9906 112.407 79.9906C112.347 80.1426 112.286 80.2946 112.223 80.4512C112.08 80.6107 112.08 80.6107 111.918 80.7449C111.865 80.7899 111.812 80.835 111.758 80.8813C111.249 81.2289 110.772 81.2151 110.176 81.2136C110.081 81.2141 109.985 81.2146 109.886 81.2151C109.565 81.2164 109.244 81.2165 108.923 81.2166C108.693 81.2173 108.463 81.2181 108.233 81.2189C107.607 81.2209 106.982 81.2217 106.357 81.2222C105.966 81.2225 105.575 81.2231 105.184 81.2238C104.102 81.2256 103.019 81.2271 101.937 81.2273C101.833 81.2274 101.833 81.2274 101.727 81.2274C101.587 81.2274 101.446 81.2275 101.306 81.2275C101.236 81.2275 101.167 81.2275 101.095 81.2276C101.025 81.2276 100.955 81.2276 100.883 81.2276C99.7535 81.2279 98.6236 81.2304 97.4937 81.2339C96.3328 81.2374 95.1718 81.2392 94.0109 81.2392C93.3594 81.2392 92.708 81.24 92.0565 81.2427C91.4435 81.2452 90.8306 81.2453 90.2176 81.2438C89.9929 81.2437 89.7682 81.2443 89.5435 81.2457C89.2361 81.2476 88.9289 81.2467 88.6216 81.245C88.5331 81.2462 88.4447 81.2474 88.3536 81.2487C87.7208 81.2408 87.2287 81.0819 86.7005 80.7277C86.4934 80.51 86.3319 80.3026 86.3319 79.9906C85.8758 79.9906 85.4197 79.9906 84.9498 79.9906C84.9498 81.5108 84.9498 83.0311 84.9498 84.5974C83.4295 84.5974 81.9092 84.5974 80.3429 84.5974C80.2973 83.7309 80.2973 83.7309 80.2507 82.8468C80.0683 82.634 79.8859 82.4211 79.6979 82.2019C78.6588 80.5577 78.5204 78.4955 78.8373 76.6077C79.0816 75.6 79.5169 74.6433 80.2507 73.9095C80.2811 73.3318 80.3115 72.7541 80.3429 72.1589C81.8632 72.1589 83.3835 72.1589 84.9498 72.1589C84.9498 73.4055 84.9498 74.6521 84.9498 75.9365C85.1931 75.9365 85.4363 75.9365 85.6869 75.9365C85.7182 76.0957 85.7488 76.2551 85.7791 76.4145C85.7962 76.5032 85.8133 76.5919 85.8309 76.6833C85.8683 76.931 85.8785 77.1608 85.8712 77.4107C85.9493 77.4481 85.9493 77.4481 86.0289 77.4863C86.2495 77.6 86.4558 77.7278 86.6659 77.8599C88.5474 78.9904 90.8402 79.0573 92.9775 79.1786C93.0449 79.1825 93.1123 79.1865 93.1818 79.1905C95.05 79.2974 96.9135 79.2559 98.7822 79.1786C98.8809 79.1746 98.9795 79.1705 99.0811 79.1664C102.714 79.0142 107.041 78.8289 109.735 76.0286C114.284 70.8118 113.275 58.6793 112.966 48.18C112.961 48.079 112.961 48.079 112.955 47.9759C112.835 45.6621 112.594 43.54 110.841 41.8456C110.276 41.3527 109.638 40.9898 108.981 40.6363C108.914 40.5998 108.847 40.5633 108.777 40.5258C107.578 39.9008 106.28 39.5164 104.979 39.1678C104.905 39.148 104.832 39.1283 104.757 39.1079C103.422 38.7496 102.091 38.4892 100.723 38.2945C100.463 38.257 100.204 38.2162 99.9448 38.1734C98.9686 38.0158 97.987 37.9233 97.0021 37.8408C96.895 37.8318 96.895 37.8318 96.7857 37.8226C95.1888 37.6899 93.5904 37.613 91.9897 37.5421C81.4299 37.0727 81.4299 37.0727 80.435 36.4095C80.435 36.0142 80.435 35.6189 80.435 35.2117Z" fill="#D72C1A"/>
<path d="M92.2213 12.8897C92.3125 12.8891 92.3125 12.8891 92.4055 12.8884C92.6074 12.8873 92.8093 12.8874 93.0112 12.8875C93.1567 12.887 93.3023 12.8864 93.4478 12.8857C93.8419 12.884 94.2359 12.8836 94.63 12.8835C94.8766 12.8834 95.1232 12.883 95.3698 12.8825C96.2313 12.8808 97.0927 12.88 97.9542 12.8802C98.7553 12.8803 99.5565 12.8783 100.358 12.8754C101.047 12.873 101.736 12.872 102.426 12.8721C102.837 12.8722 103.248 12.8717 103.659 12.8697C104.046 12.8679 104.432 12.8679 104.819 12.8693C104.961 12.8695 105.102 12.869 105.243 12.8679C106.266 12.8603 107.234 12.9364 108.019 13.6629C108.09 13.7259 108.161 13.7888 108.234 13.8537C108.777 14.5188 108.994 15.2712 109.153 16.101C109.184 16.2513 109.184 16.2513 109.215 16.4046C109.28 16.7266 109.344 17.049 109.407 17.3715C109.474 17.704 109.541 18.0364 109.607 18.3688C109.651 18.5866 109.695 18.8044 109.738 19.0223C109.854 19.6012 109.975 20.1784 110.108 20.7536C110.816 23.8077 110.816 23.8077 110.154 24.8882C109.659 25.5427 109.084 26.022 108.261 26.1821C108.012 26.1916 107.765 26.1962 107.516 26.1963C107.441 26.1967 107.365 26.1971 107.287 26.1975C107.033 26.1988 106.779 26.1993 106.525 26.1999C106.343 26.2006 106.161 26.2014 105.98 26.2022C105.382 26.2046 104.784 26.206 104.186 26.2073C103.98 26.2078 103.774 26.2083 103.568 26.2088C102.712 26.2108 101.855 26.2125 100.998 26.2136C99.7713 26.2151 98.5443 26.2181 97.3173 26.2234C96.4542 26.2269 95.5911 26.2287 94.7279 26.2292C94.2126 26.2296 93.6973 26.2307 93.182 26.2337C92.6969 26.2364 92.2119 26.237 91.7268 26.2359C91.5492 26.2359 91.3716 26.2367 91.194 26.2383C90.1209 26.2476 89.3092 26.2272 88.4627 25.4911C88.3981 25.4151 88.3335 25.3391 88.2669 25.2608C88.2042 25.1942 88.1415 25.1277 88.0768 25.0592C87.5203 24.2514 87.4234 23.4472 87.5748 22.4877C87.6367 22.1915 87.7055 21.8979 87.7774 21.604C87.8289 21.3832 87.8803 21.1624 87.9314 20.9414C87.9572 20.8312 87.9829 20.721 88.0094 20.6074C88.1181 20.1294 88.2132 19.6492 88.3072 19.1682C88.3856 18.7727 88.4644 18.3773 88.5433 17.9819C88.5556 17.9201 88.5679 17.8584 88.5806 17.7947C88.6623 17.3854 88.7454 16.9763 88.8298 16.5675C88.8573 16.4333 88.8844 16.299 88.9112 16.1646C89.1142 15.1467 89.334 14.1373 90.2292 13.501C90.8744 13.0962 91.4513 12.8919 92.2213 12.8897Z" fill="#77100A"/>
<path d="M103.702 17.0296C103.949 17.0318 104.195 17.0315 104.442 17.0309C106.157 17.0336 107.736 17.2434 109.367 17.7977C109.397 17.7369 109.428 17.6761 109.459 17.6134C109.476 17.6992 109.494 17.7849 109.512 17.8732C109.551 18.06 109.589 18.2468 109.627 18.4336C109.701 18.7911 109.774 19.1486 109.847 19.5062C110.029 20.3979 110.029 20.3979 110.229 21.2856C110.499 22.4326 110.808 23.8213 110.154 24.8883C109.656 25.5467 109.086 26.0147 108.261 26.1822C108.068 26.1905 107.875 26.1935 107.682 26.1933C107.562 26.1934 107.443 26.1936 107.321 26.1937C107.189 26.1934 107.057 26.193 106.925 26.1927C106.786 26.1927 106.647 26.1927 106.508 26.1927C106.131 26.1928 105.754 26.1922 105.377 26.1916C104.983 26.191 104.589 26.1909 104.195 26.1908C103.448 26.1905 102.702 26.1898 101.956 26.1889C101.106 26.1878 100.257 26.1873 99.4069 26.1869C97.6592 26.1859 95.9115 26.1843 94.1638 26.1822C94.089 26.0379 94.0149 25.8933 93.941 25.7485C93.8996 25.668 93.8583 25.5875 93.8157 25.5046C93.3858 24.574 93.3643 23.3614 93.6628 22.3931C94.1007 21.2588 94.6893 20.3934 95.5459 19.5483C95.6007 19.4936 95.6556 19.4388 95.7121 19.3824C97.8151 17.4416 100.956 17.0037 103.702 17.0296Z" fill="#A0190B"/>
<path d="M98.621 45.053C99.5352 45.0638 100.4 45.1802 101.166 45.7152C101.313 45.8797 101.43 46.0507 101.552 46.2342C101.773 46.5231 102.031 46.7562 102.301 46.9994C102.353 47.047 102.406 47.0946 102.46 47.1437C102.564 47.238 102.668 47.3323 102.773 47.4265C103.439 48.0333 104.023 48.6896 104.576 49.4007C104.635 49.4757 104.694 49.5506 104.755 49.6278C105.824 51.056 106.135 52.9076 106.05 54.6526C106.236 54.6886 106.422 54.7246 106.608 54.7605C106.787 54.8369 106.787 54.8369 106.916 55.0013C106.971 55.2054 106.971 55.2054 106.894 55.4138C106.224 56.4696 105.516 57.3093 104.299 57.6874C104.229 57.71 104.158 57.7326 104.086 57.7558C101.103 58.6929 98.5402 59.1382 95.638 57.7853C95.492 57.6964 95.3475 57.6048 95.2061 57.5088C95.1054 57.448 95.0047 57.3872 94.9009 57.3246C94.6754 57.4079 94.532 57.5091 94.3481 57.6643C94.1638 57.7853 94.1638 57.7853 93.982 57.764C93.6227 57.6276 93.4865 57.2863 93.3345 56.956C93.2385 56.7015 93.1551 56.4444 93.0754 56.1844C93.0552 56.1203 93.035 56.0563 93.0142 55.9904C92.734 55.0163 92.9131 54.1564 93.156 53.1899C93.185 53.0726 93.2141 52.9552 93.244 52.8343C93.7054 51.0144 94.2122 49.3877 95.5459 48.0187C95.5968 47.9631 95.6478 47.9075 95.7003 47.8502C96.0364 47.4933 96.4095 47.1905 96.7955 46.89C96.8455 46.8508 96.8954 46.8117 96.9469 46.7714C97.7275 46.1759 97.7275 46.1759 98.1258 46.1759C98.103 46.1047 98.103 46.1047 98.0797 46.0319C98.0194 45.7381 98.0223 45.4615 98.0336 45.1624C98.1931 45.0029 98.4039 45.0544 98.621 45.053Z" fill="#FEFCFB"/>
<path d="M84.7656 38.6207C85.6446 38.9267 86.2671 39.4586 86.7005 40.2792C86.9407 40.8584 87.0148 41.3656 87.001 41.989C87.0003 42.0732 86.9996 42.1574 86.9989 42.2441C86.9972 42.4264 86.995 42.6087 86.9921 42.791C86.9876 43.0836 86.9849 43.3761 86.9826 43.6687C86.9793 44.0864 86.9755 44.5041 86.9713 44.9218C86.9366 48.525 86.9626 52.0749 87.4026 55.6554C87.4388 55.9528 87.4735 56.2503 87.5077 56.548C87.7209 58.395 87.9606 60.2381 88.2429 62.0759C88.3369 62.6888 88.4142 63.3012 88.4767 63.9181C88.5223 64.3566 88.5847 64.7905 88.6544 65.2258C89.0037 67.4142 89.0037 67.4142 88.4511 68.2891C88.2147 68.5677 88.09 68.5645 87.7198 68.6115C87.4284 68.5975 87.3479 68.5672 87.0978 68.3927C86.5997 67.7195 86.3571 67.0673 86.2743 66.239C86.2639 66.1488 86.2534 66.0586 86.2426 65.9657C86.1445 65.0993 86.0647 64.2307 85.9811 63.3628C85.8919 62.4554 85.7746 61.5542 85.6456 60.6517C85.534 59.8675 85.4344 59.0826 85.3414 58.2961C84.9747 55.1995 84.4764 52.1251 83.9448 49.0532C83.8264 48.3676 83.7118 47.6818 83.6081 46.9938C83.5098 46.3486 83.3863 45.7099 83.2568 45.0704C83.2374 44.9744 83.218 44.8785 83.198 44.7796C83.1783 44.6822 83.1586 44.5848 83.1384 44.4844C83.0972 44.2805 83.056 44.0765 83.0149 43.8726C82.9932 43.7649 82.9715 43.6573 82.9491 43.5463C82.8834 43.2177 82.8194 42.8887 82.7558 42.5596C82.7356 42.46 82.7154 42.3603 82.6946 42.2577C82.4867 41.1682 82.3738 40.0583 83.0034 39.0929C83.532 38.5643 84.0471 38.5242 84.7656 38.6207Z" fill="#ED4F36"/>
<path d="M113.881 72.1589C115.371 72.1589 116.861 72.1589 118.396 72.1589C118.442 72.9799 118.442 72.9799 118.488 73.8174C118.744 74.1965 118.744 74.1965 118.958 74.381C119.934 75.345 120.09 76.9848 120.101 78.2803C120.086 79.9275 119.784 81.5511 118.581 82.7548C118.55 83.3629 118.52 83.971 118.488 84.5975C116.968 84.5975 115.448 84.5975 113.881 84.5975C113.881 83.0772 113.881 81.557 113.881 79.9906C113.425 79.9906 112.969 79.9906 112.499 79.9906C112.526 79.7685 112.526 79.7685 112.553 79.5418C112.571 79.3978 112.571 79.3978 112.588 79.2509C112.614 79.0408 112.639 78.8308 112.664 78.6208C112.721 78.1447 112.778 77.6685 112.832 77.192C112.84 77.12 112.848 77.0481 112.857 76.974C112.872 76.8418 112.886 76.7095 112.9 76.5772C112.95 76.1413 112.95 76.1413 113.052 75.9366C113.326 75.9366 113.6 75.9366 113.881 75.9366C113.881 74.69 113.881 73.4433 113.881 72.1589Z" fill="#303538"/>
<path d="M80.3429 72.1589C81.8632 72.1589 83.3835 72.1589 84.9498 72.1589C84.9498 73.4056 84.9498 74.6522 84.9498 75.9366C85.1931 75.9366 85.4363 75.9366 85.6869 75.9366C85.8328 76.6851 85.9434 77.4363 86.0426 78.1923C86.0673 78.3805 86.0925 78.5687 86.1178 78.7569C86.2398 79.6779 86.2398 79.6779 86.2398 79.9906C85.8141 79.9906 85.3884 79.9906 84.9498 79.9906C84.9498 81.5109 84.9498 83.0312 84.9498 84.5975C83.4295 84.5975 81.9092 84.5975 80.3429 84.5975C80.2973 83.731 80.2973 83.731 80.2507 82.8469C80.0683 82.6341 79.8859 82.4212 79.6979 82.2019C78.6588 80.5578 78.5204 78.4955 78.8373 76.6078C79.0816 75.6 79.5169 74.6433 80.2507 73.9096C80.2811 73.3318 80.3115 72.7541 80.3429 72.1589Z" fill="#303639"/>
<path d="M101.259 46.4524C101.669 46.5892 101.767 46.9162 101.955 47.2816C102.015 47.3974 102.015 47.3974 102.076 47.5156C103.115 49.5726 103.914 51.6734 103.746 54.0077C103.701 54.1445 103.701 54.1445 103.654 54.2841C103.35 54.2841 103.046 54.2841 102.733 54.2841C102.913 55.3655 103.421 56.2146 104.115 57.0482C104.208 57.1706 104.3 57.2933 104.391 57.4168C101.636 57.4825 98.8686 57.2007 96.5594 55.574C96.4682 55.5132 96.377 55.4524 96.283 55.3897C96.3947 55.0466 96.5141 54.7099 96.6516 54.3762C96.2764 54.3059 95.9216 54.2723 95.5401 54.2719C95.3844 54.2717 95.3844 54.2717 95.2256 54.2715C95.0649 54.272 95.0649 54.272 94.9009 54.2726C94.7938 54.2722 94.6866 54.2719 94.5763 54.2715C94.4725 54.2716 94.3687 54.2717 94.2617 54.2719C94.1208 54.272 94.1208 54.272 93.977 54.2722C93.6949 54.2844 93.4276 54.3242 93.1503 54.3762C93.68 53.1227 94.5868 52.0044 95.4537 50.9671C95.5009 50.9066 95.5481 50.846 95.5966 50.7836C96.3134 49.8979 97.316 49.2038 98.3101 48.6637C98.4146 48.6048 98.5191 48.5459 98.6268 48.4852C98.8629 48.3873 98.8629 48.3873 99.1393 48.4794C99.268 48.6596 99.3916 48.8438 99.5079 49.0322C99.6791 49.0266 99.6791 49.0266 99.8764 48.9401C100.029 48.7616 100.157 48.5932 100.285 48.3988C100.34 48.3187 100.34 48.3187 100.395 48.2369C100.764 47.6778 101.047 47.0881 101.259 46.4524Z" fill="#EA391D"/>
<path d="M113.881 72.1589C114.246 72.1589 114.611 72.1589 114.987 72.1589C114.98 72.241 114.974 72.3231 114.967 72.4076C114.774 75.1488 114.554 78.2766 116.477 80.4978C116.969 81.0116 117.478 81.4374 118.16 81.6606C118.396 81.8334 118.396 81.8334 118.451 82.0141C118.545 82.8508 118.488 83.7841 118.488 84.5975C116.968 84.5975 115.448 84.5975 113.881 84.5975C113.881 83.0772 113.881 81.557 113.881 79.9906C113.425 79.9906 112.969 79.9906 112.499 79.9906C112.526 79.7685 112.526 79.7685 112.553 79.5418C112.571 79.3978 112.571 79.3978 112.588 79.2509C112.614 79.0408 112.639 78.8308 112.664 78.6208C112.721 78.1447 112.778 77.6685 112.832 77.192C112.84 77.12 112.848 77.0481 112.857 76.974C112.872 76.8418 112.886 76.7095 112.9 76.5772C112.95 76.1413 112.95 76.1413 113.052 75.9366C113.326 75.9366 113.6 75.9366 113.881 75.9366C113.881 74.69 113.881 73.4433 113.881 72.1589Z" fill="#151618"/>
<path d="M83.752 72.1589C84.1473 72.1589 84.5426 72.1589 84.9498 72.1589C84.9498 73.4056 84.9498 74.6522 84.9498 75.9366C85.1931 75.9366 85.4363 75.9366 85.687 75.9366C85.8329 76.6851 85.9434 77.4363 86.0426 78.1923C86.0673 78.3805 86.0925 78.5687 86.1178 78.7569C86.2398 79.6779 86.2398 79.6779 86.2398 79.9906C85.8141 79.9906 85.3884 79.9906 84.9498 79.9906C84.9498 81.5109 84.9498 83.0312 84.9498 84.5975C83.4295 84.5975 81.9092 84.5975 80.3429 84.5975C80.3429 84.0198 80.3429 83.4421 80.3429 82.8469C80.3334 82.6569 80.3239 82.4668 80.3141 82.271C80.3386 82.0367 80.3386 82.0367 80.435 81.8334C80.7142 81.634 81 81.4968 81.3111 81.3525C82.4349 80.7793 83.0983 79.583 83.4967 78.4267C84.1542 76.3655 83.9452 74.278 83.752 72.1589Z" fill="#151618"/>
<path d="M79.9439 28.9272C80.0131 28.9273 80.0822 28.9275 80.1534 28.9277C80.3863 28.9285 80.6191 28.9306 80.8519 28.9327C81.0214 28.9336 81.191 28.9344 81.3606 28.9351C81.7364 28.9369 82.1122 28.9392 82.488 28.942C83.1444 28.9468 83.8009 28.9498 84.4573 28.9528C85.5539 28.9579 86.6506 28.9648 87.7473 28.9729C88.4457 28.978 89.1442 28.9825 89.8426 28.9863C90.4035 28.9894 90.9643 28.9934 91.5252 28.9978C91.7606 28.9995 91.9961 29.0009 92.2316 29.002C92.5578 29.0035 92.884 29.0062 93.2103 29.0091C93.3535 29.0094 93.3535 29.0094 93.4997 29.0097C94.795 29.0247 94.795 29.0247 95.1774 29.4071C95.1436 29.6775 95.0977 29.7631 94.9009 29.9599C94.6865 29.9849 94.6865 29.9849 94.4138 29.9878C94.3113 29.9894 94.2088 29.9909 94.1031 29.9925C93.9911 29.9932 93.879 29.994 93.7636 29.9948C93.6475 29.9963 93.5315 29.9979 93.4119 29.9994C93.1626 30.0026 92.9133 30.0055 92.6639 30.0079C92.2744 30.0116 91.885 30.0166 91.4955 30.022C91.4314 30.0229 91.3672 30.0238 91.3011 30.0247C91.1722 30.0264 91.0433 30.0282 90.9144 30.03C90.7221 30.0326 90.5299 30.0351 90.3376 30.0376C87.2773 30.0771 84.2225 30.162 81.1869 30.5753C79.1413 30.8465 79.1413 30.8465 78.4472 30.3551C78.2264 30.1554 78.2225 30.0383 78.1949 29.7353C78.2237 29.4071 78.2237 29.4071 78.3677 29.2401C78.8816 28.9897 79.3789 28.9196 79.9439 28.9272Z" fill="#ED5037"/>
<path d="M80.4351 73.8173C80.4351 76.797 80.4351 79.7767 80.4351 82.8467C79.7521 82.5053 79.3861 81.778 79.1368 81.0732C78.839 80.1733 78.7283 79.3431 78.7362 78.3953C78.737 78.2775 78.7378 78.1596 78.7386 78.0381C78.7637 76.634 79.0792 75.0619 80.101 74.0131C80.3429 73.8173 80.3429 73.8173 80.4351 73.8173Z" fill="#E3381D"/>
<path d="M118.396 73.8173C119.444 74.6899 119.821 75.8178 120.055 77.1342C120.177 78.9247 120.08 80.7658 119.041 82.2939C118.828 82.4764 118.616 82.6588 118.396 82.8467C118.396 79.867 118.396 76.8873 118.396 73.8173Z" fill="#E7391D"/>
<path d="M85.1341 71.8824C85.1645 71.8824 85.1949 71.8824 85.2262 71.8824C85.292 72.4022 85.3576 72.922 85.423 73.4419C85.4453 73.6188 85.4676 73.7956 85.4901 73.9725C85.5222 74.2266 85.5542 74.4806 85.5861 74.7348C85.5962 74.8139 85.6063 74.8931 85.6166 74.9747C85.6259 75.0485 85.6351 75.1223 85.6446 75.1983C85.6528 75.2631 85.661 75.328 85.6694 75.3948C85.6869 75.568 85.6869 75.568 85.6869 75.8444C85.4436 75.8444 85.2004 75.8444 84.9498 75.8444C84.9452 75.3246 84.9419 74.8048 84.9396 74.2849C84.9387 74.1081 84.9375 73.9312 84.9359 73.7543C84.9336 73.5002 84.9326 73.2462 84.9318 72.9921C84.9308 72.9129 84.9299 72.8337 84.9289 72.7521C84.9289 72.6783 84.9289 72.6046 84.9289 72.5286C84.9284 72.4637 84.928 72.3988 84.9276 72.332C84.9498 72.1589 84.9498 72.1589 85.1341 71.8824Z" fill="#FDF7F5"/>
<path d="M98.5864 61.655C98.6472 61.655 98.708 61.655 98.7707 61.655C98.7403 61.9591 98.7098 62.2631 98.6785 62.5764C98.6481 62.4852 98.6177 62.394 98.5864 62.3C98.5256 62.3 98.4648 62.3 98.4021 62.3C98.4827 61.8623 98.4827 61.8623 98.5864 61.655Z" fill="#E93517"/>
<path d="M48.7857 0.0131024C48.8921 0.0128532 48.9985 0.012604 49.1081 0.0123473C49.4635 0.0116528 49.8189 0.011741 50.1743 0.0118319C50.4296 0.0115027 50.6849 0.0111285 50.9402 0.0107126C51.6332 0.00974142 52.3261 0.00948319 53.019 0.00941302C53.4523 0.0093348 53.8855 0.0090999 54.3188 0.00880841C55.7534 0.00784344 57.188 0.00733241 58.6226 0.00741497C58.6999 0.00741936 58.7771 0.00742376 58.8567 0.00742828C58.9341 0.00743278 59.0114 0.00743728 59.0911 0.00744191C60.3434 0.00748657 61.5957 0.00643511 62.848 0.00488343C64.1361 0.00330017 65.4241 0.00256434 66.7121 0.00263907C67.4343 0.00266705 68.1566 0.00235664 68.8788 0.00118969C69.5587 0.000121301 70.2385 0.000118721 70.9183 0.000916561C71.167 0.00103114 71.4157 0.000774346 71.6644 0.000107026C74.4424 -0.00686076 76.5114 0.322124 78.6398 2.24124C80.124 3.76388 80.5466 5.85222 81.0271 7.8353C81.1457 8.32469 81.2664 8.8136 81.3869 9.30257C81.4122 9.40553 81.4375 9.50849 81.4635 9.61457C81.7989 10.9761 82.1482 12.3341 82.4969 13.6924C82.8797 15.1841 83.2518 16.6779 83.6115 18.1752C83.6345 18.2709 83.6575 18.3666 83.6812 18.4651C83.8079 18.9917 83.9342 19.5183 84.0603 20.0449C84.2007 20.0573 84.2007 20.0573 84.3438 20.0698C85.3464 20.1847 86.0859 20.3872 86.7359 21.1766C87.1407 21.7525 87.3283 22.1712 87.3267 22.8777C87.3267 23.0076 87.3267 23.1375 87.3267 23.2713C87.3261 23.4116 87.3255 23.5518 87.325 23.6963C87.3247 23.9117 87.3247 23.9117 87.3245 24.1314C87.324 24.5127 87.3229 24.894 87.3217 25.2753C87.3205 25.6646 87.32 26.0539 87.3195 26.4431C87.3183 27.2066 87.3161 27.9702 87.314 28.7337C86.2403 28.7337 85.1665 28.7337 84.0603 28.7337C84.0124 29.1479 83.9645 29.5622 83.9152 29.989C83.7436 31.4563 83.5513 32.9203 83.3521 34.3841C83.3175 34.6396 83.2829 34.8951 83.2484 35.1507C83.0901 36.3193 82.9301 37.4877 82.7652 38.6554C82.7107 39.0418 82.6562 39.4282 82.6017 39.8146C82.5883 39.9099 82.5749 40.0051 82.561 40.1033C82.2915 42.0203 82.0524 43.9406 81.8147 45.8616C81.6123 47.4954 81.4033 49.1274 81.1665 50.7568C80.939 52.3227 80.7318 53.891 80.5261 55.4598C80.3074 57.1268 80.0858 58.7931 79.8459 60.4572C79.633 61.936 79.4349 63.4163 79.2429 64.8978C79.2288 65.0065 79.2147 65.1151 79.2001 65.2271C79.0709 66.2241 78.9424 67.2212 78.8146 68.2184C78.731 68.8713 78.647 69.5242 78.5627 70.1771C78.5422 70.3356 78.5422 70.3356 78.5213 70.4973C78.225 72.7841 77.8938 75.0658 77.5529 77.3467C77.8861 77.3467 78.2193 77.3467 78.5627 77.3467C78.5627 75.8586 78.5627 74.3705 78.5627 72.8373C80.3769 72.8373 82.1911 72.8373 84.0603 72.8373C84.0973 73.4906 84.1343 74.1439 84.1725 74.817C84.4833 75.2696 84.4833 75.2696 84.7436 75.4877C85.4572 76.1844 85.7644 77.2834 85.9676 78.2265C85.988 78.3205 86.0084 78.4145 86.0294 78.5114C86.3161 80.6449 86.1863 83.1349 84.8457 84.9356C84.6605 85.117 84.4754 85.2985 84.2847 85.4855C84.2477 86.2114 84.2106 86.9373 84.1725 87.6852C82.3212 87.6852 80.47 87.6852 78.5627 87.6852C78.5627 85.8704 78.5627 84.0557 78.5627 82.186C77.9703 82.186 77.3779 82.186 76.7675 82.186C76.6935 82.3674 76.6194 82.5489 76.5431 82.7359C76.3691 82.9262 76.3691 82.9262 76.1715 83.0865C76.0749 83.1671 76.0749 83.1671 75.9764 83.2493C75.3572 83.6641 74.7762 83.6477 74.0507 83.6459C73.8759 83.6468 73.8759 83.6468 73.6976 83.6477C73.3066 83.6493 72.9156 83.6494 72.5246 83.6495C72.2444 83.6503 71.9643 83.6512 71.6842 83.6522C70.9226 83.6546 70.1611 83.6556 69.3996 83.6562C68.9238 83.6565 68.448 83.6572 67.9723 83.658C66.6542 83.6602 65.336 83.662 64.0179 83.6623C63.8914 83.6623 63.8914 83.6624 63.7624 83.6624C63.5915 83.6624 63.4205 83.6625 63.2496 83.6625C63.1648 83.6625 63.0799 83.6625 62.9925 83.6626C62.9076 83.6626 62.8226 83.6626 62.7351 83.6626C61.3592 83.663 59.9833 83.666 58.6074 83.6701C57.1938 83.6743 55.7801 83.6764 54.3664 83.6764C53.5732 83.6765 52.7799 83.6774 51.9866 83.6806C51.2402 83.6836 50.4938 83.6837 49.7474 83.682C49.4738 83.6818 49.2002 83.6825 48.9265 83.6843C48.5523 83.6865 48.1782 83.6854 47.8039 83.6834C47.6963 83.6848 47.5886 83.6863 47.4777 83.6878C46.7071 83.6784 46.1078 83.4887 45.4647 83.0658C45.2126 82.806 45.0159 82.5585 45.0159 82.186C44.4605 82.186 43.9051 82.186 43.3329 82.186C43.3329 84.0007 43.3329 85.8154 43.3329 87.6852C41.4817 87.6852 39.6304 87.6852 37.7231 87.6852C37.7231 86.9593 37.7231 86.2334 37.7231 85.4855C37.575 85.4129 37.4269 85.3403 37.2743 85.2655C35.7084 83.4729 35.6835 80.8928 35.8158 78.6665C35.9615 77.4882 36.3299 76.2389 37.2463 75.4288C37.8118 74.7455 37.8118 74.7455 37.7231 72.8373C39.5743 72.8373 41.4256 72.8373 43.3329 72.8373C43.3329 74.2891 43.3329 75.7409 43.3329 77.2367C43.5921 77.2367 43.8513 77.2367 44.1183 77.2367C43.9788 75.7443 43.776 74.2611 43.5687 72.7767C43.3694 71.3495 43.1781 69.9214 42.9893 68.4929C42.8059 67.1058 42.6198 65.7193 42.4213 64.3342C42.2662 63.2495 42.126 62.1634 41.9936 61.0759C41.8336 59.7618 41.6654 58.4491 41.4887 57.1371C41.4768 57.0486 41.4649 56.9601 41.4526 56.869C41.3293 55.954 41.2044 55.0393 41.0763 54.125C40.8502 52.5093 40.6314 50.893 40.4237 49.2749C40.4091 49.1614 40.4091 49.1614 40.3942 49.0455C40.3431 48.6472 40.292 48.249 40.241 47.8507C39.8389 44.7164 39.4224 41.5843 38.9923 38.4535C38.9792 38.3576 38.966 38.2617 38.9524 38.1629C38.8011 37.0613 38.6494 35.9598 38.4976 34.8583C38.3397 33.7128 38.1823 32.5673 38.0258 31.4216C37.984 31.1155 37.9418 30.8094 37.8996 30.5032C37.8754 30.326 37.8512 30.1487 37.827 29.9714C37.8108 29.8546 37.8108 29.8546 37.7942 29.7354C37.7534 29.4348 37.7231 29.1474 37.7231 28.8437C36.3532 28.8437 34.9833 28.8437 33.5718 28.8437C33.5641 27.9866 33.5574 27.1297 33.5533 26.2726C33.5516 25.9814 33.5494 25.6902 33.5464 25.399C33.5423 24.9791 33.5404 24.5592 33.539 24.1393C33.5372 24.0102 33.5355 23.8812 33.5337 23.7482C33.5335 22.7698 33.6127 21.7962 34.3221 21.0485C34.4269 20.9333 34.4269 20.9333 34.5338 20.8157C35.243 20.2403 35.8614 20.09 36.7694 20.1274C36.9395 20.1325 37.1097 20.1374 37.2798 20.1421C37.4261 20.1463 37.5724 20.1506 37.7231 20.1549C37.7632 19.974 37.7632 19.974 37.804 19.7895C38.0862 18.5246 38.398 17.269 38.7241 16.0144C38.9952 14.9694 39.2527 13.9221 39.4981 12.871C39.8309 11.4473 40.1763 10.0268 40.5335 8.6088C40.6249 8.24576 40.7157 7.88259 40.8049 7.51903C40.9107 7.08858 41.019 6.6588 41.1276 6.22902C41.1744 6.03618 41.1744 6.03618 41.2222 5.83944C41.5521 4.5522 42.1002 3.44567 42.9963 2.44746C43.0687 2.36495 43.141 2.28243 43.2155 2.19742C44.6739 0.645953 46.6781 0.00945553 48.7857 0.0131024Z" fill="#26881B"/>
<path d="M38.0597 30.2736C38.201 30.2947 38.3424 30.3159 38.488 30.3378C39.8486 30.5375 41.2074 30.6902 42.5781 30.8043C42.8884 30.8301 43.1986 30.8569 43.5089 30.8838C46.1931 31.1145 48.877 31.2836 51.5691 31.3958C56.0402 31.5855 60.4741 31.8585 64.8746 32.6932C65.0025 32.7172 65.1304 32.7412 65.2622 32.7659C66.7391 33.0476 68.1648 33.423 69.5869 33.903C69.6881 33.9364 69.7892 33.9697 69.8935 34.0041C72.593 34.8972 75.1799 36.1615 76.5996 38.72C78.0046 41.6686 77.6819 45.7057 77.6879 48.8995C77.6882 49.0175 77.6885 49.1354 77.6888 49.2569C77.6905 49.8829 77.6915 50.5089 77.692 51.1349C77.6925 51.6401 77.694 52.1453 77.6966 52.6504C77.7192 57.1839 77.5004 61.6672 76.9429 66.1686C76.9326 66.2517 76.9223 66.3347 76.9117 66.4203C76.9012 66.5054 76.8906 66.5906 76.8797 66.6783C76.8687 66.7674 76.8577 66.8566 76.8463 66.9484C75.8761 74.7768 75.8761 74.7768 73.8504 77.1268C73.7932 77.1985 73.7361 77.2703 73.6773 77.3442C73.1491 77.9813 72.5213 78.4287 71.8308 78.8865C71.761 78.9362 71.6911 78.9858 71.6192 79.0369C68.129 81.3896 63.0582 81.3187 58.9861 81.3285C58.8966 81.3288 58.8071 81.3292 58.7149 81.3295C58.2404 81.3311 57.766 81.3321 57.2916 81.3326C56.9078 81.3331 56.5241 81.3346 56.1404 81.3371C48.6363 81.3852 48.6363 81.3852 45.5768 79.8764C45.465 79.8264 45.3532 79.7763 45.2381 79.7247C44.8433 79.5127 44.5316 79.3385 44.3866 78.9002C44.2765 78.3854 44.2446 77.8716 44.2305 77.3468C43.9343 77.3468 43.6381 77.3468 43.3329 77.3468C43.3329 77.3105 43.3329 77.2742 43.3329 77.2368C43.5921 77.2368 43.8513 77.2368 44.1183 77.2368C43.9787 75.7444 43.776 74.2612 43.5686 72.7768C43.3694 71.3496 43.1781 69.9216 42.9893 68.493C42.8059 67.1059 42.6198 65.7194 42.4213 64.3343C42.2662 63.2496 42.1259 62.1636 41.9936 61.076C41.8336 59.7619 41.6654 58.4492 41.4887 57.1372C41.4768 57.0487 41.4649 56.9602 41.4526 56.8691C41.3293 55.9541 41.2044 55.0394 41.0763 54.1251C40.8502 52.5094 40.6314 50.8931 40.4237 49.275C40.414 49.1993 40.4042 49.1235 40.3942 49.0455C40.3431 48.6471 40.292 48.2488 40.2409 47.8504C40.2197 47.6854 40.1985 47.5205 40.1774 47.3555C40.1669 47.2737 40.1564 47.1919 40.1456 47.1076C39.7112 43.7223 39.252 40.3404 38.7855 36.9592C38.6895 36.2632 38.5939 35.567 38.4988 34.8709C38.4416 34.4525 38.384 34.0342 38.3257 33.6159C38.2695 33.2129 38.2141 32.8098 38.1593 32.4065C38.1293 32.1872 38.0984 31.968 38.0675 31.7488C38.0499 31.6183 38.0323 31.4878 38.0142 31.3534C37.9907 31.183 37.9907 31.183 37.9667 31.0092C37.9486 30.7307 37.9715 30.5367 38.0597 30.2736Z" fill="#26881B"/>
<path d="M39.0524 28.7203C39.1689 28.7201 39.1689 28.7201 39.2876 28.7199C39.549 28.7196 39.8103 28.7201 40.0716 28.7206C40.2604 28.7206 40.4491 28.7205 40.6379 28.7203C41.1575 28.7201 41.6771 28.7205 42.1967 28.7211C42.7567 28.7216 43.3167 28.7214 43.8767 28.7213C44.8472 28.7213 45.8178 28.7216 46.7883 28.7222C48.1916 28.7231 49.5948 28.7234 50.9981 28.7235C53.2746 28.7238 55.5512 28.7245 57.8277 28.7256C60.0395 28.7266 62.2512 28.7273 64.463 28.7278C64.6674 28.7279 64.6674 28.7279 64.8759 28.7279C65.5596 28.728 66.2433 28.7282 66.9269 28.7283C72.6006 28.7295 78.2744 28.7314 83.9481 28.7339C83.949 28.8909 83.9497 29.048 83.9502 29.2051C83.9508 29.3363 83.9508 29.3363 83.9514 29.4702C83.947 29.8062 83.9102 30.1329 83.8661 30.466C83.848 30.6047 83.8299 30.7433 83.8113 30.8861C83.7912 31.0355 83.771 31.185 83.7509 31.3344C83.73 31.4923 83.7092 31.6502 83.6885 31.8081C83.633 32.2291 83.5767 32.6501 83.5203 33.071C83.4733 33.4224 83.4267 33.7739 83.3802 34.1254C83.1116 36.1547 82.8355 38.1829 82.5483 40.2098C82.2821 42.0914 82.048 43.9765 81.8146 45.8623C81.6122 47.4959 81.4033 49.1278 81.1665 50.757C80.939 52.3229 80.7318 53.8912 80.5261 55.46C80.3074 57.127 80.0858 58.7932 79.8459 60.4574C79.633 61.9362 79.4349 63.4165 79.2428 64.898C79.2217 65.061 79.2217 65.061 79.2001 65.2272C79.0709 66.2243 78.9424 67.2214 78.8146 68.2186C78.7309 68.8715 78.647 69.5244 78.5627 70.1773C78.5422 70.3358 78.5422 70.3358 78.5213 70.4975C78.225 72.7843 77.8938 75.066 77.5529 77.3468C77.8861 77.3468 78.2193 77.3468 78.5627 77.3468C78.5627 75.8588 78.5627 74.3707 78.5627 72.8375C80.3769 72.8375 82.1911 72.8375 84.0603 72.8375C84.0973 73.4908 84.1343 74.1441 84.1725 74.8172C84.4833 75.2698 84.4833 75.2698 84.7435 75.4879C85.4572 76.1846 85.7644 77.2836 85.9676 78.2267C85.988 78.3207 86.0084 78.4147 86.0294 78.5116C86.3161 80.6451 86.1863 83.1351 84.8457 84.9357C84.6605 85.1172 84.4754 85.2987 84.2847 85.4857C84.2477 86.2116 84.2106 86.9375 84.1725 87.6853C82.3212 87.6853 80.47 87.6853 78.5627 87.6853C78.5627 85.8706 78.5627 84.0559 78.5627 82.1861C77.9703 82.1861 77.3779 82.1861 76.7675 82.1861C76.6935 82.3676 76.6194 82.5491 76.5431 82.7361C76.3691 82.9264 76.3691 82.9264 76.1715 83.0866C76.1071 83.1404 76.0427 83.1941 75.9764 83.2495C75.3572 83.6643 74.7762 83.6479 74.0507 83.6461C73.9342 83.6467 73.8177 83.6472 73.6976 83.6478C73.3066 83.6495 72.9156 83.6496 72.5246 83.6496C72.2444 83.6505 71.9643 83.6514 71.6842 83.6524C70.9226 83.6548 70.1611 83.6558 69.3996 83.6564C68.9238 83.6567 68.448 83.6574 67.9723 83.6582C66.6541 83.6604 65.336 83.6622 64.0179 83.6625C63.8914 83.6625 63.8914 83.6625 63.7624 83.6626C63.5915 83.6626 63.4205 83.6626 63.2496 83.6627C63.1648 83.6627 63.0799 83.6627 62.9925 83.6627C62.9075 83.6628 62.8226 83.6628 62.7351 83.6628C61.3592 83.6632 59.9833 83.6662 58.6074 83.6703C57.1938 83.6745 55.7801 83.6766 54.3664 83.6766C53.5731 83.6767 52.7799 83.6776 51.9866 83.6808C51.2402 83.6838 50.4938 83.6839 49.7474 83.6822C49.4738 83.682 49.2002 83.6827 48.9265 83.6845C48.5523 83.6867 48.1782 83.6855 47.8039 83.6836C47.6963 83.685 47.5886 83.6865 47.4776 83.688C46.7071 83.6786 46.1078 83.4889 45.4647 83.066C45.2126 82.8062 45.0159 82.5586 45.0159 82.1861C44.4605 82.1861 43.9051 82.1861 43.3329 82.1861C43.3329 84.0009 43.3329 85.8156 43.3329 87.6853C41.4817 87.6853 39.6304 87.6853 37.7231 87.6853C37.7231 86.9595 37.7231 86.2336 37.7231 85.4857C37.575 85.4131 37.4269 85.3405 37.2743 85.2657C35.7084 83.4731 35.6835 80.893 35.8158 78.6667C35.9615 77.4883 36.3299 76.2391 37.2463 75.429C37.8118 74.7457 37.8118 74.7457 37.7231 72.8375C39.5743 72.8375 41.4256 72.8375 43.3329 72.8375C43.3329 74.3256 43.3329 75.8137 43.3329 77.3468C43.6291 77.3468 43.9253 77.3468 44.2305 77.3468C44.2379 77.4637 44.2452 77.5805 44.2528 77.7009C44.3469 78.6375 44.3469 78.6375 44.8629 79.4C45.2413 79.6314 45.6157 79.8145 46.0256 79.9865C46.1461 80.0401 46.2666 80.0936 46.3907 80.1489C49.4358 81.4015 53.0294 81.2544 56.2761 81.2388C56.562 81.2375 56.8479 81.2368 57.1339 81.2363C59.2769 81.2316 61.4191 81.2229 63.5564 81.0519C63.6379 81.0455 63.7193 81.039 63.8033 81.0324C65.2899 80.9087 66.804 80.6932 68.2406 80.2889C68.323 80.2658 68.4054 80.2428 68.4902 80.219C70.0207 79.7749 71.3546 79.193 72.6162 78.2267C72.7477 78.1261 72.7477 78.1261 72.8818 78.0235C76.1069 75.4049 76.3309 70.4929 76.7745 66.7196C76.7888 66.5995 76.8031 66.4794 76.8179 66.3557C77.0741 64.199 77.2793 62.041 77.4246 59.8745C77.4393 59.6603 77.4548 59.4463 77.4705 59.2322C77.5616 57.8945 77.5713 56.5605 77.5717 55.2203C77.5721 54.9757 77.5725 54.7312 77.5729 54.4866C77.5735 53.9754 77.5737 53.4643 77.5737 52.9531C77.5737 52.4374 77.5744 51.9217 77.576 51.406C78.0353 43.621 78.0353 43.621 75.035 36.8074C69.4988 31.7034 59.1176 31.846 52.0231 31.5353C47.4477 31.3347 42.8354 31.1006 38.3038 30.4201C38.0824 30.3809 38.0824 30.3809 37.9475 30.3836C37.8122 29.8698 37.8248 29.3701 37.8353 28.8438C38.2436 28.7185 38.6263 28.7202 39.0524 28.7203Z" fill="#237520"/>
<path d="M52.1872 2.08783C52.2982 2.08709 52.2982 2.08709 52.4115 2.08632C52.6574 2.08494 52.9032 2.08511 53.1491 2.08529C53.3263 2.08463 53.5035 2.08388 53.6806 2.08305C54.1605 2.08112 54.6404 2.08059 55.1203 2.08045C55.4205 2.0803 55.7208 2.07983 56.0211 2.07924C57.0701 2.07721 58.1191 2.07631 59.168 2.07648C60.1436 2.07662 61.1191 2.0743 62.0947 2.07082C62.934 2.06794 63.7734 2.06677 64.6128 2.06691C65.1133 2.06696 65.6138 2.06635 66.1143 2.06401C66.5855 2.06187 67.0566 2.06187 67.5277 2.06346C67.6998 2.06369 67.8719 2.06318 68.044 2.06184C69.2889 2.0528 70.4676 2.14359 71.4241 3.01087C71.5106 3.08601 71.5971 3.16115 71.6862 3.23857C72.4377 4.14115 72.6654 5.19549 72.8905 6.31211C72.924 6.47209 72.9576 6.63204 72.9914 6.79197C73.0793 7.21058 73.1654 7.62954 73.251 8.04861C73.3377 8.47088 73.426 8.89281 73.5142 9.31476C73.6138 9.79176 73.7133 10.2688 73.8115 10.7461C73.9822 11.5754 74.1585 12.4031 74.3447 13.2293C74.5757 14.3611 74.5544 15.4476 73.9516 16.4599C73.3833 17.2194 72.7601 17.6937 71.8308 17.955C71.5081 17.998 71.1911 18.0006 70.8658 17.9983C70.7728 17.999 70.6798 17.9997 70.584 18.0004C70.2746 18.0022 69.9653 18.0017 69.656 18.0011C69.4333 18.002 69.2106 18.0029 68.9879 18.004C68.3844 18.0064 67.7811 18.0067 67.1776 18.0065C66.6733 18.0065 66.1689 18.0075 65.6645 18.0084C64.4743 18.0105 63.2841 18.0108 62.0938 18.0101C60.8673 18.0093 59.6409 18.0118 58.4145 18.0159C57.3601 18.0193 56.3058 18.0205 55.2514 18.0201C54.6223 18.0199 53.9932 18.0205 53.3641 18.0232C52.7723 18.0256 52.1806 18.0254 51.5888 18.0232C51.3721 18.0228 51.1555 18.0234 50.9389 18.025C49.6321 18.0338 48.6412 18.0088 47.6104 17.1301C47.5317 17.0393 47.453 16.9486 47.372 16.8551C47.2933 16.7667 47.2146 16.6782 47.1335 16.587C46.5061 15.7465 46.3936 14.9003 46.4744 13.8855C46.5893 13.1782 46.7623 12.4804 46.9232 11.7821C47.0166 11.3697 47.1091 10.957 47.2015 10.5444C47.2251 10.4393 47.2487 10.3342 47.2731 10.2259C47.4369 9.49201 47.5896 8.75654 47.7353 8.01901C47.7551 7.91916 47.7749 7.81931 47.7953 7.71643C47.8717 7.3305 47.948 6.94455 48.0218 6.55814C48.3871 4.64832 48.3871 4.64832 48.8305 3.87699C48.8806 3.78923 48.9306 3.70147 48.9822 3.61105C49.7482 2.56756 50.8908 2.09146 52.1872 2.08783Z" fill="#153F0D"/>
<path d="M66.154 7.03792C66.486 7.03909 66.818 7.03792 67.15 7.03652C68.8342 7.03505 70.4416 7.11048 72.0551 7.63026C72.1541 7.66074 72.253 7.69123 72.3549 7.72263C72.5921 7.79591 72.8287 7.87049 73.0649 7.94647C73.1019 7.87388 73.139 7.80129 73.1771 7.7265C73.1909 7.79304 73.2047 7.85958 73.2189 7.92813C73.3626 8.6204 73.5064 9.31264 73.6503 10.0049C73.704 10.2632 73.7576 10.5216 73.8113 10.78C73.8883 11.1513 73.9655 11.5226 74.0427 11.8939C74.0666 12.0095 74.0906 12.1251 74.1153 12.2442C74.149 12.406 74.149 12.406 74.1833 12.5711C74.203 12.6658 74.2227 12.7606 74.243 12.8582C74.2785 13.0211 74.3172 13.1833 74.3602 13.3444C74.6137 14.3939 74.504 15.5322 73.9515 16.4599C73.3958 17.2027 72.7576 17.7348 71.8307 17.955C71.2683 18.0018 70.7068 17.9968 70.1428 17.9925C69.9724 17.9924 69.802 17.9924 69.6317 17.9926C69.1714 17.9927 68.7111 17.9908 68.2508 17.9885C67.7689 17.9864 67.287 17.9862 66.8052 17.9858C65.8937 17.9848 64.9822 17.9821 64.0707 17.9788C63.0325 17.9751 61.9944 17.9733 60.9563 17.9716C58.8217 17.9682 56.6871 17.9624 54.5525 17.955C54.4617 17.7805 54.3714 17.6057 54.2812 17.4309C54.2308 17.3336 54.1805 17.2363 54.1286 17.1361C53.5657 15.9828 53.622 14.5439 53.9915 13.3357C54.445 12.0981 55.1883 11.078 56.1232 10.1461C56.2005 10.069 56.2777 9.9919 56.3573 9.91243C57.9965 8.38321 60.2217 7.66344 62.4062 7.28656C62.5132 7.26682 62.6201 7.24708 62.7303 7.22674C63.8711 7.0388 64.9998 7.03306 66.154 7.03792Z" fill="#1A5812"/>
<path d="M59.9942 40.4816C61.0015 40.4921 62.3414 40.6674 63.1506 41.3069C63.304 41.4921 63.304 41.4921 63.4434 41.7413C63.716 42.157 64.0674 42.4549 64.44 42.7844C64.5929 42.9223 64.7457 43.0604 64.8984 43.1986C64.972 43.2648 65.0456 43.3311 65.1214 43.3994C66.0425 44.2304 66.8272 45.1243 67.5675 46.1114C67.6705 46.2488 67.6705 46.2488 67.7756 46.389C68.8503 47.9759 69.0763 50.0911 69.026 51.9406C69.0895 51.9552 69.153 51.9698 69.2184 51.9848C69.3419 52.014 69.3419 52.014 69.4678 52.0437C69.5498 52.0628 69.6318 52.082 69.7163 52.1017C69.9236 52.1605 69.9236 52.1605 70.0358 52.2705C70.0564 53.1987 69.3932 53.8427 68.7973 54.5042C68.1154 55.1663 67.3507 55.4219 66.4455 55.68C66.2898 55.7258 66.2898 55.7258 66.131 55.7725C62.437 56.8536 59.4381 57.2346 55.899 55.4601C55.6251 55.2719 55.6251 55.2719 55.4502 55.1301C55.1953 55.2462 54.9931 55.357 54.7771 55.5357C54.5527 55.68 54.5527 55.68 54.3313 55.6547C53.8938 55.4919 53.7277 55.0845 53.5429 54.6902C53.4261 54.3841 53.3245 54.0748 53.2273 53.7622C53.2028 53.6848 53.1782 53.6075 53.1529 53.5278C52.8644 52.5402 52.9803 51.659 53.2063 50.6689C53.2309 50.5602 53.2555 50.4516 53.2809 50.3396C53.8211 48.054 54.5036 45.7105 56.2356 44.0217C56.2975 43.9558 56.3594 43.8899 56.4232 43.8219C56.8318 43.3946 57.2869 43.0334 57.7573 42.6744C57.8181 42.6277 57.879 42.581 57.9417 42.5328C58.8922 41.822 58.8922 41.822 59.3771 41.822C59.3494 41.737 59.3494 41.737 59.321 41.6502C59.2476 41.2994 59.2512 40.9692 59.2649 40.6122C59.4611 40.4199 59.728 40.4832 59.9942 40.4816Z" fill="#FBFDFB"/>
<path d="M43.6836 33.0166C44.5712 33.5071 45.3683 34.2555 45.6891 35.2231C45.8088 35.7821 45.8144 36.3164 45.8087 36.8842C45.8081 36.983 45.8076 37.0819 45.8071 37.1838C45.8059 37.3986 45.8045 37.6133 45.8028 37.8281C45.8003 38.1732 45.7988 38.5182 45.7975 38.8633C45.7937 39.8446 45.7892 40.8259 45.782 41.8072C45.7427 47.3497 46.1729 52.7904 46.9947 58.2718C47.2597 60.044 47.4916 61.8199 47.718 63.5973C47.7316 63.7036 47.7452 63.8099 47.7592 63.9195C47.7846 64.1184 47.8098 64.3173 47.8348 64.5163C47.89 64.9482 47.9543 65.3724 48.0452 65.7987C48.1146 66.7361 48.1102 67.6473 47.4632 68.3902C47.0428 68.6008 46.7128 68.6368 46.25 68.5483C45.6993 68.2539 45.4413 67.795 45.2403 67.2285C44.9388 66.0976 44.8373 64.9324 44.7155 63.7728C44.3475 60.2798 43.891 56.7972 43.4013 53.3188C43.3683 53.0843 43.3355 52.8497 43.3027 52.6151C43.0073 50.5007 43.0073 50.5007 42.6261 48.4C42.5302 47.8887 42.4574 47.3758 42.3854 46.8608C42.2342 45.7867 42.0418 44.7231 41.834 43.6582C41.7339 43.1452 41.6357 42.6319 41.5374 42.1186C41.5179 42.0175 41.4985 41.9163 41.4785 41.8121C41.2624 40.682 41.0633 39.5494 40.8681 38.4157C40.7975 38.0061 40.7236 37.5975 40.6437 37.1895C40.3769 35.8233 40.1516 34.5972 40.9558 33.374C41.7126 32.6321 42.7349 32.5979 43.6836 33.0166Z" fill="#409537"/>
<path d="M78.5626 72.8374C80.3768 72.8374 82.191 72.8374 84.0602 72.8374C84.1158 73.8174 84.1158 73.8174 84.1724 74.8171C84.4833 75.2697 84.4833 75.2697 84.7435 75.4878C85.4572 76.1845 85.7643 77.2835 85.9676 78.2266C85.988 78.3206 86.0083 78.4146 86.0294 78.5115C86.3161 80.645 86.1862 83.135 84.8456 84.9357C84.6605 85.1171 84.4753 85.2986 84.2846 85.4856C84.2476 86.2115 84.2106 86.9374 84.1724 87.6853C82.3212 87.6853 80.4699 87.6853 78.5626 87.6853C78.5626 85.8705 78.5626 84.0558 78.5626 82.1861C78.0072 82.1861 77.4518 82.1861 76.8796 82.1861C76.9908 81.2327 77.1029 80.2795 77.2162 79.3265C77.2341 79.1757 77.2341 79.1757 77.2524 79.0219C77.2819 78.7751 77.312 78.5283 77.3424 78.2816C77.3589 78.1466 77.3754 78.0117 77.3924 77.8726C77.4406 77.5667 77.4406 77.5667 77.5528 77.3468C77.886 77.3468 78.2193 77.3468 78.5626 77.3468C78.5626 75.8587 78.5626 74.3706 78.5626 72.8374Z" fill="#303538"/>
<path d="M37.7231 72.8374C39.5743 72.8374 41.4256 72.8374 43.3329 72.8374C43.3329 74.3255 43.3329 75.8136 43.3329 77.3468C43.6291 77.3468 43.9253 77.3468 44.2305 77.3468C44.5061 78.9545 44.7141 80.5666 44.9037 82.1861C44.3853 82.1861 43.867 82.1861 43.3329 82.1861C43.3329 84.0008 43.3329 85.8155 43.3329 87.6853C41.4817 87.6853 39.6304 87.6853 37.7231 87.6853C37.7231 86.9594 37.7231 86.2335 37.7231 85.4856C37.575 85.413 37.4269 85.3404 37.2743 85.2656C35.7084 83.473 35.6835 80.8929 35.8158 78.6666C35.9615 77.4882 36.3299 76.239 37.2463 75.4289C37.8118 74.7456 37.8118 74.7456 37.7231 72.8374Z" fill="#313639"/>
<path d="M63.1918 42.042C63.2658 42.042 63.3399 42.042 63.4162 42.042C64.8815 44.6337 66.2414 47.356 66.2351 50.3802C66.2355 50.5922 66.2355 50.5922 66.236 50.8085C66.2211 51.1707 66.2211 51.1707 66.1089 51.5006C65.7386 51.5006 65.3684 51.5006 64.9869 51.5006C65.2064 52.7915 65.8247 53.8051 66.6699 54.8002C66.7829 54.9462 66.8953 55.0927 67.0065 55.2401C63.6513 55.3186 60.2816 54.9822 57.4698 53.0404C57.3587 52.9678 57.2476 52.8952 57.1332 52.8204C57.2692 52.4108 57.4146 52.009 57.582 51.6106C57.1251 51.5266 56.6932 51.4865 56.2286 51.486C56.039 51.4858 56.039 51.4858 55.8455 51.4856C55.6499 51.4862 55.6499 51.4862 55.4502 51.4869C55.3198 51.4865 55.1893 51.486 55.0549 51.4856C54.9285 51.4857 54.8021 51.4859 54.6719 51.486C54.5003 51.4862 54.5003 51.4862 54.3252 51.4864C53.9817 51.5011 53.6561 51.5485 53.3185 51.6106C53.9636 50.1143 55.0677 48.7794 56.1234 47.5412C56.1808 47.4689 56.2382 47.3966 56.2974 47.3221C57.29 46.1196 58.9568 44.8396 60.4991 44.4616C60.6842 44.7157 60.8693 44.9698 61.06 45.2315C61.6259 45.0838 61.8442 44.7589 62.1329 44.2898C62.1767 44.2207 62.2206 44.1516 62.2657 44.0804C62.6692 43.4332 63.0167 42.7847 63.1918 42.042Z" fill="#27881C"/>
<path d="M78.5626 72.8374C79.0069 72.8374 79.4512 72.8374 79.9089 72.8374C79.9008 72.942 79.8927 73.0467 79.8844 73.1545C79.8058 74.2719 79.7813 75.3881 79.7757 76.5081C79.7735 76.7157 79.7735 76.7157 79.7713 76.9275C79.77 78.1253 79.9038 79.2493 80.3227 80.3782C80.3521 80.4577 80.3815 80.5373 80.4117 80.6192C80.9795 82.0935 81.9136 83.3247 83.3941 83.9939C84.0229 84.3087 84.0229 84.3087 84.1777 84.6285C84.2075 84.9082 84.2075 84.9082 84.1724 85.5956C84.1724 86.2852 84.1724 86.9748 84.1724 87.6853C82.3212 87.6853 80.4699 87.6853 78.5626 87.6853C78.5626 85.8705 78.5626 84.0558 78.5626 82.1861C78.0072 82.1861 77.4518 82.1861 76.8796 82.1861C76.9908 81.2327 77.1029 80.2795 77.2162 79.3265C77.2341 79.1757 77.2341 79.1757 77.2524 79.0219C77.2819 78.7751 77.312 78.5283 77.3424 78.2816C77.3589 78.1466 77.3754 78.0117 77.3924 77.8726C77.4406 77.5667 77.4406 77.5667 77.5528 77.3468C77.886 77.3468 78.2193 77.3468 78.5626 77.3468C78.5626 75.8587 78.5626 74.3706 78.5626 72.8374Z" fill="#141618"/>
<path d="M41.8744 72.8374C42.3558 72.8374 42.8371 72.8374 43.333 72.8374C43.333 74.3255 43.333 75.8136 43.333 77.3468C43.6292 77.3468 43.9254 77.3468 44.2306 77.3468C44.5062 78.9545 44.7142 80.5666 44.9038 82.1861C44.3854 82.1861 43.8671 82.1861 43.333 82.1861C43.333 84.0008 43.333 85.8155 43.333 87.6853C41.4818 87.6853 39.6305 87.6853 37.7232 87.6853C37.7232 86.9957 37.7232 86.3061 37.7232 85.5956C37.7116 85.3687 37.7 85.1419 37.6881 84.9082C37.7179 84.6285 37.7179 84.6285 37.8354 84.3857C38.1753 84.1478 38.5233 83.984 38.9021 83.8118C40.4274 83.0491 41.2541 81.3472 41.7662 79.8175C42.4053 77.5677 42.1164 75.1271 41.8744 72.8374Z" fill="#151618"/>
<path d="M37.3769 21.2316C37.5239 21.2319 37.5239 21.2319 37.6739 21.2321C38.0004 21.233 38.3269 21.2355 38.6534 21.238C38.8874 21.239 39.1214 21.2399 39.3554 21.2408C39.9884 21.2434 40.6214 21.2475 41.2544 21.252C41.65 21.2548 42.0456 21.2572 42.4412 21.2595C44.0791 21.269 45.717 21.2814 47.3548 21.2957C48.0638 21.3019 48.7728 21.3074 49.4818 21.3127C50.0365 21.317 50.5912 21.3217 51.1459 21.3266C51.4077 21.3288 51.6695 21.3309 51.9313 21.3327C52.2938 21.3354 52.6562 21.3387 53.0187 21.3422C53.1765 21.3431 53.1765 21.3431 53.3374 21.3441C53.8338 21.3494 54.3285 21.3651 54.8237 21.4005C54.9558 21.4098 54.9558 21.4098 55.0907 21.4192C55.3878 21.4859 55.5565 21.6128 55.7867 21.8047C55.7223 22.12 55.69 22.2294 55.4501 22.4646C55.1652 22.4937 55.1652 22.4937 54.799 22.4962C54.6613 22.4976 54.5236 22.4991 54.3818 22.5007C54.2295 22.5012 54.0772 22.5018 53.9249 22.5024C53.767 22.5038 53.6091 22.5053 53.4512 22.507C53.1147 22.5104 52.7782 22.5132 52.4417 22.5155C51.5643 22.5219 50.6869 22.5331 49.8096 22.5445C49.7227 22.5456 49.6358 22.5467 49.5463 22.5478C45.7173 22.5975 41.8569 22.7501 38.0646 23.2979C37.1131 23.4276 36.2183 23.5164 35.4068 22.9363C35.1475 22.6946 35.1406 22.554 35.1074 22.1965C35.1425 21.8047 35.1425 21.8047 35.3178 21.6053C36.0048 21.2772 36.6257 21.2234 37.3769 21.2316Z" fill="#409537"/>
<path d="M37.8353 74.8171C37.8353 78.374 37.8353 81.9309 37.8353 85.5956C36.7387 84.9506 36.3746 83.8673 36.034 82.7137C35.4967 80.5979 35.5793 78.0008 36.6572 76.0557C37.4952 74.8171 37.4952 74.8171 37.8353 74.8171Z" fill="#27851D"/>
<path d="M84.0603 74.8171C85.3553 75.875 85.8533 77.2796 86.0798 78.8866C86.246 80.8812 86.1669 83.2819 84.8457 84.9357C84.5865 85.1534 84.3273 85.3712 84.0603 85.5956C84.0603 82.0387 84.0603 78.4818 84.0603 74.8171Z" fill="#27881C"/>
<path d="M56.1233 61.2892C56.1603 61.2892 56.1973 61.2892 56.2355 61.2892C56.2355 61.7973 56.2355 62.3054 56.2355 62.829C56.3095 62.829 56.3836 62.829 56.4599 62.829C56.4599 63.1193 56.4599 63.4097 56.4599 63.7088C56.3488 63.7451 56.2377 63.7814 56.1233 63.8188C56.1233 62.984 56.1233 62.1493 56.1233 61.2892Z" fill="#248619"/>
</svg>
