<svg width="86" height="78" viewBox="0 0 86 78" fill="none" xmlns="http://www.w3.org/2000/svg">
<path d="M23.2641 12.207C25.9554 13.0364 27.7339 14.0433 30.0092 15.6875C30.7556 16.2212 31.502 16.7549 32.2709 17.3047C33.0354 17.8642 33.7998 18.4236 34.5873 19C35.7572 19.8392 35.7572 19.8392 36.9506 20.6953C42.6007 24.7634 42.6007 24.7634 43.8373 26C43.9308 27.6268 43.9548 29.2576 43.9509 30.887C43.9508 31.928 43.9507 32.969 43.9506 34.0415C43.9455 35.1738 43.9403 36.3061 43.935 37.4727C43.9336 38.6254 43.9322 39.7782 43.9307 40.9659C43.9251 44.6648 43.9125 48.3636 43.8998 52.0625C43.8948 54.5632 43.8903 57.0638 43.8862 59.5645C43.876 65.7097 43.8564 71.8548 43.8373 78C29.9773 78 16.1173 78 1.83735 78C1.46778 70.8037 1.15055 63.6407 0.958443 56.4424C0.878381 54.0012 0.769478 51.5607 0.630318 49.1221C-0.467847 29.3713 -0.467847 29.3713 3.41108 23.6985C7.12026 19.9434 11.3319 17.2448 16.0439 14.9041C21.6647 12.0706 21.6647 12.0706 23.2641 12.207ZM10.8373 32C10.504 34.5 10.504 34.5 10.8373 37C12.6644 39.2492 12.6644 39.2492 15.3373 39.25C18.0103 39.2492 18.0103 39.2492 19.8373 37C20.1707 34.5 20.1707 34.5 19.8373 32C18.0103 29.7508 18.0103 29.7508 15.3373 29.75C12.6644 29.7508 12.6644 29.7508 10.8373 32ZM25.8373 32C25.504 34.5 25.504 34.5 25.8373 37C27.6644 39.2492 27.6644 39.2492 30.3373 39.25C33.0103 39.2492 33.0103 39.2492 34.8373 37C35.1707 34.5 35.1707 34.5 34.8373 32C33.0103 29.7508 33.0103 29.7508 30.3373 29.75C27.6644 29.7508 27.6644 29.7508 25.8373 32ZM10.8373 47C10.504 49.5 10.504 49.5 10.8373 52C12.6644 54.2492 12.6644 54.2492 15.3373 54.25C18.0103 54.2492 18.0103 54.2492 19.8373 52C20.1707 49.5 20.1707 49.5 19.8373 47C18.0103 44.7508 18.0103 44.7508 15.3373 44.75C12.6644 44.7508 12.6644 44.7508 10.8373 47ZM25.8373 47C25.504 49.5 25.504 49.5 25.8373 52C27.6644 54.2492 27.6644 54.2492 30.3373 54.25C33.0103 54.2492 33.0103 54.2492 34.8373 52C35.1707 49.5 35.1707 49.5 34.8373 47C33.0103 44.7508 33.0103 44.7508 30.3373 44.75C27.6644 44.7508 27.6644 44.7508 25.8373 47ZM10.8373 62C10.504 64.5 10.504 64.5 10.8373 67C12.6644 69.2492 12.6644 69.2492 15.3373 69.25C18.0103 69.2492 18.0103 69.2492 19.8373 67C20.1707 64.5 20.1707 64.5 19.8373 62C18.0103 59.7508 18.0103 59.7508 15.3373 59.75C12.6644 59.7508 12.6644 59.7508 10.8373 62ZM25.8373 62C25.504 64.5 25.504 64.5 25.8373 67C27.6644 69.2492 27.6644 69.2492 30.3373 69.25C33.0103 69.2492 33.0103 69.2492 34.8373 67C35.1707 64.5 35.1707 64.5 34.8373 62C33.0103 59.7508 33.0103 59.7508 30.3373 59.75C27.6644 59.7508 27.6644 59.7508 25.8373 62Z" fill="#858788"/>
<path d="M49.8373 42C61.7173 42 73.5973 42 85.8373 42C85.8373 53.88 85.8373 65.76 85.8373 78C73.9573 78 62.0773 78 49.8373 78C49.8373 66.12 49.8373 54.24 49.8373 42ZM55.8373 50C55.504 52.5 55.504 52.5 55.8373 55C57.6644 57.2492 57.6644 57.2492 60.3373 57.25C63.0103 57.2492 63.0103 57.2492 64.8373 55C65.1707 52.5 65.1707 52.5 64.8373 50C63.0103 47.7508 63.0103 47.7508 60.3373 47.75C57.6644 47.7508 57.6644 47.7508 55.8373 50ZM70.8373 50C70.504 52.5 70.504 52.5 70.8373 55C72.6644 57.2492 72.6644 57.2492 75.3373 57.25C78.0103 57.2492 78.0103 57.2492 79.8373 55C80.1707 52.5 80.1707 52.5 79.8373 50C78.0103 47.7508 78.0103 47.7508 75.3373 47.75C72.6644 47.7508 72.6644 47.7508 70.8373 50ZM55.8373 65C55.504 67.5 55.504 67.5 55.8373 70C57.6644 72.2492 57.6644 72.2492 60.3373 72.25C63.0103 72.2492 63.0103 72.2492 64.8373 70C65.1707 67.5 65.1707 67.5 64.8373 65C63.0103 62.7508 63.0103 62.7508 60.3373 62.75C57.6644 62.7508 57.6644 62.7508 55.8373 65ZM70.8373 65C70.504 67.5 70.504 67.5 70.8373 70C72.6644 72.2492 72.6644 72.2492 75.3373 72.25C78.0103 72.2492 78.0103 72.2492 79.8373 70C80.1707 67.5 80.1707 67.5 79.8373 65C78.0103 62.7508 78.0103 62.7508 75.3373 62.75C72.6644 62.7508 72.6644 62.7508 70.8373 65Z" fill="#858788"/>
<path d="M37.8373 0C49.7173 0 61.5973 0 73.8373 0C73.8373 11.88 73.8373 23.76 73.8373 36C65.9173 36 57.9973 36 49.8373 36C49.5073 32.7 49.1773 29.4 48.8373 26C46.754 23.0833 46.754 23.0833 43.8373 21C41.8573 19.35 39.8773 17.7 37.8373 16C37.8373 10.72 37.8373 5.44 37.8373 0ZM43.8373 8C43.504 10.5 43.504 10.5 43.8373 13C45.6644 15.2492 45.6644 15.2492 48.3373 15.25C51.0103 15.2492 51.0103 15.2492 52.8373 13C53.1707 10.5 53.1707 10.5 52.8373 8C51.0103 5.75081 51.0103 5.75081 48.3373 5.75C45.6644 5.75081 45.6644 5.75081 43.8373 8ZM58.8373 8C58.504 10.5 58.504 10.5 58.8373 13C60.6644 15.2492 60.6644 15.2492 63.3373 15.25C66.0103 15.2492 66.0103 15.2492 67.8373 13C68.1707 10.5 68.1707 10.5 67.8373 8C66.0103 5.75081 66.0103 5.75081 63.3373 5.75C60.6644 5.75081 60.6644 5.75081 58.8373 8ZM58.8373 23C58.504 25.5 58.504 25.5 58.8373 28C60.6644 30.2492 60.6644 30.2492 63.3373 30.25C66.0103 30.2492 66.0103 30.2492 67.8373 28C68.1707 25.5 68.1707 25.5 67.8373 23C66.0103 20.7508 66.0103 20.7508 63.3373 20.75C60.6644 20.7508 60.6644 20.7508 58.8373 23Z" fill="#858788"/>
</svg>
