<svg width="1414" height="1000" viewBox="0 0 1414 1000" fill="none" xmlns="http://www.w3.org/2000/svg">
<path d="M261.459 3.42078C275.902 16.7204 279.967 36.2862 280.723 55.2717C280.321 68.477 273.664 75.0624 264.57 83.9854C265.206 86.077 265.842 88.1686 266.497 90.3236C288.142 161.565 288.142 161.565 296.389 190.557C299.668 202.08 303.061 213.57 306.447 225.063C307.043 227.084 307.638 229.105 308.252 231.188C309.644 235.91 311.036 240.631 312.43 245.352C313.487 245.38 314.545 245.407 315.634 245.436C357.505 246.653 402.254 249.65 433.156 281.304C446.493 297.08 455.162 315.569 461.565 335.008C462.293 337.201 462.293 337.201 463.036 339.437C468.201 355.279 472.515 371.328 476.646 387.46C477.93 392.463 479.246 397.457 480.563 402.451C481.391 405.65 482.217 408.85 483.042 412.051C483.434 413.534 483.827 415.016 484.231 416.544C486.858 426.948 486.858 426.948 484.724 433.297C483.056 432.678 481.388 432.058 479.669 431.421C464.918 426.054 450.306 421.54 434.95 418.109C434.702 419.842 434.702 419.842 434.449 421.61C432.62 432.926 429.897 443.734 426.455 454.654C425.866 456.535 425.866 456.535 425.265 458.455C422.585 466.761 419.377 474.686 415.807 482.656C414.642 481.873 413.477 481.09 412.277 480.283C377.265 457.408 340.535 442.966 299.029 437.094C298.748 439.059 298.467 441.024 298.177 443.048C289.955 498.426 277.253 551.938 256.913 604.156C251.499 594.333 249.449 583.505 246.743 572.713C245.859 569.211 245.859 569.211 244.958 565.639C239.326 542.821 234.973 519.812 230.995 496.656C230.163 491.892 230.163 491.892 228.197 486.453C227.745 487.446 227.294 488.439 226.828 489.463C210.141 525.91 210.141 525.91 197.567 541.507C193.279 537.255 191.283 532.842 188.734 527.445C183.624 516.642 178.894 506.958 170.407 498.318C145.641 472.699 144.824 424.942 145.482 391.383C147.149 360.076 164.024 332.155 186.988 311.109C194.621 304.49 202.534 298.388 210.968 292.813C209.864 282.262 207.925 272.581 204.855 262.435C204.431 261.001 204.008 259.566 203.571 258.088C202.181 253.39 200.775 248.696 199.369 244.002C198.393 240.707 197.417 237.412 196.443 234.116C193.883 225.463 191.311 216.814 188.734 208.166C184.615 194.341 180.507 180.513 176.415 166.68C174.991 161.877 173.556 157.077 172.12 152.277C167.821 137.816 163.808 123.541 161.194 108.665C158.904 108.822 156.614 108.978 154.254 109.14C145.626 109.125 141.068 106.638 134.392 101.071C122.406 88.2013 118.887 68.8618 117.881 51.7121C118.282 43.0869 120.465 37.6938 126.832 31.7366C137.783 23.5025 154.159 21.4432 167.281 18.1781C169.07 17.7272 170.859 17.2762 172.703 16.8116C178.357 15.3874 184.013 13.9718 189.67 12.557C195.368 11.1272 201.064 9.69552 206.761 8.2617C210.291 7.37375 213.821 6.48836 217.352 5.60582C218.944 5.20626 220.536 4.80669 222.176 4.39502C223.574 4.04544 224.972 3.69585 226.412 3.33567C238.85 0.0316481 249.302 -2.16101 261.459 3.42078Z" fill="#72935C"/>
<path d="M239.391 0.273094C246.627 -0.40423 250.588 0.0350856 257.156 3.26275C271.325 15.0689 275.086 32.4676 277.013 50.0359C277.466 61.2939 276.43 68.0381 268.594 76.8083C266.01 79.371 263.416 81.9241 260.807 84.4618C261.453 86.5699 262.1 88.6779 262.766 90.8499C284.779 162.652 284.779 162.652 293.166 191.873C296.501 203.486 299.951 215.067 303.395 226.65C304 228.687 304.606 230.724 305.23 232.823C306.645 237.582 308.061 242.341 309.479 247.099C310.554 247.127 311.63 247.155 312.737 247.184C355.319 248.41 400.828 251.431 432.254 283.334C445.817 299.234 454.634 317.869 461.146 337.461C461.886 339.671 461.886 339.671 462.642 341.925C467.894 357.892 472.282 374.067 476.482 390.327C477.789 395.368 479.127 400.402 480.466 405.435C481.308 408.66 482.149 411.885 482.987 415.11C483.386 416.605 483.786 418.099 484.197 419.639C486.869 430.125 486.869 430.125 484.698 436.524C483.002 435.9 481.305 435.276 479.557 434.633C464.556 429.224 449.696 424.674 434.079 421.217C433.827 422.963 433.827 422.963 433.57 424.744C431.71 436.15 428.94 447.043 425.44 458.049C424.841 459.945 424.841 459.945 424.229 461.88C421.504 470.252 418.242 478.239 414.61 486.272C413.403 485.482 412.196 484.693 410.952 483.88C398.789 476.085 386.472 469.176 373.463 462.84C364.201 458.189 364.201 458.189 362.045 451.831C365.277 447.122 365.277 447.122 369.954 441.546C390.2 416.191 400.437 384.706 397.088 352.335C393.208 331.775 385.04 312.138 367.452 299.47C336.479 280.222 302.184 279.233 266.647 277.713C268.163 276.569 269.679 275.424 271.241 274.245C280.992 266.306 285.386 257.94 286.649 245.814C287.705 214.351 272.182 183.514 261.103 154.52C258.719 148.272 256.361 142.015 254.004 135.757C252.478 131.748 250.951 127.739 249.422 123.731C248.726 121.877 248.03 120.024 247.313 118.114C241.001 101.122 241.001 101.122 228.196 88.7669C220.94 86.0239 213.879 84.2192 206.294 82.5484C211.87 78.895 217.241 76.4172 223.329 73.699C236.744 67.1547 245.431 59.5122 251.924 46.1942C254.609 32.1192 254.192 26.0371 246.205 13.9059C244.94 12.135 243.675 10.3641 242.372 8.53949C239.391 4.09985 239.391 4.09985 239.391 0.273094Z" fill="#567C4D"/>
<path d="M233.281 309.617C234.926 311.497 234.926 311.497 235.768 316.394C234.496 326.036 229.262 330.174 223.1 336.518C212.486 347.552 202.235 359.184 200.991 376.341C201.43 386.979 204.387 397.024 207.318 407.067C209.744 415.555 210.902 422.735 210.246 431.787C207.47 437.308 207.47 437.308 203.665 441.185C199.655 442.359 199.655 442.359 195.438 441.185C185.123 431.7 180.405 419.901 177.34 405.474C175.126 377.418 179.872 352.756 195.438 330.292C206.411 316.915 216.588 308.092 233.281 309.617Z" fill="#90A97F"/>
<path d="M219.156 15.0285C220.086 20.2052 220.086 20.2052 221.035 25.4865C210.867 36.9827 200.511 39.3174 187.807 42.4806C174.097 45.9584 161.507 50.096 148.636 57.6722C143.216 59.7848 139.965 59.0915 134.618 56.8603C132.739 54.2458 132.739 54.2458 132.622 44.9317C132.661 41.9659 132.7 39.0001 132.739 35.9444C157.75 17.1538 191.099 13.5673 219.156 15.0285Z" fill="#8FA97E"/>
<path d="M190.08 604.158C189.358 625.574 185.257 645.627 180.324 666.447C182.256 665.825 184.187 665.202 186.178 664.56C193.061 663.653 199.987 663.133 206.908 662.554C209.902 662.301 209.902 662.301 212.956 662.043C230.081 660.686 247.052 660.383 264.221 660.785C263.904 661.858 263.587 662.931 263.261 664.036C262.253 668.409 262.01 672.238 262.026 676.711C262.021 678.11 262.016 679.509 262.011 680.951C262.292 685.694 263.157 690.128 264.221 694.761C265.73 694.352 267.239 693.943 268.794 693.522C280.643 690.457 290.982 688.414 303.243 689.098C302.046 691.183 300.848 693.268 299.615 695.417C294.854 704.63 293.026 713.845 291.049 723.9C285.073 751.479 272.525 774.252 257.911 798.355C253.557 805.791 250.037 813.335 246.661 821.227C262.009 814.314 276.88 806.821 291.407 798.399C292.58 797.719 293.753 797.039 294.962 796.339C300.899 792.888 306.817 789.409 312.719 785.901C314.913 784.614 317.108 783.327 319.37 782.001C321.337 780.832 323.305 779.663 325.332 778.458C330.558 775.925 330.558 775.925 338.362 775.925C338.999 777.451 339.635 778.977 340.291 780.548C341.143 782.565 341.996 784.583 342.874 786.661C344.131 789.65 344.131 789.65 345.412 792.7C347.919 798.607 347.919 798.607 351.616 803.568C353.971 808.014 353.971 808.014 353.171 811.715C348.646 817.33 343.163 821.685 337.509 826.181C335.017 828.201 332.527 830.224 330.04 832.25C328.804 833.254 327.567 834.259 326.294 835.294C321.298 839.416 316.481 843.697 311.657 848.006C304.92 853.991 298.062 859.696 290.927 865.23C281.061 872.923 271.863 881.163 262.645 889.56C254.271 897.148 245.57 904.181 236.609 911.114C229.929 916.512 223.607 922.219 217.273 927.991C184.159 958.103 184.159 958.103 162.322 957.742C149.309 956.271 142.99 947.628 135.083 938.255C133.612 936.452 132.141 934.649 130.625 932.791C125.305 926.35 119.558 920.329 113.743 914.306C111.726 912.213 109.709 910.119 107.692 908.024C106.751 907.048 105.809 906.071 104.84 905.064C97.4432 897.338 90.4017 889.315 83.3492 881.296C81.3682 879.047 79.3866 876.798 77.4044 874.55C76.4001 873.411 75.3958 872.271 74.3611 871.097C67.7643 863.65 61.0133 856.371 54.1133 849.186C45.8865 840.617 38.1792 831.735 30.6165 822.613C24.361 815.322 17.6556 808.464 10.8998 801.606C3.08245 792.501 -0.493057 784.428 0.0545041 772.696C2.68794 757.914 14.2715 749.85 25.8759 741.102C32.848 735.779 39.2515 729.918 45.6993 724.018C55.2397 715.322 65.0302 707.169 75.2704 699.244C81.9043 693.884 88.1859 688.222 94.4765 682.492C104.019 673.798 113.807 665.643 124.048 657.717C131.903 651.37 139.292 644.576 146.739 637.788C155.474 629.871 164.489 622.49 173.877 615.299C178.481 611.756 178.481 611.756 182.626 607.469C186.178 604.158 186.178 604.158 190.08 604.158Z" fill="#72935C"/>
<path d="M6.48243 766.246C7.77087 766.246 9.05932 766.246 10.3868 766.246C10.8146 767.597 11.2424 768.948 11.6832 770.34C23.8863 806.678 51.9382 828.986 83.1898 852.254C88.2491 856.126 93.0593 860.158 97.8694 864.291C119.096 882.066 141.941 898.699 171.542 899.904C196 898.524 215.817 885.508 234.889 872.508C237.927 870.461 237.927 870.461 241.027 868.372C255.607 857.994 266.048 846.88 273.437 831.246C282.371 812.553 290.767 804.528 311.024 795.063C315.035 792.659 319.023 790.222 322.981 787.746C328.121 784.531 328.121 784.531 332.498 782.455C338.355 784.256 338.355 784.256 340.856 788.843C342.034 791.699 342.034 791.699 343.235 794.612C345.654 800.42 347.815 805.458 351.593 810.625C353.972 814.874 353.972 814.874 353.172 818.406C348.644 823.763 343.159 827.919 337.501 832.21C335.007 834.137 332.516 836.067 330.028 838C328.791 838.958 327.554 839.917 326.279 840.905C321.281 844.837 316.461 848.922 311.634 853.034C304.894 858.745 298.032 864.188 290.892 869.469C281.021 876.81 271.817 884.672 262.595 892.685C254.216 899.924 245.51 906.635 236.544 913.251C229.86 918.402 223.535 923.847 217.197 929.355C184.064 958.086 184.064 958.086 162.215 957.742C149.195 956.338 142.872 948.092 134.961 939.148C133.489 937.428 132.017 935.707 130.5 933.935C125.177 927.789 119.427 922.043 113.609 916.297C111.591 914.299 109.572 912.301 107.554 910.303C106.612 909.371 105.67 908.438 104.7 907.478C97.2995 900.106 90.254 892.45 83.1974 884.799C81.2153 882.653 79.2326 880.507 77.2493 878.362C76.2445 877.275 75.2396 876.188 74.2043 875.068C67.6038 867.961 60.849 861.016 53.9451 854.16C45.7136 845.984 38.0019 837.509 30.4349 828.804C24.1759 821.847 17.4667 815.304 10.7071 808.761C2.66869 799.832 -0.345229 792.397 0.0310483 780.999C0.878409 775.376 3.28395 771.041 6.48243 766.246Z" fill="#567C4D"/>
<path d="M169.263 665.147C174.755 669.662 175.735 672.408 176.824 679.088C175.562 687.163 173.562 689.636 167.063 695.291C161.729 698.373 156.292 701.236 150.805 704.083C143.414 708.288 137.28 713.308 130.973 718.763C127.467 721.416 127.467 721.416 123.067 721.416C122.517 722.517 121.967 723.618 121.4 724.753C118.141 730.36 114.26 735.267 110.144 740.382C108.652 742.245 107.16 744.107 105.624 746.026C89.9983 765.014 89.9983 765.014 81.4089 766.233C69.1036 766.296 69.1036 766.296 63.8107 762.865C58.9642 756.093 58.4195 751.637 59.2736 743.522C66.1035 730.152 79.893 722.342 92.2703 713.378C101.355 706.44 109.991 699.271 118.255 691.523C151.353 660.806 151.353 660.806 169.263 665.147Z" fill="#90A97F"/>
<path d="M43.3341 766.246C54.4315 767.092 59.9198 769.472 68.5113 774.12C74.0124 778.864 73.9931 780.899 73.4446 786.943C71.2331 792.117 71.2331 792.117 63.0676 795.717C51.5994 795.576 45.4521 794.584 36.0191 790.205C28.3091 782.944 28.89 779.251 30.4052 770.52C35.849 766.921 35.849 766.921 43.3341 766.246Z" fill="#8FA97E"/>
<path d="M987.713 47.5393C1044.56 48.6164 1140.87 63.5832 1182.93 103.966C1187.85 110.076 1189.08 114.246 1189.64 122.108C1186.22 128.96 1183.26 131.374 1176.38 134.85C1168.85 139.916 1167.68 143.376 1164.84 151.834C1163.88 154.579 1162.9 157.321 1161.92 160.062C1161.4 161.549 1160.87 163.037 1160.33 164.569C1157.1 173.395 1153.39 182.035 1149.75 190.706C1137.48 220.26 1125.81 249.906 1115.23 280.088C1114.44 282.328 1113.66 284.568 1112.85 286.875C1107.43 302.479 1104.46 311.611 1109.01 327.719C1109.41 329.197 1109.81 330.676 1110.23 332.199C1112.46 340.22 1114.93 348.075 1117.81 355.89C1122 367.468 1125.26 379.255 1128.48 391.132C1129 393.025 1129.53 394.918 1130.07 396.868C1135.31 416.628 1137.41 435.173 1133.96 455.434C1133.69 457.09 1133.43 458.746 1133.16 460.453C1130.77 475.026 1127.75 489.441 1124.5 503.851C1123.36 508.977 1122.26 514.112 1121.18 519.25C1117.07 538.733 1112.81 558.167 1108.17 577.538C1104.82 591.565 1101.6 605.62 1098.39 619.681C1092.8 644.25 1087.17 668.811 1081.26 693.311C1080.77 695.343 1080.28 697.374 1079.77 699.468C1036.48 878.308 1036.48 878.308 1020.15 889.009C963.048 912.958 869.95 882.998 815.404 863.059C814.161 862.605 812.917 862.151 811.635 861.684C749.921 838.85 749.921 838.85 734.277 818.125C730.428 790.902 740.237 761.056 746.727 734.69C748.436 727.697 750.105 720.695 751.771 713.692C758.232 686.595 764.932 659.607 772.426 632.761C775.831 620.546 779.025 608.281 782.232 596.016C788.425 572.434 794.983 548.965 801.701 525.522C803.744 518.372 805.769 511.217 807.791 504.061C814.826 479.188 821.964 454.346 829.391 429.581C830.484 425.932 831.57 422.282 832.655 418.63C849.08 364.254 875.503 329.504 919.053 292.694C920.072 291.826 921.09 290.958 922.14 290.065C923.03 289.316 923.92 288.567 924.838 287.795C934.12 279.048 938.625 272.291 940.848 259.805C941.271 257.639 941.271 257.639 941.702 255.429C944.894 238.598 947.254 221.649 949.496 204.68C949.719 203.009 949.943 201.339 950.174 199.619C953.454 175.093 956.559 150.544 959.371 125.964C959.746 122.704 960.129 119.444 960.521 116.186C961.06 111.66 961.566 107.131 962.061 102.601C962.307 100.604 962.307 100.604 962.558 98.5677C963.352 90.8679 962.824 86.2296 958.772 79.6371C955.802 71.9433 955.176 67.8717 956.98 59.7391C963.154 48.9313 976.185 47.768 987.713 47.5393Z" fill="#D8E1EA"/>
<path d="M989.91 46.9598C1046.08 48.2159 1141.28 63.4746 1182.97 103.955C1187.84 110.076 1189.07 114.247 1189.65 122.103C1186.29 128.939 1183.38 131.341 1176.59 134.793C1169.17 139.83 1168.02 143.284 1165.24 151.726C1164.3 154.465 1163.34 157.202 1162.38 159.937C1161.87 161.422 1161.36 162.906 1160.83 164.436C1157.66 173.244 1154.03 181.864 1150.46 190.517C1138.43 220.007 1126.99 249.59 1116.63 279.713C1115.86 281.948 1115.09 284.184 1114.3 286.487C1109 302.06 1106.09 311.175 1110.64 327.283C1111.04 328.761 1111.44 330.24 1111.86 331.763C1114.09 339.784 1116.55 347.64 1119.42 355.458C1123.6 367.039 1126.86 378.827 1130.07 390.703C1130.6 392.596 1131.12 394.489 1131.66 396.44C1136.91 416.199 1139.04 434.735 1135.69 454.967C1135.43 456.621 1135.18 458.275 1134.92 459.979C1132.61 474.532 1129.67 488.926 1126.5 503.313C1125.38 508.431 1124.32 513.558 1123.27 518.688C1119.27 538.142 1115.12 557.545 1110.6 576.885C1107.33 590.89 1104.19 604.922 1101.07 618.961C1095.62 643.491 1090.14 668.014 1084.38 692.473C1083.9 694.502 1083.42 696.53 1082.93 698.62C1040.73 877.17 1040.73 877.17 1024.62 887.811C965.719 912.638 868.031 879.789 812.38 857.285C809.835 856.242 807.292 855.197 804.752 854.146C805.798 853.225 806.844 852.305 807.922 851.357C812.844 852.448 812.844 852.448 819.129 854.382C832.44 858.241 845.671 860.864 859.352 863.025C862.904 863.588 862.904 863.588 866.528 864.163C921.073 874.474 921.073 874.474 972.98 862.414C984.644 847.269 988.238 824.368 993.322 806.298C993.886 804.313 994.449 802.328 995.03 800.283C1001.98 775.774 1008.62 751.211 1014.65 726.459C1015.05 724.842 1015.44 723.224 1015.85 721.557C1016.19 720.14 1016.53 718.722 1016.89 717.262C1017.78 713.966 1017.78 713.966 1019.12 711.659C1023.34 710.545 1027.56 709.431 1031.9 708.283C1034.73 716.553 1037.56 724.823 1040.47 733.343C1037.75 715.707 1037.75 715.707 1034.97 697.714C1030.75 698.828 1026.53 699.942 1022.19 701.09C1023.01 693.33 1024.46 685.864 1026.17 678.25C1026.44 677.037 1026.71 675.824 1026.99 674.574C1027.87 670.638 1028.76 666.704 1029.65 662.77C1030.27 660.03 1030.88 657.291 1031.5 654.551C1035.51 636.696 1039.59 618.857 1043.72 601.029C1051.54 567.281 1059.01 533.488 1066 499.559C1067.31 493.241 1068.64 486.93 1069.99 480.62C1071.09 475.408 1072.16 470.19 1073.22 464.97C1073.79 462.213 1074.37 459.457 1074.95 456.704C1083.68 415.196 1080.73 379.002 1064.27 339.352C1059.17 327.003 1057.46 320.402 1062.63 307.759C1064.23 304.504 1065.83 301.249 1067.47 298.012C1070.49 291.519 1072.51 284.699 1074.63 277.874C1075.05 276.55 1075.47 275.227 1075.91 273.863C1076.88 270.769 1077.85 267.671 1078.81 264.572C1074.1 268.393 1071.06 271.956 1068.1 277.238C1067.34 278.57 1066.58 279.903 1065.79 281.276C1064.63 283.348 1064.63 283.348 1063.45 285.462C1060.68 290.384 1057.87 295.269 1055 300.137C1054.39 300.296 1053.79 300.456 1053.17 300.62C1045.31 267.836 1074.66 219.192 1086.61 189.274C1090.35 179.899 1094.05 170.513 1097.77 161.129C1099.11 157.726 1100.46 154.323 1101.81 150.92C1102.37 149.495 1102.94 148.069 1103.52 146.6C1104.7 143.642 1105.94 140.707 1107.22 137.79C1109.12 133.827 1109.12 133.827 1107.76 130.069C1106.51 129.792 1105.26 129.515 1103.97 129.229C981.8 102.074 981.8 102.074 961.418 78.9385C958.452 71.3617 957.852 67.0629 959.585 59.052C965.651 48.2729 978.522 47.1519 989.91 46.9598Z" fill="#CAD1D9"/>
<path d="M1076.05 265.578C1078.1 273.313 1075.32 279.324 1072.85 286.744C1072.35 288.269 1071.85 289.794 1071.34 291.365C1067.19 303.707 1062.48 315.72 1056.96 327.551C1053.91 333.956 1053.91 333.956 1051.74 340.238C1049.43 346.012 1047.64 349.992 1043.29 354.536C1034.43 357.724 1025.86 358.967 1016.51 359.65C1017.04 360.527 1017.57 361.404 1018.12 362.307C1023.14 371.831 1026.6 381.301 1027.09 392.111C1022.82 399.742 1016.39 404.635 1009.81 410.384C999.548 421.97 990.499 433.896 982.895 447.285C980.605 451.193 978.129 454.773 975.399 458.4C971.416 463.108 971.416 463.108 970.703 467.719C973.227 467.409 973.227 467.409 975.803 467.092C996.61 465.473 1017.17 470.616 1037.09 475.648C1037.41 476.857 1037.73 478.065 1038.06 479.31C1036.9 479.861 1035.75 480.412 1034.55 480.98C1013.66 490.974 993.26 500.935 974.144 513.979C969.643 516.965 969.643 516.965 965.886 517.957C966.194 520.073 966.501 522.188 966.818 524.368C968.011 533.453 968.465 542.531 968.891 551.685C970.746 587.147 975.262 615.088 993.615 645.781C983.526 661.516 973.459 677.016 961.48 691.482C965.198 701.286 968.882 706.489 975.762 715.131C1002.27 710.068 1002.27 710.068 1029.32 704.903C1037.4 743.371 1037.4 743.371 1040.55 762.655C1039.94 762.818 1039.32 762.982 1038.68 763.151C1034.53 747.441 1030.38 731.732 1026.1 715.546C1022.23 716.892 1018.36 718.238 1014.37 719.624C1012.02 720.408 1009.66 721.192 1007.23 722C1003.1 723.382 998.985 724.816 994.911 726.355C984.024 730.079 984.024 730.079 977.783 728.101C973.618 725.576 970.381 722.775 966.854 719.442C965.136 717.838 963.417 716.234 961.646 714.582C947.894 701.02 947.894 701.02 946.187 694.143C947.082 688.104 949.147 685.999 953.47 681.6C960.341 674.125 966.171 666.458 971.738 658.046C972.483 656.942 973.228 655.837 973.996 654.699C977.701 649.031 980.927 644.058 981.322 637.275C978.206 632.752 978.206 632.752 975.417 629.654C957.829 608.716 947.124 585.792 937.024 560.835C931.621 566.71 926.258 572.616 920.935 578.559C918.548 581.217 916.141 583.858 913.732 586.496C903.455 598.158 897.116 609.576 891.368 623.817C890.696 625.116 890.023 626.414 889.331 627.752C878.951 648.714 890.796 675.965 897.183 696.496C901.227 710.551 902 720.322 896.39 734.134C892.405 728.152 892.654 724.78 892.038 717.655C890.827 711.712 889.336 705.842 887.86 699.96C887.016 696.517 886.174 693.073 885.332 689.63C884.003 684.238 882.669 678.848 881.325 673.461C880.025 668.237 878.748 663.007 877.473 657.777C877.066 656.172 876.659 654.568 876.24 652.915C874.312 644.945 872.798 638.283 874.947 630.112C877.512 626.293 880.232 622.569 883.041 618.916C903.184 590.568 907.213 547.891 902.357 514.865C898.413 495.619 891.061 477.598 882.996 459.712C880.762 454.295 879.21 448.966 877.847 443.276C882.087 444.114 882.087 444.114 884.311 446.979C885.092 448.247 885.872 449.515 886.676 450.821C887.547 452.211 888.418 453.601 889.315 455.033C890.217 456.5 891.118 457.967 892.047 459.479C897.827 468.843 903.53 477.304 911.08 485.424C911.399 486.632 911.719 487.841 912.047 489.086C917.399 482.437 916.681 475.589 916.422 467.609C916.395 466.237 916.367 464.864 916.338 463.45C916.249 459.241 916.13 455.033 916.008 450.825C915.948 448.265 915.889 445.705 915.832 443.144C915.694 437.274 915.536 431.404 915.357 425.535C919.597 426.374 919.597 426.374 923.034 431.243C924.909 434.372 924.909 434.372 926.823 437.564C928.076 439.624 929.33 441.684 930.622 443.806C933.66 449.603 935.24 454.7 936.781 461.009C937.602 460.31 938.423 459.611 939.269 458.891C947.835 451.6 956.408 444.317 964.986 437.039C968.184 434.324 971.38 431.607 974.573 428.887C979.172 424.972 983.778 421.065 988.385 417.159C989.804 415.948 991.224 414.736 992.687 413.488C999.662 407.588 1006.54 402.142 1014.42 397.414C1013.94 396.287 1013.46 395.159 1012.97 393.998C1010.79 388.865 1008.61 383.727 1006.44 378.59C1005.68 376.816 1004.93 375.043 1004.15 373.215C1003.42 371.495 1002.7 369.774 1001.95 368.001C1000.94 365.635 1000.94 365.635 999.92 363.221C998.176 358.685 996.882 354.184 995.734 349.466C996.857 349.571 997.98 349.676 999.138 349.784C1010.42 350.654 1020.32 349.904 1031.48 347.861C1031.7 346.236 1031.7 346.236 1031.92 344.577C1033.81 337.689 1037.27 331.784 1040.79 325.572C1042.27 322.903 1043.76 320.233 1045.24 317.563C1045.97 316.247 1046.71 314.93 1047.46 313.574C1050.36 308.326 1053.14 303.019 1055.91 297.708C1070.2 270.624 1070.2 270.624 1076.05 265.578Z" fill="#E6EFF6"/>
<path d="M981.866 49.0432C1040.45 49.3997 1139.54 62.9747 1182.4 102.31C1187.39 108.279 1188.61 112.38 1189.09 120.133C1186.52 126.512 1183.59 128.748 1177.26 131.925C1135.72 146.512 1074.79 124.588 1034.24 114.946C1032.61 114.565 1030.97 114.185 1029.29 113.793C966.074 99.0286 966.074 99.0286 951.634 81.0837C948.505 73.5869 948.077 69.5034 950.035 61.4666C956.534 50.7224 969.98 49.4123 981.866 49.0432Z" fill="#433D3D"/>
<path d="M955.997 68.6761C957.322 68.9034 958.648 69.1307 960.014 69.3649C960.606 70.5736 961.197 71.7822 961.806 73.0275C968.08 84.764 990.397 87.9188 1003.37 91.5617C1031.93 99.2785 1061.27 104.845 1090.44 110.596C1093.41 111.182 1096.38 111.77 1099.35 112.361C1136.4 120.685 1136.4 120.685 1174.2 117.8C1174.9 122.801 1175.23 125.486 1172.15 129.932C1165.16 136.628 1156.73 137.832 1147.17 138.936C1108.02 138.892 1068.51 129.039 1031.08 120.595C1029.56 120.258 1028.03 119.92 1026.46 119.573C967.321 106.476 967.321 106.476 954.009 90.2005C951.289 83.334 950.425 80.1387 953.302 72.9971C954.191 71.5711 955.08 70.1452 955.997 68.6761Z" fill="#2E2A29"/>
<path d="M995.874 134.345C1001.89 133.933 1001.89 133.933 1007.38 136.366C1013.29 142.124 1014.38 144.886 1015.1 153.036C1013.51 162.411 1010.83 171.584 1008.19 180.782C1002.99 199.132 1000.45 216.313 1000.38 235.154C1000.23 248.322 999.471 262.333 989.554 272.739C982.901 275.084 982.901 275.084 976.196 276.267C970.393 271.51 969.743 268.992 969.097 261.866C969.254 252.927 971.78 244.285 973.991 235.549C979.222 213.593 982.282 192.279 983.503 169.992C983.583 168.605 983.663 167.219 983.746 165.79C983.889 163.177 984.008 160.564 984.098 157.951C984.589 148.133 985.761 139.205 995.874 134.345Z" fill="#EAEDF2"/>
<path d="M945.881 330.598C952.036 332.225 952.036 332.225 957.002 334.166C958.315 339.11 958.315 339.11 958.227 345.225C955.116 349.12 951.137 351.735 947.021 354.587C937.948 361.316 932.158 366.965 926.974 376.943C923.695 382.055 920.192 383.034 914.302 384.469C913.123 384.244 911.944 384.018 910.729 383.786C907.199 377.337 905.523 374.09 906.982 366.787C914.929 351.529 927.261 333.649 945.881 330.598Z" fill="#EAEDF2"/>
<path d="M976.875 63.1572C987.604 61.0679 996.987 62.0566 1007.66 66.8258C1010.64 69.3356 1013.15 72.0637 1015.82 74.9945C1022.06 80.5519 1029.91 82.1641 1037.2 84.5895C1041.56 86.0903 1045.9 87.6604 1050.24 89.2587C1052.28 89.9823 1054.32 90.7059 1056.42 91.4514C1058 92.2857 1059.59 93.12 1061.22 93.9795C1061.86 96.4061 1062.5 98.8327 1063.16 101.333C1053.86 101.933 1045.45 99.2923 1036.24 96.6419C1034.48 96.1365 1032.72 95.6311 1030.91 95.1103C1013.09 89.8335 994.129 83.7136 978.817 70.5105C978.176 68.0839 977.535 65.6574 976.875 63.1572Z" fill="#9A9897"/>
<path d="M683.093 0.000488281C683.55 2.02524 683.55 2.02524 684.016 4.0909C685.429 10.3105 686.866 16.5244 688.303 22.7385C689.021 25.9226 689.021 25.9226 689.753 29.171C692.817 42.3297 696.642 54.643 702.039 67.0178C703.87 66.6031 705.702 66.1885 707.589 65.7612C721.79 62.6547 734.785 60.5916 749.404 61.2735C750.029 68.856 750.655 76.4385 751.299 84.2508C753.17 83.1451 755.04 82.0393 756.968 80.9C759.42 79.4635 761.872 78.0274 764.324 76.5917C766.174 75.4958 766.174 75.4958 768.062 74.3778C777.394 68.9326 777.394 68.9326 781.613 68.9326C781.188 92.129 775.99 113.604 770.245 135.95C785.183 133.85 799.783 131.153 814.428 127.498C819.505 126.376 819.505 126.376 825.189 126.376C825.189 155.929 803.629 181.723 786.845 204.217C783.444 208.797 780.095 213.411 776.758 218.039C709.074 311.85 709.074 311.85 667.321 322.843C659.345 324.032 651.302 324.208 643.25 324.421C632.03 324.937 624.333 327.755 616.07 335.446C615.054 336.591 614.038 337.737 612.992 338.917C600.048 335.272 587.762 330.83 575.455 325.394C572.894 324.269 572.894 324.269 570.282 323.123C538.57 309.087 508.156 293.762 478.474 275.729C479.412 273.478 479.412 273.478 480.368 271.181C484.949 254.401 481.884 241.416 475.04 225.825C462.381 195.911 456.785 169.158 456.804 136.429C456.803 135.076 456.803 133.723 456.802 132.329C456.909 99.2369 465.124 75.9111 482.263 47.87C484.815 43.4965 487.326 39.1008 489.841 34.7059C491.735 31.4341 493.629 28.1627 495.525 24.8926C502.658 27.977 507.815 32.5769 513.643 37.6977C529.101 51.1321 529.101 51.1321 546.68 61.2735C553.921 60.4619 558.756 58.134 564.82 54.1604C575.331 47.5752 586.22 42.3597 597.479 37.219C599.569 36.2558 601.658 35.2926 603.811 34.3001C609.454 31.7037 615.103 29.1188 620.754 26.5399C624.485 24.8351 628.213 23.1243 631.941 21.4118C638.284 18.4981 644.631 15.5933 650.981 12.6958C653.437 11.5746 655.893 10.4515 658.347 9.32657C661.777 7.75639 665.211 6.19686 668.646 4.63785C670.615 3.74125 672.583 2.84465 674.611 1.92088C679.303 0.000488281 679.303 0.000488281 683.093 0.000488281Z" fill="#29A9E2"/>
<path d="M825.186 132.623C825.186 161.307 804.111 186.344 787.704 208.177C784.38 212.622 781.106 217.101 777.844 221.592C711.683 312.648 711.683 312.648 670.869 323.318C663.073 324.471 655.21 324.643 647.339 324.85C636.372 325.35 628.848 328.085 620.771 335.551C619.778 336.662 618.785 337.774 617.762 338.919C605.109 335.381 593.099 331.071 581.069 325.794C578.566 324.702 578.566 324.702 576.013 323.589C545.014 309.966 515.284 295.091 486.27 277.588C486.874 275.94 487.478 274.291 488.1 272.593C491.671 260.859 490.623 248.623 488.122 236.7C494.464 239.166 500.535 241.949 506.642 244.947C518.028 250.189 529.561 252.947 541.83 255.286C544.454 255.803 544.454 255.803 547.132 256.331C608.135 264.869 662.702 236.972 710.825 202.434C720.868 195.299 731.331 189.517 742.193 183.732C767.081 170.508 767.081 170.508 782.705 147.839C784.927 143.133 786.686 140.686 791.503 138.608C802.33 135.219 813.828 132.623 825.186 132.623Z" fill="#3888BB"/>
<path d="M683.251 0.000488281C683.708 1.94561 683.708 1.94561 684.175 3.93003C685.589 9.90506 687.027 15.8746 688.465 21.8443C689.184 24.9031 689.184 24.9031 689.917 28.0238C692.983 40.665 696.811 52.494 702.211 64.3821C704.044 63.9838 705.878 63.5854 707.766 63.175C721.977 60.1906 734.982 58.2086 749.612 58.8637C750.238 66.7551 750.864 74.6464 751.508 82.7769C744.602 86.0467 737.688 89.3019 730.77 92.5491C728.833 93.468 726.896 94.3868 724.901 95.3335C701.953 106.074 685.41 112.351 660.55 104.042C657.944 103.133 657.944 103.133 655.284 102.206C651.779 101.019 648.274 99.8331 644.767 98.6496C642.47 97.8549 642.47 97.8549 640.125 97.0441C636.199 95.7666 632.297 94.7266 628.266 93.8138C628.306 95.0157 628.346 96.2176 628.387 97.4559C628.633 110.761 627.193 123.263 624.829 136.352C624.515 138.227 624.201 140.103 623.878 142.035C618.787 171.07 618.787 171.07 613.098 176.59C608.1 176.781 603.164 176.848 598.166 176.82C596.665 176.817 595.163 176.813 593.616 176.809C576.696 176.693 559.828 175.768 542.944 174.751C545.802 156.145 549.997 137.89 554.321 119.566C552.986 120.098 551.652 120.629 550.277 121.176C547.468 122.2 547.468 122.2 544.603 123.245C542.8 123.928 540.996 124.611 539.137 125.315C528.204 128.413 516.285 127.197 505.024 126.924C504.719 125.434 504.414 123.943 504.1 122.407C502.936 116.751 501.762 111.098 500.58 105.447C499.83 101.847 499.094 98.2455 498.358 94.6437C495.494 80.9951 492.056 67.8183 487.506 54.6032C484.653 44.8412 486.998 38.0687 491.87 29.5471C493.082 27.6881 494.294 25.829 495.543 23.9137C502.681 26.8767 507.843 31.2957 513.674 36.2152C529.144 49.1212 529.144 49.1212 546.736 58.8637C553.983 58.0841 558.821 55.8477 564.889 52.0304C575.409 45.7042 586.306 40.6938 597.574 35.7553C600.71 34.3673 600.71 34.3673 603.91 32.9512C609.558 30.4568 615.211 27.9736 620.866 25.4962C624.6 23.8584 628.331 22.2148 632.061 20.5697C638.409 17.7706 644.761 14.98 651.116 12.1965C653.574 11.1194 656.031 10.0405 658.487 8.95979C661.919 7.45137 665.356 5.95317 668.794 4.45547C670.764 3.59413 672.734 2.73279 674.763 1.84535C679.459 0.000488281 679.459 0.000488281 683.251 0.000488281Z" fill="#3888BB"/>
<path d="M831.828 147.363C857.063 149.127 881.117 158.348 898.718 178.831C908.044 191.239 914.381 203.901 913.524 220.365C910.781 239.18 901.912 253.675 888.766 265.847C873.14 276.866 858.906 282.531 840.377 282.139C837.363 282.103 834.35 282.069 831.336 282.035C826.619 281.973 821.903 281.9 817.186 281.805C792.908 281.342 774.485 282.938 753.596 297.698C751.204 299.339 748.813 300.979 746.421 302.619C743.556 304.597 743.556 304.597 740.634 306.616C732.064 311.334 720.613 309.322 711.702 306.616C710.251 305.943 708.8 305.271 707.305 304.578C709.138 302.56 709.138 302.56 711.008 300.501C712.283 299.09 712.283 299.09 713.583 297.65C715.666 295.368 717.771 293.108 719.89 290.866C746.431 262.466 768.224 227.768 789.587 194.629C790.496 193.242 791.404 191.854 792.34 190.424C796.666 183.711 800.518 177.081 803.85 169.706C810.656 155.079 816.068 147.155 831.828 147.363Z" fill="#2BAAE3"/>
<path d="M867.586 183.051C876.034 189.907 882.426 197.249 884.12 208.083C884.256 222.045 883.402 232.053 873.443 242.51C856.903 256.174 838.145 256.66 817.435 256.775C796.995 257.13 777.658 258.818 757.672 263.065C756.05 263.407 754.427 263.75 752.755 264.103C751.357 264.422 749.958 264.742 748.518 265.07C744.11 265.582 740.985 264.908 736.777 263.609C737.82 262.311 737.82 262.311 738.884 260.987C753.38 242.908 767.568 224.673 781.165 205.929C783.084 203.285 785.013 200.647 786.953 198.017C789.14 195.038 791.27 192.018 793.388 188.992C798.321 183.919 801.954 183.022 808.893 181.612C810.884 181.187 812.874 180.761 814.925 180.323C816.841 179.957 818.756 179.591 820.729 179.214C822.393 178.858 824.056 178.502 825.77 178.136C840.23 175.565 854.332 176.579 867.586 183.051Z" fill="#D3EEDB"/>
<path d="M549.571 486.309C551.434 486.299 551.434 486.299 553.335 486.288C587.976 486.186 587.976 486.186 601.229 495.162C602.391 495.917 603.553 496.671 604.75 497.449C608.252 500.603 609.741 503.177 611.356 507.674C610.748 519.443 610.748 519.443 606.577 524.436C602.965 530.227 604.055 534.768 604.771 541.441C606.123 546.262 607.694 547.881 611.356 551.113C614.826 552.739 614.826 552.739 618.674 553.813C620.086 554.264 621.497 554.714 622.951 555.178C625.894 556.081 628.838 556.976 631.784 557.863C641.473 560.973 648.026 564.168 655.049 571.888C659.064 581.396 660.488 591.926 662.332 602.106C662.666 603.908 663.001 605.71 663.346 607.566C679.371 695.569 691.77 788.964 692.484 878.556C692.511 880.54 692.538 882.524 692.565 884.568C692.456 892.522 692.235 897.281 688.246 904.193C673.428 918.302 657.241 925.505 638.664 932.619C637.27 933.245 635.876 933.871 634.44 934.516C624.616 938.301 614.055 939.348 603.733 940.999C602.463 941.204 601.193 941.409 599.885 941.621C459.534 964.062 459.534 964.062 420.645 935.978C404.222 922.734 404.647 899.84 402.078 879.744C391.994 795.819 384.037 710.568 383.218 625.95C383.186 623.849 383.154 621.747 383.12 619.581C383.134 605.764 384.779 599.189 394.369 589.24C404.358 580.65 416.139 574.541 427.48 568.111C429.014 555.272 429.014 555.272 425.048 543.544C423.049 541.45 421.039 539.367 419.018 537.295C416.049 533.458 415.612 531.203 415.419 526.325C416.734 517.871 417.672 515.199 423.839 509.563C458.601 485.765 509.417 486.398 549.571 486.309Z" fill="#D8E1E9"/>
<path d="M548.109 486.309C549.991 486.299 549.991 486.299 551.911 486.289C586.905 486.186 586.905 486.186 600.294 495.177C601.468 495.933 602.641 496.689 603.85 497.467C607.388 500.627 608.892 503.204 610.524 507.709C609.91 519.497 609.91 519.497 605.697 524.499C602.047 530.3 603.149 534.848 603.872 541.532C605.238 546.36 606.824 547.982 610.524 551.219C614.03 552.848 614.03 552.848 617.917 553.924C619.343 554.375 620.769 554.826 622.238 555.291C625.21 556.195 628.184 557.092 631.161 557.981C640.948 561.095 647.568 564.296 654.663 572.029C658.719 581.552 660.158 592.1 662.02 602.296C662.358 604.101 662.696 605.906 663.044 607.765C679.234 695.912 691.759 789.461 692.48 879.2C692.507 881.187 692.534 883.174 692.562 885.222C692.452 893.189 692.228 897.955 688.199 904.879C673.229 919.011 656.877 926.226 638.111 933.351C636.641 934.017 635.171 934.683 633.657 935.369C627.026 937.839 620.343 939.025 613.398 940.209C611.951 940.458 610.504 940.708 609.013 940.965C595.946 943.066 583.29 943.4 570.063 942.81C575.212 937.513 581.259 936.737 588.11 934.888C608.675 928.952 630.287 921.02 641.789 901.192C643.509 892.892 643.252 884.908 642.925 876.459C642.876 874.06 642.827 871.662 642.777 869.191C642.032 842.03 639.361 815.041 636.502 788.042C635.999 783.08 635.499 778.118 635 773.155C632.615 749.59 630.101 726.047 627.076 702.559C628.039 722.874 629.349 743.088 631.379 763.324C632.209 772.005 632.845 780.692 633.161 789.409C633.231 791.072 633.301 792.735 633.373 794.449C632.305 800.736 630.02 802.611 625.237 806.605C620.017 807.992 620.017 807.992 613.902 808.619C611.603 808.871 609.304 809.124 606.935 809.384C604.42 809.626 601.904 809.867 599.389 810.107C596.775 810.381 594.161 810.658 591.547 810.938C584.641 811.669 577.732 812.36 570.822 813.042C563.945 813.729 557.073 814.454 550.199 815.176C534.756 816.79 519.307 818.33 503.855 819.847C500.633 820.165 500.633 820.165 497.347 820.49C491.696 821.047 486.044 821.595 480.391 822.137C478.795 822.293 477.199 822.45 475.555 822.61C453.622 824.669 453.622 824.669 447.187 819.374C441.479 811.993 441.095 805.672 440.271 796.435C440.087 794.401 439.903 792.367 439.714 790.272C439.522 788.083 439.331 785.893 439.133 783.638C438.831 780.243 438.831 780.243 438.523 776.781C438.098 771.991 437.676 767.202 437.257 762.412C436.616 755.108 435.963 747.806 435.308 740.504C434.896 735.847 434.485 731.189 434.076 726.531C433.88 724.357 433.685 722.183 433.483 719.943C432.982 714.151 432.536 708.359 432.129 702.559C432.004 701.046 431.879 699.533 431.751 697.975C431.432 691.692 431.676 688.125 435.102 682.825C440.532 679.149 444.294 678.487 450.764 677.789C451.939 677.654 453.114 677.519 454.324 677.38C458.57 676.907 462.82 676.49 467.072 676.074C470.642 675.706 474.212 675.336 477.782 674.966C490.07 673.71 502.364 672.525 514.66 671.345C523.008 670.542 531.356 669.734 539.703 668.921C542.702 668.629 542.702 668.629 545.761 668.332C559.764 666.951 573.729 665.359 587.688 663.563C611.535 660.79 611.535 660.79 619.145 666.616C619.942 667.864 620.738 669.113 621.559 670.399C620.396 653.798 618.022 637.504 615.352 621.096C614.776 617.414 614.776 617.414 614.188 613.658C611.588 589.434 611.588 589.434 600.201 569.309C591.227 565.051 582.054 562.168 572.581 559.333C571.155 558.88 569.729 558.426 568.26 557.959C566.972 557.571 565.685 557.183 564.358 556.784C560.868 555.003 560.868 555.003 558.206 551.075C555.655 547.029 555.655 547.029 551.243 546.597C549.649 546.659 548.055 546.722 546.413 546.786C543.705 546.888 543.705 546.888 540.943 546.993C530.837 547.762 520.806 548.994 510.751 550.274C493.917 552.254 477.24 553.717 460.29 553.821C458.612 553.846 456.935 553.872 455.206 553.898C442.804 553.813 431.077 552.002 420.742 544.517C415.984 538.647 413.031 534.167 412.588 526.39C413.916 517.923 414.864 515.246 421.094 509.601C456.211 485.764 507.545 486.398 548.109 486.309Z" fill="#BBBEC5"/>
<path d="M603.734 663.938C607.727 669.984 608.115 672.835 608.817 679.937C609.037 682.083 609.256 684.228 609.483 686.439C609.704 688.759 609.925 691.08 610.153 693.47C610.511 697.048 610.511 697.048 610.876 700.697C611.38 705.747 611.875 710.798 612.361 715.85C612.983 722.304 613.622 728.756 614.269 735.208C614.886 741.382 615.493 747.557 616.1 753.732C616.329 756.041 616.558 758.35 616.793 760.729C617.001 762.893 617.209 765.056 617.424 767.284C617.608 769.179 617.792 771.074 617.981 773.026C618.111 774.819 618.24 776.611 618.374 778.458C618.629 781.376 618.629 781.376 618.89 784.352C618.374 789.541 618.374 789.541 615.389 792.905C610.176 795.523 606.052 796.145 600.25 796.67C598.066 796.88 595.883 797.089 593.633 797.305C591.27 797.507 588.906 797.71 586.471 797.918C583.989 798.147 581.507 798.379 579.025 798.613C572.468 799.225 565.909 799.808 559.349 800.385C552.821 800.964 546.295 801.568 539.768 802.171C530.92 802.987 522.07 803.792 513.219 804.584C503.492 805.454 493.768 806.349 484.051 807.326C482.305 807.5 480.559 807.675 478.76 807.855C475.645 808.17 472.53 808.492 469.417 808.822C462.387 809.532 455.362 810.057 448.301 810.3C446.964 810.35 445.627 810.401 444.249 810.453C443.134 810.257 442.019 810.061 440.87 809.859C437.014 804.021 436.574 801.673 435.954 794.884C435.68 791.997 435.68 791.997 435.4 789.051C435.219 786.967 435.038 784.884 434.851 782.737C434.653 780.584 434.455 778.43 434.251 776.211C433.835 771.642 433.426 767.073 433.024 762.502C432.414 755.569 431.776 748.638 431.134 741.708C430.732 737.26 430.332 732.812 429.933 728.363C429.744 726.313 429.556 724.263 429.361 722.151C426.929 694.092 426.929 694.092 428.06 682.409C432.481 677.947 434.048 678.085 440.138 677.536C442.779 677.286 442.779 677.286 445.472 677.03C447.395 676.865 449.318 676.699 451.299 676.529C454.293 676.251 454.293 676.251 457.347 675.968C463.862 675.368 470.379 674.79 476.897 674.213C481.347 673.808 485.798 673.401 490.248 672.992C496.888 672.383 503.529 671.776 510.17 671.175C522.493 670.059 534.81 668.901 547.12 667.647C548.437 667.514 549.754 667.38 551.11 667.243C556.932 666.652 562.753 666.051 568.573 665.44C596.299 662.638 596.299 662.638 603.734 663.938Z" fill="#FEF5CC"/>
<path d="M543.744 486.313C545.566 486.302 545.566 486.302 547.424 486.29C581.291 486.179 581.291 486.179 594.249 495.987C595.384 496.812 596.52 497.636 597.69 498.486C601.111 501.929 602.562 504.755 604.149 509.66C603.903 517.505 603.006 522.785 599.699 529.653C569.789 561.734 498.2 559.364 459.533 559.837C457.022 559.891 457.022 559.891 454.462 559.947C442.181 559.933 430.73 558.185 420.479 549.816C415.875 543.412 413.017 538.525 412.588 530.04C413.873 520.802 414.791 517.882 420.82 511.724C454.806 485.718 504.487 486.41 543.744 486.313Z" fill="#433D3D"/>
<path d="M598.797 501.006C600.563 501.773 602.33 502.54 604.149 503.33C603.411 515.596 602.255 522.749 595.229 531.214C559.249 559.453 500.199 559.261 459.196 559.824C457.519 559.865 455.841 559.906 454.113 559.948C441.804 559.932 430.327 557.964 420.052 548.541C415.142 540.872 412.63 535.742 412.588 525.55C412.809 522.818 413.029 520.086 413.257 517.272C414.434 516.505 415.612 515.738 416.825 514.948C417.414 517.249 418.002 519.549 418.609 521.919C428.242 530.284 440.661 529.332 451.809 529.308C453.285 529.305 454.761 529.302 456.282 529.299C473.119 529.091 489.748 526.889 506.473 524.533C509.53 524.123 512.587 523.714 515.644 523.308C541.269 519.86 566.632 516.209 591.661 507.977C593.052 507.525 594.444 507.072 595.877 506.606C597.323 506.135 597.323 506.135 598.797 505.653C598.797 504.12 598.797 502.586 598.797 501.006Z" fill="#302C2A"/>
<path d="M617.912 666.835C622.764 672.386 623.014 676.464 623.804 683.505C623.951 684.729 624.097 685.953 624.248 687.214C624.715 691.189 625.135 695.168 625.553 699.148C625.863 701.886 626.176 704.624 626.492 707.362C627.257 714.08 627.983 720.801 628.693 727.525C629.238 732.645 629.815 737.763 630.388 742.881C630.739 746.134 631.087 749.388 631.431 752.642C631.582 754.052 631.732 755.462 631.887 756.915C632.28 760.932 632.586 764.943 632.842 768.97C633.014 771.429 633.014 771.429 633.191 773.938C633.26 775.613 633.329 777.288 633.4 779.014C633.512 781.305 633.512 781.305 633.626 783.643C632.557 789.41 630.255 791.093 625.318 794.75C619.979 796.011 619.979 796.011 613.725 796.581C610.198 796.925 610.198 796.925 606.6 797.275C604.027 797.495 601.455 797.714 598.882 797.933C596.208 798.182 593.535 798.434 590.862 798.688C583.799 799.352 576.734 799.979 569.666 800.599C562.633 801.223 555.604 801.882 548.575 802.538C532.781 804.005 516.98 805.403 501.177 806.781C498.98 806.974 496.784 807.167 494.521 807.366C488.741 807.872 482.961 808.37 477.18 808.863C475.548 809.004 473.916 809.146 472.234 809.292C449.803 811.163 449.803 811.163 443.221 806.352C437.383 799.646 436.991 793.903 436.149 785.511C435.866 782.739 435.866 782.739 435.579 779.912C435.383 777.923 435.187 775.934 434.985 773.884C434.779 771.829 434.572 769.773 434.36 767.655C433.926 763.303 433.494 758.952 433.066 754.6C432.411 747.965 431.742 741.331 431.072 734.697C430.651 730.465 430.231 726.233 429.812 722.001C429.612 720.026 429.412 718.051 429.207 716.016C428.694 710.753 428.238 705.491 427.821 700.222C427.693 698.848 427.566 697.473 427.434 696.057C427.108 690.349 427.358 687.109 430.862 682.293C436.415 678.954 440.263 678.352 446.88 677.718C448.081 677.595 449.283 677.473 450.521 677.346C454.863 676.916 459.21 676.538 463.558 676.16C467.21 675.825 470.861 675.489 474.512 675.153C487.079 674.012 499.653 672.935 512.227 671.863C520.765 671.133 529.303 670.4 537.84 669.661C539.885 669.484 541.929 669.308 544.035 669.126C558.357 667.871 572.64 666.425 586.916 664.793C611.363 662.268 611.363 662.268 617.912 666.835ZM559.486 672.293C554.252 672.764 549.018 673.233 543.784 673.702C540.162 674.027 536.541 674.352 532.92 674.679C519.817 675.856 506.708 676.956 493.594 678.026C488.161 678.476 482.728 678.927 477.295 679.379C473.786 679.667 470.275 679.951 466.765 680.229C461.874 680.618 456.985 681.025 452.097 681.437C450.639 681.548 449.181 681.659 447.679 681.773C439.721 682.283 439.721 682.283 433.464 686.472C431.955 700.587 433.958 715.161 435.389 729.232C435.589 731.25 435.788 733.269 435.994 735.349C436.416 739.574 436.843 743.798 437.275 748.022C437.934 754.503 438.565 760.986 439.195 767.469C439.609 771.588 440.026 775.707 440.444 779.826C440.63 781.765 440.816 783.704 441.008 785.701C441.196 787.492 441.384 789.283 441.578 791.129C441.737 792.704 441.895 794.279 442.059 795.902C442.662 800.357 442.662 800.357 446.63 805.063C461.02 805.991 475.423 804.22 489.744 802.928C492.282 802.704 494.82 802.481 497.358 802.259C504.023 801.673 510.686 801.079 517.35 800.483C525.306 799.772 533.263 799.073 541.22 798.372C547.656 797.805 554.092 797.233 560.526 796.652C571.809 795.637 583.088 794.653 594.389 793.829C596.226 793.689 598.063 793.55 599.955 793.406C603.281 793.157 606.609 792.925 609.939 792.715C615.867 792.261 620.91 791.579 626.356 789.338C630.551 784.439 629.538 780.92 628.896 774.804C628.782 773.618 628.668 772.433 628.551 771.211C628.286 768.524 628.001 765.839 627.701 763.155C627.159 758.305 626.673 753.452 626.193 748.596C625.265 739.354 624.269 730.119 623.245 720.885C622.607 715.088 621.991 709.288 621.376 703.488C620.97 699.792 620.562 696.096 620.153 692.4C619.882 689.807 619.882 689.807 619.606 687.16C619.424 685.563 619.242 683.966 619.055 682.321C618.902 680.919 618.749 679.518 618.591 678.074C617.947 673.942 617.947 673.942 614.032 669.285C595.938 668.039 577.495 670.647 559.486 672.293Z" fill="#623380"/>
<path d="M558.012 663.239C558.971 665.097 558.971 665.097 559.948 666.991C555.214 669.285 551.506 669.441 546.223 669.882C544.167 670.057 542.112 670.233 539.994 670.414C537.763 670.597 535.533 670.781 533.234 670.97C528.535 671.374 523.835 671.779 519.136 672.183C511.709 672.814 504.282 673.44 496.854 674.06C489.698 674.66 482.543 675.276 475.389 675.895C473.174 676.075 470.959 676.255 468.677 676.44C453.915 677.611 453.915 677.611 439.901 681.999C436.778 688.05 438.169 694.538 438.585 701.14C438.678 702.716 438.772 704.292 438.868 705.916C439.956 723.51 441.424 741.073 443.037 758.628C443.538 764.145 444.007 769.663 444.477 775.182C444.8 778.739 445.126 782.296 445.453 785.852C445.586 787.478 445.72 789.104 445.857 790.779C446.805 800.598 448.703 808.301 453.455 817.069C458.429 819.479 462.683 819.564 468.219 820.001C471.132 820.236 471.132 820.236 474.103 820.477C475.596 820.59 477.088 820.704 478.626 820.821C478.626 821.44 478.626 822.059 478.626 822.697C471.698 824.211 465.154 824.928 458.054 825.042C456.231 825.091 454.409 825.139 452.532 825.189C446.687 824.452 445.488 823.289 441.837 818.945C440.596 813.444 439.731 808.222 439.054 802.648C438.827 800.913 438.601 799.178 438.367 797.391C435.909 777.913 433.862 758.385 431.793 738.865C431.53 736.413 431.53 736.413 431.261 733.913C426.152 685.987 426.152 685.987 430.504 677.845C435.41 673.266 438.887 673.12 445.627 672.399C448.054 672.124 450.482 671.849 452.983 671.566C455.722 671.291 458.461 671.017 461.2 670.743C464.184 670.418 467.167 670.09 470.15 669.759C478.208 668.879 486.271 668.055 494.338 667.254C499.334 666.755 504.328 666.24 509.322 665.723C525.59 664.078 541.629 662.634 558.012 663.239Z" fill="#F6F0CA"/>
<path d="M612.632 663.098C616.06 664.134 616.06 664.134 619.945 666.781C623.96 677.826 624.861 689.107 625.957 700.757C626.155 702.775 626.353 704.793 626.557 706.872C626.971 711.131 627.379 715.389 627.782 719.649C628.395 726.115 629.032 732.578 629.671 739.042C630.072 743.196 630.472 747.351 630.87 751.506C631.059 753.415 631.247 755.324 631.442 757.291C634.521 790.329 634.521 790.329 630.31 798.603C622.493 802.747 614.542 803.157 605.827 803.924C603.897 804.117 601.966 804.311 599.978 804.511C595.89 804.916 591.801 805.305 587.71 805.679C581.505 806.248 575.304 806.861 569.104 807.484C565.121 807.872 561.137 808.258 557.153 808.642C555.321 808.82 553.488 808.998 551.6 809.182C539.616 810.27 527.772 810.6 515.742 810.397C516.647 808.574 516.647 808.574 517.57 806.714C522.017 805.897 526.308 805.32 530.796 804.873C532.152 804.725 533.507 804.576 534.904 804.423C539.332 803.943 543.761 803.488 548.191 803.032C551.209 802.707 554.228 802.382 557.246 802.054C570.188 800.663 583.135 799.344 596.101 798.184C597.872 798.025 599.644 797.866 601.469 797.702C604.637 797.427 607.806 797.167 610.977 796.925C617.782 796.351 621.46 795.877 627.257 791.984C627.688 786.521 627.688 786.521 626.964 779.923C626.811 778.004 626.811 778.004 626.654 776.046C626.279 771.535 625.856 767.031 625.429 762.525C625.273 760.801 625.117 759.077 624.956 757.3C623.899 745.614 622.765 733.937 621.587 722.262C620.967 716.091 620.368 709.918 619.77 703.746C619.375 699.798 618.978 695.851 618.581 691.904C618.405 690.07 618.23 688.236 618.049 686.347C617.191 678.041 616.41 670.673 612.632 663.098Z" fill="#5D2D7E"/>
<path d="M620.426 692.566C624.354 699.478 625.05 706.002 625.937 713.949C626.165 715.954 626.165 715.954 626.397 718.001C626.882 722.334 627.345 726.67 627.802 731.007C627.96 732.475 628.117 733.943 628.28 735.455C630.167 753.122 632.017 770.805 633.136 788.547C633.315 790.842 633.315 790.842 633.498 793.183C633.704 797.369 633.704 797.369 633.136 804.043C627.911 809.481 623.523 810.686 616.355 811.462C614.447 811.68 612.54 811.898 610.574 812.122C607.474 812.438 607.474 812.438 604.311 812.76C601.061 813.118 601.061 813.118 597.746 813.483C593.131 813.987 588.515 814.479 583.899 814.96C577.023 815.677 570.151 816.428 563.279 817.186C532.732 820.505 502.174 823.064 471.533 825.186C473.349 821.342 473.349 821.342 478.796 819.419C482.788 818.886 486.789 818.435 490.794 818.027C492.006 817.902 493.217 817.777 494.465 817.647C497.095 817.376 499.726 817.108 502.356 816.842C506.534 816.42 510.712 815.988 514.889 815.555C526.766 814.323 538.645 813.109 550.525 811.898C557.796 811.156 565.066 810.405 572.336 809.648C575.093 809.363 577.85 809.082 580.607 808.805C602.634 807.171 602.634 807.171 624.057 802.121C631.576 786.205 624.469 759.872 622.753 742.487C621.122 725.805 620.02 709.352 620.426 692.566Z" fill="#F5EFCA"/>
<path d="M468.83 503.224C481.824 506.697 493.357 505.747 506.839 503.93C516.114 503.507 522.453 503.239 530.478 506.754C530.478 507.685 530.478 508.617 530.478 509.577C508.814 514.626 486.792 515.507 463.995 515.666C461.134 515.704 461.134 515.704 458.215 515.742C446.262 515.734 437.974 514.596 427.329 510.989C428.404 508.43 428.404 508.43 431.627 505.342C443.966 500.897 455.74 499.329 468.83 503.224Z" fill="#999896"/>
<path d="M620.173 663.098C623.63 666.284 624.572 668.053 625.479 673.224C625.614 675.166 625.749 677.108 625.888 679.109C626.053 681.304 626.217 683.498 626.386 685.759C626.546 688.152 626.705 690.545 626.864 692.938C627.132 696.651 627.407 700.363 627.682 704.075C627.87 706.626 628.055 709.178 628.239 711.73C629.335 726.907 630.754 742.042 632.196 757.178C633.366 770.08 633.789 782.743 633.556 795.718C633.065 795.718 632.574 795.718 632.069 795.718C629.124 764.791 626.18 733.864 623.147 702C622.165 702.584 621.184 703.167 620.173 703.768C619.88 699.312 619.604 694.855 619.337 690.396C619.253 689.15 619.17 687.904 619.084 686.621C618.609 678.457 618.97 671.16 620.173 663.098Z" fill="#D9CFB1"/>
<path d="M618.887 650.243C618.887 654.486 618.887 658.728 618.887 663.1C617.757 661.774 616.627 660.448 615.463 659.082C610.443 654.811 606.64 654.478 599.642 654.461C591.262 654.786 582.945 655.517 574.61 656.301C566.128 656.95 557.472 657.411 548.988 656.671C547.741 655.611 546.495 654.55 545.21 653.457C553.342 652.764 561.475 652.078 569.609 651.397C572.372 651.165 575.135 650.931 577.898 650.695C581.883 650.356 585.87 650.022 589.856 649.69C593.447 649.387 593.447 649.387 597.111 649.078C613.578 647.984 613.578 647.984 618.887 650.243Z" fill="#F8F4CD"/>
<path d="M486.271 663.302C480.423 673.951 473.531 673.075 465.641 674.482C464.049 674.785 462.456 675.089 460.815 675.402C449.602 677.431 438.601 678.274 427.329 677.612C427.329 675.251 427.329 672.89 427.329 670.457C447.153 665.207 466.198 662.274 486.271 663.302Z" fill="#5E2E7E"/>
<path d="M624.79 722.036C625.754 722.036 626.718 722.036 627.711 722.036C628.702 727.254 629.67 732.473 630.633 737.693C630.911 739.159 631.19 740.624 631.477 742.135C632.957 750.222 633.873 758.114 633.554 766.243C630.662 765.703 627.77 765.162 624.79 764.606C623.804 759.899 622.832 755.192 621.868 750.484C621.59 749.161 621.311 747.837 621.024 746.474C619.582 739.376 618.616 732.47 618.947 725.311C620.875 725.311 622.803 725.311 624.79 725.311C624.79 724.23 624.79 723.15 624.79 722.036Z" fill="#673A82"/>
<path d="M442.605 795.716C447.201 796.836 447.201 796.836 448.655 798.907C449.703 801.205 450.75 803.504 451.797 805.802C463.172 806.172 474.547 806.542 486.267 806.923C479.013 810.46 470.767 810.137 460.836 810.451C454.095 810.285 454.095 810.285 446.627 808.113C441.286 803.555 441.704 800.9 442.605 795.716Z" fill="#5A297C"/>
<path d="M449.181 766.245C450.356 766.245 451.531 766.245 452.741 766.245C453.626 770.284 454.431 774.32 455.189 778.363C455.578 780.08 455.578 780.08 455.974 781.832C457.481 790.365 457.481 790.365 451.03 794.183C448.353 794.942 448.353 794.942 445.621 795.716C444.833 791.387 444.099 787.058 443.396 782.726C443.166 781.494 442.937 780.262 442.7 778.993C442.201 775.784 442.105 772.564 442.061 769.348C444.41 768.324 446.76 767.3 449.181 766.245Z" fill="#6F4486"/>
<path d="M467.111 663.341C467.111 665.698 467.111 668.054 467.111 670.482C468.57 671.661 470.029 672.839 471.532 674.053C467.726 674.943 463.922 675.749 460.112 676.508C458.499 676.898 458.499 676.898 456.854 677.296C451.817 678.239 448.669 678.642 444.248 672.338C443.526 670.547 442.804 668.756 442.061 666.912C459.038 662.812 459.038 662.812 467.111 663.341Z" fill="#764C8A"/>
<path d="M606.611 648.365C610.726 648.833 614.823 649.376 618.891 650.002C618.891 654.324 618.891 658.647 618.891 663.1C606.918 655.528 606.918 655.528 604.155 650.002C604.966 649.461 605.776 648.921 606.611 648.365Z" fill="#F3ECC7"/>
<path d="M604.155 663.098C615.41 665.61 615.41 665.61 618.678 667.117C619.088 670.695 618.801 674.25 618.678 677.834C616.761 677.392 614.844 676.95 612.869 676.494C610.752 673.394 608.825 670.264 607.06 667.117C606.101 665.791 605.143 664.465 604.155 663.098Z" fill="#562479"/>
<path d="M618.882 766.245C623.745 766.975 623.745 766.975 628.705 767.719C630.739 770.764 630.739 770.764 631.775 774.442C632.143 775.66 632.51 776.877 632.888 778.132C633.249 779.542 633.249 779.542 633.617 780.981C628.755 780.981 623.892 780.981 618.882 780.981C618.882 776.118 618.882 771.255 618.882 766.245Z" fill="#60327F"/>
<path d="M1059.06 980.737C1061.01 974.208 1064.6 970.007 1069.17 965.018C1095 938.537 1095 938.537 1107.52 905.802C1105.81 897.602 1101.75 890.586 1097.69 883.323C1093.86 875.845 1091.53 867.89 1089.06 859.89C1088.54 858.221 1088.01 856.552 1087.47 854.833C1079.07 827.566 1072.81 800.107 1071.66 771.554C1072.91 771.423 1074.16 771.292 1075.45 771.157C1107.74 767.695 1136.96 762.408 1167.31 750.599C1166.64 747.981 1166.64 747.981 1165.95 745.309C1164.06 737.05 1163.36 728.782 1162.68 720.35C1162.47 717.869 1162.47 717.869 1162.26 715.338C1161.97 711.851 1161.68 708.364 1161.4 704.876C1160.97 699.599 1160.52 694.323 1160.07 689.047C1156.25 643.292 1156.25 643.292 1160.91 628.478C1162.25 628.672 1163.59 628.865 1164.97 629.064C1170.55 629.568 1175.61 629.299 1181.19 628.769C1183.01 628.601 1184.82 628.434 1186.69 628.261C1188.06 628.126 1189.42 627.991 1190.83 627.852C1190.44 626.822 1190.06 625.793 1189.66 624.733C1180.96 597.19 1185.63 564.478 1190.76 536.798C1189.37 536.71 1187.98 536.622 1186.55 536.531C1173.21 535.583 1160.3 533.807 1147.21 531.124C1151.62 525.957 1156.09 524.193 1162.24 521.229C1163.42 520.655 1164.61 520.08 1165.83 519.488C1168.38 518.249 1170.94 517.014 1173.5 515.782C1180.24 512.538 1186.96 509.264 1193.69 505.993C1195.05 505.331 1196.42 504.668 1197.82 503.986C1211.28 497.44 1224.65 490.731 1238 483.976C1240.08 482.922 1242.16 481.869 1244.31 480.784C1249.06 478.378 1253.81 475.969 1258.56 473.557C1258.14 472.204 1257.72 470.852 1257.29 469.459C1255.66 463.495 1255.24 457.72 1254.86 451.564C1256.99 451.958 1256.99 451.958 1259.16 452.36C1261.97 452.877 1261.97 452.877 1264.84 453.406C1266.7 453.747 1268.55 454.089 1270.46 454.442C1273.09 454.916 1273.09 454.916 1275.78 455.401C1277.54 455.786 1277.54 455.786 1279.34 456.179C1286.83 457.013 1294.48 456.236 1301.99 455.717C1313.15 455.24 1319.62 458.501 1328.43 464.899C1354.11 489.116 1361.52 524.537 1363.79 558.081C1364.03 561.106 1364.26 564.13 1364.49 567.155C1365.86 586.161 1366.15 604.767 1364.04 623.749C1363.13 630.389 1363.13 630.389 1363.96 637.628C1365.34 638.142 1366.71 638.655 1368.13 639.184C1369.9 639.865 1371.68 640.547 1373.51 641.248C1375.29 641.92 1377.06 642.592 1378.88 643.285C1383.33 645.311 1383.33 645.311 1385.5 648.847C1400.49 722.018 1347.86 835.342 1308.51 895.901C1292.19 918.796 1292.19 918.796 1280.4 923.194C1271.67 924.084 1266.14 922.087 1258.2 918.781C1256.87 918.262 1255.55 917.743 1254.18 917.208C1250.95 915.935 1247.73 914.62 1244.51 913.297C1242.9 915.288 1242.9 915.288 1241.26 917.32C1212.06 952.588 1173.28 987.88 1126 994.572C1103.83 995.978 1078.87 990.477 1059.06 980.737Z" fill="#F98715"/>
<path d="M1059.73 988.752C1061.65 982.125 1065.21 977.866 1069.73 972.808C1095.33 945.963 1095.33 945.963 1107.7 912.742C1105.98 904.412 1101.93 897.279 1097.89 889.895C1094.08 882.293 1091.75 874.21 1089.28 866.08C1088.76 864.384 1088.23 862.689 1087.69 860.941C1079.3 833.234 1073.04 805.335 1071.83 776.335C1073.07 776.204 1074.32 776.074 1075.6 775.939C1107.65 772.485 1136.65 767.171 1166.77 755.235C1166.09 752.575 1166.09 752.575 1165.41 749.861C1163.51 741.469 1162.8 733.071 1162.11 724.506C1161.9 721.986 1161.9 721.986 1161.68 719.416C1161.38 715.874 1161.09 712.332 1160.81 708.789C1160.37 703.429 1159.92 698.07 1159.46 692.711C1155.58 646.236 1155.58 646.236 1160.18 631.2C1161.51 631.399 1162.84 631.598 1164.2 631.803C1169.75 632.325 1174.78 632.062 1180.31 631.534C1182.11 631.367 1183.91 631.2 1185.77 631.029C1187.13 630.894 1188.48 630.759 1189.88 630.621C1189.5 629.575 1189.11 628.529 1188.71 627.451C1180.02 599.463 1184.6 566.25 1189.64 538.148C1188.26 538.056 1186.88 537.964 1185.45 537.869C1172.21 536.881 1159.39 535.053 1146.39 532.303C1150.76 527.064 1155.2 525.282 1161.29 522.283C1162.47 521.702 1163.64 521.121 1164.85 520.522C1167.39 519.268 1169.92 518.019 1172.46 516.773C1179.15 513.491 1185.82 510.179 1192.49 506.869C1193.84 506.199 1195.19 505.529 1196.59 504.839C1209.93 498.217 1223.2 491.429 1236.44 484.593C1238.5 483.527 1240.57 482.462 1242.7 481.364C1247.41 478.929 1252.12 476.492 1256.83 474.051C1256.41 472.677 1255.99 471.303 1255.56 469.887C1253.93 463.827 1253.51 457.961 1253.11 451.708C1255.23 452.113 1255.23 452.113 1257.39 452.525C1260.18 453.056 1260.18 453.056 1263.03 453.598C1264.87 453.949 1266.71 454.299 1268.61 454.661C1271.23 455.148 1271.23 455.148 1273.89 455.645C1275.64 456.04 1275.64 456.04 1277.43 456.442C1284.87 457.304 1292.46 456.529 1299.92 456.016C1311.31 455.54 1318.28 458.983 1326.84 466.347C1326.71 472.317 1324.95 475.568 1321.17 480.009C1320.26 481.1 1319.34 482.191 1318.39 483.316C1316.92 485.022 1316.92 485.022 1315.41 486.763C1314.4 487.947 1313.4 489.132 1312.37 490.352C1307.25 496.342 1302.03 502.128 1296.46 507.685C1284.04 520.4 1269.78 538.76 1265.53 556.383C1265.66 563.668 1267.8 569.621 1271.12 576.093C1273.64 581.466 1273.3 584.047 1272.02 589.82C1268.9 593.708 1268.9 593.708 1264.88 597.493C1257.94 604.461 1253.37 611.233 1249.04 620.08C1246.98 623.982 1245.05 627.006 1241.9 630.075C1240.07 630.227 1238.24 630.379 1236.36 630.535C1241.24 640.501 1247.04 649.127 1253.63 658.004C1262 669.462 1270.21 681.004 1278.14 692.777C1279.05 694.109 1279.97 695.441 1280.92 696.814C1282.17 698.703 1282.17 698.703 1283.46 700.63C1284.2 701.726 1284.94 702.823 1285.7 703.952C1288.61 710.054 1288.74 714.924 1286.78 721.356C1286.09 722.912 1285.4 724.467 1284.69 726.069C1283.93 727.822 1283.16 729.576 1282.37 731.382C1281.53 733.234 1280.7 735.086 1279.83 736.995C1278.99 738.905 1278.14 740.815 1277.26 742.783C1270.4 758.102 1263.31 773.387 1255.22 788.086C1253.38 791.423 1253.38 791.423 1252.03 795.005C1246.09 808.243 1233.67 811.552 1221.02 816.559C1218.8 817.478 1216.59 818.396 1214.31 819.343C1206.14 822.712 1198 826.058 1189.62 828.842C1189.75 830.191 1189.88 831.54 1190.02 832.93C1190.59 839.101 1191.04 845.275 1191.49 851.455C1191.71 853.577 1191.92 855.7 1192.14 857.886C1193.15 873.319 1193.15 873.319 1189.15 880.142C1185.65 883.911 1182.02 887.049 1177.98 890.212C1176.77 891.259 1175.56 892.307 1174.31 893.386C1170.52 896.647 1166.66 899.788 1162.77 902.919C1159.86 905.287 1156.96 907.657 1154.05 910.028C1152.56 911.245 1151.07 912.463 1149.53 913.717C1141.74 920.102 1134.04 926.586 1126.34 933.079C1124.22 934.859 1124.22 934.859 1122.06 936.676C1119.37 938.949 1116.69 941.239 1114.03 943.55C1111.47 945.705 1108.85 947.774 1106.16 949.744C1100.69 953.962 1096.99 956.996 1095.02 963.819C1094.43 968.938 1094.25 973.888 1094.25 979.042C1094.17 981.673 1094.17 981.673 1094.09 984.357C1093.97 988.653 1093.91 992.941 1093.9 997.239C1084.4 997.133 1077.24 996.569 1068.42 992.631C1066.77 991.91 1065.12 991.188 1063.41 990.444C1062.2 989.886 1060.98 989.328 1059.73 988.752Z" fill="#D66E19"/>
<path d="M1090.03 997.559C1091.19 996.831 1092.35 996.103 1093.55 995.353C1093.3 993.322 1093.06 991.29 1092.81 989.196C1092.6 986.183 1092.43 983.167 1092.28 980.15C1092.19 978.313 1092.09 976.476 1092 974.583C1092.04 966.368 1092.31 959.716 1096.84 952.811C1101.37 948.252 1106.15 944.314 1111.15 940.312C1113.57 938.278 1115.98 936.237 1118.38 934.189C1123.9 929.494 1129.45 924.833 1135.02 920.196C1144.29 912.472 1153.48 904.659 1162.64 896.808C1164.07 895.589 1165.51 894.37 1166.98 893.113C1169.65 890.821 1172.3 888.502 1174.93 886.154C1178.48 883.055 1178.48 883.055 1181.75 880.745C1185.19 878.291 1185.19 878.291 1188.71 872.638C1189.62 864.387 1188.99 856.416 1188.29 848.155C1188.14 845.929 1188 843.703 1187.84 841.409C1187.48 835.926 1187.06 830.451 1186.59 824.975C1194.56 820.85 1202.33 817.454 1210.83 814.658C1231.12 807.58 1245.74 800.967 1255.56 780.498C1257.9 775.269 1260.09 770.016 1262.17 764.667C1264.36 759.05 1266.75 753.561 1269.2 748.061C1273.39 738.609 1277.46 729.11 1281.34 719.516C1282.2 717.486 1282.2 717.486 1283.09 715.415C1285.2 709.171 1283.82 704.366 1281.44 698.459C1277.16 690.795 1272.35 683.561 1267.47 676.298C1266.13 674.276 1264.79 672.255 1263.41 670.172C1255.38 658.112 1247.15 646.435 1237.86 635.367C1235.21 631.499 1235.21 631.499 1234.58 623.897C1237.44 621.68 1240.35 619.535 1243.28 617.433C1246.6 612.461 1246.6 612.461 1249.45 606.875C1253.68 599.241 1257.77 593.333 1264.01 587.368C1267.39 584.123 1267.39 584.123 1269.81 580.786C1269.93 574.827 1269.93 574.827 1267.03 569.537C1262.79 560.472 1261.32 554.998 1263.14 544.984C1270.38 526.061 1283.89 504.958 1299.42 492.219C1297.79 500.626 1295.41 506.924 1291.06 514.186C1289.97 516.07 1288.88 517.954 1287.75 519.895C1285.45 523.809 1283.13 527.71 1280.78 531.596C1273.65 543.301 1273.65 543.301 1273.31 556.629C1275.35 562.055 1277.65 567.087 1280.2 572.27C1281.64 578.547 1281.37 580.992 1278.51 586.761C1274.43 591.884 1274.43 591.884 1268.69 596.427C1259.96 603.669 1255.83 614.087 1251.26 624.425C1250.3 626.325 1250.3 626.325 1249.32 628.263C1247.76 632.313 1247.76 632.313 1249.83 635.827C1250.76 637.002 1251.69 638.176 1252.65 639.386C1253.68 640.731 1254.71 642.075 1255.77 643.46C1256.9 644.893 1258.04 646.327 1259.21 647.803C1268.44 659.98 1277.32 672.262 1285.53 685.202C1286.46 686.604 1287.39 688.006 1288.34 689.451C1293.9 698.342 1296.02 703.906 1293.87 714.647C1291.79 721.238 1289.25 727.557 1286.58 733.91C1285.83 735.715 1285.08 737.52 1284.31 739.38C1278.95 752.104 1273.18 764.576 1267.04 776.912C1266.29 778.44 1265.53 779.967 1264.75 781.541C1262.57 785.808 1260.29 789.991 1257.97 794.171C1257.02 796.065 1257.02 796.065 1256.05 797.998C1248.74 810.763 1236.57 814.623 1223.71 819.859C1221.51 820.803 1219.3 821.747 1217.03 822.72C1200.93 829.525 1200.93 829.525 1194.41 830.066C1194.59 831.373 1194.76 832.679 1194.94 834.025C1195.71 840.001 1196.38 845.984 1197.04 851.973C1197.46 855.056 1197.46 855.056 1197.88 858.2C1199.44 873.158 1199.44 873.158 1196.08 879.997C1193.1 883.758 1190.02 886.886 1186.45 890.046C1185.49 890.949 1184.52 891.852 1183.53 892.782C1180.55 895.459 1177.49 897.984 1174.39 900.497C1171.97 902.495 1169.55 904.494 1167.14 906.496C1165.82 907.58 1164.51 908.664 1163.16 909.781C1154.77 916.764 1146.51 923.899 1138.22 931.008C1134.94 933.827 1131.65 936.644 1128.36 939.459C1126.82 940.791 1125.27 942.123 1123.68 943.496C1120.7 945.991 1117.65 948.404 1114.53 950.72C1106.02 956.88 1106.02 956.88 1101.78 966.386C1101.86 969.487 1101.86 969.487 1101.94 972.651C1102.03 981.267 1101.44 988.477 1099.21 996.796C1096.18 997.048 1093.15 997.3 1090.03 997.559Z" fill="#F6BB08"/>
</svg>
