<svg width="15" height="20" viewBox="0 0 15 20" fill="none" xmlns="http://www.w3.org/2000/svg">
<path d="M11.3315 1.19964C12.7957 2.29536 14.0179 3.79227 14.4455 5.67837C14.9417 8.96497 13.5146 11.8954 11.8323 14.5542C10.5105 16.467 9.07262 18.3393 7.47643 20C4.05889 18.3329 1.41985 12.6379 0.166556 9.11788C-0.157336 7.2546 -0.0502455 5.39742 0.857809 3.73389C3.2648 0.100627 7.67797 -1.15744 11.3315 1.19964ZM5.03584 5.07196C4.33534 5.94616 4.14061 6.60977 4.16526 7.74651C4.3238 8.79782 4.87859 9.575 5.6311 10.2467C6.63355 10.6689 7.35092 10.7679 8.36933 10.4369C9.2836 9.8856 9.92257 9.26551 10.3337 8.23006C10.503 7.22003 10.4058 6.40331 9.91702 5.51587C9.28948 4.57655 8.75251 4.24932 7.69073 3.9939C6.60194 3.88904 5.84954 4.32068 5.03584 5.07196Z" fill="#23AA49"/>
</svg>
