<svg xmlns="http://www.w3.org/2000/svg" width="105" height="100" viewBox="0 0 105 100">
<g>
<path d="M 62.29,76.19 L 63.41,76.46 L 63.95,76.75 L 65.00,77.44 L 65.46,77.96 L 66.54,79.84 L 66.77,81.26 L 66.65,82.04 L 66.23,83.65 L 65.78,84.54 L 64.72,86.35 L 63.95,87.34 L 62.76,88.74 L 62.23,89.22 L 61.73,89.65 L 61.52,89.79 L 61.15,90.00 L 61.04,90.00 L 59.94,89.28 L 59.05,88.19 L 58.60,87.45 L 57.70,85.89 L 57.32,85.04 L 56.62,83.34 L 56.43,82.56 L 56.28,80.66 L 56.50,79.51 L 56.75,79.01 L 57.32,78.06 L 57.71,77.67 L 58.55,76.96 L 59.04,76.71 L 60.06,76.28 L 60.61,76.19 L 61.72,76.10 M 61.50,79.00 L 60.20,79.32 L 59.62,79.82 L 59.48,80.16 L 59.32,80.90 L 59.41,81.32 L 59.73,82.17 L 60.08,82.59 L 60.58,83.17 L 60.78,83.34 L 61.17,83.59 L 61.36,83.59 L 61.75,83.52 L 61.98,83.36 L 62.46,82.96 L 62.78,82.65 L 63.56,81.40 L 63.68,80.58 L 63.55,80.22 L 63.19,79.56 L 62.84,79.34 L 62.04,79.00 M 83.40,67.14 L 84.46,67.42 L 84.94,67.68 L 85.87,68.27 L 86.25,68.68 L 86.95,69.55 L 87.20,70.07 L 87.60,71.18 L 87.67,71.80 L 87.70,73.10 L 87.54,73.81 L 86.94,75.60 L 86.40,76.53 L 85.21,78.33 L 84.57,78.94 L 82.24,81.12 L 80.10,78.40 L 78.24,75.57 L 77.49,73.84 L 77.36,73.05 L 77.26,71.53 L 77.46,70.85 L 78.01,69.54 L 78.54,68.96 L 80.08,67.72 L 81.18,67.23 L 81.74,67.13 L 82.86,67.05 M 41.17,67.22 L 41.69,67.34 L 42.71,67.66 L 43.18,67.93 L 44.08,68.54 L 44.46,68.96 L 45.54,70.84 L 45.77,72.26 L 45.65,73.04 L 45.23,74.65 L 44.78,75.54 L 43.72,77.35 L 42.95,78.34 L 41.75,79.74 L 41.20,80.22 L 40.68,80.65 L 40.47,80.79 L 40.07,81.00 L 39.95,81.00 L 39.42,80.68 L 38.97,80.18 L 38.71,79.82 L 37.61,78.13 L 37.06,77.08 L 36.00,74.93 L 35.62,73.95 L 35.28,73.01 L 35.17,72.61 L 35.00,71.87 L 35.00,71.61 L 35.28,70.14 L 35.72,69.28 L 36.05,68.93 L 36.76,68.26 L 37.18,68.01 L 38.08,67.56 L 38.58,67.42 L 39.60,67.20 L 40.12,67.19 M 82.15,70.40 L 81.85,70.70 L 81.32,71.44 L 81.23,71.94 L 81.18,73.02 L 81.40,73.61 L 81.69,74.32 L 81.81,74.53 L 82.07,74.84 L 82.22,74.84 L 82.56,74.75 L 82.81,74.56 L 83.35,74.07 L 83.74,73.68 L 84.50,72.82 L 84.78,72.33 L 84.82,72.11 L 84.82,71.68 L 84.72,71.47 L 84.44,71.04 L 84.21,70.81 L 82.95,70.22 M 40.50,70.00 L 39.20,70.32 L 38.62,70.82 L 38.48,71.16 L 38.32,71.90 L 38.41,72.32 L 38.73,73.17 L 39.08,73.59 L 39.58,74.17 L 39.78,74.34 L 40.17,74.59 L 40.36,74.59 L 40.75,74.52 L 40.98,74.36 L 41.46,73.96 L 41.78,73.65 L 42.56,72.40 L 42.68,71.58 L 42.55,71.22 L 42.19,70.56 L 41.84,70.34 L 41.04,70.00 M 36.75,50.48 L 37.54,50.84 L 38.59,51.55 L 39.15,52.18 L 39.36,52.56 L 40.00,54.23 L 40.04,55.22 L 39.92,57.27 L 39.57,58.33 L 38.67,60.42 L 37.93,61.37 L 36.73,62.75 L 36.19,63.23 L 35.66,63.66 L 35.44,63.79 L 35.04,64.00 L 34.91,64.00 L 34.29,63.73 L 33.81,63.30 L 33.55,62.99 L 32.45,61.52 L 31.93,60.59 L 30.92,58.64 L 30.57,57.71 L 30.00,55.91 L 30.00,55.27 L 30.73,52.98 L 31.84,51.71 L 32.58,51.28 L 34.17,50.55 L 35.03,50.46 M 64.91,45.54 L 66.24,46.07 L 66.80,46.57 L 67.83,47.73 L 68.19,48.52 L 68.63,49.89 L 68.67,50.79 L 68.55,51.30 L 68.22,52.37 L 67.90,53.04 L 67.14,54.50 L 66.59,55.44 L 65.86,56.66 L 65.53,57.21 L 64.88,58.25 L 64.61,58.66 L 64.11,59.41 L 63.94,59.64 L 63.65,60.00 L 63.61,60.00 L 62.82,59.42 L 62.02,58.54 L 61.57,57.97 L 60.64,56.75 L 60.22,56.11 L 59.41,54.86 L 59.13,54.32 L 58.21,51.87 L 58.02,50.40 L 58.13,49.74 L 58.49,48.47 L 58.87,47.92 L 59.79,46.87 L 60.45,46.44 L 62.74,45.48 L 64.23,45.35 M 35.63,53.00 L 34.36,53.29 L 33.71,53.75 L 33.51,54.08 L 33.19,54.81 L 33.17,55.24 L 33.22,56.14 L 33.41,56.63 L 33.91,57.50 L 34.23,57.67 L 34.92,57.84 L 35.28,57.69 L 35.96,57.24 L 36.24,56.81 L 36.72,55.83 L 36.82,55.17 L 36.67,53.56 L 36.12,53.00 M 63.45,48.00 L 62.29,48.30 L 61.69,48.76 L 61.50,49.09 L 61.19,49.81 L 61.16,50.23 L 61.21,51.09 L 61.38,51.55 L 61.84,52.33 L 62.19,52.57 L 62.95,52.94 L 63.36,52.96 L 64.17,52.89 L 64.51,52.69 L 65.12,52.18 L 65.27,51.75 L 65.47,50.39 L 65.35,49.54 L 65.17,49.19 L 64.76,48.54 L 64.47,48.33 L 63.83,48.00 M 54.67,22.21 L 55.70,22.56 L 56.12,22.82 L 56.88,23.41 L 57.16,23.79 L 57.65,24.60 L 57.79,25.08 L 58.00,26.08 L 57.99,26.64 L 57.91,27.81 L 57.75,28.45 L 57.37,29.76 L 57.07,30.46 L 56.38,31.89 L 55.92,32.63 L 54.74,34.40 L 54.22,35.01 L 53.73,35.56 L 53.53,35.73 L 53.18,36.00 L 53.07,36.00 L 51.92,35.44 L 51.00,34.57 L 50.53,33.96 L 49.58,32.65 L 49.15,31.91 L 48.34,30.38 L 48.04,29.61 L 47.61,26.78 L 47.96,25.05 L 48.40,24.34 L 49.46,23.05 L 50.21,22.64 L 51.84,22.00 L 52.82,22.00 M 19.23,18.44 L 20.50,19.18 L 20.87,19.77 L 21.43,21.12 L 21.44,22.02 L 21.29,23.99 L 20.95,25.21 L 20.24,27.23 L 19.72,28.17 L 19.19,29.08 L 18.91,29.47 L 18.37,30.17 L 18.11,30.40 L 17.01,31.29 L 16.45,31.54 L 16.19,31.47 L 15.66,31.21 L 15.32,30.86 L 14.60,30.03 L 14.09,29.39 L 12.62,27.20 L 11.90,25.78 L 11.67,25.11 L 11.30,23.79 L 11.25,23.18 L 11.22,22.00 L 11.33,21.47 L 11.64,20.47 L 11.91,20.04 L 12.54,19.25 L 12.98,18.95 L 13.92,18.41 L 14.51,18.25 L 15.76,18.00 L 16.50,18.00 M 53.00,25.00 L 51.76,25.47 L 51.18,26.16 L 51.04,26.61 L 50.87,27.55 L 50.97,28.02 L 51.29,28.95 L 51.66,29.32 L 52.20,29.58 L 52.56,29.48 L 53.31,29.14 L 53.67,28.83 L 54.36,28.11 L 54.60,27.68 L 55.00,26.80 L 55.00,26.38 L 54.41,25.40 L 53.55,25.00 M 72.17,15.24 L 72.52,15.39 L 73.14,15.77 L 73.39,16.09 L 73.87,16.81 L 74.10,17.32 L 74.57,18.67 L 74.68,19.53 L 74.64,19.99 L 74.48,20.92 L 74.29,21.47 L 73.85,22.62 L 73.51,23.33 L 72.87,24.65 L 72.58,25.19 L 72.01,26.21 L 71.74,26.60 L 71.22,27.32 L 70.97,27.58 L 70.48,28.01 L 70.23,28.13 L 69.75,28.29 L 69.51,28.27 L 69.02,28.16 L 68.76,28.01 L 67.70,27.16 L 67.08,26.38 L 65.58,24.20 L 64.84,22.82 L 64.60,22.17 L 64.21,20.92 L 64.14,20.34 L 64.09,19.23 L 64.19,18.73 L 64.47,17.78 L 64.74,17.38 L 65.36,16.61 L 65.79,16.31 L 66.73,15.76 L 67.32,15.57 L 68.59,15.25 L 69.35,15.19 L 71.24,15.13 M 16.50,20.50 L 15.32,20.82 L 14.74,21.33 L 14.58,21.68 L 14.35,22.45 L 14.38,22.90 L 14.53,23.82 L 14.78,24.31 L 15.31,24.90 L 15.70,24.96 L 16.52,24.92 L 16.94,24.72 L 17.74,24.20 L 18.03,23.82 L 18.50,22.98 L 18.50,22.49 L 18.00,21.00 L 17.16,20.50 M 70.14,17.02 L 68.88,17.36 L 68.14,17.86 L 67.87,18.19 L 67.39,18.90 L 67.29,19.28 L 67.19,20.04 L 67.32,20.40 L 67.77,21.18 L 68.12,21.45 L 68.88,21.88 L 69.29,21.95 L 70.13,21.99 L 70.51,21.85 L 71.22,21.46 L 71.44,21.09 L 71.65,20.01 L 71.54,19.10 L 71.40,18.65 L 71.06,17.80 L 70.84,17.50 L 70.38,17.01 Z" fill="rgba(38,171,75,1)"/>
<path d="M 69.97,97.63 L 65.20,98.89 L 64.34,99.07 L 62.34,99.36 L 61.31,99.49 L 59.03,99.67 L 56.70,99.83 L 54.25,99.85 L 55.48,99.83 L 58.64,99.53 L 61.76,99.20 L 63.24,98.98 L 66.13,98.51 L 67.43,98.23 L 69.91,97.65 L 70.13,97.58 M 56.44,0.06 L 57.50,0.09 L 59.32,0.21 L 60.17,0.28 L 61.45,0.48 L 62.55,0.89 L 62.68,1.01 L 63.47,1.37 L 63.94,1.56 L 65.27,2.02 L 65.99,2.26 L 67.70,2.76 L 70.49,3.49 L 72.57,4.01 L 76.54,5.50 L 78.49,6.32 L 82.16,8.39 L 83.96,9.50 L 87.30,12.11 L 88.93,13.48 L 91.90,16.59 L 93.33,18.21 L 94.95,20.45 L 94.24,19.56 L 92.24,17.12 L 91.27,16.09 L 89.70,14.44 L 88.78,13.52 L 88.34,13.14 L 86.62,11.79 L 85.56,11.27 L 84.45,10.77 L 83.79,10.53 L 82.38,10.04 L 81.52,9.79 L 79.70,9.27 L 78.59,8.97 L 76.23,8.36 L 74.80,7.99 L 70.23,6.83 L 67.51,6.15 L 66.41,5.88 L 64.40,5.39 L 63.75,5.24 L 63.17,5.10 L 62.98,5.06 L 62.68,5.00 L 62.65,5.00 L 62.38,5.40 L 62.13,6.03 L 61.97,6.49 L 61.66,7.50 L 61.49,8.11 L 61.15,9.38 L 60.98,10.08 L 60.56,12.15 L 60.40,13.35 L 60.37,13.86 L 60.37,14.82 L 60.42,15.21 L 60.57,15.93 L 60.70,16.19 L 60.99,16.65 L 61.20,16.78 L 61.64,16.99 L 61.92,16.99 L 62.51,16.94 L 62.86,16.81 L 63.59,16.49 L 64.01,16.22 L 65.05,15.75 L 65.93,15.47 L 66.42,15.36 L 68.50,15.00 L 69.45,15.00 L 71.22,15.12 L 71.26,15.13 L 71.24,15.13 L 69.35,15.19 L 68.59,15.25 L 67.32,15.57 L 66.73,15.76 L 65.79,16.31 L 65.36,16.61 L 64.74,17.38 L 64.47,17.78 L 64.19,18.73 L 64.09,19.23 L 64.14,20.34 L 64.21,20.92 L 64.60,22.17 L 64.84,22.82 L 65.31,23.69 L 64.29,22.33 L 63.40,21.35 L 62.98,21.01 L 62.15,20.41 L 61.74,20.25 L 60.92,20.00 L 60.51,20.00 L 58.82,20.28 L 58.06,20.78 L 57.85,21.22 L 57.53,22.24 L 57.52,22.99 L 57.59,24.50 L 57.16,23.79 L 56.88,23.41 L 56.12,22.82 L 55.70,22.56 L 54.67,22.21 L 52.82,22.00 L 53.02,22.00 L 54.42,21.91 L 55.11,21.74 L 55.34,21.60 L 55.74,21.27 L 55.85,21.03 L 56.00,20.51 L 56.00,20.17 L 55.76,19.25 L 55.33,18.73 L 54.95,18.50 L 54.10,18.06 L 53.49,17.86 L 52.14,17.45 L 51.26,17.25 L 49.42,16.84 L 48.42,16.66 L 48.01,16.64 L 47.26,16.64 L 46.95,16.73 L 46.38,16.97 L 46.14,17.21 L 45.69,17.76 L 45.49,18.17 L 45.09,19.08 L 44.90,19.70 L 44.50,21.04 L 44.27,21.90 L 43.80,23.73 L 43.52,24.85 L 42.77,28.11 L 42.49,29.68 L 42.47,30.22 L 42.49,31.16 L 42.62,31.46 L 42.93,31.98 L 43.20,32.14 L 44.07,32.54 L 44.68,32.68 L 45.97,32.92 L 46.61,32.96 L 47.85,33.00 L 48.28,32.94 L 49.00,32.76 L 49.00,32.57 L 48.92,32.18 L 48.79,31.75 L 48.70,31.46 L 48.26,30.17 L 48.25,30.17 L 48.34,30.38 L 49.15,31.91 L 49.58,32.65 L 50.53,33.96 L 51.00,34.57 L 51.92,35.44 L 53.07,36.00 L 53.18,36.00 L 53.53,35.73 L 53.73,35.56 L 54.22,35.01 L 54.74,34.40 L 55.92,32.63 L 56.32,31.98 L 55.02,34.52 L 54.26,36.60 L 54.02,37.58 L 53.65,39.47 L 53.65,40.17 L 53.69,40.82 L 53.76,41.05 L 53.94,41.46 L 54.09,41.55 L 54.77,41.83 L 55.50,42.05 L 55.96,42.17 L 58.06,42.66 L 59.23,42.87 L 61.51,43.26 L 62.34,43.36 L 63.10,43.45 L 63.35,43.46 L 63.76,43.47 L 63.80,43.44 L 64.10,42.77 L 64.45,41.81 L 64.68,41.13 L 65.17,39.63 L 65.45,38.74 L 66.04,36.88 L 66.35,35.86 L 68.59,28.50 L 67.61,27.05 L 67.70,27.16 L 68.76,28.01 L 69.02,28.16 L 69.51,28.27 L 69.75,28.29 L 70.23,28.13 L 70.48,28.01 L 70.97,27.58 L 71.22,27.32 L 71.46,26.98 L 70.93,27.86 L 70.14,29.52 L 69.75,30.49 L 68.21,34.66 L 67.69,36.72 L 67.10,39.12 L 66.79,40.45 L 66.68,41.00 L 66.33,42.93 L 66.32,43.63 L 66.42,44.91 L 66.62,45.51 L 67.15,46.72 L 67.48,47.34 L 66.80,46.57 L 66.24,46.07 L 64.91,45.54 L 64.23,45.35 L 62.74,45.48 L 60.45,46.44 L 59.79,46.87 L 58.87,47.92 L 58.49,48.47 L 58.13,49.73 L 58.16,49.19 L 58.34,48.63 L 58.81,47.59 L 59.20,47.20 L 59.83,46.06 L 59.70,45.36 L 59.38,45.07 L 58.58,44.51 L 57.94,44.29 L 56.51,43.92 L 55.58,43.82 L 53.88,43.79 L 53.09,44.12 L 52.76,44.61 L 52.43,45.17 L 52.26,45.55 L 51.93,46.40 L 51.75,46.96 L 51.37,48.16 L 51.15,48.91 L 50.69,50.52 L 50.41,51.50 L 49.43,55.11 L 48.91,57.18 L 48.72,58.07 L 48.39,59.73 L 48.29,60.43 L 48.14,61.74 L 48.14,62.27 L 48.17,63.28 L 48.26,63.68 L 48.47,64.42 L 48.65,64.71 L 49.54,65.68 L 50.25,65.97 L 51.72,66.45 L 52.59,66.63 L 54.36,66.92 L 55.06,66.94 L 56.44,66.80 L 57.15,66.47 L 57.44,66.13 L 58.00,65.31 L 58.27,64.66 L 58.84,63.19 L 59.17,62.14 L 59.92,59.57 L 60.18,58.26 L 60.19,57.74 L 60.15,56.76 L 60.02,56.30 L 59.68,55.40 L 59.40,54.89 L 59.26,54.58 L 59.41,54.86 L 60.22,56.11 L 60.64,56.75 L 61.57,57.97 L 62.02,58.54 L 62.82,59.42 L 62.91,59.48 L 62.87,59.50 L 62.68,59.43 L 62.09,59.67 L 61.64,60.23 L 61.41,60.65 L 60.48,62.70 L 60.09,63.96 L 59.40,66.52 L 59.26,67.60 L 59.17,68.61 L 59.20,68.99 L 59.31,69.66 L 59.46,69.81 L 60.33,70.25 L 61.44,70.68 L 62.20,70.94 L 63.83,71.48 L 64.79,71.78 L 66.77,72.38 L 67.82,72.67 L 70.11,73.32 L 71.05,73.58 L 72.81,74.06 L 73.51,74.23 L 74.79,74.54 L 75.27,74.63 L 76.15,74.77 L 76.45,74.78 L 76.98,74.76 L 77.14,74.69 L 77.40,74.50 L 77.45,74.35 L 77.44,73.58 L 77.28,72.95 L 77.33,72.59 L 77.36,73.05 L 77.49,73.84 L 78.24,75.57 L 80.10,78.40 L 82.24,81.12 L 84.57,78.94 L 85.21,78.33 L 86.40,76.53 L 86.94,75.60 L 87.05,75.28 L 86.73,76.44 L 86.65,77.25 L 86.78,77.51 L 87.14,77.94 L 87.52,78.10 L 88.41,78.37 L 89.10,78.52 L 91.31,79.26 L 92.42,79.87 L 92.59,80.14 L 92.88,80.49 L 93.07,80.54 L 93.48,80.56 L 93.71,80.46 L 94.21,80.17 L 94.42,79.99 L 93.37,81.35 L 92.37,82.60 L 90.76,84.34 L 88.42,83.34 L 86.77,82.68 L 85.83,82.37 L 85.43,82.28 L 83.98,82.08 L 83.45,82.26 L 82.50,82.82 L 82.14,83.42 L 81.47,84.82 L 81.16,85.87 L 80.34,89.09 L 80.15,90.06 L 80.09,90.46 L 80.00,91.19 L 80.00,91.43 L 80.05,92.28 L 80.22,92.44 L 80.69,92.60 L 80.98,92.46 L 78.86,93.73 L 77.46,94.53 L 74.53,95.90 L 73.05,96.55 L 72.84,96.63 L 73.50,96.26 L 74.30,95.82 L 74.69,95.58 L 74.77,95.47 L 74.83,95.24 L 74.70,95.12 L 74.30,94.85 L 73.88,94.68 L 72.88,94.32 L 72.11,94.08 L 70.37,93.56 L 69.18,93.23 L 66.56,92.51 L 64.88,92.05 L 63.13,91.57 L 62.15,91.31 L 60.12,90.76 L 59.00,90.45 L 53.63,88.99 L 50.35,88.10 L 48.98,87.72 L 47.66,87.36 L 47.08,87.20 L 46.00,86.90 L 45.55,86.78 L 44.74,86.55 L 44.45,86.47 L 43.96,86.33 L 43.85,86.30 L 42.97,86.33 L 42.46,86.69 L 42.21,87.07 L 41.71,87.98 L 41.45,88.68 L 40.91,90.25 L 40.60,91.31 L 39.92,93.67 L 39.58,94.96 L 39.45,95.48 L 39.24,96.44 L 39.19,96.81 L 39.12,97.50 L 39.15,97.77 L 39.38,98.61 L 39.73,98.83 L 40.01,98.94 L 38.35,98.58 L 36.73,98.19 L 35.50,97.79 L 35.68,97.79 L 35.83,97.57 L 36.00,97.00 L 36.00,96.53 L 35.54,95.87 L 34.83,95.36 L 34.33,95.08 L 31.95,93.96 L 30.56,93.47 L 27.73,92.57 L 26.58,92.35 L 25.49,92.19 L 25.10,92.19 L 24.41,92.26 L 24.27,92.40 L 24.47,92.81 L 24.66,92.97 L 23.43,92.23 L 20.81,90.41 L 19.53,89.47 L 17.11,87.41 L 15.93,86.36 L 13.82,84.20 L 15.37,85.38 L 16.95,86.29 L 17.92,86.73 L 20.01,87.60 L 21.26,88.03 L 23.93,88.89 L 25.50,89.33 L 27.96,90.00 L 29.11,90.29 L 31.34,90.84 L 32.29,91.05 L 34.05,91.43 L 34.69,91.54 L 35.76,91.69 L 35.96,91.66 L 36.59,91.35 L 37.01,90.93 L 37.21,90.64 L 37.98,89.27 L 38.27,88.42 L 38.78,86.66 L 38.87,85.83 L 38.92,84.24 L 38.72,83.70 L 38.34,83.41 L 37.81,83.15 L 37.42,82.99 L 36.56,82.65 L 36.03,82.46 L 34.90,82.06 L 34.25,81.84 L 31.42,80.92 L 29.77,80.43 L 26.37,79.41 L 24.57,78.91 L 20.97,77.90 L 19.22,77.44 L 15.80,76.55 L 14.29,76.19 L 11.43,75.53 L 10.34,75.33 L 9.32,75.14 L 8.92,75.08 L 8.20,75.00 L 7.97,75.00 L 7.62,75.24 L 7.60,75.62 L 7.68,75.91 L 7.90,76.53 L 7.90,76.53 L 7.11,75.28 L 5.61,72.51 L 4.89,71.11 L 4.52,70.24 L 4.96,70.44 L 5.40,70.62 L 6.36,70.99 L 6.96,71.20 L 8.23,71.64 L 8.97,71.87 L 12.16,72.86 L 14.05,73.39 L 17.98,74.47 L 20.09,75.01 L 24.27,76.06 L 26.18,76.53 L 29.84,77.42 L 31.35,77.78 L 32.80,78.12 L 33.42,78.26 L 34.60,78.53 L 35.06,78.63 L 35.92,78.81 L 36.20,78.86 L 36.69,78.95 L 36.78,78.95 L 37.30,78.82 L 37.45,78.55 L 37.42,78.31 L 37.30,77.76 L 37.14,77.36 L 36.74,76.47 L 36.44,75.88 L 36.36,75.65 L 37.06,77.08 L 37.61,78.13 L 38.71,79.82 L 38.97,80.18 L 39.42,80.68 L 39.95,81.00 L 40.07,81.00 L 40.47,80.79 L 40.68,80.65 L 41.20,80.22 L 41.75,79.74 L 42.95,78.34 L 43.72,77.35 L 44.78,75.54 L 45.08,74.96 L 44.32,76.94 L 43.88,78.21 L 43.73,78.75 L 43.46,79.77 L 43.39,80.19 L 43.29,80.99 L 43.31,81.31 L 43.56,82.46 L 43.95,82.85 L 44.91,83.54 L 45.67,83.81 L 47.84,84.55 L 48.65,84.71 L 50.10,84.88 L 50.64,84.74 L 51.59,84.29 L 51.95,83.81 L 52.61,82.69 L 52.90,81.85 L 53.64,79.13 L 53.93,77.39 L 53.96,76.64 L 53.95,75.22 L 53.83,74.71 L 53.52,73.84 L 53.25,73.68 L 52.71,73.45 L 52.16,73.27 L 51.81,73.17 L 50.25,72.75 L 49.39,72.57 L 47.71,72.31 L 46.91,72.34 L 46.62,72.49 L 46.09,72.88 L 45.86,73.24 L 45.42,74.08 L 45.31,74.37 L 45.65,73.04 L 45.77,72.26 L 45.54,70.84 L 44.46,68.96 L 44.08,68.54 L 43.18,67.93 L 42.71,67.66 L 41.69,67.34 L 41.17,67.22 L 40.12,67.19 L 39.60,67.20 L 38.58,67.42 L 38.08,67.56 L 37.18,68.01 L 36.76,68.26 L 36.05,68.93 L 35.72,69.28 L 35.28,70.14 L 35.27,70.19 L 35.23,69.44 L 34.66,68.74 L 34.15,68.60 L 33.54,68.43 L 32.89,68.25 L 32.45,68.12 L 31.50,67.86 L 30.92,67.71 L 29.72,67.38 L 29.03,67.19 L 26.10,66.39 L 24.41,65.92 L 20.90,64.97 L 19.06,64.47 L 14.81,63.32 L 12.49,62.71 L 11.55,62.47 L 9.80,62.05 L 9.11,61.90 L 7.85,61.66 L 7.36,61.59 L 6.48,61.51 L 6.16,61.53 L 5.56,61.60 L 5.34,61.69 L 4.62,62.17 L 4.31,62.60 L 3.44,64.30 L 3.11,65.58 L 3.07,66.23 L 3.07,66.74 L 2.10,63.72 L 1.66,62.21 L 0.98,59.10 L 0.68,57.54 L 0.30,54.37 L 0.15,52.78 L 0.14,52.54 L 8.25,54.67 L 10.83,55.34 L 11.91,55.60 L 13.93,56.07 L 14.76,56.23 L 16.30,56.49 L 16.91,56.54 L 18.04,56.58 L 18.48,56.52 L 19.29,56.33 L 19.59,56.14 L 20.15,55.70 L 20.36,55.39 L 20.74,54.69 L 20.90,54.24 L 21.19,53.28 L 21.33,52.70 L 21.83,49.88 L 21.89,49.16 L 21.88,48.92 L 21.84,48.50 L 21.78,48.44 L 21.40,48.23 L 20.95,48.04 L 20.63,47.93 L 19.15,47.43 L 18.16,47.12 L 16.02,46.49 L 14.80,46.14 L 12.29,45.45 L 11.01,45.11 L 8.44,44.44 L 7.24,44.14 L 4.91,43.57 L 3.93,43.36 L 2.14,42.97 L 1.54,42.88 L 1.00,42.80 L 0.83,42.79 L 0.64,42.78 L 1.11,39.80 L 1.21,39.31 L 1.13,39.87 L 1.28,40.19 L 1.74,40.73 L 2.26,40.97 L 3.51,41.44 L 4.50,41.78 L 5.75,42.21 L 6.29,42.37 L 7.30,42.66 L 7.73,42.74 L 9.25,42.91 L 9.78,42.72 L 10.71,42.18 L 11.05,41.61 L 11.67,40.26 L 11.95,39.25 L 12.50,37.15 L 12.76,35.97 L 12.83,35.49 L 12.94,34.57 L 12.93,34.20 L 12.86,33.50 L 12.75,33.22 L 12.13,32.24 L 11.49,31.89 L 9.99,31.27 L 8.86,30.96 L 7.28,30.57 L 6.40,30.40 L 6.03,30.38 L 4.74,30.46 L 4.28,30.82 L 3.84,31.23 L 3.65,31.54 L 3.64,31.56 L 3.97,30.68 L 6.16,26.40 L 6.61,25.60 L 6.23,26.43 L 6.14,27.04 L 6.14,28.14 L 6.41,28.52 L 7.12,29.15 L 7.75,29.31 L 9.00,29.62 L 9.53,29.73 L 10.51,29.90 L 10.90,29.93 L 11.63,29.94 L 11.90,29.89 L 12.38,29.74 L 12.53,29.60 L 12.78,29.27 L 12.82,29.04 L 12.85,28.52 L 12.79,28.19 L 12.62,27.47 L 12.46,27.03 L 12.20,26.39 L 12.62,27.20 L 14.09,29.39 L 14.60,30.03 L 15.32,30.86 L 15.66,31.21 L 16.19,31.47 L 16.45,31.54 L 17.01,31.29 L 18.11,30.40 L 18.37,30.17 L 18.91,29.47 L 19.19,29.08 L 19.72,28.17 L 20.24,27.23 L 20.95,25.21 L 21.29,23.99 L 21.44,22.02 L 21.43,21.12 L 21.18,20.54 L 21.30,20.73 L 21.96,21.25 L 23.41,22.13 L 24.33,22.30 L 25.61,22.54 L 26.24,22.64 L 27.42,22.83 L 27.77,22.86 L 28.75,22.49 L 29.38,21.75 L 29.68,21.13 L 30.27,19.72 L 30.56,18.76 L 31.14,16.67 L 31.43,15.37 L 31.71,13.64 L 31.67,12.84 L 31.50,12.55 L 31.05,12.03 L 30.62,11.81 L 29.64,11.37 L 28.90,11.12 L 26.94,10.49 L 25.80,10.19 L 25.31,10.11 L 23.53,9.94 L 22.88,10.12 L 21.72,10.69 L 21.29,11.26 L 20.53,12.62 L 20.22,13.62 L 19.80,16.67 L 20.05,18.52 L 20.31,19.07 L 19.23,18.44 L 16.50,18.00 L 15.76,18.00 L 14.51,18.25 L 13.92,18.41 L 12.98,18.95 L 12.54,19.25 L 12.37,19.46 L 12.59,19.11 L 13.20,18.68 L 14.54,18.00 L 15.36,18.00 L 16.90,17.62 L 17.73,16.98 L 18.03,16.48 L 18.57,15.36 L 18.73,14.62 L 18.98,13.02 L 18.99,12.05 L 18.72,11.70 L 18.30,11.79 L 20.35,10.12 L 22.27,8.66 L 25.42,6.76 L 25.43,6.77 L 26.39,7.18 L 27.72,7.63 L 28.65,7.93 L 30.67,8.56 L 31.87,8.92 L 34.36,9.66 L 35.71,10.04 L 38.39,10.80 L 39.65,11.14 L 42.10,11.78 L 43.14,12.04 L 45.10,12.52 L 45.81,12.67 L 47.03,12.91 L 47.27,12.92 L 48.52,12.56 L 49.25,11.86 L 49.58,11.26 L 50.22,9.86 L 50.53,8.87 L 51.14,6.69 L 51.45,5.26 L 51.63,3.67 L 51.56,2.77 L 51.41,2.39 L 51.06,1.69 L 50.79,1.41 L 50.16,0.91 L 49.73,0.73 L 48.81,0.42 L 48.25,0.34 L 47.11,0.24 L 48.17,0.16 L 53.05,0.03 L 54.23,0.02 M 60.61,76.19 L 60.06,76.28 L 59.04,76.71 L 58.55,76.96 L 57.71,77.67 L 57.32,78.06 L 56.75,79.01 L 56.50,79.51 L 56.28,80.66 L 56.43,82.56 L 56.62,83.34 L 57.32,85.04 L 57.70,85.89 L 58.60,87.45 L 59.05,88.19 L 59.94,89.28 L 61.04,90.00 L 61.15,90.00 L 61.52,89.79 L 61.73,89.65 L 62.23,89.22 L 62.76,88.74 L 63.95,87.34 L 64.72,86.35 L 65.47,85.07 L 64.48,87.39 L 64.31,88.01 L 64.28,88.23 L 64.27,88.61 L 64.34,88.67 L 64.91,88.97 L 65.62,89.25 L 66.11,89.41 L 68.34,90.13 L 69.67,90.49 L 72.28,91.20 L 73.29,91.46 L 74.22,91.69 L 74.56,91.77 L 75.12,91.90 L 75.21,91.91 L 76.12,91.38 L 76.76,90.46 L 77.06,89.77 L 77.66,88.25 L 77.91,87.33 L 78.39,85.39 L 78.56,84.32 L 79.19,80.39 L 74.02,79.19 L 71.66,78.67 L 70.35,78.40 L 69.82,78.30 L 68.84,78.15 L 68.45,78.11 L 67.75,78.07 L 67.49,78.09 L 66.70,78.31 L 66.59,78.61 L 66.53,79.33 L 66.68,79.88 L 66.74,80.87 L 66.73,80.97 L 66.54,79.84 L 65.46,77.96 L 65.00,77.44 L 63.95,76.75 L 63.41,76.46 L 62.29,76.19 L 61.72,76.10 M 84.21,70.81 L 84.44,71.04 L 84.72,71.47 L 84.82,71.68 L 84.82,72.11 L 84.78,72.33 L 84.50,72.82 L 83.74,73.68 L 83.35,74.07 L 82.81,74.56 L 82.56,74.75 L 82.22,74.84 L 82.07,74.84 L 81.81,74.53 L 81.69,74.32 L 81.40,73.61 L 81.18,73.02 L 81.23,71.94 L 81.32,71.44 L 81.85,70.70 L 82.15,70.40 L 82.95,70.22 M 103.46,39.80 L 97.84,44.43 L 95.78,46.14 L 94.66,47.11 L 94.20,47.54 L 92.62,49.20 L 92.05,50.17 L 91.50,51.18 L 91.24,51.78 L 90.73,53.06 L 90.47,53.85 L 89.92,55.54 L 89.61,56.57 L 88.95,58.79 L 88.55,60.14 L 87.58,63.72 L 87.16,65.64 L 87.05,66.40 L 86.92,67.78 L 86.96,68.30 L 87.10,69.22 L 87.27,69.53 L 87.75,71.67 L 87.68,72.34 L 87.67,71.80 L 87.60,71.18 L 87.20,70.07 L 86.95,69.55 L 86.25,68.68 L 85.87,68.27 L 84.94,67.68 L 84.46,67.42 L 83.40,67.14 L 82.86,67.05 L 81.74,67.13 L 81.18,67.23 L 80.08,67.72 L 78.82,68.73 L 78.88,68.65 L 80.10,67.26 L 80.75,66.78 L 82.06,66.00 L 82.63,66.00 L 83.30,65.45 L 83.84,64.58 L 84.15,63.93 L 84.76,62.51 L 85.08,61.63 L 85.71,59.79 L 86.00,58.75 L 87.00,55.37 L 87.60,53.48 L 87.89,52.68 L 88.46,51.18 L 88.76,50.53 L 89.37,49.30 L 89.72,48.75 L 91.25,46.68 L 92.36,45.62 L 93.53,44.55 L 94.24,43.94 L 95.74,42.69 L 96.63,41.97 L 99.11,39.94 L 100.55,38.74 L 101.13,38.25 L 102.17,37.35 L 102.50,37.06 L 102.67,36.89 M 104.38,55.31 L 104.20,56.90 L 103.60,60.03 L 103.27,61.58 L 102.38,64.64 L 101.90,66.15 L 100.72,69.11 L 100.10,70.57 L 100.01,70.73 L 102.35,64.47 L 103.62,59.69 L 104.02,57.30 L 104.50,53.88 M 29.34,36.96 L 28.55,37.24 L 28.21,37.53 L 27.56,38.22 L 27.27,38.73 L 26.69,39.88 L 26.41,40.66 L 25.83,42.34 L 25.51,43.40 L 24.86,45.68 L 24.48,47.06 L 23.57,50.48 L 23.10,52.37 L 22.94,53.15 L 22.66,54.59 L 22.59,55.17 L 22.51,56.24 L 22.55,56.66 L 22.67,57.42 L 22.81,57.71 L 23.13,58.24 L 23.38,58.43 L 24.57,59.07 L 25.50,59.30 L 27.32,59.69 L 27.97,59.71 L 29.12,59.64 L 29.47,59.41 L 30.05,58.81 L 30.15,58.28 L 30.26,57.08 L 30.21,56.54 L 30.57,57.71 L 30.92,58.64 L 31.93,60.59 L 32.45,61.52 L 33.55,62.99 L 33.81,63.30 L 34.29,63.73 L 34.91,64.00 L 35.04,64.00 L 35.44,63.79 L 35.66,63.66 L 36.19,63.23 L 36.73,62.75 L 37.93,61.37 L 38.67,60.42 L 39.37,58.78 L 39.00,60.19 L 38.58,61.17 L 38.35,61.98 L 38.40,62.40 L 38.52,62.57 L 38.84,62.87 L 39.12,62.99 L 39.74,63.20 L 40.17,63.28 L 41.45,63.53 L 41.97,63.61 L 42.95,63.75 L 43.35,63.76 L 44.09,63.76 L 44.39,63.69 L 44.95,63.49 L 45.18,63.31 L 45.61,62.89 L 45.79,62.57 L 46.14,61.88 L 46.31,61.41 L 46.63,60.39 L 46.81,59.75 L 47.17,58.38 L 47.38,57.54 L 48.52,52.56 L 48.79,51.21 L 48.87,50.71 L 49.00,49.84 L 49.00,49.64 L 48.78,49.04 L 48.44,48.62 L 48.18,48.41 L 46.93,47.59 L 46.09,47.23 L 44.29,46.57 L 43.31,46.35 L 41.34,46.00 L 40.42,46.00 L 38.52,46.60 L 37.65,47.48 L 37.45,48.04 L 37.23,49.23 L 37.40,49.82 L 37.94,50.97 L 38.54,51.40 L 38.75,51.73 L 38.59,51.55 L 37.54,50.84 L 36.75,50.48 L 35.03,50.46 L 34.17,50.55 L 33.14,51.02 L 35.15,49.29 L 36.22,47.67 L 36.37,46.89 L 36.93,44.28 L 37.36,42.43 L 37.53,41.74 L 37.74,40.41 L 37.65,39.75 L 37.47,39.49 L 37.00,39.01 L 36.58,38.80 L 35.62,38.37 L 34.93,38.12 L 32.59,37.35 L 31.29,37.00 L 30.76,36.93 L 29.75,36.87 M 36.67,53.56 L 36.82,55.17 L 36.72,55.83 L 36.24,56.81 L 35.96,57.24 L 35.28,57.69 L 34.92,57.84 L 34.23,57.67 L 33.91,57.50 L 33.41,56.63 L 33.22,56.14 L 33.17,55.24 L 33.19,54.81 L 33.51,54.08 L 33.71,53.75 L 34.36,53.29 L 35.63,53.00 L 36.12,53.00 M 30.73,52.98 L 30.13,54.87 L 30.12,54.52 L 30.27,53.64 L 30.47,53.28 L 30.94,52.60 L 31.33,52.28 L 31.38,52.24 M 68.53,49.45 L 68.81,50.44 L 68.75,50.94 L 68.49,51.97 L 68.15,52.67 L 67.77,53.40 L 67.51,53.84 L 67.17,54.45 L 67.90,53.04 L 68.22,52.37 L 68.55,51.30 L 68.67,50.79 L 68.63,49.89 L 68.41,49.20 M 58.93,53.79 L 58.44,52.64 L 58.36,52.27 M 39.52,52.91 L 39.54,53.05 L 39.46,52.83 M 64.47,48.33 L 64.76,48.54 L 65.17,49.19 L 65.35,49.54 L 65.47,50.39 L 65.27,51.75 L 65.12,52.18 L 64.51,52.69 L 64.17,52.89 L 63.36,52.96 L 62.95,52.94 L 62.19,52.57 L 61.84,52.33 L 61.38,51.55 L 61.21,51.09 L 61.16,50.23 L 61.19,49.81 L 61.50,49.09 L 61.69,48.76 L 62.29,48.30 L 63.45,48.00 L 63.83,48.00 M 58.13,51.29 L 58.11,51.18 L 58.10,51.07 M 43.26,34.09 L 42.57,34.17 L 42.29,34.29 L 41.78,34.59 L 41.57,34.82 L 41.17,35.34 L 41.01,35.69 L 40.68,36.46 L 40.53,36.95 L 40.23,37.99 L 40.07,38.62 L 39.34,41.97 L 39.21,42.79 L 39.18,43.06 L 39.16,43.49 L 39.20,43.53 L 39.60,43.72 L 40.10,43.91 L 40.44,44.03 L 42.04,44.55 L 43.00,44.82 L 45.07,45.38 L 45.92,45.55 L 47.49,45.83 L 48.10,45.87 L 49.19,45.87 L 49.56,45.77 L 50.18,45.49 L 50.33,45.25 L 50.55,44.63 L 50.74,43.94 L 50.84,43.49 L 51.27,41.47 L 51.46,40.32 L 51.80,37.88 L 51.78,36.85 L 51.59,36.53 L 51.05,35.97 L 50.53,35.75 L 49.28,35.34 L 48.33,35.07 L 46.20,34.51 L 45.02,34.25 L 44.53,34.17 L 43.63,34.07 M 15.46,38.39 L 14.73,38.47 L 14.47,38.60 L 14.02,38.93 L 13.86,39.20 L 13.11,40.98 L 13.02,42.08 L 13.19,42.57 L 13.65,43.51 L 14.08,43.89 L 15.06,44.60 L 15.75,44.86 L 17.99,45.58 L 18.94,45.71 L 20.71,45.81 L 21.40,45.64 L 22.65,45.16 L 23.06,44.69 L 23.72,43.63 L 23.80,42.88 L 23.83,41.44 L 23.60,40.76 L 23.30,40.50 L 22.55,40.01 L 21.92,39.79 L 20.46,39.35 L 19.40,39.08 L 17.03,38.55 L 15.87,38.38 M 103.74,40.87 L 104.07,42.48 L 104.21,43.60 L 103.62,40.39 M 17.15,31.44 L 16.60,31.68 L 15.65,32.26 L 15.41,32.71 L 15.10,33.72 L 15.20,34.38 L 15.57,35.44 L 16.04,36.03 L 16.42,36.28 L 17.26,36.76 L 17.85,36.98 L 19.15,37.40 L 20.00,37.61 L 21.79,38.04 L 22.42,38.15 L 23.52,38.29 L 23.90,38.24 L 24.54,38.06 L 24.77,37.84 L 25.18,37.32 L 25.38,36.92 L 25.91,35.01 L 25.78,33.92 L 25.47,33.48 L 24.70,32.65 L 24.07,32.34 L 22.66,31.78 L 21.71,31.61 L 18.71,31.30 M 1.53,37.79 L 1.49,37.95 L 1.59,37.46 L 1.78,36.90 M 35.51,13.20 L 34.81,13.24 L 34.57,13.33 L 33.93,14.17 L 33.39,15.32 L 33.08,16.12 L 32.46,17.85 L 32.14,18.87 L 31.51,21.00 L 31.21,22.15 L 30.17,26.25 L 29.62,28.45 L 29.43,29.32 L 29.09,30.92 L 29.01,31.53 L 28.89,32.65 L 28.91,33.06 L 29.02,33.80 L 29.15,34.06 L 29.49,34.54 L 29.74,34.72 L 31.00,35.32 L 32.00,35.67 L 33.50,36.19 L 34.12,36.38 L 35.28,36.71 L 35.76,36.78 L 36.65,36.85 L 37.02,36.76 L 37.71,36.51 L 38.01,36.25 L 38.57,35.61 L 38.83,35.12 L 39.33,34.03 L 39.59,33.30 L 40.11,31.70 L 40.40,30.68 L 41.00,28.50 L 41.36,27.17 L 42.38,23.26 L 42.98,20.88 L 43.22,19.89 L 43.66,18.05 L 43.79,17.42 L 44.00,16.36 L 44.00,16.21 L 43.67,15.69 L 43.16,15.31 L 42.79,15.12 L 41.05,14.35 L 39.98,14.02 L 37.80,13.44 L 36.83,13.30 L 35.90,13.20 M 57.68,28.83 L 57.06,30.79 L 56.49,31.65 L 57.07,30.46 L 57.37,29.76 L 57.68,28.71 M 74.06,17.14 L 74.34,17.67 L 75.47,19.17 L 76.62,20.02 L 77.54,20.45 L 78.53,20.88 L 79.13,21.11 L 80.42,21.57 L 81.20,21.83 L 82.86,22.35 L 83.84,22.65 L 85.91,23.26 L 87.12,23.60 L 90.18,24.48 L 91.56,24.88 L 94.18,25.63 L 95.24,25.93 L 97.16,26.48 L 97.77,26.65 L 98.32,26.81 L 98.49,26.85 L 98.76,26.93 L 98.78,26.93 L 98.85,26.85 L 99.24,27.59 L 100.24,29.63 L 100.93,31.45 L 100.61,31.13 L 100.30,30.91 L 99.60,30.47 L 99.12,30.24 L 98.09,29.79 L 97.41,29.55 L 95.95,29.04 L 95.03,28.75 L 93.06,28.14 L 91.85,27.79 L 89.26,27.04 L 87.71,26.60 L 74.50,22.85 L 72.28,25.72 L 72.58,25.19 L 72.87,24.65 L 73.51,23.33 L 73.85,22.62 L 74.29,21.47 L 74.48,20.92 L 74.64,19.99 L 74.68,19.53 L 74.57,18.67 L 74.10,17.32 L 73.95,16.99 M 22.48,23.44 L 22.22,23.63 L 21.71,24.12 L 21.47,24.54 L 20.97,25.50 L 20.69,26.19 L 19.99,28.03 L 19.80,28.84 L 19.84,29.10 L 20.04,29.55 L 20.30,29.71 L 20.93,30.00 L 21.41,30.15 L 23.30,30.69 L 24.03,30.79 L 25.33,30.88 L 25.81,30.75 L 26.65,30.36 L 26.94,29.98 L 27.44,29.08 L 27.61,28.43 L 27.86,26.61 L 27.71,25.67 L 27.46,25.31 L 26.83,24.62 L 26.31,24.34 L 25.11,23.81 L 24.28,23.55 L 23.10,23.34 M 47.96,25.05 L 47.61,26.78 L 48.04,29.61 L 48.15,29.90 L 47.97,29.43 L 47.58,26.66 L 47.97,24.98 L 48.39,24.36 M 18.00,21.00 L 18.50,22.49 L 18.50,22.98 L 18.03,23.82 L 17.74,24.20 L 16.94,24.72 L 16.52,24.92 L 15.70,24.96 L 15.31,24.90 L 14.78,24.31 L 14.53,23.82 L 14.38,22.90 L 14.35,22.45 L 14.58,21.68 L 14.74,21.33 L 15.32,20.82 L 16.50,20.50 L 17.16,20.50 M 48.40,24.34 L 48.44,24.29 L 48.54,24.17 M 70.84,17.50 L 71.06,17.80 L 71.40,18.65 L 71.54,19.10 L 71.65,20.01 L 71.44,21.09 L 71.22,21.46 L 70.51,21.85 L 70.13,21.99 L 69.29,21.95 L 68.88,21.88 L 68.12,21.45 L 67.77,21.18 L 67.32,20.40 L 67.19,20.04 L 67.29,19.28 L 67.39,18.90 L 67.87,18.19 L 68.14,17.86 L 68.88,17.36 L 70.14,17.02 L 70.38,17.01 M 55.34,3.44 L 54.98,4.11 L 54.78,4.59 L 53.95,6.83 L 53.56,8.15 L 52.85,10.83 L 52.66,11.93 L 52.50,12.95 L 52.48,13.33 L 52.49,13.99 L 52.58,14.12 L 53.20,14.76 L 53.65,14.89 L 54.63,15.04 L 55.13,14.94 L 56.13,14.65 L 56.53,14.37 L 57.23,13.70 L 57.36,13.25 L 58.02,10.68 L 58.35,9.18 L 58.45,8.53 L 58.61,7.29 L 58.64,6.77 L 58.64,5.78 L 58.57,5.37 L 58.41,4.62 L 58.26,4.33 L 57.93,3.79 L 57.70,3.60 L 56.60,3.03 L 55.79,3.02 M 32.56,3.27 L 32.92,3.12 L 34.49,2.66 M 41.07,0.91 L 36.66,2.02 L 39.80,1.11 L 40.59,0.94 L 41.68,0.79 Z" fill="rgba(223,228,233,1)"/>
<path d="M 41.25,99.29 L 40.58,99.17 L 39.73,98.83 L 39.38,98.61 L 39.15,97.77 L 39.12,97.50 L 39.19,96.81 L 39.24,96.44 L 39.45,95.48 L 39.58,94.96 L 39.92,93.67 L 40.60,91.31 L 40.91,90.25 L 41.45,88.68 L 41.71,87.98 L 42.21,87.07 L 42.46,86.69 L 42.97,86.33 L 43.85,86.30 L 43.96,86.33 L 44.45,86.47 L 44.74,86.55 L 45.55,86.78 L 46.00,86.90 L 47.08,87.20 L 47.66,87.36 L 48.98,87.72 L 50.35,88.10 L 53.63,88.99 L 59.00,90.45 L 60.12,90.76 L 62.15,91.31 L 63.13,91.57 L 64.88,92.05 L 66.56,92.51 L 69.18,93.23 L 70.37,93.56 L 72.11,94.08 L 72.88,94.32 L 73.88,94.68 L 74.30,94.85 L 74.70,95.12 L 74.83,95.24 L 74.77,95.47 L 74.69,95.58 L 74.30,95.82 L 73.50,96.26 L 72.83,96.63 L 70.94,97.32 L 69.91,97.65 L 67.43,98.23 L 66.13,98.51 L 63.24,98.98 L 61.76,99.20 L 58.64,99.53 L 55.48,99.83 L 49.21,99.95 L 47.71,99.94 L 44.92,99.77 L 43.58,99.66 M 29.10,95.43 L 28.35,95.09 L 27.04,94.43 L 26.43,94.11 L 25.45,93.53 L 25.01,93.25 L 24.47,92.81 L 24.27,92.40 L 24.41,92.26 L 25.10,92.19 L 25.49,92.19 L 26.58,92.35 L 27.73,92.57 L 30.56,93.47 L 31.95,93.96 L 34.33,95.08 L 34.83,95.36 L 35.54,95.87 L 36.00,96.53 L 36.00,97.00 L 35.83,97.57 L 35.68,97.79 L 34.97,97.79 L 34.74,97.75 L 34.11,97.57 L 33.77,97.45 L 32.89,97.11 L 32.42,96.91 L 31.24,96.40 L 30.61,96.12 M 80.00,91.43 L 80.00,91.19 L 80.09,90.46 L 80.15,90.06 L 80.34,89.09 L 81.16,85.87 L 81.47,84.82 L 82.14,83.42 L 82.50,82.82 L 83.45,82.26 L 83.98,82.08 L 85.43,82.28 L 85.83,82.37 L 86.77,82.68 L 88.42,83.34 L 91.34,84.58 L 86.92,88.14 L 86.16,88.75 L 84.87,89.77 L 84.27,90.24 L 83.27,91.00 L 82.80,91.35 L 82.05,91.86 L 81.71,92.08 L 81.18,92.37 L 80.69,92.60 L 80.22,92.44 L 80.05,92.28 M 25.50,89.33 L 23.93,88.89 L 21.26,88.03 L 20.01,87.60 L 17.92,86.73 L 16.95,86.29 L 15.37,85.38 L 13.48,83.94 L 12.57,83.06 L 10.87,81.07 L 10.06,80.07 L 8.79,78.16 L 8.51,77.71 L 8.09,76.91 L 7.90,76.53 L 7.68,75.91 L 7.60,75.62 L 7.62,75.24 L 7.97,75.00 L 8.20,75.00 L 8.92,75.08 L 9.32,75.14 L 10.34,75.33 L 11.43,75.53 L 14.29,76.19 L 15.80,76.55 L 19.22,77.44 L 20.97,77.90 L 24.57,78.91 L 26.37,79.41 L 29.77,80.43 L 31.42,80.92 L 34.25,81.84 L 34.90,82.06 L 36.03,82.46 L 36.56,82.65 L 37.42,82.99 L 37.81,83.15 L 38.34,83.41 L 38.72,83.70 L 38.92,84.24 L 38.87,85.83 L 38.78,86.66 L 38.27,88.42 L 37.98,89.27 L 37.21,90.64 L 37.01,90.93 L 36.59,91.35 L 35.96,91.66 L 35.76,91.69 L 34.69,91.54 L 34.05,91.43 L 32.29,91.05 L 31.34,90.84 L 29.11,90.29 L 27.96,90.00 M 69.67,90.49 L 68.34,90.13 L 66.11,89.41 L 65.62,89.25 L 64.91,88.97 L 64.34,88.67 L 64.27,88.61 L 64.28,88.23 L 64.31,88.01 L 64.48,87.39 L 65.51,84.98 L 65.97,84.09 L 66.54,82.16 L 66.65,81.69 L 66.74,80.87 L 66.68,79.88 L 66.53,79.33 L 66.59,78.61 L 66.70,78.31 L 67.49,78.09 L 67.75,78.07 L 68.45,78.11 L 68.84,78.15 L 69.82,78.30 L 70.35,78.40 L 71.66,78.67 L 74.02,79.19 L 79.19,80.39 L 78.56,84.32 L 78.39,85.39 L 77.91,87.33 L 77.66,88.25 L 77.06,89.77 L 76.76,90.46 L 76.12,91.38 L 75.21,91.91 L 75.12,91.90 L 74.56,91.77 L 74.22,91.69 L 73.29,91.46 L 72.28,91.20 M 45.67,83.81 L 44.91,83.54 L 43.95,82.85 L 43.56,82.46 L 43.31,81.31 L 43.29,80.99 L 43.39,80.19 L 43.46,79.77 L 43.73,78.75 L 43.88,78.21 L 44.32,76.94 L 45.18,74.70 L 45.42,74.08 L 45.86,73.24 L 46.09,72.88 L 46.62,72.49 L 46.91,72.34 L 47.71,72.31 L 49.39,72.57 L 50.25,72.75 L 51.81,73.17 L 52.16,73.27 L 52.71,73.45 L 53.25,73.68 L 53.52,73.84 L 53.83,74.71 L 53.95,75.22 L 53.96,76.64 L 53.93,77.39 L 53.64,79.13 L 52.90,81.85 L 52.61,82.69 L 51.95,83.81 L 51.59,84.29 L 50.64,84.74 L 50.10,84.88 L 48.65,84.71 L 47.84,84.55 M 60.08,82.59 L 59.73,82.17 L 59.41,81.32 L 59.32,80.90 L 59.48,80.16 L 59.62,79.82 L 60.20,79.32 L 61.50,79.00 L 62.04,79.00 L 62.84,79.34 L 63.19,79.56 L 63.55,80.22 L 63.68,80.58 L 63.56,81.40 L 62.78,82.65 L 62.46,82.96 L 61.98,83.36 L 61.75,83.52 L 61.36,83.59 L 61.17,83.59 L 60.78,83.34 L 60.58,83.17 M 92.59,80.14 L 92.42,79.87 L 91.31,79.26 L 89.10,78.52 L 88.41,78.37 L 87.52,78.10 L 87.14,77.94 L 86.78,77.51 L 86.65,77.25 L 86.73,76.44 L 87.24,74.58 L 87.57,73.50 L 87.75,71.67 L 87.27,69.53 L 87.10,69.22 L 86.96,68.30 L 86.92,67.78 L 87.05,66.40 L 87.16,65.64 L 87.58,63.72 L 88.55,60.14 L 88.95,58.79 L 89.61,56.57 L 89.92,55.54 L 90.47,53.85 L 90.73,53.06 L 91.24,51.78 L 91.50,51.18 L 92.05,50.17 L 92.62,49.20 L 94.20,47.54 L 94.66,47.11 L 95.78,46.14 L 97.84,44.43 L 103.50,39.77 L 104.40,44.59 L 104.55,45.44 L 104.72,47.33 L 104.78,48.31 L 104.75,50.42 L 104.68,52.58 L 104.02,57.30 L 103.62,59.69 L 102.35,64.47 L 99.85,71.18 L 99.04,72.94 L 97.49,75.79 L 97.12,76.44 L 96.41,77.56 L 96.06,78.09 L 95.40,78.95 L 95.08,79.34 L 94.50,79.92 L 94.21,80.17 L 93.71,80.46 L 93.48,80.56 L 93.07,80.54 L 92.88,80.49 M 20.09,75.01 L 17.98,74.47 L 14.05,73.39 L 12.16,72.86 L 8.97,71.87 L 8.23,71.64 L 6.96,71.20 L 6.36,70.99 L 5.40,70.62 L 4.96,70.44 L 4.34,70.15 L 3.86,69.81 L 3.55,69.32 L 3.20,68.14 L 3.07,67.54 L 3.07,66.23 L 3.11,65.58 L 3.44,64.30 L 4.31,62.60 L 4.62,62.17 L 5.34,61.69 L 5.56,61.60 L 6.16,61.53 L 6.48,61.51 L 7.36,61.59 L 7.85,61.66 L 9.11,61.90 L 9.80,62.05 L 11.55,62.47 L 12.49,62.71 L 14.81,63.32 L 19.06,64.47 L 20.90,64.97 L 24.41,65.92 L 26.10,66.39 L 29.03,67.19 L 29.72,67.38 L 30.92,67.71 L 31.50,67.86 L 32.45,68.12 L 32.89,68.25 L 33.54,68.43 L 34.15,68.60 L 34.66,68.74 L 35.23,69.44 L 35.31,70.92 L 35.24,71.17 L 35.25,71.88 L 35.27,72.26 L 35.44,73.14 L 36.44,75.88 L 36.74,76.47 L 37.14,77.36 L 37.30,77.76 L 37.42,78.31 L 37.45,78.55 L 37.30,78.82 L 36.78,78.95 L 36.69,78.95 L 36.20,78.86 L 35.92,78.81 L 35.06,78.63 L 34.60,78.53 L 33.42,78.26 L 32.80,78.12 L 31.35,77.78 L 29.84,77.42 L 26.18,76.53 L 24.27,76.06 M 39.08,73.59 L 38.73,73.17 L 38.41,72.32 L 38.32,71.90 L 38.48,71.16 L 38.62,70.82 L 39.20,70.32 L 40.50,70.00 L 41.04,70.00 L 41.84,70.34 L 42.19,70.56 L 42.55,71.22 L 42.68,71.58 L 42.56,72.40 L 41.78,73.65 L 41.46,73.96 L 40.98,74.36 L 40.75,74.52 L 40.36,74.59 L 40.17,74.59 L 39.78,74.34 L 39.58,74.17 M 67.82,72.67 L 66.77,72.38 L 64.79,71.78 L 63.83,71.48 L 62.20,70.94 L 61.44,70.68 L 60.33,70.25 L 59.46,69.81 L 59.31,69.66 L 59.20,68.99 L 59.17,68.61 L 59.26,67.60 L 59.40,66.52 L 60.09,63.96 L 60.48,62.70 L 61.41,60.65 L 61.64,60.23 L 62.09,59.67 L 62.68,59.43 L 62.87,59.50 L 63.39,59.29 L 63.68,59.13 L 64.35,58.50 L 64.70,58.14 L 65.47,57.16 L 66.64,55.34 L 66.98,54.78 L 67.51,53.84 L 67.77,53.40 L 68.15,52.67 L 68.49,51.97 L 68.75,50.94 L 68.81,50.44 L 68.53,49.45 L 67.57,47.50 L 67.15,46.72 L 66.62,45.51 L 66.42,44.91 L 66.32,43.63 L 66.33,42.93 L 66.68,41.00 L 66.79,40.45 L 67.10,39.12 L 67.69,36.72 L 68.21,34.66 L 69.75,30.49 L 70.14,29.52 L 70.93,27.86 L 72.04,26.03 L 74.50,22.85 L 87.71,26.60 L 89.26,27.04 L 91.85,27.79 L 93.06,28.14 L 95.03,28.75 L 95.95,29.04 L 97.41,29.55 L 98.09,29.79 L 99.12,30.24 L 99.60,30.47 L 100.30,30.91 L 100.61,31.13 L 101.07,31.60 L 101.96,33.33 L 102.25,34.15 L 102.70,35.50 L 102.79,35.79 L 102.92,36.22 L 103.00,36.55 L 103.00,36.58 L 102.50,37.06 L 102.17,37.35 L 101.13,38.25 L 100.55,38.74 L 99.11,39.94 L 96.63,41.97 L 95.74,42.69 L 94.24,43.94 L 93.53,44.55 L 92.36,45.62 L 91.25,46.68 L 89.72,48.75 L 89.37,49.30 L 88.76,50.53 L 88.46,51.18 L 87.89,52.68 L 87.60,53.48 L 87.00,55.37 L 86.00,58.75 L 85.71,59.79 L 85.08,61.63 L 84.76,62.51 L 84.15,63.93 L 83.84,64.58 L 83.30,65.45 L 82.63,66.00 L 82.06,66.00 L 80.75,66.78 L 80.10,67.26 L 78.88,68.65 L 78.32,69.38 L 77.55,70.93 L 77.28,72.95 L 77.44,73.58 L 77.45,74.35 L 77.40,74.50 L 77.14,74.69 L 76.98,74.76 L 76.45,74.78 L 76.15,74.77 L 75.27,74.63 L 74.79,74.54 L 73.51,74.23 L 72.81,74.06 L 71.05,73.58 L 70.11,73.32 M 50.25,65.97 L 49.54,65.68 L 48.65,64.71 L 48.47,64.42 L 48.26,63.68 L 48.17,63.28 L 48.14,62.27 L 48.14,61.74 L 48.29,60.43 L 48.39,59.73 L 48.72,58.07 L 48.91,57.18 L 49.43,55.11 L 50.41,51.50 L 50.69,50.52 L 51.15,48.91 L 51.37,48.16 L 51.75,46.96 L 51.93,46.40 L 52.26,45.55 L 52.43,45.17 L 52.76,44.61 L 53.09,44.12 L 53.88,43.79 L 55.58,43.82 L 56.51,43.92 L 57.94,44.29 L 58.58,44.51 L 59.38,45.07 L 59.70,45.36 L 59.83,46.06 L 59.20,47.20 L 58.81,47.59 L 58.34,48.63 L 58.16,49.19 L 58.09,50.50 L 58.11,51.18 L 58.44,52.64 L 59.40,54.89 L 59.68,55.40 L 60.02,56.30 L 60.15,56.76 L 60.19,57.74 L 60.18,58.26 L 59.92,59.57 L 59.17,62.14 L 58.84,63.19 L 58.27,64.66 L 58.00,65.31 L 57.44,66.13 L 57.15,66.47 L 56.44,66.80 L 55.06,66.94 L 54.36,66.92 L 52.59,66.63 L 51.72,66.45 M 40.17,63.28 L 39.74,63.20 L 39.12,62.99 L 38.84,62.87 L 38.52,62.57 L 38.40,62.40 L 38.35,61.98 L 38.58,61.17 L 39.00,60.19 L 39.54,58.17 L 39.75,57.17 L 39.85,55.29 L 39.84,54.39 L 39.52,52.91 L 38.54,51.40 L 37.94,50.97 L 37.40,49.82 L 37.23,49.23 L 37.45,48.04 L 37.65,47.48 L 38.52,46.60 L 40.42,46.00 L 41.34,46.00 L 43.31,46.35 L 44.29,46.57 L 46.09,47.23 L 46.93,47.59 L 48.18,48.41 L 48.44,48.62 L 48.78,49.04 L 49.00,49.64 L 49.00,49.84 L 48.87,50.71 L 48.79,51.21 L 48.52,52.56 L 47.38,57.54 L 47.17,58.38 L 46.81,59.75 L 46.63,60.39 L 46.31,61.41 L 46.14,61.88 L 45.79,62.57 L 45.61,62.89 L 45.18,63.31 L 44.95,63.49 L 44.39,63.69 L 44.09,63.76 L 43.35,63.76 L 42.95,63.75 L 41.97,63.61 L 41.45,63.53 M 25.50,59.30 L 24.57,59.07 L 23.38,58.43 L 23.13,58.24 L 22.81,57.71 L 22.67,57.42 L 22.55,56.66 L 22.51,56.24 L 22.59,55.17 L 22.66,54.59 L 22.94,53.15 L 23.10,52.37 L 23.57,50.48 L 24.48,47.06 L 24.86,45.68 L 25.51,43.40 L 25.83,42.34 L 26.41,40.66 L 26.69,39.88 L 27.27,38.73 L 27.56,38.22 L 28.21,37.53 L 28.55,37.24 L 29.34,36.96 L 29.75,36.87 L 30.76,36.93 L 31.29,37.00 L 32.59,37.35 L 34.93,38.12 L 35.62,38.37 L 36.58,38.80 L 37.00,39.01 L 37.47,39.49 L 37.65,39.75 L 37.74,40.41 L 37.53,41.74 L 37.36,42.43 L 36.93,44.28 L 36.37,46.89 L 36.22,47.67 L 35.15,49.29 L 32.84,51.27 L 32.22,51.63 L 31.33,52.28 L 30.94,52.60 L 30.47,53.28 L 30.27,53.64 L 30.12,54.52 L 30.17,56.23 L 30.26,57.08 L 30.15,58.28 L 30.05,58.81 L 29.47,59.41 L 29.12,59.64 L 27.97,59.71 L 27.32,59.69 M 8.25,54.67 L 0.01,52.50 L 0.00,47.92 L 0.00,46.66 L 0.15,44.53 L 0.20,44.07 L 0.32,43.38 L 0.52,42.82 L 0.55,42.78 L 0.83,42.79 L 1.00,42.80 L 1.54,42.88 L 2.14,42.97 L 3.93,43.36 L 4.91,43.57 L 7.24,44.14 L 8.44,44.44 L 11.01,45.11 L 12.29,45.45 L 14.80,46.14 L 16.02,46.49 L 18.16,47.12 L 19.15,47.43 L 20.63,47.93 L 20.95,48.04 L 21.40,48.23 L 21.78,48.44 L 21.84,48.50 L 21.88,48.92 L 21.89,49.16 L 21.83,49.88 L 21.33,52.70 L 21.19,53.28 L 20.90,54.24 L 20.74,54.69 L 20.36,55.39 L 20.15,55.70 L 19.59,56.14 L 19.29,56.33 L 18.48,56.52 L 18.04,56.58 L 16.91,56.54 L 16.30,56.49 L 14.76,56.23 L 13.93,56.07 L 11.91,55.60 L 10.83,55.34 M 15.75,44.86 L 15.06,44.60 L 14.08,43.89 L 13.65,43.51 L 13.19,42.57 L 13.02,42.08 L 13.11,40.98 L 13.86,39.20 L 14.02,38.93 L 14.47,38.60 L 14.73,38.47 L 15.46,38.39 L 15.87,38.38 L 17.03,38.55 L 19.40,39.08 L 20.46,39.35 L 21.92,39.79 L 22.55,40.01 L 23.30,40.50 L 23.60,40.76 L 23.83,41.44 L 23.80,42.88 L 23.72,43.63 L 23.06,44.69 L 22.65,45.16 L 21.40,45.64 L 20.71,45.81 L 18.94,45.71 L 17.99,45.58 M 43.00,44.82 L 42.04,44.55 L 40.44,44.03 L 40.10,43.91 L 39.60,43.72 L 39.20,43.53 L 39.16,43.49 L 39.18,43.06 L 39.21,42.79 L 39.34,41.97 L 40.07,38.62 L 40.23,37.99 L 40.53,36.95 L 40.68,36.46 L 41.01,35.69 L 41.17,35.34 L 41.57,34.82 L 41.78,34.59 L 42.29,34.29 L 42.57,34.17 L 43.26,34.09 L 43.63,34.07 L 44.53,34.17 L 45.02,34.25 L 46.20,34.51 L 48.33,35.07 L 49.28,35.34 L 50.53,35.75 L 51.05,35.97 L 51.59,36.53 L 51.78,36.85 L 51.80,37.88 L 51.46,40.32 L 51.27,41.47 L 50.84,43.49 L 50.74,43.94 L 50.55,44.63 L 50.33,45.25 L 50.18,45.49 L 49.56,45.77 L 49.19,45.87 L 48.10,45.87 L 47.49,45.83 L 45.92,45.55 L 45.07,45.38 M 59.23,42.87 L 58.06,42.66 L 55.96,42.17 L 55.50,42.05 L 54.77,41.83 L 54.09,41.55 L 53.94,41.46 L 53.76,41.05 L 53.69,40.82 L 53.65,40.17 L 53.65,39.47 L 54.02,37.58 L 54.26,36.60 L 55.02,34.52 L 56.48,31.67 L 57.06,30.79 L 57.68,28.83 L 57.76,25.73 L 57.59,24.64 L 57.52,22.99 L 57.53,22.24 L 57.85,21.22 L 58.06,20.78 L 58.82,20.28 L 60.51,20.00 L 60.92,20.00 L 61.74,20.25 L 62.15,20.41 L 62.98,21.01 L 63.40,21.35 L 64.29,22.33 L 65.72,24.25 L 68.59,28.50 L 66.35,35.86 L 66.04,36.88 L 65.45,38.74 L 65.17,39.63 L 64.68,41.13 L 64.45,41.81 L 64.10,42.77 L 63.80,43.44 L 63.76,43.47 L 63.35,43.46 L 63.10,43.45 L 62.34,43.36 L 61.51,43.26 M 4.50,41.78 L 3.51,41.44 L 2.26,40.97 L 1.74,40.73 L 1.28,40.19 L 1.13,39.87 L 1.27,38.86 L 1.33,38.55 L 1.53,37.79 L 1.93,36.35 L 2.15,35.56 L 2.54,34.26 L 2.73,33.65 L 3.09,32.67 L 3.27,32.22 L 3.65,31.54 L 3.84,31.23 L 4.28,30.82 L 4.74,30.46 L 6.03,30.38 L 6.40,30.40 L 7.28,30.57 L 8.86,30.96 L 9.99,31.27 L 11.49,31.89 L 12.13,32.24 L 12.75,33.22 L 12.86,33.50 L 12.93,34.20 L 12.94,34.57 L 12.83,35.49 L 12.76,35.97 L 12.50,37.15 L 11.95,39.25 L 11.67,40.26 L 11.05,41.61 L 10.71,42.18 L 9.78,42.72 L 9.25,42.91 L 7.73,42.74 L 7.30,42.66 L 6.29,42.37 L 5.75,42.21 M 20.00,37.61 L 19.15,37.40 L 17.85,36.98 L 17.26,36.76 L 16.42,36.28 L 16.04,36.03 L 15.57,35.44 L 15.20,34.38 L 15.10,33.72 L 15.41,32.71 L 15.65,32.26 L 16.60,31.68 L 17.15,31.44 L 18.71,31.30 L 21.71,31.61 L 22.66,31.78 L 24.07,32.34 L 24.70,32.65 L 25.47,33.48 L 25.78,33.92 L 25.91,35.01 L 25.38,36.92 L 25.18,37.32 L 24.77,37.84 L 24.54,38.06 L 23.90,38.24 L 23.52,38.29 L 22.42,38.15 L 21.79,38.04 M 32.00,35.67 L 31.00,35.32 L 29.74,34.72 L 29.49,34.54 L 29.15,34.06 L 29.02,33.80 L 28.91,33.06 L 28.89,32.65 L 29.01,31.53 L 29.09,30.92 L 29.43,29.32 L 29.62,28.45 L 30.17,26.25 L 31.21,22.15 L 31.51,21.00 L 32.14,18.87 L 32.46,17.85 L 33.08,16.12 L 33.39,15.32 L 33.93,14.17 L 34.57,13.33 L 34.81,13.24 L 35.51,13.20 L 35.90,13.20 L 36.83,13.30 L 37.80,13.44 L 39.98,14.02 L 41.05,14.35 L 42.79,15.12 L 43.16,15.31 L 43.67,15.69 L 44.00,16.21 L 44.00,16.36 L 43.79,17.42 L 43.66,18.05 L 43.22,19.89 L 42.98,20.88 L 42.38,23.26 L 41.36,27.17 L 41.00,28.50 L 40.40,30.68 L 40.11,31.70 L 39.59,33.30 L 39.33,34.03 L 38.83,35.12 L 38.57,35.61 L 38.01,36.25 L 37.71,36.51 L 37.02,36.76 L 36.65,36.85 L 35.76,36.78 L 35.28,36.71 L 34.12,36.38 L 33.50,36.19 M 43.20,32.14 L 42.93,31.98 L 42.62,31.46 L 42.49,31.16 L 42.47,30.22 L 42.49,29.68 L 42.77,28.11 L 43.52,24.85 L 43.80,23.73 L 44.27,21.90 L 44.50,21.04 L 44.90,19.70 L 45.09,19.08 L 45.49,18.17 L 45.69,17.76 L 46.14,17.21 L 46.38,16.97 L 46.95,16.73 L 47.26,16.64 L 48.01,16.64 L 48.42,16.66 L 49.42,16.84 L 51.26,17.25 L 52.14,17.45 L 53.49,17.86 L 54.10,18.06 L 54.95,18.50 L 55.33,18.73 L 55.76,19.25 L 56.00,20.17 L 56.00,20.51 L 55.85,21.03 L 55.74,21.27 L 55.34,21.60 L 55.11,21.74 L 54.42,21.91 L 53.02,22.00 L 52.01,22.00 L 50.33,22.62 L 49.55,23.02 L 48.44,24.29 L 47.97,24.98 L 47.58,26.66 L 47.97,29.43 L 48.26,30.17 L 48.70,31.46 L 48.79,31.75 L 48.92,32.18 L 49.00,32.57 L 49.00,32.76 L 48.28,32.94 L 47.85,33.00 L 46.61,32.96 L 45.97,32.92 L 44.68,32.68 L 44.07,32.54 M 21.41,30.15 L 20.93,30.00 L 20.30,29.71 L 20.04,29.55 L 19.84,29.10 L 19.80,28.84 L 19.99,28.03 L 20.69,26.19 L 20.97,25.50 L 21.47,24.54 L 21.71,24.12 L 22.22,23.63 L 22.48,23.44 L 23.10,23.34 L 24.28,23.55 L 25.11,23.81 L 26.31,24.34 L 26.83,24.62 L 27.46,25.31 L 27.71,25.67 L 27.86,26.61 L 27.61,28.43 L 27.44,29.08 L 26.94,29.98 L 26.65,30.36 L 25.81,30.75 L 25.33,30.88 L 24.03,30.79 L 23.30,30.69 M 7.75,29.31 L 7.12,29.15 L 6.41,28.52 L 6.14,28.14 L 6.14,27.04 L 6.23,26.43 L 6.97,24.80 L 8.90,21.68 L 9.86,20.30 L 12.10,17.58 L 13.23,16.27 L 15.39,14.09 L 15.90,13.60 L 16.82,12.82 L 17.25,12.46 L 17.96,11.99 L 18.28,11.80 L 18.72,11.70 L 18.99,12.05 L 18.98,13.02 L 18.73,14.62 L 18.57,15.36 L 18.03,16.48 L 17.73,16.98 L 16.90,17.62 L 15.36,18.00 L 14.54,18.00 L 13.20,18.68 L 12.59,19.11 L 11.77,20.44 L 11.43,21.16 L 11.25,22.87 L 11.84,25.55 L 12.09,26.10 L 12.46,27.03 L 12.62,27.47 L 12.79,28.19 L 12.85,28.52 L 12.82,29.04 L 12.78,29.27 L 12.53,29.60 L 12.38,29.74 L 11.90,29.89 L 11.63,29.94 L 10.90,29.93 L 10.51,29.90 L 9.53,29.73 L 9.00,29.62 M 51.66,29.32 L 51.29,28.95 L 50.97,28.02 L 50.87,27.55 L 51.04,26.61 L 51.18,26.16 L 51.76,25.47 L 53.00,25.00 L 53.55,25.00 L 54.41,25.40 L 55.00,26.38 L 55.00,26.80 L 54.60,27.68 L 54.36,28.11 L 53.67,28.83 L 53.31,29.14 L 52.56,29.48 L 52.20,29.58 M 87.12,23.60 L 85.91,23.26 L 83.84,22.65 L 82.86,22.35 L 81.20,21.83 L 80.42,21.57 L 79.13,21.11 L 78.53,20.88 L 77.54,20.45 L 76.62,20.02 L 75.47,19.17 L 74.34,17.67 L 74.06,17.14 L 73.49,16.36 L 73.20,16.01 L 72.51,15.54 L 72.14,15.34 L 71.22,15.12 L 69.45,15.00 L 68.50,15.00 L 66.42,15.36 L 65.93,15.47 L 65.05,15.75 L 64.01,16.22 L 63.59,16.49 L 62.86,16.81 L 62.51,16.94 L 61.92,16.99 L 61.64,16.99 L 61.20,16.78 L 60.99,16.65 L 60.70,16.19 L 60.57,15.93 L 60.42,15.21 L 60.37,14.82 L 60.37,13.86 L 60.40,13.35 L 60.56,12.15 L 60.98,10.08 L 61.15,9.38 L 61.49,8.11 L 61.66,7.50 L 61.97,6.49 L 62.13,6.03 L 62.38,5.40 L 62.65,5.00 L 62.68,5.00 L 62.98,5.06 L 63.17,5.10 L 63.75,5.24 L 64.40,5.39 L 66.41,5.88 L 67.51,6.15 L 70.23,6.83 L 74.80,7.99 L 76.23,8.36 L 78.59,8.97 L 79.70,9.27 L 81.52,9.79 L 82.38,10.04 L 83.79,10.53 L 84.45,10.77 L 85.56,11.27 L 86.62,11.79 L 88.34,13.14 L 88.78,13.52 L 89.70,14.44 L 91.27,16.09 L 92.24,17.12 L 94.24,19.56 L 95.22,20.80 L 96.92,23.17 L 97.31,23.72 L 97.95,24.72 L 98.24,25.19 L 98.65,25.94 L 98.83,26.28 L 98.96,26.72 L 98.78,26.93 L 98.76,26.93 L 98.49,26.85 L 98.32,26.81 L 97.77,26.65 L 97.16,26.48 L 95.24,25.93 L 94.18,25.63 L 91.56,24.88 L 90.18,24.48 M 24.33,22.30 L 23.41,22.13 L 21.96,21.25 L 21.30,20.73 L 20.42,19.29 L 20.05,18.52 L 19.80,16.67 L 20.22,13.62 L 20.53,12.62 L 21.29,11.26 L 21.72,10.69 L 22.88,10.12 L 23.53,9.94 L 25.31,10.11 L 25.80,10.19 L 26.94,10.49 L 28.90,11.12 L 29.64,11.37 L 30.62,11.81 L 31.05,12.03 L 31.50,12.55 L 31.67,12.84 L 31.71,13.64 L 31.43,15.37 L 31.14,16.67 L 30.56,18.76 L 30.27,19.72 L 29.68,21.13 L 29.38,21.75 L 28.75,22.49 L 27.77,22.86 L 27.42,22.83 L 26.24,22.64 L 25.61,22.54 M 52.58,14.12 L 52.49,13.99 L 52.48,13.33 L 52.50,12.95 L 52.66,11.93 L 52.85,10.83 L 53.56,8.15 L 53.95,6.83 L 54.78,4.59 L 54.98,4.11 L 55.34,3.44 L 55.79,3.02 L 56.60,3.03 L 57.70,3.60 L 57.93,3.79 L 58.26,4.33 L 58.41,4.62 L 58.57,5.37 L 58.64,5.78 L 58.64,6.77 L 58.61,7.29 L 58.45,8.53 L 58.35,9.18 L 58.02,10.68 L 57.36,13.25 L 57.23,13.70 L 56.53,14.37 L 56.13,14.65 L 55.13,14.94 L 54.63,15.04 L 53.65,14.89 L 53.20,14.76 M 35.71,10.04 L 34.36,9.66 L 31.87,8.92 L 30.67,8.56 L 28.65,7.93 L 27.72,7.63 L 26.39,7.18 L 25.43,6.77 L 25.33,6.66 L 25.61,6.33 L 25.82,6.15 L 26.64,5.68 L 27.11,5.44 L 28.35,4.88 L 29.01,4.60 L 30.57,4.00 L 32.18,3.39 L 35.84,2.23 L 41.07,0.91 L 42.10,0.70 L 43.93,0.44 L 44.80,0.33 L 46.31,0.25 L 47.03,0.23 L 48.25,0.34 L 48.81,0.42 L 49.73,0.73 L 50.16,0.91 L 50.79,1.41 L 51.06,1.69 L 51.41,2.39 L 51.56,2.77 L 51.63,3.67 L 51.45,5.26 L 51.14,6.69 L 50.53,8.87 L 50.22,9.86 L 49.58,11.26 L 49.25,11.86 L 48.52,12.56 L 47.27,12.92 L 47.03,12.91 L 45.81,12.67 L 45.10,12.52 L 43.14,12.04 L 42.10,11.78 L 39.65,11.14 L 38.39,10.80 Z" fill="rgba(244,244,244,1)"/>
</g>
</svg>