<svg width="18" height="20" viewBox="0 0 18 20" fill="none" xmlns="http://www.w3.org/2000/svg">
<path d="M11.0055 0.328732C12.5526 1.03734 13.6899 2.24487 14.3144 3.83956C14.3659 4.69254 14.3659 4.69254 14.3473 5.61969C14.3426 5.92837 14.3378 6.23705 14.3329 6.55509C14.3268 6.79034 14.3207 7.02559 14.3144 7.26797C14.5908 7.25879 14.5908 7.25879 14.8727 7.24942C15.2327 7.24228 15.2327 7.24228 15.6 7.235C15.958 7.22582 15.958 7.22582 16.3232 7.21646C16.9516 7.26797 16.9516 7.26797 17.4791 7.79541C17.546 8.29582 17.546 8.29582 17.5473 8.91212C17.549 9.1427 17.5506 9.37327 17.5524 9.61083C17.5513 9.86028 17.5502 10.1097 17.5491 10.3667C17.5496 10.6223 17.5501 10.8778 17.5506 11.1412C17.551 11.6821 17.55 12.223 17.5478 12.7639C17.545 13.594 17.5478 14.4238 17.5512 15.2539C17.5508 15.7786 17.5501 16.3033 17.5491 16.828C17.5502 17.0774 17.5513 17.3268 17.5524 17.5838C17.5499 17.9297 17.5499 17.9297 17.5473 18.2826C17.5469 18.4859 17.5465 18.6893 17.546 18.8989C17.4791 19.3993 17.4791 19.3993 16.9516 19.9267C16.271 19.9937 16.271 19.9937 15.3991 19.995C15.0735 19.9966 14.7479 19.9983 14.4124 20C14.0556 19.9991 13.6987 19.998 13.3419 19.9968C12.9773 19.9971 12.6127 19.9976 12.2482 19.9983C11.4838 19.9991 10.7194 19.9979 9.95495 19.9955C8.97407 19.9925 7.99327 19.9942 7.0124 19.9974C6.25947 19.9993 5.50656 19.9987 4.75364 19.9973C4.39192 19.9969 4.03021 19.9974 3.6685 19.9986C3.1634 19.9999 2.6583 19.9975 2.1532 19.995C1.86549 19.9945 1.57778 19.9941 1.28136 19.9937C0.600735 19.9267 0.600735 19.9267 0.073287 19.3993C0.0063098 18.8989 0.0063098 18.8989 0.00503818 18.2826C0.00337558 18.052 0.00171298 17.8214 0 17.5838C0.00106768 17.3344 0.00213535 17.085 0.00323538 16.828C0.00273076 16.5724 0.00222614 16.3168 0.00170622 16.0535C0.00134691 15.5126 0.00232285 14.9717 0.0045231 14.4307C0.00734457 13.6007 0.00455122 12.7708 0.00117504 11.9408C0.00152357 11.4161 0.00219933 10.8914 0.00323538 10.3667C0.00216771 10.1173 0.00110003 9.86784 0 9.61083C0.0016626 9.38026 0.0033252 9.14968 0.00503818 8.91212C0.00545781 8.70874 0.00587745 8.50536 0.0063098 8.29582C0.073287 7.79541 0.073287 7.79541 0.600735 7.26797C1.22914 7.21646 1.22914 7.21646 1.95232 7.235C2.31233 7.24214 2.31233 7.24214 2.67962 7.24942C2.86388 7.25554 3.04813 7.26166 3.23797 7.26797C3.22268 7.04495 3.20738 6.82194 3.19162 6.59217C3.11226 4.59685 3.18915 3.24292 4.55659 1.72976C6.41706 0.00542827 8.53843 -0.362667 11.0055 0.328732ZM5.39721 3.59231C4.91469 4.67841 4.91469 4.67841 4.82032 7.26797C7.43118 7.26797 10.042 7.26797 12.732 7.26797C12.5606 4.28931 12.5606 4.28931 10.853 2.29018C8.72534 1.45761 6.90781 1.87336 5.39721 3.59231Z" fill="#23AA49"/>
</svg>
