<svg width="341" height="230" viewBox="0 0 341 230" fill="none" xmlns="http://www.w3.org/2000/svg">
<path d="M170.199 229.89C264.197 229.89 340.398 225.441 340.398 219.953C340.398 214.465 264.197 210.016 170.199 210.016C76.2006 210.016 0 214.465 0 219.953C0 225.441 76.2006 229.89 170.199 229.89Z" fill="#F5F5F5"/>
<path d="M234.244 221.63H184.867L184.173 213.001H234.937L234.244 221.63Z" fill="#23AA49"/>
<path opacity="0.2" d="M234.244 221.63H184.867L184.173 213.001H234.937L234.244 221.63Z" fill="black"/>
<path opacity="0.2" d="M229.846 221.63H184.867L184.173 213.001H230.417L229.846 221.63Z" fill="black"/>
<path d="M215.292 215.836H212.869C211.693 215.836 210.736 217.311 210.736 219.137C210.736 220.963 211.693 222.437 212.869 222.437H215.292C216.468 222.437 217.425 220.963 217.425 219.137C217.425 217.311 216.468 215.836 215.292 215.836Z" fill="#263238"/>
<path opacity="0.2" d="M217.425 219.137C217.425 220.963 216.468 222.437 215.292 222.437C214.116 222.437 213.159 220.963 213.159 219.137C213.159 217.311 214.116 215.836 215.292 215.836C216.468 215.836 217.425 217.311 217.425 219.137Z" fill="white"/>
<path d="M176.343 215.836H173.921C172.744 215.836 171.788 217.311 171.788 219.137C171.788 220.963 172.744 222.437 173.921 222.437H176.343C177.52 222.437 178.468 220.963 178.468 219.137C178.468 217.311 177.476 215.836 176.343 215.836Z" fill="#263238"/>
<path opacity="0.2" d="M178.424 219.137C178.424 220.963 177.476 222.437 176.3 222.437C175.123 222.437 174.166 220.963 174.166 219.137C174.166 217.311 175.123 215.836 176.3 215.836C177.476 215.836 178.424 217.311 178.424 219.137Z" fill="white"/>
<path d="M238.545 89.0802H200.044C199.536 89.1131 199.027 89.0256 198.559 88.8249C198.091 88.6243 197.676 88.316 197.35 87.9252C197.023 87.5344 196.793 87.072 196.679 86.5756C196.564 86.0793 196.569 85.563 196.691 85.0685L205.469 42.2928C205.745 41.1681 206.384 40.1655 207.287 39.4403C208.189 38.7151 209.306 38.3078 210.464 38.2812H248.965C255.373 38.2812 259.542 43.2672 258.278 49.4206L252.415 77.9407C251.177 84.0942 244.953 89.0802 238.545 89.0802Z" fill="#23AA49"/>
<path opacity="0.2" d="M238.545 89.0802H200.044C199.536 89.1131 199.027 89.0256 198.559 88.8249C198.091 88.6243 197.676 88.316 197.35 87.9252C197.023 87.5344 196.793 87.072 196.679 86.5756C196.564 86.0793 196.569 85.563 196.691 85.0685L205.469 42.2928C205.745 41.1681 206.384 40.1655 207.287 39.4403C208.189 38.7151 209.306 38.3078 210.464 38.2812H248.965C255.373 38.2812 259.542 43.2672 258.278 49.4206L252.415 77.9407C251.177 84.0942 244.953 89.0802 238.545 89.0802Z" fill="white"/>
<path d="M241.372 90.5988H192.574C192.066 90.6332 191.557 90.5471 191.089 90.3475C190.621 90.1479 190.206 89.8405 189.879 89.4502C189.553 89.06 189.322 88.598 189.208 88.102C189.094 87.606 189.098 87.09 189.221 86.596L198.657 40.7654C198.935 39.6423 199.574 38.6417 200.477 37.9182C201.38 37.1948 202.495 36.7886 203.652 36.7626H252.45C252.958 36.7282 253.466 36.8143 253.935 37.0139C254.403 37.2135 254.817 37.5209 255.144 37.9111C255.471 38.3014 255.701 38.7633 255.816 39.2594C255.93 39.7554 255.926 40.2714 255.803 40.7654L246.375 86.596C246.097 87.7205 245.457 88.7222 244.552 89.4458C243.648 90.1694 242.53 90.5747 241.372 90.5988Z" fill="#23AA49"/>
<path opacity="0.2" d="M254.179 40.7654L253.301 45.0228L244.742 86.596C244.573 87.284 244.183 87.8972 243.631 88.3414C243.079 88.7855 242.396 89.0358 241.688 89.0538H192.899C192.587 89.0736 192.275 89.0199 191.988 88.897C191.701 88.7741 191.447 88.5854 191.246 88.3462C191.046 88.107 190.904 87.824 190.833 87.52C190.761 87.216 190.763 86.8995 190.836 86.596L200.273 40.7654C200.444 40.0777 200.837 39.4653 201.39 39.0227C201.944 38.5802 202.628 38.3319 203.336 38.3164H252.134C252.444 38.2941 252.756 38.346 253.043 38.4679C253.33 38.5897 253.584 38.778 253.783 39.0172C253.983 39.2564 254.123 39.5397 254.192 39.8436C254.261 40.1476 254.256 40.4635 254.179 40.7654Z" fill="black"/>
<path opacity="0.2" d="M254.179 40.7654L253.301 45.0228C237.5 44.7156 207.655 44.2767 206.918 45.2159C205.961 46.4887 192.873 89.0538 192.873 89.0538C192.561 89.0736 192.249 89.0199 191.962 88.897C191.675 88.7741 191.421 88.5854 191.22 88.3462C191.019 88.107 190.878 87.824 190.806 87.52C190.735 87.216 190.736 86.8994 190.81 86.596L200.246 40.7654C200.417 40.0777 200.81 39.4653 201.364 39.0227C201.917 38.5801 202.601 38.3319 203.31 38.3163H252.107C252.42 38.2896 252.735 38.3382 253.025 38.4582C253.316 38.5781 253.573 38.7658 253.776 39.0056C253.979 39.2454 254.121 39.5304 254.191 39.8365C254.261 40.1427 254.257 40.4612 254.179 40.7654Z" fill="black"/>
<path d="M242.996 93.3376L238.87 213.062C238.833 214.168 238.368 215.217 237.571 215.985C236.775 216.754 235.71 217.182 234.604 217.179H171.63C170.524 217.182 169.46 216.753 168.665 215.985C167.87 215.216 167.406 214.168 167.372 213.062L163.255 93.3376H242.996Z" fill="#23AA49"/>
<path opacity="0.2" d="M242.996 93.3376L238.87 213.062C238.833 214.168 238.368 215.217 237.571 215.985C236.775 216.754 235.71 217.182 234.604 217.179H220.102C218.997 217.18 217.935 216.751 217.14 215.982C216.346 215.214 215.881 214.167 215.845 213.062L211.728 93.3376H242.996Z" fill="black"/>
<path d="M180.311 146.884L183.506 141.354L184.34 141.854L183.252 137.597L178.977 138.685L179.925 139.247L176.703 144.821C176.228 145.647 175.977 146.584 175.978 147.537C175.978 148.49 176.23 149.426 176.706 150.251C177.183 151.077 177.868 151.762 178.694 152.239C179.519 152.715 180.455 152.967 181.408 152.967H185.552V148.824H181.373C181.15 148.818 180.932 148.753 180.741 148.636C180.55 148.519 180.394 148.355 180.286 148.158C180.179 147.962 180.125 147.741 180.129 147.518C180.133 147.294 180.196 147.076 180.311 146.884Z" fill="white"/>
<path d="M189.159 132.839C189.386 132.839 189.609 132.899 189.805 133.013C190 133.127 190.163 133.291 190.274 133.489L193.742 139.484L192.864 139.976L197.112 141.117L198.254 136.868L197.297 137.421L193.9 131.435C193.424 130.609 192.739 129.923 191.914 129.446C191.088 128.969 190.152 128.718 189.199 128.718C188.246 128.718 187.31 128.969 186.484 129.446C185.659 129.923 184.974 130.609 184.498 131.435L182.119 135.551L185.683 137.658L188.089 133.506C188.194 133.312 188.348 133.148 188.536 133.031C188.723 132.914 188.938 132.848 189.159 132.839Z" fill="white"/>
<path d="M201.589 144.821L199.535 141.257L195.927 143.294L198.008 146.893C198.12 147.089 198.179 147.312 198.178 147.538C198.177 147.765 198.117 147.987 198.003 148.183C197.889 148.378 197.726 148.54 197.53 148.653C197.333 148.766 197.111 148.825 196.884 148.824H190.511V147.841L187.404 150.948L190.511 154.056V152.967H196.884C197.837 152.967 198.773 152.715 199.599 152.239C200.424 151.762 201.11 151.077 201.586 150.251C202.063 149.426 202.314 148.49 202.315 147.537C202.315 146.584 202.065 145.647 201.589 144.821Z" fill="white"/>
<path d="M243.329 90.116H163.431C162.674 90.116 162.061 90.7291 162.061 91.4854V98.78C162.061 99.5363 162.674 100.149 163.431 100.149H243.329C244.085 100.149 244.698 99.5363 244.698 98.78V91.4854C244.698 90.7291 244.085 90.116 243.329 90.116Z" fill="#23AA49"/>
<path opacity="0.2" d="M212.623 90.116H163.431C162.674 90.116 162.061 90.7291 162.061 91.4854V98.78C162.061 99.5363 162.674 100.149 163.431 100.149H212.623C213.38 100.149 213.993 99.5363 213.993 98.78V91.4854C213.993 90.7291 213.38 90.116 212.623 90.116Z" fill="white"/>
<path d="M82.6898 121.34L83.5676 118.627L78.8275 117.109L77.9497 119.812C77.8356 120.174 77.647 120.508 77.396 120.792C77.145 121.076 76.8372 121.305 76.4925 121.463C76.147 121.619 75.8381 121.845 75.5856 122.128C75.3331 122.411 75.1426 122.743 75.0265 123.104L70.0318 138.668C69.9753 138.85 69.9557 139.043 69.9742 139.233C69.9927 139.423 70.049 139.608 70.1397 139.776C70.2304 139.945 70.3538 140.093 70.5025 140.213C70.6513 140.333 70.8225 140.423 71.0062 140.476L76.3959 142.232C76.5763 142.29 76.7665 142.313 76.9556 142.298C77.1448 142.283 77.3291 142.231 77.4979 142.144C77.6668 142.058 77.8169 141.939 77.9396 141.794C78.0623 141.649 78.1552 141.482 78.213 141.301L83.2077 125.738C83.3203 125.376 83.3574 124.996 83.3166 124.62C83.2758 124.244 83.1581 123.88 82.9707 123.552C82.7704 123.224 82.6417 122.857 82.5933 122.476C82.5449 122.095 82.5778 121.707 82.6898 121.34Z" fill="#23AA49"/>
<path opacity="0.2" d="M82.6898 121.34L83.5676 118.627L78.8275 117.109L77.9497 119.812C77.8356 120.174 77.647 120.508 77.396 120.792C77.145 121.076 76.8372 121.305 76.4925 121.463C76.147 121.619 75.8381 121.845 75.5856 122.128C75.3331 122.411 75.1426 122.743 75.0265 123.104L70.0318 138.668C69.9753 138.85 69.9557 139.043 69.9742 139.233C69.9927 139.423 70.049 139.608 70.1397 139.776C70.2304 139.945 70.3538 140.093 70.5025 140.213C70.6513 140.333 70.8225 140.423 71.0062 140.476L76.3959 142.232C76.5763 142.29 76.7665 142.313 76.9556 142.298C77.1448 142.283 77.3291 142.231 77.4979 142.144C77.6668 142.058 77.8169 141.939 77.9396 141.794C78.0623 141.649 78.1552 141.482 78.213 141.301L83.2077 125.738C83.3203 125.376 83.3574 124.996 83.3166 124.62C83.2758 124.244 83.1581 123.88 82.9707 123.552C82.7704 123.224 82.6417 122.857 82.5933 122.476C82.5449 122.095 82.5778 121.707 82.6898 121.34Z" fill="black"/>
<path opacity="0.5" d="M81.9612 129.451L83.1638 125.711C83.2764 125.35 83.3135 124.97 83.2727 124.594C83.2319 124.218 83.1142 123.854 82.9268 123.525C82.7374 123.198 82.6186 122.834 82.5777 122.458C82.5369 122.081 82.5751 121.701 82.6898 121.34L83.5676 118.627L78.8274 117.109L77.9496 119.812C77.8356 120.174 77.647 120.508 77.396 120.792C77.145 121.076 76.8372 121.305 76.4925 121.463C76.147 121.619 75.838 121.845 75.5855 122.128C75.333 122.411 75.1426 122.743 75.0265 123.104L73.8239 126.844L81.9612 129.451Z" fill="white"/>
<path opacity="0.6" d="M72.0771 132.286L70.0318 138.668C69.9753 138.85 69.9557 139.043 69.9742 139.233C69.9927 139.423 70.049 139.608 70.1397 139.776C70.2304 139.945 70.3538 140.093 70.5025 140.213C70.6513 140.333 70.8225 140.423 71.0062 140.476L76.3959 142.232C76.5763 142.29 76.7665 142.313 76.9556 142.298C77.1448 142.283 77.3291 142.231 77.4979 142.144C77.6668 142.058 77.8169 141.939 77.9396 141.794C78.0623 141.649 78.1552 141.482 78.213 141.301L80.2583 134.919L72.0771 132.286Z" fill="white"/>
<path d="M83.8025 117.879L79.0965 116.37C78.8518 116.292 78.5899 116.427 78.5114 116.671L78.112 117.917C78.0336 118.161 78.1683 118.423 78.413 118.502L83.119 120.011C83.3637 120.089 83.6256 119.955 83.7041 119.71L84.1035 118.465C84.182 118.22 84.0472 117.958 83.8025 117.879Z" fill="#23AA49"/>
<path d="M66.7311 125.817L67.6089 123.104L62.8688 121.586L61.991 124.289C61.8768 124.65 61.6881 124.982 61.4371 125.265C61.186 125.548 60.8782 125.775 60.5338 125.931C60.188 126.086 59.8788 126.313 59.6262 126.596C59.3737 126.878 59.1834 127.211 59.0678 127.572L54.0731 143.136C53.9571 143.499 53.99 143.893 54.1644 144.232C54.3389 144.571 54.6406 144.827 55.0036 144.944L60.3933 146.7C60.5737 146.758 60.7639 146.781 60.9531 146.766C61.1422 146.751 61.3265 146.699 61.4953 146.612C61.6642 146.526 61.8143 146.407 61.937 146.262C62.0597 146.117 62.1526 145.95 62.2104 145.769L67.2051 130.206C67.3177 129.845 67.3548 129.464 67.314 129.088C67.2732 128.712 67.1555 128.348 66.9681 128.02C66.7763 127.69 66.656 127.323 66.6152 126.943C66.5744 126.564 66.6139 126.18 66.7311 125.817Z" fill="#23AA49"/>
<path opacity="0.2" d="M66.7311 125.817L67.6089 123.104L62.8688 121.586L61.991 124.289C61.8768 124.65 61.6881 124.982 61.4371 125.265C61.186 125.548 60.8782 125.775 60.5338 125.931C60.188 126.086 59.8788 126.313 59.6262 126.596C59.3737 126.878 59.1834 127.211 59.0678 127.572L54.0731 143.136C53.9571 143.499 53.99 143.893 54.1644 144.232C54.3389 144.571 54.6406 144.827 55.0036 144.944L60.3933 146.7C60.5737 146.758 60.7639 146.781 60.9531 146.766C61.1422 146.751 61.3265 146.699 61.4953 146.612C61.6642 146.526 61.8143 146.407 61.937 146.262C62.0597 146.117 62.1526 145.95 62.2104 145.769L67.2051 130.206C67.3177 129.845 67.3548 129.464 67.314 129.088C67.2732 128.712 67.1555 128.348 66.9681 128.02C66.7763 127.69 66.656 127.323 66.6152 126.943C66.5744 126.564 66.6139 126.18 66.7311 125.817Z" fill="black"/>
<path opacity="0.5" d="M66.0025 133.901L67.1964 130.162C67.3124 129.802 67.352 129.421 67.3127 129.045C67.2734 128.668 67.1561 128.304 66.9681 127.976C66.7788 127.648 66.6599 127.284 66.6191 126.908C66.5782 126.532 66.6164 126.151 66.7311 125.79L67.6089 123.078L62.8688 121.559L61.9909 124.263C61.8768 124.623 61.6881 124.956 61.4371 125.239C61.186 125.522 60.8782 125.748 60.5338 125.904C60.1856 126.063 59.875 126.294 59.6223 126.581C59.3697 126.869 59.1807 127.207 59.0678 127.572L57.8389 131.294L66.0025 133.901Z" fill="white"/>
<path opacity="0.6" d="M56.0833 136.737L54.038 143.118C53.9794 143.298 53.957 143.488 53.9721 143.676C53.9872 143.865 54.0395 144.048 54.1261 144.216C54.2126 144.385 54.3316 144.534 54.4762 144.656C54.6208 144.778 54.7881 144.87 54.9685 144.927L60.3582 146.682C60.5386 146.741 60.7288 146.763 60.918 146.748C61.1071 146.733 61.2914 146.681 61.4602 146.595C61.6291 146.508 61.7792 146.389 61.9019 146.245C62.0246 146.1 62.1175 145.932 62.1753 145.752L64.2206 139.37L56.0833 136.737Z" fill="white"/>
<path d="M67.8466 122.318L63.1406 120.809C62.8959 120.731 62.634 120.866 62.5555 121.11L62.1561 122.356C62.0776 122.6 62.2124 122.862 62.4571 122.941L67.1631 124.45C67.4078 124.528 67.6697 124.394 67.7482 124.149L68.1476 122.903C68.226 122.659 68.0913 122.397 67.8466 122.318Z" fill="#23AA49"/>
<path d="M71.4889 117.969L71.3045 115.134L66.3361 115.441L66.5205 118.285C66.5436 118.662 66.4876 119.039 66.3561 119.393C66.2245 119.747 66.0204 120.069 65.7568 120.339C65.4916 120.61 65.2865 120.934 65.1549 121.289C65.0233 121.644 64.9681 122.024 64.9931 122.402L66.4151 145.172C66.44 145.554 66.6145 145.909 66.9005 146.163C67.1866 146.416 67.5611 146.546 67.9425 146.524L73.5956 146.164C73.7844 146.153 73.9692 146.105 74.1391 146.022C74.3091 145.939 74.4609 145.823 74.5858 145.681C74.7107 145.539 74.8062 145.373 74.8668 145.194C74.9273 145.015 74.9518 144.826 74.9387 144.637L73.5166 121.875C73.4904 121.497 73.3864 121.127 73.2112 120.79C73.036 120.454 72.7934 120.157 72.4984 119.918C72.2024 119.682 71.9595 119.387 71.7855 119.051C71.6116 118.715 71.5105 118.347 71.4889 117.969Z" fill="#23AA49"/>
<path opacity="0.6" d="M73.9643 129.021L73.5166 121.875C73.4904 121.497 73.3864 121.127 73.2112 120.79C73.036 120.454 72.7934 120.157 72.4984 119.918C72.2024 119.682 71.9595 119.387 71.7855 119.051C71.6116 118.715 71.5105 118.347 71.4889 117.969L71.3045 115.134L66.3361 115.441L66.5205 118.285C66.5436 118.662 66.4876 119.039 66.3561 119.393C66.2245 119.747 66.0204 120.069 65.7568 120.339C65.4916 120.61 65.2865 120.934 65.1549 121.289C65.0233 121.644 64.9681 122.024 64.9931 122.402L65.4408 129.556L73.9643 129.021Z" fill="white"/>
<path opacity="0.6" d="M65.9938 138.483L66.4152 145.172C66.44 145.554 66.6145 145.909 66.9005 146.163C67.1866 146.416 67.5611 146.546 67.9425 146.524L73.5957 146.164C73.7845 146.153 73.9692 146.105 74.1392 146.022C74.3091 145.939 74.4609 145.823 74.5858 145.681C74.7107 145.539 74.8062 145.373 74.8668 145.194C74.9273 145.015 74.9518 144.826 74.9387 144.637L74.5174 137.948L65.9938 138.483Z" fill="white"/>
<path d="M71.2358 114.357L66.3033 114.666C66.0469 114.682 65.852 114.903 65.868 115.159L65.9497 116.465C65.9658 116.721 66.1866 116.916 66.4431 116.9L71.3755 116.591C71.632 116.575 71.8269 116.355 71.8108 116.098L71.7291 114.793C71.7131 114.536 71.4922 114.341 71.2358 114.357Z" fill="#23AA49"/>
<path d="M54.4243 126.694L52.5809 124.526L48.7887 127.748L50.6321 129.916C50.8754 130.205 51.0562 130.542 51.1635 130.904C51.2707 131.267 51.302 131.648 51.2554 132.023C51.2036 132.399 51.2324 132.783 51.3399 133.147C51.4473 133.512 51.6309 133.85 51.8786 134.138L66.6171 151.554C66.864 151.845 67.2162 152.026 67.5964 152.057C67.9766 152.088 68.3537 151.967 68.6448 151.721L72.9549 148.052C73.0999 147.93 73.2193 147.781 73.3063 147.613C73.3932 147.445 73.446 147.261 73.4615 147.072C73.477 146.884 73.4549 146.694 73.3966 146.514C73.3383 146.334 73.2448 146.167 73.1217 146.024L58.3569 128.634C58.1136 128.345 57.8119 128.11 57.4715 127.945C57.1311 127.78 56.7598 127.689 56.3818 127.678C56.0049 127.66 55.6358 127.563 55.2986 127.394C54.9614 127.224 54.6635 126.986 54.4243 126.694Z" fill="#23AA49"/>
<path opacity="0.6" d="M63.018 134.094L58.3832 128.634C58.1399 128.345 57.8382 128.11 57.4978 127.945C57.1575 127.78 56.7861 127.689 56.4081 127.678C56.0287 127.667 55.6559 127.576 55.314 127.411C54.9721 127.246 54.6689 127.011 54.4243 126.721L52.5809 124.553L48.7887 127.774L50.6321 129.942C50.8754 130.232 51.0562 130.568 51.1635 130.931C51.2707 131.293 51.302 131.674 51.2554 132.049C51.2041 132.425 51.2323 132.808 51.3382 133.172C51.444 133.536 51.6251 133.875 51.8698 134.165L56.5135 139.625L63.018 134.094Z" fill="white"/>
<path opacity="0.6" d="M62.2982 146.445L66.6873 151.554C66.9342 151.845 67.2865 152.026 67.6667 152.057C68.0469 152.088 68.4239 151.967 68.715 151.721L73.0251 148.052C73.1701 147.93 73.2895 147.781 73.3765 147.613C73.4634 147.445 73.5162 147.261 73.5317 147.072C73.5472 146.884 73.5252 146.694 73.4668 146.514C73.4085 146.334 73.3151 146.167 73.1919 146.024L68.8555 140.915L62.2982 146.445Z" fill="white"/>
<path d="M52.0484 123.98L48.2809 127.178C48.0851 127.344 48.0611 127.638 48.2274 127.834L49.0738 128.831C49.2401 129.027 49.5337 129.051 49.7296 128.884L53.4971 125.686C53.693 125.52 53.717 125.226 53.5507 125.03L52.7042 124.033C52.5379 123.837 52.2443 123.813 52.0484 123.98Z" fill="#23AA49"/>
<path d="M72.1999 222.437C72.1999 222.437 115.494 220.822 120.269 220.822C125.044 220.822 121.34 216.916 121.34 216.916C121.34 216.916 122.121 203.556 121.34 198.482C120.559 193.408 107.04 157.339 97.8232 148.824C88.6062 140.309 88.7028 137.105 88.7028 137.105C88.7028 137.105 90.16 137.421 90.16 134.691C90.16 132.242 80.2933 128.274 73.1743 127.739C68.399 127.388 57.2771 131.443 51.8435 131.786C46.4098 132.128 32.3122 150.22 34.375 153.582C35.0685 154.732 46.9453 151.098 46.9453 151.098C46.5903 156.715 45.7711 162.294 44.4962 167.776C42.5738 175.132 37.7809 187.895 37.7809 195.093C37.7809 202.291 43.8554 216.723 43.8554 216.723C43.8554 216.723 41.2922 218.478 41.2922 219.892C41.2922 221.305 49.2891 220.699 49.2891 220.699C49.2891 220.699 64.5279 222.437 72.1999 222.437Z" fill="#263238"/>
<path opacity="0.5" d="M120.26 220.822C115.494 220.822 72.1999 222.437 72.1999 222.437C64.5366 222.437 49.2891 220.682 49.2891 220.682C49.2891 220.682 41.301 221.322 41.301 219.874C41.301 218.426 43.8554 216.705 43.8554 216.705C43.8554 216.705 41.7662 211.754 40.0457 206.171C38.8256 202.248 37.781 198.017 37.781 195.041C37.781 187.843 42.5738 175.062 44.4874 167.723C45.7671 162.241 46.5892 156.663 46.9453 151.045C43.4883 152.127 39.971 153.006 36.4116 153.678C35.3231 153.819 34.5418 153.81 34.3838 153.547C32.321 150.15 46.4186 132.093 51.8523 131.751C57.2859 131.408 68.4078 127.362 73.1919 127.713C80.2934 128.231 90.16 132.198 90.16 134.656C90.16 137.386 88.7116 137.07 88.7116 137.07C88.7116 137.07 88.615 140.274 97.832 148.789C107.049 157.304 120.567 193.329 121.349 198.447C121.524 199.824 121.627 201.21 121.656 202.599C121.831 208.612 121.349 216.916 121.349 216.916C121.349 216.916 125.035 220.822 120.26 220.822Z" fill="white"/>
<path opacity="0.2" d="M54.6876 140.669C51.3695 142.635 46.9453 151.062 46.9453 151.062C43.4883 152.144 39.9711 153.024 36.4116 153.696C41.0201 146.507 51.3695 141.977 54.6876 140.669Z" fill="black"/>
<path opacity="0.2" d="M55.7146 140.283C55.6268 140.283 55.2669 140.432 54.6875 140.669C54.999 140.47 55.3489 140.338 55.7146 140.283Z" fill="black"/>
<path opacity="0.2" d="M88.7027 137.07C88.7027 137.07 78.8098 132.391 74.9123 131.751C71.0148 131.11 56.7416 136.017 56.7416 136.017C56.7416 136.017 70.0756 128.345 74.9123 129.407C79.749 130.469 87.3158 133.945 88.7027 137.07Z" fill="black"/>
<path opacity="0.2" d="M120.26 220.822C115.494 220.822 72.2 222.437 72.2 222.437C64.5367 222.437 49.2891 220.682 49.2891 220.682C49.2891 220.682 41.301 221.322 41.301 219.874C41.301 218.426 43.8554 216.705 43.8554 216.705C43.8554 216.705 41.7663 211.754 40.0457 206.171C48.5868 211.184 60.7621 216.793 72.7267 216.995C72.7267 216.995 56.6364 210.069 53.1778 202.318C53.1778 202.318 76.2994 214.607 82.1456 214.914C87.9918 215.222 111.684 217.504 113.817 214.239C115.151 212.193 118.943 206.514 121.612 202.555C121.788 208.568 121.305 216.872 121.305 216.872C121.305 216.872 125.035 220.822 120.26 220.822Z" fill="black"/>
<path d="M130.399 206.716L134.718 206.786C139.107 186.192 142.197 160.71 144.128 141.494C144.426 138.475 144.707 135.631 144.944 132.971C145.058 131.698 145.172 130.487 145.269 129.319C145.787 123.534 146.147 118.952 146.358 116.152C146.516 114.08 146.595 112.948 146.595 112.948H131.005L131.154 116.916L131.637 130.021L131.681 131.522L132.014 140.178L132.55 154.907C127.186 175.624 130.399 206.716 130.399 206.716Z" fill="#EBB376"/>
<path d="M95.4357 205.61L99.6843 206.408C108.182 185.165 116.17 157.962 121.357 138.957C122.156 136.017 122.902 133.26 123.561 130.759C123.561 130.636 123.622 130.513 123.657 130.39C124.965 125.43 125.975 121.48 126.607 118.978L127.353 115.941L111.991 113.308L111.113 119.768L109.832 129.258L109.63 131.083L108.752 137.544L106.417 154.89C97.5863 174.43 95.4357 205.61 95.4357 205.61Z" fill="#EBB376"/>
<path opacity="0.2" d="M109.841 129.231L123.561 130.759C123.561 130.636 123.622 130.513 123.657 130.39C124.965 125.43 125.975 121.48 126.607 118.978L111.122 119.751L109.841 129.231Z" fill="black"/>
<path opacity="0.2" d="M131.154 116.889L131.637 129.995L131.68 131.496L144.944 132.971C145.058 131.698 145.172 130.487 145.269 129.319C145.787 123.534 146.147 118.952 146.357 116.152L131.154 116.889Z" fill="black"/>
<path d="M143.136 221.024C142.336 220.372 141.423 219.875 140.441 219.558C140.441 219.558 137.5 216.644 136.052 207.874L132.207 206.874C131.553 206.712 130.865 206.755 130.236 206.999C129.608 207.242 129.07 207.674 128.696 208.234C128.588 208.39 128.505 208.562 128.45 208.743C128.251 209.684 128.113 210.637 128.038 211.596C127.824 214.811 127.806 218.035 127.985 221.252H128.678L128.959 215.204C129.056 213.15 130.627 215.555 131.075 217.767C131.522 219.979 132.479 222.332 136.982 222.437C142.284 222.516 144.461 222.314 143.136 221.024Z" fill="#263238"/>
<path d="M128.617 208.331C128.362 206.286 128.283 202.713 128.283 202.713L136.824 203.661C136.824 203.661 135.789 207.716 136.64 210.762C132.339 209.612 128.617 208.331 128.617 208.331Z" fill="#263238"/>
<path d="M108.383 221.024C107.581 220.372 106.664 219.875 105.68 219.558C105.68 219.558 102.748 216.644 101.335 207.874L97.4898 206.874C96.8356 206.712 96.1474 206.755 95.519 206.999C94.8906 207.242 94.3526 207.674 93.9785 208.234C93.8705 208.39 93.7876 208.562 93.7327 208.743C93.5333 209.684 93.3955 210.637 93.3202 211.596C93.1061 214.811 93.0885 218.035 93.2675 221.252H93.961L94.2331 215.204C94.3384 213.15 95.9097 215.555 96.3574 217.767C96.8051 219.979 97.7619 222.332 102.265 222.437C107.532 222.516 109.709 222.314 108.383 221.024Z" fill="#263238"/>
<path d="M93.8293 208.331C93.5835 206.286 93.5045 202.713 93.5045 202.713L102.046 203.661C102.046 203.661 101.01 207.716 101.861 210.762C97.5863 209.612 93.8293 208.331 93.8293 208.331Z" fill="#263238"/>
<path d="M108.357 125L124.605 127.081L125.237 127.151L128.573 114.905L129.451 128.029L146.867 127.151C154.626 81.6275 141.363 70.8744 141.363 70.8744L117.741 75.6233C107.049 93.7765 109.63 114.905 109.63 114.905L108.357 125Z" fill="#23AA49"/>
<path opacity="0.5" d="M108.357 125L124.605 127.081L125.237 127.151L128.573 114.905L129.451 128.029L146.867 127.151C154.626 81.6275 141.363 70.8744 141.363 70.8744L117.741 75.6233C107.049 93.7765 109.63 114.905 109.63 114.905L108.357 125Z" fill="white"/>
<path opacity="0.2" d="M124.605 127.081L125.237 127.151L128.573 114.905C128.573 114.905 121.41 102.669 123.648 96.2958C123.332 96.7435 115.617 108.19 124.605 127.081Z" fill="black"/>
<path d="M85.9291 42.4245L86.8069 39.7121L82.0667 38.1934L81.1889 40.8971C81.0748 41.2576 80.886 41.5901 80.635 41.8729C80.3839 42.1557 80.0762 42.3826 79.7317 42.5386C79.3868 42.6978 79.0786 42.9266 78.8263 43.2106C78.5741 43.4946 78.3832 43.8276 78.2658 44.1889L73.271 59.7525C73.1551 60.1157 73.1879 60.51 73.3623 60.849C73.5368 61.188 73.8386 61.444 74.2015 61.5608L79.5913 63.3164C79.7717 63.3752 79.9619 63.3977 80.151 63.3827C80.3401 63.3677 80.5244 63.3154 80.6933 63.2289C80.8621 63.1425 81.0122 63.0235 81.1349 62.8788C81.2577 62.7341 81.3506 62.5666 81.4083 62.3859L86.3767 46.8135C86.4914 46.4528 86.5296 46.072 86.4888 45.6957C86.448 45.3193 86.3291 44.9556 86.1397 44.6278C85.9522 44.2958 85.8366 43.9281 85.8003 43.5485C85.764 43.169 85.8079 42.786 85.9291 42.4245Z" fill="#23AA49"/>
<path opacity="0.2" d="M85.9291 42.4245L86.8069 39.7121L82.0667 38.1934L81.1889 40.8971C81.0748 41.2576 80.886 41.5901 80.635 41.8729C80.3839 42.1557 80.0762 42.3826 79.7317 42.5386C79.3868 42.6978 79.0786 42.9266 78.8263 43.2106C78.5741 43.4946 78.3832 43.8276 78.2658 44.1889L73.271 59.7525C73.1551 60.1157 73.1879 60.51 73.3623 60.849C73.5368 61.188 73.8386 61.444 74.2015 61.5608L79.5913 63.3164C79.7717 63.3752 79.9619 63.3977 80.151 63.3827C80.3401 63.3677 80.5244 63.3154 80.6933 63.2289C80.8621 63.1425 81.0122 63.0235 81.1349 62.8788C81.2577 62.7341 81.3506 62.5666 81.4083 62.3859L86.3767 46.8135C86.4914 46.4528 86.5296 46.072 86.4888 45.6957C86.448 45.3193 86.3291 44.9556 86.1397 44.6278C85.9522 44.2958 85.8366 43.9281 85.8003 43.5485C85.764 43.169 85.8079 42.786 85.9291 42.4245Z" fill="black"/>
<path opacity="0.5" d="M85.1741 50.5706L86.3767 46.8311C86.4914 46.4703 86.5296 46.0896 86.4888 45.7132C86.448 45.3369 86.3291 44.9732 86.1397 44.6454C85.9497 44.3111 85.8327 43.9403 85.7963 43.5575C85.76 43.1747 85.8053 42.7885 85.929 42.4245L86.8069 39.7121L82.0667 38.1934L81.1889 40.8971C81.0747 41.2576 80.886 41.5901 80.635 41.8729C80.3839 42.1557 80.0762 42.3826 79.7317 42.5386C79.3859 42.6965 79.0769 42.9248 78.8245 43.209C78.5721 43.4932 78.3817 43.8269 78.2658 44.1889L77.0631 47.9284L85.1741 50.5706Z" fill="white"/>
<path opacity="0.6" d="M75.2899 53.4059L73.2446 59.7876C73.1287 60.1508 73.1615 60.5451 73.336 60.8841C73.5104 61.2231 73.8122 61.4791 74.1751 61.5959L79.5649 63.3515C79.7453 63.4103 79.9355 63.4328 80.1246 63.4178C80.3137 63.4028 80.498 63.3505 80.6669 63.264C80.8357 63.1776 80.9858 63.0586 81.1085 62.9139C81.2313 62.7692 81.3242 62.6017 81.3819 62.421L83.4272 56.0393L75.2899 53.4059Z" fill="white"/>
<path d="M87.0111 38.9991L82.3051 37.49C82.0604 37.4115 81.7985 37.5462 81.72 37.7909L81.3206 39.0364C81.2422 39.281 81.3769 39.543 81.6216 39.6215L86.3276 41.1306C86.5723 41.209 86.8342 41.0743 86.9127 40.8296L87.3121 39.5842C87.3905 39.3395 87.2558 39.0775 87.0111 38.9991Z" fill="#23AA49"/>
<path d="M171.665 15.0456L171.489 12.2015L166.521 12.5175L166.696 15.3528C166.72 15.7309 166.664 16.1096 166.532 16.4648C166.401 16.8201 166.197 17.1439 165.933 17.4157C165.669 17.6877 165.465 18.0116 165.334 18.3668C165.202 18.7219 165.146 19.1005 165.169 19.4785L166.591 42.249C166.616 42.6295 166.791 42.9846 167.077 43.2364C167.363 43.4882 167.738 43.6161 168.118 43.592L173.772 43.2409C174.152 43.2161 174.507 43.0413 174.759 42.7549C175.011 42.4686 175.139 42.094 175.115 41.7135L173.71 18.9431C173.689 18.5655 173.587 18.1967 173.414 17.8609C173.24 17.5251 172.997 17.2298 172.701 16.9943C172.397 16.7638 172.148 16.4701 171.969 16.1337C171.79 15.7972 171.686 15.426 171.665 15.0456Z" fill="#23AA49"/>
<path opacity="0.6" d="M174.14 26.0884L173.693 18.9431C173.671 18.5655 173.57 18.1967 173.396 17.8609C173.222 17.5251 172.979 17.2298 172.683 16.9943C172.383 16.762 172.137 16.4677 171.961 16.1313C171.785 15.795 171.684 15.4246 171.665 15.0456L171.489 12.2015L166.521 12.5175L166.696 15.3528C166.72 15.7309 166.664 16.1096 166.532 16.4648C166.401 16.8201 166.197 17.1439 165.933 17.4157C165.669 17.6877 165.465 18.0116 165.334 18.3668C165.202 18.7219 165.146 19.1005 165.169 19.4785L165.617 26.6239L174.14 26.0884Z" fill="white"/>
<path opacity="0.6" d="M166.179 35.56L166.591 42.249C166.616 42.6295 166.791 42.9846 167.077 43.2364C167.363 43.4882 167.738 43.6161 168.119 43.592L173.772 43.2409C174.152 43.2161 174.507 43.0413 174.759 42.7549C175.011 42.4686 175.139 42.094 175.115 41.7135L174.702 35.0246L166.179 35.56Z" fill="white"/>
<path d="M171.426 11.4272L166.493 11.7358C166.237 11.7519 166.042 11.9727 166.058 12.2292L166.14 13.5346C166.156 13.791 166.377 13.9859 166.633 13.9699L171.566 13.6613C171.822 13.6452 172.017 13.4243 172.001 13.1679L171.919 11.8625C171.903 11.6061 171.682 11.4112 171.426 11.4272Z" fill="#23AA49"/>
<path d="M83.752 55.8813C83.7033 55.0042 83.7033 54.125 83.752 53.2479C83.8398 52.0804 77.9321 45.6548 76.9753 45.9884C76.0185 46.322 73.9381 50.4389 74.5789 51.8171C75.2197 53.1952 79.8458 57.3473 80.9694 57.6721C82.093 57.9969 83.752 55.8813 83.752 55.8813Z" fill="#EBB376"/>
<path d="M104.6 47.3666C104.6 47.3666 101.967 60.6215 99.105 63.2901C96.2433 65.9586 83.1112 52.3789 83.1112 52.3789L80.5305 55.144C80.5305 55.144 93.4606 72.2086 100.395 69.2943C107.33 66.38 112.851 50.9129 112.851 50.9129L104.6 47.3666Z" fill="#EBB376"/>
<path d="M105.943 41.9329L101.536 52.177L111.394 58.9273L118.224 52.177L105.943 41.9329Z" fill="#23AA49"/>
<path opacity="0.2" d="M101.536 52.1858L107.374 56.1798L111.394 58.9273L114.704 55.6531L118.215 52.1858L105.943 41.9329L101.536 52.1858Z" fill="white"/>
<path opacity="0.2" d="M107.374 56.1798L111.386 58.9274L114.695 55.6531C111.579 51.2641 108.041 47.0769 108.041 47.0769C107.123 50.0198 106.895 53.1345 107.374 56.1798Z" fill="black"/>
<path d="M145.445 39.8525C145.445 39.8525 154.372 49.9737 158.208 50.8252C162.044 51.6766 166.521 33.3391 166.521 33.3391L170.146 34.4189C170.146 34.4189 167.565 55.6794 160.13 56.6626C152.695 57.6457 140.099 47.0769 140.099 47.0769L145.445 39.8525Z" fill="#EBB376"/>
<path d="M132.093 15.5284C132.541 16.7155 133.131 17.8443 133.849 18.8904C133.591 19.1674 133.263 19.3686 132.899 19.4722C132.536 19.5759 132.151 19.5781 131.786 19.4785L132.093 15.5284Z" fill="#D58745"/>
<path d="M133.085 13.6235C133.085 14.238 132.822 14.7559 132.418 14.7822C132.014 14.8085 131.645 14.3345 131.602 13.7201C131.558 13.1056 131.856 12.5877 132.269 12.5613C132.681 12.535 133.041 13.009 133.085 13.6235Z" fill="#263238"/>
<path d="M132.093 12.5789L133.392 11.9645C133.392 11.9645 132.804 13.1583 132.093 12.5789Z" fill="#263238"/>
<path d="M133.603 10.3668C133.549 10.3837 133.49 10.3837 133.436 10.3668C133.047 10.0893 132.6 9.90403 132.128 9.82495C131.657 9.74587 131.173 9.77508 130.715 9.91038C130.637 9.93975 130.55 9.9379 130.473 9.90521C130.397 9.87252 130.335 9.81149 130.302 9.7348C130.27 9.65794 130.27 9.57146 130.301 9.49419C130.332 9.41692 130.392 9.35511 130.469 9.32223C131.02 9.14905 131.602 9.1041 132.173 9.19082C132.744 9.27754 133.287 9.49365 133.761 9.82259C133.798 9.84346 133.83 9.87151 133.856 9.90506C133.881 9.93861 133.9 9.97698 133.911 10.0179C133.921 10.0588 133.924 10.1015 133.918 10.1433C133.911 10.1852 133.897 10.2254 133.875 10.2615C133.841 10.2991 133.799 10.3282 133.751 10.3464C133.704 10.3647 133.653 10.3717 133.603 10.3668Z" fill="#263238"/>
<path d="M132.497 17.5737C131.382 17.5737 130.504 16.0551 130.504 14.1151C130.504 12.1751 131.382 10.6565 132.497 10.6565C133.612 10.6565 134.489 12.1751 134.489 14.1151C134.489 16.0551 133.612 17.5737 132.497 17.5737ZM132.497 11.0954C131.619 11.0954 130.943 12.4736 130.943 14.1151C130.943 15.7566 131.654 17.1348 132.497 17.1348C133.34 17.1348 134.051 15.7478 134.051 14.1151C134.051 12.4824 133.331 11.0954 132.497 11.0954Z" fill="#263238"/>
<path d="M119.058 24.9561C119.121 25.0144 119.192 25.0645 119.268 25.1053C120.25 25.8583 121.372 26.4075 122.569 26.7204C126.08 27.528 128.441 27.054 129.995 25.474C132.172 23.1039 132.716 18.9079 132.409 13.8517C132.359 11.8331 131.986 9.83565 131.303 7.93529C131.303 7.93529 131.303 7.86506 131.303 7.8475C131.278 7.77577 131.248 7.70544 131.215 7.63682C130.788 6.56643 130.1 5.61967 129.214 4.88237C128.328 4.14508 127.272 3.64056 126.142 3.41455C125.158 3.19875 124.155 3.08694 123.148 3.08098C113.273 2.97564 111.5 19.3205 119.058 24.9561Z" fill="#EBB376"/>
<path opacity="0.2" d="M119.286 25.1053C120.277 25.8134 121.399 26.3177 122.586 26.5888C126.098 27.3876 128.459 26.7995 130.013 25.1931C127.927 25.7127 125.728 25.5339 123.754 24.6839C123.026 24.4114 122.245 24.3077 121.471 24.3807C120.697 24.4537 119.95 24.7014 119.286 25.1053Z" fill="black"/>
<path d="M118.267 34.0238C117.653 36.8328 121.296 37.974 121.296 37.974C127.247 35.4371 128.318 32.2682 128.318 32.2682C123.35 29.6348 124.807 22.3577 124.807 22.3577L123.798 22.8493L116.705 24.2362C116.705 24.2362 118.671 28.0108 118.935 28.8711C120.295 33.4006 118.267 34.0238 118.267 34.0238Z" fill="#EBB376"/>
<path d="M131.312 7.87383C131.312 7.87383 131.856 14.791 125.299 17.7668C125.299 17.7668 122.49 24.956 118.338 25.0526C112.693 25.193 107.708 17.1523 109.665 8.96232C112.202 -1.6592 128.292 -2.51946 131.312 7.87383Z" fill="#263238"/>
<path d="M128.626 15.7741C128.626 14.6944 127.748 12.8862 126.071 13.1407C124.395 13.3953 123.376 17.679 127.643 18.6358C128.257 18.7236 128.626 18.0301 128.626 15.7741Z" fill="#EBB376"/>
<path d="M119.286 0.517784C119.286 0.517784 125.887 -1.15005 129.53 1.50094C133.796 4.59962 135.411 7.81241 130.364 12.7896C130.364 12.7896 119.286 9.19056 115.599 9.95426C113.446 10.3918 111.332 11.0054 109.279 11.7889C108.489 4.46794 115.582 -0.974495 119.286 0.517784Z" fill="#263238"/>
<path d="M134.27 13.8254H127.643C127.585 13.8232 127.531 13.7994 127.49 13.7587C127.449 13.718 127.425 13.6635 127.423 13.606C127.423 13.5478 127.446 13.4919 127.487 13.4508C127.529 13.4096 127.584 13.3865 127.643 13.3865H134.27C134.328 13.3865 134.384 13.4096 134.425 13.4508C134.466 13.4919 134.49 13.5478 134.49 13.606C134.49 13.6642 134.466 13.72 134.425 13.7611C134.384 13.8023 134.328 13.8254 134.27 13.8254Z" fill="#263238"/>
<path d="M114.379 4.67863C114.379 4.67863 107.55 -1.00959 101.8 3.1249C94.7071 8.18987 102.607 27.8353 103.081 32.7686C103.555 37.7019 101.159 39.8964 101.159 39.8964C101.159 39.8964 106.426 40.0105 108.357 31.645C110.288 23.2794 104.337 9.26958 111.939 10.9199L114.379 4.67863Z" fill="#263238"/>
<path d="M138.018 33.3391C138.018 33.3391 130.118 30.7057 118.268 33.9273C106.417 37.1488 105.978 41.9329 105.978 41.9329C105.978 41.9329 113.501 58.0232 114.686 76.2465L145.62 75.1493C145.62 75.1493 149.298 49.447 138.018 33.3391Z" fill="#23AA49"/>
<path opacity="0.2" d="M105.943 41.9241C105.943 41.9241 113.475 58.0232 114.66 76.2465L145.62 75.1581C145.989 72.2024 146.177 69.2269 146.182 66.2483C146.24 61.8749 145.947 57.5039 145.304 53.1777C144.277 46.4361 142.144 39.238 138.009 33.3391C138.009 33.3391 130.109 30.7057 118.259 33.9273C106.408 37.1488 105.943 41.9241 105.943 41.9241Z" fill="white"/>
<path opacity="0.2" d="M137.931 47.0769C137.931 47.0769 139.739 61.6837 146.173 66.2483C146.232 61.8749 145.938 57.504 145.295 53.1777L137.931 47.0769Z" fill="black"/>
<path d="M138.018 33.3391C147.209 37.1137 154.056 44.5839 154.056 44.5839L146.594 53.7307C146.594 53.7307 142.873 52.9582 140.634 50.9305C134.024 44.9789 138.018 33.3391 138.018 33.3391Z" fill="#23AA49"/>
<path opacity="0.2" d="M138.018 33.3391C147.209 37.1137 154.056 44.5839 154.056 44.5839L146.594 53.7307C146.594 53.7307 142.873 52.9582 140.634 50.9305C134.024 44.9789 138.018 33.3391 138.018 33.3391Z" fill="white"/>
<path d="M166.293 34.2433C166.342 33.3662 166.342 32.487 166.293 31.6098C166.205 30.4336 172.113 24.008 173.069 24.3416C174.026 24.6751 176.107 28.7921 175.475 30.1702C174.843 31.5484 170.208 35.7092 169.075 36.0253C167.943 36.3413 166.293 34.2433 166.293 34.2433Z" fill="#EBB376"/>
</svg>
