<svg width="18" height="20" viewBox="0 0 18 20" fill="none" xmlns="http://www.w3.org/2000/svg">
<path d="M9.4477 0.0241126C9.95123 0.0848662 9.95123 0.0848662 10.4785 0.612084C10.5304 0.875096 10.5304 0.875096 10.5835 1.14342C10.6884 1.69786 10.6884 1.69786 11.1642 1.92601C11.3403 1.99261 11.5163 2.05921 11.6976 2.12783C13.181 2.80284 14.2967 3.9522 14.9738 5.43955C15.2237 6.14872 15.3226 6.7422 15.381 7.4896C15.4019 7.73987 15.4228 7.99014 15.4443 8.24799C15.4638 8.50641 15.4834 8.76484 15.5035 9.03109C15.5445 9.54428 15.586 10.0574 15.6281 10.5705C15.6454 10.7968 15.6628 11.0231 15.6807 11.2563C15.7578 12.018 15.8884 12.7737 16.0142 13.5289C11.3167 13.5289 6.61922 13.5289 1.77936 13.5289C1.95334 12.311 2.12732 11.0932 2.30658 9.8384C2.34925 9.19092 2.38501 8.54283 2.40543 7.89428C2.55322 5.72587 3.06513 4.49139 4.66258 3.01751C5.28525 2.50268 5.73349 2.19374 6.49137 1.89718C7.1231 1.70957 7.1231 1.70957 7.38105 0.991022C7.44629 0.778981 7.51153 0.566941 7.57875 0.348475C8.07826 -0.151035 8.78381 0.0373662 9.4477 0.0241126Z" fill="#23AA49"/>
<path d="M0.197707 15.1106C5.93911 15.1106 11.6805 15.1106 17.5959 15.1106C17.8595 16.165 17.8595 16.165 17.5959 16.6922C15.5081 16.6922 13.4203 16.6922 11.2693 16.6922C11.2693 17.3012 11.2693 17.9101 11.2693 18.5375C10.7453 19.3072 10.3647 19.753 9.44049 19.9822C8.3959 20.0554 7.93091 19.9164 7.05154 19.3119C6.52432 18.5375 6.52432 18.5375 6.52432 16.6922C4.43654 16.6922 2.34876 16.6922 0.197707 16.6922C-0.0659022 15.6378 -0.0659022 15.6378 0.197707 15.1106Z" fill="#23AA49"/>
</svg>
