<svg width="20" height="19" viewBox="0 0 20 19" fill="none" xmlns="http://www.w3.org/2000/svg">
<path d="M10.0498 13.028C10.2517 13.0315 10.4536 13.035 10.6616 13.0386C10.8628 13.0351 11.0639 13.0316 11.2712 13.028C11.8999 13.2083 11.8999 13.2083 12.447 13.8836C13.7059 14.9431 15.0029 14.7775 16.5988 14.7859C17.0557 14.7961 17.0557 14.7961 17.5217 14.8065C18.2716 14.8225 19.021 14.8324 19.771 14.8368C20.0763 15.8546 20.0763 15.8546 19.771 16.4652C19.5808 16.4664 19.3905 16.4675 19.1946 16.4686C18.3291 16.4776 17.4641 16.4968 16.5988 16.5161C16.1498 16.5185 16.1498 16.5185 15.6918 16.5209C13.9174 16.5356 13.9174 16.5356 12.4374 17.4184C12.2601 17.6413 12.0827 17.8641 11.8999 18.0937C11.3401 18.274 11.3401 18.274 10.8142 18.2634C10.6407 18.2669 10.4672 18.2704 10.2884 18.274C9.72858 18.0937 9.72858 18.0937 9.13466 17.4159C8.18338 16.5692 7.71496 16.5608 6.4578 16.5448C6.27899 16.5407 6.10018 16.5366 5.91595 16.5323C5.34902 16.5207 4.78248 16.5183 4.21544 16.5161C3.82933 16.5099 3.44323 16.503 3.05715 16.4955C2.11444 16.4784 1.17187 16.4696 0.229008 16.4652C-0.0763359 15.4474 -0.0763359 15.4474 0.229008 14.8368C0.469983 14.8356 0.710957 14.8345 0.959235 14.8334C1.85578 14.826 2.75183 14.8127 3.64822 14.7953C4.0357 14.7891 4.42322 14.7851 4.81075 14.7837C5.3689 14.7811 5.92632 14.77 6.48431 14.7572C6.98747 14.7508 6.98747 14.7508 7.5008 14.7443C8.8182 14.4735 8.89316 13.3798 10.0498 13.028ZM10.2714 15.1082C10.2714 15.4664 10.2714 15.8247 10.2714 16.1938C10.6297 16.1938 10.988 16.1938 11.3571 16.1938C11.3571 15.8356 11.3571 15.4773 11.3571 15.1082C10.9988 15.1082 10.6405 15.1082 10.2714 15.1082Z" fill="#23AA49"/>
<path d="M6.79283 6.51398C6.99471 6.51748 7.19659 6.52097 7.40458 6.52458C7.60576 6.52108 7.80693 6.51758 8.01421 6.51398C8.64292 6.69421 8.64292 6.69421 9.21888 7.37203C10.2178 8.24066 11.0053 8.24973 12.2699 8.2432C12.5924 8.24935 12.5924 8.24935 12.9213 8.25563C13.6044 8.26725 14.2871 8.26967 14.9703 8.27182C15.4349 8.27811 15.8994 8.28499 16.364 8.2925C17.4997 8.30954 18.6352 8.31833 19.771 8.32271C20.0763 9.34052 20.0763 9.34052 19.771 9.95121C19.4821 9.95233 19.1932 9.95344 18.8956 9.95459C17.8206 9.96051 16.7458 9.97526 15.6709 9.99263C15.2063 9.99891 14.7417 10.0028 14.277 10.0043C13.6077 10.0068 12.9391 10.018 12.2699 10.0307C11.9598 10.0291 11.9598 10.0291 11.6435 10.0275C10.5349 10.0577 10.0655 10.166 9.21458 10.9019C9.02593 11.1256 8.83728 11.3493 8.64292 11.5797C8.08312 11.7599 8.08312 11.7599 7.55725 11.7493C7.38372 11.7528 7.21018 11.7563 7.03138 11.7599C6.47159 11.5797 6.47159 11.5797 5.88316 10.9043C4.81508 9.95707 3.96992 10.0119 2.58694 10.0021C2.36005 9.99528 2.13315 9.98846 1.89939 9.98143C1.34273 9.96552 0.785855 9.95757 0.229008 9.95121C-0.0763359 8.9334 -0.0763359 8.9334 0.229008 8.32271C0.569084 8.31886 0.90916 8.31502 1.25954 8.31105C1.70767 8.29832 2.15579 8.28522 2.6039 8.27182C2.82782 8.27025 3.05174 8.26867 3.28244 8.26705C3.92062 8.24389 4.49487 8.2074 5.1145 8.0513C6.41841 6.62784 6.41841 6.62784 6.79283 6.51398ZM7.01442 8.59413C7.01442 8.9524 7.01442 9.31067 7.01442 9.6798C7.37269 9.6798 7.73096 9.6798 8.10009 9.6798C8.10009 9.32153 8.10009 8.96326 8.10009 8.59413C7.74182 8.59413 7.38355 8.59413 7.01442 8.59413Z" fill="#23AA49"/>
<path d="M13.3068 0C13.9514 0.0111711 14.528 0.0327342 15.1569 0.180237C15.364 0.398558 15.5712 0.616879 15.7846 0.841815C16.9251 1.92931 18.2491 1.78204 19.771 1.80874C20.0763 2.82655 20.0763 2.82655 19.771 3.43723C19.2523 3.48577 18.7312 3.50998 18.2103 3.52205C16.6649 3.61682 16.21 3.92487 15.1569 5.06573C14.393 5.26933 13.7391 5.30833 12.9856 5.06573C12.8043 4.84206 12.623 4.61838 12.4362 4.38792C11.3063 3.43767 10.436 3.51044 9.00233 3.51675C8.62568 3.5106 8.62568 3.5106 8.24141 3.50431C7.44219 3.49268 6.64324 3.49028 5.84394 3.48813C5.30092 3.48184 4.75791 3.47496 4.21491 3.46745C2.88625 3.45039 1.55777 3.44162 0.229008 3.43723C-0.0763359 2.41942 -0.0763359 2.41942 0.229008 1.80874C0.568647 1.80762 0.908286 1.80651 1.25822 1.80536C2.51884 1.79945 3.77924 1.78471 5.03976 1.76732C5.58522 1.76103 6.13071 1.75712 6.67621 1.75566C7.46063 1.75314 8.24453 1.74202 9.02884 1.72922C9.39446 1.73082 9.39446 1.73082 9.76746 1.73245C11.1953 1.71853 11.1953 1.71853 12.2968 0.85805C12.7142 0.180237 12.7142 0.180237 13.3068 0ZM13.5284 2.08015C13.5284 2.43842 13.5284 2.79669 13.5284 3.16582C13.8867 3.16582 14.245 3.16582 14.6141 3.16582C14.6141 2.80755 14.6141 2.44928 14.6141 2.08015C14.2558 2.08015 13.8975 2.08015 13.5284 2.08015Z" fill="#23AA49"/>
</svg>
