<svg width="21" height="21" viewBox="0 0 21 21" fill="none" xmlns="http://www.w3.org/2000/svg">
<path d="M15.0723 0.952061C17.6203 2.61068 19.5456 4.69985 20.3496 7.66096C20.6849 10.6954 20.5875 13.566 18.707 16.0672C17.0345 18.0401 15.0664 19.7705 12.3927 20.0659C8.99033 20.2454 6.4813 20.0107 3.80509 17.742C1.9678 15.9855 0.644456 14.061 0.5069 11.4542C0.43352 7.80191 0.913099 5.49919 3.51471 2.77796C6.48359 0.0242891 11.3435 -0.870473 15.0723 0.952061ZM9.65141 4.3692C9.65141 6.81333 9.65141 9.25747 9.65141 11.7757C10.1945 11.7757 10.7377 11.7757 11.2973 11.7757C11.2973 9.33154 11.2973 6.8874 11.2973 4.3692C10.7541 4.3692 10.211 4.3692 9.65141 4.3692ZM9.92572 14.2445C9.8352 14.6971 9.74467 15.1497 9.65141 15.6161C10.3303 15.7519 10.3303 15.7519 11.023 15.8904C11.1135 15.4378 11.204 14.9851 11.2973 14.5188C10.8447 14.4283 10.3921 14.3378 9.92572 14.2445Z" fill="#CFCFCF"/>
</svg>
