<svg width="62" height="67" viewBox="0 0 62 67" fill="none" xmlns="http://www.w3.org/2000/svg">
<path d="M3.75005 15C21.57 15 39.39 15 57.75 15C57.75 34.5557 57.75 34.5557 57.25 41.5625C57.2024 42.2966 57.1547 43.0307 57.1055 43.7871C56.9919 45.5251 56.8718 47.2626 56.75 49C54.7481 49.4557 52.7461 49.9115 50.7442 50.3672C48.5137 50.9436 48.5137 50.9436 46.25 53C44.652 56.1961 44.5882 57.6905 44.6563 61.1875C44.6698 62.0886 44.6834 62.9896 44.6973 63.918C44.7234 64.9486 44.7234 64.9486 44.75 66C39.6781 66.0988 34.6067 66.1715 29.534 66.2197C27.8083 66.2398 26.0827 66.2671 24.3572 66.3018C21.8773 66.3503 19.3983 66.373 16.918 66.3906C16.146 66.4113 15.3741 66.4319 14.5787 66.4532C9.29994 66.4554 9.29994 66.4554 6.7852 64.3728C5.48089 61.383 5.21633 58.9036 5.01958 55.6445C4.93901 54.3806 4.85845 53.1167 4.77544 51.8145C4.74039 51.1545 4.70534 50.4946 4.66924 49.8147C4.56525 47.8633 4.44016 45.913 4.3145 43.9629C3.73367 34.2646 3.75005 24.7508 3.75005 15Z" fill="#868888"/>
<path d="M21.75 0C34.62 0 47.49 0 60.75 0C60.75 2.97 60.75 5.94 60.75 9C40.95 9 21.15 9 0.75 9C-0.25 5 -0.25 5 0.75 3C10.65 2.505 10.65 2.505 20.75 2C21.08 1.34 21.41 0.68 21.75 0Z" fill="#868889"/>
<path d="M52.625 53.7344C53.3263 53.7395 54.0275 53.7447 54.75 53.75C55.4513 53.7448 56.1525 53.7397 56.875 53.7344C58.75 54 58.75 54 60.75 56C61.0156 57.875 61.0156 57.875 61 60C61.0052 60.7013 61.0103 61.4025 61.0156 62.125C60.75 64 60.75 64 58.75 66C56.875 66.2656 56.875 66.2656 54.75 66.25C54.0487 66.2552 53.3475 66.2603 52.625 66.2656C50.75 66 50.75 66 48.75 64C48.4844 62.125 48.4844 62.125 48.5 60C48.4948 59.2987 48.4897 58.5975 48.4844 57.875C48.869 55.1602 49.9102 54.119 52.625 53.7344Z" fill="#868789"/>
</svg>
