<svg width="31" height="35" viewBox="0 0 31 35" fill="none" xmlns="http://www.w3.org/2000/svg">
<g filter="url(#filter0_d_1_794)">
<path d="M5.37554 7.33643C11.9123 7.33643 18.449 7.33643 25.1838 7.33643C25.1838 9.48476 25.1426 11.4863 24.8886 13.5981C24.8578 13.8642 24.8269 14.1303 24.7952 14.4044C24.7301 14.9612 24.6641 15.5178 24.5972 16.0743C24.4959 16.9198 24.3991 17.7658 24.3025 18.6118C24.2383 19.1568 24.1738 19.7018 24.1091 20.2467C24.0666 20.6205 24.0666 20.6205 24.0233 21.0019C23.8233 22.6314 23.5157 24.1289 22.9829 25.6774C21.7903 26.2737 20.4779 26.1118 19.1671 26.1187C18.7085 26.1218 18.7085 26.1218 18.2406 26.125C17.5933 26.1285 16.9461 26.1309 16.2989 26.1323C15.3078 26.1359 14.317 26.1473 13.3259 26.1588C12.6976 26.1612 12.0693 26.1631 11.441 26.1646C11.144 26.1691 10.8471 26.1736 10.5412 26.1783C8.47026 26.17 8.47026 26.17 7.68868 25.5559C6.93928 24.5982 6.93522 23.6469 6.7941 22.4519C6.76396 22.2081 6.73382 21.9642 6.70277 21.7129C6.60744 20.9333 6.5187 20.1531 6.43015 19.3727C6.36801 18.8546 6.30545 18.3366 6.24244 17.8187C6.12264 16.8295 6.00612 15.8399 5.89246 14.8499C5.77855 13.8804 5.65249 12.9153 5.51597 11.9489C5.35216 10.4194 5.37554 8.87463 5.37554 7.33643Z" fill="#23AA49"/>
<path d="M14.546 0C15.4539 0.181575 15.4539 0.181575 16.3801 0.366819C16.3801 0.85102 16.3801 1.33522 16.3801 1.83409C18.6801 1.83409 20.98 1.83409 23.3497 1.83409C23.5313 2.37882 23.5313 2.37882 23.7165 2.93455C24.5639 2.93455 25.4112 2.93455 26.2842 2.93455C26.6969 4.31012 26.6969 4.31012 26.2842 5.13546C19.0212 5.13546 11.7582 5.13546 4.27511 5.13546C3.9083 3.66819 3.9083 3.66819 4.27511 2.93455C5.12247 2.93455 5.96982 2.93455 6.84285 2.93455C6.9639 2.5714 7.08495 2.20825 7.20967 1.83409C9.50962 1.83409 11.8096 1.83409 14.1792 1.83409C14.3003 1.22884 14.4213 0.623592 14.546 0Z" fill="#23AA49"/>
</g>
<defs>
<filter id="filter0_d_1_794" x="0" y="0" width="30.5938" height="34.1782" filterUnits="userSpaceOnUse" color-interpolation-filters="sRGB">
<feFlood flood-opacity="0" result="BackgroundImageFix"/>
<feColorMatrix in="SourceAlpha" type="matrix" values="0 0 0 0 0 0 0 0 0 0 0 0 0 0 0 0 0 0 127 0" result="hardAlpha"/>
<feOffset dy="4"/>
<feGaussianBlur stdDeviation="2"/>
<feComposite in2="hardAlpha" operator="out"/>
<feColorMatrix type="matrix" values="0 0 0 0 0 0 0 0 0 0 0 0 0 0 0 0 0 0 0.25 0"/>
<feBlend mode="normal" in2="BackgroundImageFix" result="effect1_dropShadow_1_794"/>
<feBlend mode="normal" in="SourceGraphic" in2="effect1_dropShadow_1_794" result="shape"/>
</filter>
</defs>
</svg>
