<svg width="20" height="18" viewBox="0 0 20 18" fill="none" xmlns="http://www.w3.org/2000/svg">
<path d="M10.5029 0.01723C11.3972 0.238998 11.7654 0.670422 12.2725 1.41513C12.2926 2.00995 12.2949 2.60588 12.2725 3.20062C12.7011 3.17843 12.7011 3.17843 13.1383 3.15578C13.5139 3.14382 13.8896 3.13222 14.2652 3.12091C14.4534 3.11022 14.6417 3.09954 14.8356 3.08853C15.3861 3.07607 15.3861 3.07607 16.3536 3.20062C17.1944 4.25097 17.4663 5.53088 17.8073 6.80747C17.8685 7.03234 17.9297 7.25721 17.9927 7.4889C18.1212 7.96372 18.2487 8.43881 18.3753 8.91416C18.5681 9.63608 18.7661 10.3565 18.9646 11.0769C19.0893 11.5401 19.2136 12.0034 19.3377 12.4668C19.3967 12.6797 19.4556 12.8926 19.5164 13.112C19.8705 14.4643 20.1365 15.8299 19.9246 17.2295C19.1882 17.9658 18.6628 17.8043 17.6319 17.8056C17.3569 17.8069 17.3569 17.8069 17.0763 17.8083C16.4687 17.8106 15.8612 17.8091 15.2536 17.8074C14.8324 17.8077 14.4111 17.8082 13.9899 17.8088C13.1065 17.8096 12.223 17.8085 11.3396 17.8061C10.2056 17.8032 9.07174 17.8049 7.93777 17.8079C7.06776 17.8098 6.19777 17.8092 5.32777 17.8079C4.90958 17.8075 4.49139 17.8079 4.0732 17.8091C3.48935 17.8104 2.9056 17.8085 2.32175 17.8056C1.98911 17.8052 1.65647 17.8048 1.31374 17.8044C0.539255 17.7396 0.539255 17.7396 0.0291156 17.2295C-0.0977299 15.4592 0.202728 13.9698 0.680739 12.2725C0.747468 12.0279 0.814196 11.7832 0.882947 11.5312C1.02351 11.0183 1.16549 10.5058 1.30882 9.99366C1.52849 9.2077 1.7431 8.42048 1.95708 7.63296C2.09462 7.13353 2.23244 6.63418 2.37058 6.13492C2.4349 5.89926 2.49921 5.66361 2.56548 5.42081C2.62672 5.20356 2.68797 4.98632 2.75106 4.76249C2.80431 4.57117 2.85755 4.37985 2.9124 4.18273C3.08995 3.71076 3.08995 3.71076 3.60009 3.20062C4.30022 3.16362 4.97359 3.15304 5.67253 3.16874C5.86488 3.17104 6.05723 3.17334 6.25541 3.17571C6.73071 3.18173 7.20597 3.19088 7.68121 3.20062C7.67069 2.92147 7.66016 2.64232 7.64932 2.35471C7.68121 1.41513 7.68121 1.41513 8.19135 0.665864C9.04223 0.080882 9.49216 -0.0535994 10.5029 0.01723ZM9.4667 1.92527C9.4667 2.26196 9.4667 2.59866 9.4667 2.94555C9.80339 2.94555 10.1401 2.94555 10.487 2.94555C10.487 2.60886 10.487 2.27217 10.487 1.92527C10.1503 1.92527 9.81359 1.92527 9.4667 1.92527Z" fill="#868889"/>
</svg>
